# MagicaVoxel @ Ephtracy

# group
o 

# material
mtllib glue_wall_a.mtl
usemtl palette

# normals
vn -1 0 0
vn 1 0 0
vn 0 0 1
vn 0 0 -1
vn 0 -1 0
vn 0 1 0

# texcoords
vt 0.638672 0.5
vt 0.642578 0.5
vt 0.970703 0.5
vt 0.974609 0.5
vt 0.978516 0.5
vt 0.982422 0.5
vt 0.986328 0.5

# verts
v -2 0 -1.8
v -2 0 -1.9
v -2 0 -2
v -2 0.2 -1.8
v -2 0.2 -1.9
v -2 0.2 -2
v -2 2.7 -1.9
v -2 2.7 -2
v -2 2.8 -1.9
v -2 2.8 -2
v -2 3 -1.9
v -2 3 -2
v -2 3.7 -1.8
v -2 3.7 -1.9
v -2 3.9 -1.7
v -2 3.9 -1.8
v -2 4 -1.7
v -2 4 -2
v -0.3 0 -1.6
v -0.3 0 -1.8
v -0.3 0.2 -1.6
v -0.3 0.2 -1.8
v -0.3 3.7 -1.6
v -0.3 3.7 -1.7
v -0.3 3.7 -1.8
v -0.3 3.9 -1.7
v -0.3 3.9 -1.8
v -0.3 4 -1.6
v -0.3 4 -1.7
v -0.2 0.2 -1.7
v -0.2 0.2 -1.9
v -0.2 2.7 -1.9
v -0.2 2.8 -1.9
v -0.2 3 -1.9
v -0.2 3.7 -1.7
v -0.2 3.7 -1.8
v -0.2 3.7 -1.9
v 0.2 0.2 -1.7
v 0.2 0.2 -1.9
v 0.2 2.7 -1.9
v 0.2 2.8 -1.9
v 0.2 3 -1.9
v 0.2 3.7 -1.7
v 0.2 3.7 -1.8
v 0.2 3.7 -1.9
v 0.3 0 -1.6
v 0.3 0 -1.8
v 0.3 0.2 -1.6
v 0.3 0.2 -1.8
v 0.3 3.7 -1.6
v 0.3 3.7 -1.7
v 0.3 3.7 -1.8
v 0.3 3.9 -1.7
v 0.3 3.9 -1.8
v 0.3 4 -1.6
v 0.3 4 -1.7
v 2 0 -1.8
v 2 0 -2
v 2 0.2 -1.8
v 2 0.2 -1.9
v 2 2.7 -1.9
v 2 2.7 -2
v 2 2.8 -1.9
v 2 2.8 -2
v 2 3 -1.9
v 2 3 -2
v 2 3.7 -1.8
v 2 3.7 -1.9
v 2 3.9 -1.7
v 2 3.9 -1.8
v 2 4 -1.7
v 2 4 -2
v -0.3 0 -1.6
v -0.3 0.2 -1.6
v -0.3 3.7 -1.6
v -0.3 4 -1.6
v 0.3 0 -1.6
v 0.3 0.2 -1.6
v 0.3 3.7 -1.6
v 0.3 4 -1.6
v -2 3.9 -1.7
v -2 4 -1.7
v -0.3 3.9 -1.7
v -0.3 4 -1.7
v -0.2 0.2 -1.7
v -0.2 3.7 -1.7
v -0.0999999 0.2 -1.7
v -0.0999999 3.7 -1.7
v 0.1 0.2 -1.7
v 0.1 3.7 -1.7
v 0.2 0.2 -1.7
v 0.2 3.7 -1.7
v 0.3 3.9 -1.7
v 0.3 4 -1.7
v 2 3.9 -1.7
v 2 4 -1.7
v -2 0 -1.8
v -2 0.2 -1.8
v -2 3.7 -1.8
v -2 3.9 -1.8
v -0.3 0 -1.8
v -0.3 0.2 -1.8
v -0.3 3.7 -1.8
v -0.3 3.9 -1.8
v 0.3 0 -1.8
v 0.3 0.2 -1.8
v 0.3 3.7 -1.8
v 0.3 3.9 -1.8
v 2 0 -1.8
v 2 0.2 -1.8
v 2 3.7 -1.8
v 2 3.9 -1.8
v -2 0.2 -1.9
v -2 2.7 -1.9
v -2 2.8 -1.9
v -2 3 -1.9
v -2 3.7 -1.9
v -1.9 0.2 -1.9
v -1.9 2.7 -1.9
v -1.9 3 -1.9
v -1.9 3.7 -1.9
v -1.8 0.3 -1.9
v -1.8 2.7 -1.9
v -1.8 3 -1.9
v -1.8 3.6 -1.9
v -1.7 0.4 -1.9
v -1.7 0.5 -1.9
v -1.7 3.4 -1.9
v -1.7 3.5 -1.9
v -1.6 0.4 -1.9
v -1.6 0.5 -1.9
v -1.6 3.4 -1.9
v -1.6 3.5 -1.9
v -1.5 0.3 -1.9
v -1.5 0.5 -1.9
v -1.5 3.4 -1.9
v -1.5 3.6 -1.9
v -0.6 0.3 -1.9
v -0.6 0.5 -1.9
v -0.6 3.4 -1.9
v -0.6 3.6 -1.9
v -0.5 0.4 -1.9
v -0.5 0.5 -1.9
v -0.5 3.4 -1.9
v -0.5 3.5 -1.9
v -0.4 0.4 -1.9
v -0.4 0.5 -1.9
v -0.4 3.4 -1.9
v -0.4 3.5 -1.9
v -0.3 0.3 -1.9
v -0.3 2.7 -1.9
v -0.3 3 -1.9
v -0.3 3.6 -1.9
v -0.2 0.2 -1.9
v -0.2 2.7 -1.9
v -0.2 2.8 -1.9
v -0.2 3 -1.9
v -0.2 3.7 -1.9
v 0.2 0.2 -1.9
v 0.2 2.7 -1.9
v 0.2 2.8 -1.9
v 0.2 3 -1.9
v 0.2 3.7 -1.9
v 0.3 0.3 -1.9
v 0.3 2.7 -1.9
v 0.3 3 -1.9
v 0.3 3.6 -1.9
v 0.4 0.4 -1.9
v 0.4 0.5 -1.9
v 0.4 3.4 -1.9
v 0.4 3.5 -1.9
v 0.5 0.4 -1.9
v 0.5 0.5 -1.9
v 0.5 3.4 -1.9
v 0.5 3.5 -1.9
v 0.6 0.3 -1.9
v 0.6 0.5 -1.9
v 0.6 3.4 -1.9
v 0.6 3.6 -1.9
v 1.6 0.3 -1.9
v 1.6 0.5 -1.9
v 1.6 3.4 -1.9
v 1.6 3.6 -1.9
v 1.7 0.4 -1.9
v 1.7 0.5 -1.9
v 1.7 3.4 -1.9
v 1.7 3.5 -1.9
v 1.8 0.4 -1.9
v 1.8 0.5 -1.9
v 1.8 3.4 -1.9
v 1.8 3.5 -1.9
v 1.9 0.2 -1.9
v 1.9 0.3 -1.9
v 1.9 2.7 -1.9
v 1.9 3 -1.9
v 1.9 3.6 -1.9
v 1.9 3.7 -1.9
v 2 0.2 -1.9
v 2 2.7 -1.9
v 2 2.8 -1.9
v 2 3 -1.9
v 2 3.7 -1.9
v -2 0 -2
v -2 0.2 -2
v -2 2.7 -2
v -2 2.8 -2
v -2 3 -2
v -2 4 -2
v -1.9 0 -2
v -1.9 0.1 -2
v -1.9 0.2 -2
v -1.9 2.7 -2
v -1.9 3 -2
v -1.9 3.7 -2
v -1.9 3.9 -2
v -1.8 0.3 -2
v -1.8 2.7 -2
v -1.8 3 -2
v -1.8 3.6 -2
v -1.7 0.4 -2
v -1.7 0.5 -2
v -1.7 3.4 -2
v -1.7 3.5 -2
v -1.6 0.4 -2
v -1.6 0.5 -2
v -1.6 3.4 -2
v -1.6 3.5 -2
v -1.5 0.3 -2
v -1.5 0.5 -2
v -1.5 3.4 -2
v -1.5 3.6 -2
v -0.6 0.3 -2
v -0.6 0.5 -2
v -0.6 3.4 -2
v -0.6 3.6 -2
v -0.5 0.4 -2
v -0.5 0.5 -2
v -0.5 3.4 -2
v -0.5 3.5 -2
v -0.4 0.4 -2
v -0.4 0.5 -2
v -0.4 3.4 -2
v -0.4 3.5 -2
v -0.3 0.3 -2
v -0.3 2.7 -2
v -0.3 3 -2
v -0.3 3.6 -2
v -0.2 0.2 -2
v -0.2 2.7 -2
v -0.2 3 -2
v -0.2 3.7 -2
v -0.0999999 0.1 -2
v -0.0999999 2.7 -2
v -0.0999999 3 -2
v -0.0999999 3.8 -2
v 0.1 0.1 -2
v 0.1 2.7 -2
v 0.1 3 -2
v 0.1 3.8 -2
v 0.2 0.2 -2
v 0.2 2.7 -2
v 0.2 3 -2
v 0.2 3.7 -2
v 0.3 0.3 -2
v 0.3 2.7 -2
v 0.3 3 -2
v 0.3 3.6 -2
v 0.4 0.4 -2
v 0.4 0.5 -2
v 0.4 3.4 -2
v 0.4 3.5 -2
v 0.5 0.4 -2
v 0.5 0.5 -2
v 0.5 3.4 -2
v 0.5 3.5 -2
v 0.6 0.3 -2
v 0.6 0.5 -2
v 0.6 3.4 -2
v 0.6 3.6 -2
v 1.6 0.3 -2
v 1.6 0.5 -2
v 1.6 3.4 -2
v 1.6 3.6 -2
v 1.7 0.4 -2
v 1.7 0.5 -2
v 1.7 3.4 -2
v 1.7 3.5 -2
v 1.8 0.4 -2
v 1.8 0.5 -2
v 1.8 3.4 -2
v 1.8 3.5 -2
v 1.9 0.1 -2
v 1.9 0.2 -2
v 1.9 0.3 -2
v 1.9 2.7 -2
v 1.9 3 -2
v 1.9 3.6 -2
v 1.9 3.7 -2
v 1.9 3.9 -2
v 2 0 -2
v 2 2.7 -2
v 2 2.8 -2
v 2 3 -2
v 2 4 -2
v -0.3 0 -1.6
v 0.3 0 -1.6
v -2 0 -1.8
v -0.3 0 -1.8
v 0.3 0 -1.8
v 2 0 -1.8
v -2 0 -1.9
v -1.9 0 -1.9
v -2 0 -2
v -1.9 0 -2
v 2 0 -2
v -0.3 3.7 -1.6
v 0.3 3.7 -1.6
v -0.3 3.7 -1.7
v -0.2 3.7 -1.7
v -0.0999999 3.7 -1.7
v 0.1 3.7 -1.7
v 0.2 3.7 -1.7
v 0.3 3.7 -1.7
v -2 3.7 -1.8
v -0.3 3.7 -1.8
v -0.2 3.7 -1.8
v 0.2 3.7 -1.8
v 0.3 3.7 -1.8
v 2 3.7 -1.8
v -2 3.7 -1.9
v -1.9 3.7 -1.9
v -0.2 3.7 -1.9
v 0.2 3.7 -1.9
v 1.9 3.7 -1.9
v 2 3.7 -1.9
v -2 3.9 -1.7
v -0.3 3.9 -1.7
v 0.3 3.9 -1.7
v 2 3.9 -1.7
v -2 3.9 -1.8
v -0.3 3.9 -1.8
v 0.3 3.9 -1.8
v 2 3.9 -1.8
v -0.3 0.2 -1.6
v 0.3 0.2 -1.6
v -0.2 0.2 -1.7
v -0.0999999 0.2 -1.7
v 0.1 0.2 -1.7
v 0.2 0.2 -1.7
v -2 0.2 -1.8
v -0.3 0.2 -1.8
v 0.3 0.2 -1.8
v 2 0.2 -1.8
v -2 0.2 -1.9
v -1.9 0.2 -1.9
v -0.2 0.2 -1.9
v 0.2 0.2 -1.9
v 1.9 0.2 -1.9
v 2 0.2 -1.9
v -0.3 4 -1.6
v 0.3 4 -1.6
v -2 4 -1.7
v -0.3 4 -1.7
v 0.3 4 -1.7
v 2 4 -1.7
v -2 4 -2
v 2 4 -2

# faces
f 4/6/1 2/6/1 1/6/1
f 5/4/1 3/4/1 2/4/1
f 5/6/1 2/6/1 4/6/1
f 6/4/1 3/4/1 5/4/1
f 7/6/1 6/6/1 5/6/1
f 8/6/1 6/6/1 7/6/1
f 9/2/1 8/2/1 7/2/1
f 10/2/1 8/2/1 9/2/1
f 11/1/1 10/1/1 9/1/1
f 12/1/1 10/1/1 11/1/1
f 14/6/1 12/6/1 11/6/1
f 16/6/1 14/6/1 13/6/1
f 17/6/1 16/6/1 15/6/1
f 18/6/1 12/6/1 14/6/1
f 18/6/1 16/6/1 17/6/1
f 18/6/1 14/6/1 16/6/1
f 21/6/1 20/6/1 19/6/1
f 22/6/1 20/6/1 21/6/1
f 26/6/1 24/6/1 23/6/1
f 26/7/1 25/7/1 24/7/1
f 27/7/1 25/7/1 26/7/1
f 28/6/1 26/6/1 23/6/1
f 29/6/1 26/6/1 28/6/1
f 32/6/1 31/6/1 30/6/1
f 33/6/1 32/6/1 30/6/1
f 34/6/1 33/6/1 30/6/1
f 35/6/1 34/6/1 30/6/1
f 36/6/1 34/6/1 35/6/1
f 37/6/1 34/6/1 36/6/1
f 38/6/2 39/6/2 40/6/2
f 38/6/2 40/6/2 41/6/2
f 38/6/2 41/6/2 42/6/2
f 38/6/2 42/6/2 43/6/2
f 43/6/2 42/6/2 44/6/2
f 44/6/2 42/6/2 45/6/2
f 46/6/2 47/6/2 48/6/2
f 48/6/2 47/6/2 49/6/2
f 50/6/2 51/6/2 53/6/2
f 51/7/2 52/7/2 53/7/2
f 53/7/2 52/7/2 54/7/2
f 50/6/2 53/6/2 55/6/2
f 55/6/2 53/6/2 56/6/2
f 57/6/2 58/6/2 59/6/2
f 59/6/2 58/6/2 60/6/2
f 60/6/2 58/6/2 61/6/2
f 61/6/2 58/6/2 62/6/2
f 61/2/2 62/2/2 63/2/2
f 63/2/2 62/2/2 64/2/2
f 63/1/2 64/1/2 65/1/2
f 65/1/2 64/1/2 66/1/2
f 65/6/2 66/6/2 68/6/2
f 67/6/2 68/6/2 70/6/2
f 69/6/2 70/6/2 71/6/2
f 68/6/2 66/6/2 72/6/2
f 71/6/2 70/6/2 72/6/2
f 70/6/2 68/6/2 72/6/2
f 77/6/3 74/6/3 73/6/3
f 78/6/3 74/6/3 77/6/3
f 79/6/3 76/6/3 75/6/3
f 80/6/3 76/6/3 79/6/3
f 83/6/3 82/6/3 81/6/3
f 84/6/3 82/6/3 83/6/3
f 87/6/3 86/6/3 85/6/3
f 88/6/3 86/6/3 87/6/3
f 89/4/3 88/4/3 87/4/3
f 90/4/3 88/4/3 89/4/3
f 91/6/3 90/6/3 89/6/3
f 92/6/3 90/6/3 91/6/3
f 95/6/3 94/6/3 93/6/3
f 96/6/3 94/6/3 95/6/3
f 101/6/3 98/6/3 97/6/3
f 102/6/3 98/6/3 101/6/3
f 103/6/3 100/6/3 99/6/3
f 104/6/3 100/6/3 103/6/3
f 109/6/3 106/6/3 105/6/3
f 110/6/3 106/6/3 109/6/3
f 111/6/3 108/6/3 107/6/3
f 112/6/3 108/6/3 111/6/3
f 118/6/3 114/6/3 113/6/3
f 119/2/3 115/2/3 114/2/3
f 119/6/3 114/6/3 118/6/3
f 120/6/3 117/6/3 116/6/3
f 120/1/3 116/1/3 115/1/3
f 121/6/3 117/6/3 120/6/3
f 122/5/3 119/5/3 118/5/3
f 123/2/3 115/2/3 119/2/3
f 123/5/3 119/5/3 122/5/3
f 124/1/3 120/1/3 115/1/3
f 124/5/3 121/5/3 120/5/3
f 125/5/3 121/5/3 124/5/3
f 126/4/3 123/4/3 122/4/3
f 127/4/3 123/4/3 126/4/3
f 128/4/3 125/4/3 124/4/3
f 129/4/3 125/4/3 128/4/3
f 130/4/3 126/4/3 122/4/3
f 130/3/3 127/3/3 126/3/3
f 131/4/3 123/4/3 127/4/3
f 131/3/3 127/3/3 130/3/3
f 132/3/3 129/3/3 128/3/3
f 132/4/3 128/4/3 124/4/3
f 133/4/3 125/4/3 129/4/3
f 133/3/3 129/3/3 132/3/3
f 134/5/3 122/5/3 118/5/3
f 134/4/3 130/4/3 122/4/3
f 134/4/3 131/4/3 130/4/3
f 135/4/3 123/4/3 131/4/3
f 135/4/3 131/4/3 134/4/3
f 136/4/3 133/4/3 132/4/3
f 136/4/3 132/4/3 124/4/3
f 137/4/3 125/4/3 133/4/3
f 137/4/3 133/4/3 136/4/3
f 137/5/3 121/5/3 125/5/3
f 138/5/3 134/5/3 118/5/3
f 138/5/3 135/5/3 134/5/3
f 139/4/3 123/4/3 135/4/3
f 139/5/3 135/5/3 138/5/3
f 140/4/3 136/4/3 124/4/3
f 140/5/3 137/5/3 136/5/3
f 141/5/3 121/5/3 137/5/3
f 141/5/3 137/5/3 140/5/3
f 142/4/3 139/4/3 138/4/3
f 143/4/3 123/4/3 139/4/3
f 143/4/3 139/4/3 142/4/3
f 144/4/3 140/4/3 124/4/3
f 144/4/3 141/4/3 140/4/3
f 145/4/3 141/4/3 144/4/3
f 146/4/3 142/4/3 138/4/3
f 146/3/3 143/3/3 142/3/3
f 147/4/3 123/4/3 143/4/3
f 147/3/3 143/3/3 146/3/3
f 148/3/3 145/3/3 144/3/3
f 148/4/3 144/4/3 124/4/3
f 149/4/3 141/4/3 145/4/3
f 149/3/3 145/3/3 148/3/3
f 150/4/3 146/4/3 138/4/3
f 150/5/3 138/5/3 118/5/3
f 150/4/3 147/4/3 146/4/3
f 151/2/3 115/2/3 123/2/3
f 151/4/3 147/4/3 150/4/3
f 151/4/3 123/4/3 147/4/3
f 152/4/3 148/4/3 124/4/3
f 152/1/3 124/1/3 115/1/3
f 152/4/3 149/4/3 148/4/3
f 153/4/3 141/4/3 149/4/3
f 153/4/3 149/4/3 152/4/3
f 153/5/3 121/5/3 141/5/3
f 154/5/3 150/5/3 118/5/3
f 154/5/3 151/5/3 150/5/3
f 155/2/3 115/2/3 151/2/3
f 155/5/3 151/5/3 154/5/3
f 156/1/3 152/1/3 115/1/3
f 156/2/3 115/2/3 155/2/3
f 157/5/3 153/5/3 152/5/3
f 157/1/3 152/1/3 156/1/3
f 158/5/3 121/5/3 153/5/3
f 158/5/3 153/5/3 157/5/3
f 164/5/3 160/5/3 159/5/3
f 165/2/3 161/2/3 160/2/3
f 165/5/3 160/5/3 164/5/3
f 166/5/3 163/5/3 162/5/3
f 166/1/3 162/1/3 161/1/3
f 167/5/3 163/5/3 166/5/3
f 168/4/3 165/4/3 164/4/3
f 169/4/3 165/4/3 168/4/3
f 170/4/3 167/4/3 166/4/3
f 171/4/3 167/4/3 170/4/3
f 172/4/3 168/4/3 164/4/3
f 172/3/3 169/3/3 168/3/3
f 173/4/3 165/4/3 169/4/3
f 173/3/3 169/3/3 172/3/3
f 174/3/3 171/3/3 170/3/3
f 174/4/3 170/4/3 166/4/3
f 175/4/3 167/4/3 171/4/3
f 175/3/3 171/3/3 174/3/3
f 176/5/3 164/5/3 159/5/3
f 176/4/3 172/4/3 164/4/3
f 176/4/3 173/4/3 172/4/3
f 177/4/3 165/4/3 173/4/3
f 177/4/3 173/4/3 176/4/3
f 178/4/3 175/4/3 174/4/3
f 178/4/3 174/4/3 166/4/3
f 179/4/3 167/4/3 175/4/3
f 179/4/3 175/4/3 178/4/3
f 179/5/3 163/5/3 167/5/3
f 180/5/3 176/5/3 159/5/3
f 180/5/3 177/5/3 176/5/3
f 181/4/3 165/4/3 177/4/3
f 181/5/3 177/5/3 180/5/3
f 182/4/3 178/4/3 166/4/3
f 182/5/3 179/5/3 178/5/3
f 183/5/3 163/5/3 179/5/3
f 183/5/3 179/5/3 182/5/3
f 184/4/3 181/4/3 180/4/3
f 185/4/3 165/4/3 181/4/3
f 185/4/3 181/4/3 184/4/3
f 186/4/3 182/4/3 166/4/3
f 186/4/3 183/4/3 182/4/3
f 187/4/3 183/4/3 186/4/3
f 188/4/3 184/4/3 180/4/3
f 188/3/3 185/3/3 184/3/3
f 189/4/3 165/4/3 185/4/3
f 189/3/3 185/3/3 188/3/3
f 190/3/3 187/3/3 186/3/3
f 190/4/3 186/4/3 166/4/3
f 191/4/3 183/4/3 187/4/3
f 191/3/3 187/3/3 190/3/3
f 192/5/3 180/5/3 159/5/3
f 193/4/3 188/4/3 180/4/3
f 193/5/3 180/5/3 192/5/3
f 193/4/3 189/4/3 188/4/3
f 194/2/3 161/2/3 165/2/3
f 194/4/3 189/4/3 193/4/3
f 194/4/3 165/4/3 189/4/3
f 195/4/3 190/4/3 166/4/3
f 195/1/3 166/1/3 161/1/3
f 195/4/3 191/4/3 190/4/3
f 196/4/3 183/4/3 191/4/3
f 196/4/3 191/4/3 195/4/3
f 196/5/3 163/5/3 183/5/3
f 197/5/3 163/5/3 196/5/3
f 198/6/3 193/6/3 192/6/3
f 198/6/3 194/6/3 193/6/3
f 199/2/3 161/2/3 194/2/3
f 199/6/3 194/6/3 198/6/3
f 200/1/3 195/1/3 161/1/3
f 200/2/3 161/2/3 199/2/3
f 201/6/3 197/6/3 196/6/3
f 201/1/3 195/1/3 200/1/3
f 201/6/3 196/6/3 195/6/3
f 202/6/3 197/6/3 201/6/3
f 203/4/4 204/4/4 209/4/4
f 209/4/4 204/4/4 210/4/4
f 204/6/4 205/6/4 211/6/4
f 210/4/4 204/4/4 211/4/4
f 205/2/4 206/2/4 212/2/4
f 211/6/4 205/6/4 212/6/4
f 207/6/4 208/6/4 213/6/4
f 206/1/4 207/1/4 213/1/4
f 213/6/4 208/6/4 214/6/4
f 214/6/4 208/6/4 215/6/4
f 211/5/4 212/5/4 216/5/4
f 212/2/4 206/2/4 217/2/4
f 216/5/4 212/5/4 217/5/4
f 206/1/4 213/1/4 218/1/4
f 213/5/4 214/5/4 218/5/4
f 218/5/4 214/5/4 219/5/4
f 216/4/4 217/4/4 220/4/4
f 220/4/4 217/4/4 221/4/4
f 218/4/4 219/4/4 222/4/4
f 222/4/4 219/4/4 223/4/4
f 216/4/4 220/4/4 224/4/4
f 220/3/4 221/3/4 224/3/4
f 221/4/4 217/4/4 225/4/4
f 224/3/4 221/3/4 225/3/4
f 222/3/4 223/3/4 226/3/4
f 218/4/4 222/4/4 226/4/4
f 223/4/4 219/4/4 227/4/4
f 226/3/4 223/3/4 227/3/4
f 211/5/4 216/5/4 228/5/4
f 216/4/4 224/4/4 228/4/4
f 224/4/4 225/4/4 228/4/4
f 225/4/4 217/4/4 229/4/4
f 228/4/4 225/4/4 229/4/4
f 226/4/4 227/4/4 230/4/4
f 218/4/4 226/4/4 230/4/4
f 227/4/4 219/4/4 231/4/4
f 230/4/4 227/4/4 231/4/4
f 219/5/4 214/5/4 231/5/4
f 211/5/4 228/5/4 232/5/4
f 228/5/4 229/5/4 232/5/4
f 229/4/4 217/4/4 233/4/4
f 232/5/4 229/5/4 233/5/4
f 218/4/4 230/4/4 234/4/4
f 230/5/4 231/5/4 234/5/4
f 231/5/4 214/5/4 235/5/4
f 234/5/4 231/5/4 235/5/4
f 232/4/4 233/4/4 236/4/4
f 233/4/4 217/4/4 237/4/4
f 236/4/4 233/4/4 237/4/4
f 218/4/4 234/4/4 238/4/4
f 234/4/4 235/4/4 238/4/4
f 238/4/4 235/4/4 239/4/4
f 232/4/4 236/4/4 240/4/4
f 236/3/4 237/3/4 240/3/4
f 237/4/4 217/4/4 241/4/4
f 240/3/4 237/3/4 241/3/4
f 238/3/4 239/3/4 242/3/4
f 218/4/4 238/4/4 242/4/4
f 239/4/4 235/4/4 243/4/4
f 242/3/4 239/3/4 243/3/4
f 232/4/4 240/4/4 244/4/4
f 211/5/4 232/5/4 244/5/4
f 240/4/4 241/4/4 244/4/4
f 217/2/4 206/2/4 245/2/4
f 244/4/4 241/4/4 245/4/4
f 241/4/4 217/4/4 245/4/4
f 218/4/4 242/4/4 246/4/4
f 206/1/4 218/1/4 246/1/4
f 242/4/4 243/4/4 246/4/4
f 243/4/4 235/4/4 247/4/4
f 246/4/4 243/4/4 247/4/4
f 235/5/4 214/5/4 247/5/4
f 210/4/4 211/4/4 248/4/4
f 211/5/4 244/5/4 248/5/4
f 244/5/4 245/5/4 248/5/4
f 245/2/4 206/2/4 249/2/4
f 248/5/4 245/5/4 249/5/4
f 246/5/4 247/5/4 250/5/4
f 206/1/4 246/1/4 250/1/4
f 247/5/4 214/5/4 251/5/4
f 250/5/4 247/5/4 251/5/4
f 214/4/4 215/4/4 251/4/4
f 210/4/4 248/4/4 252/4/4
f 209/6/4 210/6/4 252/6/4
f 248/4/4 249/4/4 252/4/4
f 249/2/4 206/2/4 253/2/4
f 252/4/4 249/4/4 253/4/4
f 250/4/4 251/4/4 254/4/4
f 206/1/4 250/1/4 254/1/4
f 251/4/4 215/4/4 255/4/4
f 254/4/4 251/4/4 255/4/4
f 252/6/4 253/6/4 256/6/4
f 209/6/4 252/6/4 256/6/4
f 253/2/4 206/2/4 257/2/4
f 256/6/4 253/6/4 257/6/4
f 206/1/4 254/1/4 258/1/4
f 254/6/4 255/6/4 258/6/4
f 255/4/4 215/4/4 259/4/4
f 258/6/4 255/6/4 259/6/4
f 256/4/4 257/4/4 260/4/4
f 257/2/4 206/2/4 261/2/4
f 260/4/4 257/4/4 261/4/4
f 206/1/4 258/1/4 262/1/4
f 258/4/4 259/4/4 262/4/4
f 262/4/4 259/4/4 263/4/4
f 260/5/4 261/5/4 264/5/4
f 261/2/4 206/2/4 265/2/4
f 264/5/4 261/5/4 265/5/4
f 206/1/4 262/1/4 266/1/4
f 262/5/4 263/5/4 266/5/4
f 266/5/4 263/5/4 267/5/4
f 264/4/4 265/4/4 268/4/4
f 268/4/4 265/4/4 269/4/4
f 266/4/4 267/4/4 270/4/4
f 270/4/4 267/4/4 271/4/4
f 264/4/4 268/4/4 272/4/4
f 268/3/4 269/3/4 272/3/4
f 269/4/4 265/4/4 273/4/4
f 272/3/4 269/3/4 273/3/4
f 270/3/4 271/3/4 274/3/4
f 266/4/4 270/4/4 274/4/4
f 271/4/4 267/4/4 275/4/4
f 274/3/4 271/3/4 275/3/4
f 260/5/4 264/5/4 276/5/4
f 264/4/4 272/4/4 276/4/4
f 272/4/4 273/4/4 276/4/4
f 273/4/4 265/4/4 277/4/4
f 276/4/4 273/4/4 277/4/4
f 274/4/4 275/4/4 278/4/4
f 266/4/4 274/4/4 278/4/4
f 275/4/4 267/4/4 279/4/4
f 278/4/4 275/4/4 279/4/4
f 267/5/4 263/5/4 279/5/4
f 260/5/4 276/5/4 280/5/4
f 276/5/4 277/5/4 280/5/4
f 277/4/4 265/4/4 281/4/4
f 280/5/4 277/5/4 281/5/4
f 266/4/4 278/4/4 282/4/4
f 278/5/4 279/5/4 282/5/4
f 279/5/4 263/5/4 283/5/4
f 282/5/4 279/5/4 283/5/4
f 280/4/4 281/4/4 284/4/4
f 281/4/4 265/4/4 285/4/4
f 284/4/4 281/4/4 285/4/4
f 266/4/4 282/4/4 286/4/4
f 282/4/4 283/4/4 286/4/4
f 286/4/4 283/4/4 287/4/4
f 280/4/4 284/4/4 288/4/4
f 284/3/4 285/3/4 288/3/4
f 285/4/4 265/4/4 289/4/4
f 288/3/4 285/3/4 289/3/4
f 286/3/4 287/3/4 290/3/4
f 266/4/4 286/4/4 290/4/4
f 287/4/4 283/4/4 291/4/4
f 290/3/4 287/3/4 291/3/4
f 256/4/4 260/4/4 292/4/4
f 209/6/4 256/6/4 292/6/4
f 260/5/4 280/5/4 293/5/4
f 292/4/4 260/4/4 293/4/4
f 280/4/4 288/4/4 294/4/4
f 293/5/4 280/5/4 294/5/4
f 288/4/4 289/4/4 294/4/4
f 265/2/4 206/2/4 295/2/4
f 294/4/4 289/4/4 295/4/4
f 289/4/4 265/4/4 295/4/4
f 290/4/4 291/4/4 296/4/4
f 266/4/4 290/4/4 296/4/4
f 206/1/4 266/1/4 296/1/4
f 291/4/4 283/4/4 297/4/4
f 296/4/4 291/4/4 297/4/4
f 283/5/4 263/5/4 297/5/4
f 263/4/4 259/4/4 298/4/4
f 297/5/4 263/5/4 298/5/4
f 215/6/4 208/6/4 299/6/4
f 298/4/4 259/4/4 299/4/4
f 259/4/4 215/4/4 299/4/4
f 294/6/4 295/6/4 300/6/4
f 209/6/4 292/6/4 300/6/4
f 293/6/4 294/6/4 300/6/4
f 292/6/4 293/6/4 300/6/4
f 295/2/4 206/2/4 301/2/4
f 300/6/4 295/6/4 301/6/4
f 206/1/4 296/1/4 302/1/4
f 301/2/4 206/2/4 302/2/4
f 297/6/4 298/6/4 303/6/4
f 302/1/4 296/1/4 303/1/4
f 298/6/4 299/6/4 303/6/4
f 296/6/4 297/6/4 303/6/4
f 299/6/4 208/6/4 304/6/4
f 303/6/4 299/6/4 304/6/4
f 308/6/5 306/6/5 305/6/5
f 309/6/5 306/6/5 308/6/5
f 311/6/5 308/6/5 307/6/5
f 311/6/5 310/6/5 309/6/5
f 311/6/5 309/6/5 308/6/5
f 312/6/5 310/6/5 311/6/5
f 313/4/5 312/4/5 311/4/5
f 314/6/5 310/6/5 312/6/5
f 314/4/5 312/4/5 313/4/5
f 315/6/5 310/6/5 314/6/5
f 318/6/5 317/6/5 316/6/5
f 319/6/5 317/6/5 318/6/5
f 320/6/5 317/6/5 319/6/5
f 321/6/5 317/6/5 320/6/5
f 322/6/5 317/6/5 321/6/5
f 323/6/5 317/6/5 322/6/5
f 325/7/5 319/7/5 318/7/5
f 326/7/5 319/7/5 325/7/5
f 327/7/5 323/7/5 322/7/5
f 328/7/5 323/7/5 327/7/5
f 330/6/5 326/6/5 325/6/5
f 330/6/5 325/6/5 324/6/5
f 331/6/5 326/6/5 330/6/5
f 332/6/5 326/6/5 331/6/5
f 333/6/5 329/6/5 328/6/5
f 333/6/5 328/6/5 327/6/5
f 334/6/5 329/6/5 333/6/5
f 335/6/5 329/6/5 334/6/5
f 340/6/5 337/6/5 336/6/5
f 341/6/5 337/6/5 340/6/5
f 342/6/5 339/6/5 338/6/5
f 343/6/5 339/6/5 342/6/5
f 344/6/6 345/6/6 346/6/6
f 346/6/6 345/6/6 347/6/6
f 347/6/6 345/6/6 348/6/6
f 348/6/6 345/6/6 349/6/6
f 344/6/6 346/6/6 351/6/6
f 349/6/6 345/6/6 352/6/6
f 350/6/6 351/6/6 354/6/6
f 354/6/6 351/6/6 355/6/6
f 351/6/6 346/6/6 356/6/6
f 355/6/6 351/6/6 356/6/6
f 352/6/6 353/6/6 357/6/6
f 349/6/6 352/6/6 357/6/6
f 357/6/6 353/6/6 358/6/6
f 358/6/6 353/6/6 359/6/6
f 360/6/6 361/6/6 363/6/6
f 363/6/6 361/6/6 364/6/6
f 362/6/6 363/6/6 366/6/6
f 364/6/6 365/6/6 366/6/6
f 363/6/6 364/6/6 366/6/6
f 366/6/6 365/6/6 367/6/6
