# MagicaVoxel @ Ephtracy

# group
o 

# material
mtllib glue_wall_b.mtl
usemtl palette

# normals
vn -1 0 0
vn 1 0 0
vn 0 0 1
vn 0 0 -1
vn 0 -1 0
vn 0 1 0

# texcoords
vt 0.970703 0.5
vt 0.974609 0.5
vt 0.978516 0.5
vt 0.982422 0.5
vt 0.986328 0.5

# verts
v -2 0 -1.8
v -2 0 -2
v -2 0.2 -1.8
v -2 0.2 -1.9
v -2 3.9 -1.7
v -2 3.9 -1.9
v -2 4 -1.7
v -2 4 -2
v -1.6 0 -1.4
v -1.6 0 -1.8
v -1.6 0.2 -1.4
v -1.6 0.2 -1.8
v -1.6 3.9 -1.4
v -1.6 3.9 -1.7
v -1.6 4 -1.4
v -1.6 4 -1.7
v -1.5 0.2 -1.6
v -1.5 0.2 -1.9
v -1.5 0.3 -1.9
v -1.5 3.8 -1.9
v -1.5 3.9 -1.6
v -1.5 3.9 -1.9
v -1.4 0.2 -1.5
v -1.4 0.2 -1.6
v -1.4 0.3 -1.5
v -1.4 0.3 -1.6
v -1.4 3.8 -1.5
v -1.4 3.8 -1.6
v -1.4 3.9 -1.5
v -1.4 3.9 -1.6
v -0.3 3 -1.8
v -0.3 3 -1.9
v -0.3 3.5 -1.8
v -0.3 3.5 -1.9
v 0.5 3.1 -1.8
v 0.5 3.1 -1.9
v 0.5 3.2 -1.8
v 0.5 3.2 -1.9
v 0.5 3.3 -1.8
v 0.5 3.3 -1.9
v 0.5 3.4 -1.8
v 0.5 3.4 -1.9
v -0.7 0.2 -1.5
v -0.7 0.2 -1.6
v -0.7 0.3 -1.5
v -0.7 0.3 -1.6
v -0.7 3.8 -1.5
v -0.7 3.8 -1.6
v -0.7 3.9 -1.5
v -0.7 3.9 -1.6
v -0.6 0.2 -1.6
v -0.6 0.2 -1.9
v -0.6 0.3 -1.9
v -0.6 3.8 -1.9
v -0.6 3.9 -1.6
v -0.6 3.9 -1.9
v -0.5 0 -1.4
v -0.5 0 -1.8
v -0.5 0.2 -1.4
v -0.5 0.2 -1.8
v -0.5 3.9 -1.4
v -0.5 3.9 -1.7
v -0.5 4 -1.4
v -0.5 4 -1.7
v -0.2 3.1 -1.8
v -0.2 3.1 -1.9
v -0.2 3.2 -1.8
v -0.2 3.2 -1.9
v -0.2 3.3 -1.8
v -0.2 3.3 -1.9
v -0.2 3.4 -1.8
v -0.2 3.4 -1.9
v 0.6 3 -1.8
v 0.6 3 -1.9
v 0.6 3.5 -1.8
v 0.6 3.5 -1.9
v 2 0 -1.8
v 2 0 -2
v 2 0.2 -1.8
v 2 0.2 -1.9
v 2 3.9 -1.7
v 2 3.9 -1.9
v 2 4 -1.7
v 2 4 -2
v -1.6 0 -1.4
v -1.6 0.2 -1.4
v -1.6 3.9 -1.4
v -1.6 4 -1.4
v -0.5 0 -1.4
v -0.5 0.2 -1.4
v -0.5 3.9 -1.4
v -0.5 4 -1.4
v -1.4 0.2 -1.5
v -1.4 0.3 -1.5
v -1.4 3.8 -1.5
v -1.4 3.9 -1.5
v -1.3 0.3 -1.5
v -1.3 3.8 -1.5
v -1.2 0.3 -1.5
v -1.2 3.8 -1.5
v -1.1 0.3 -1.5
v -1.1 3.8 -1.5
v -1 0.3 -1.5
v -1 3.8 -1.5
v -0.9 0.3 -1.5
v -0.9 3.8 -1.5
v -0.8 0.3 -1.5
v -0.8 3.8 -1.5
v -0.7 0.2 -1.5
v -0.7 0.3 -1.5
v -0.7 3.8 -1.5
v -0.7 3.9 -1.5
v -1.5 0.2 -1.6
v -1.5 3.9 -1.6
v -1.4 0.2 -1.6
v -1.4 0.3 -1.6
v -1.4 3.8 -1.6
v -1.4 3.9 -1.6
v -0.7 0.2 -1.6
v -0.7 0.3 -1.6
v -0.7 3.8 -1.6
v -0.7 3.9 -1.6
v -0.6 0.2 -1.6
v -0.6 3.9 -1.6
v -2 3.9 -1.7
v -2 4 -1.7
v -1.6 3.9 -1.7
v -1.6 4 -1.7
v -0.5 3.9 -1.7
v -0.5 4 -1.7
v 2 3.9 -1.7
v 2 4 -1.7
v -2 0 -1.8
v -2 0.2 -1.8
v -1.6 0 -1.8
v -1.6 0.2 -1.8
v -0.5 0 -1.8
v -0.5 0.2 -1.8
v -0.3 3 -1.8
v -0.3 3.5 -1.8
v -0.2 3.1 -1.8
v -0.2 3.2 -1.8
v -0.2 3.3 -1.8
v -0.2 3.4 -1.8
v 0.5 3.1 -1.8
v 0.5 3.2 -1.8
v 0.5 3.3 -1.8
v 0.5 3.4 -1.8
v 0.6 3 -1.8
v 0.6 3.5 -1.8
v 2 0 -1.8
v 2 0.2 -1.8
v -2 0.2 -1.9
v -2 3.9 -1.9
v -1.9 0.2 -1.9
v -1.9 3.9 -1.9
v -1.8 0.3 -1.9
v -1.8 3.8 -1.9
v -1.5 0.2 -1.9
v -1.5 0.3 -1.9
v -1.5 3.8 -1.9
v -1.5 3.9 -1.9
v -0.6 0.2 -1.9
v -0.6 0.3 -1.9
v -0.6 3.8 -1.9
v -0.6 3.9 -1.9
v -0.5 0.4 -1.9
v -0.5 0.5 -1.9
v -0.5 3.6 -1.9
v -0.5 3.7 -1.9
v -0.4 0.4 -1.9
v -0.4 0.5 -1.9
v -0.4 3.6 -1.9
v -0.4 3.7 -1.9
v -0.3 0.3 -1.9
v -0.3 2.9 -1.9
v -0.3 3 -1.9
v -0.3 3.5 -1.9
v -0.3 3.6 -1.9
v -0.3 3.8 -1.9
v -0.2 0.3 -1.9
v -0.2 2.8 -1.9
v -0.2 3.1 -1.9
v -0.2 3.2 -1.9
v -0.2 3.3 -1.9
v -0.2 3.4 -1.9
v -0.2 3.7 -1.9
v -0.2 3.8 -1.9
v -0.0999999 0.4 -1.9
v -0.0999999 0.7 -1.9
v -0.0999999 2.6 -1.9
v -0.0999999 2.7 -1.9
v 2.38419e-007 0.4 -1.9
v 2.38419e-007 0.7 -1.9
v 2.38419e-007 2.6 -1.9
v 2.38419e-007 2.7 -1.9
v 0.1 0.4 -1.9
v 0.1 0.7 -1.9
v 0.1 2.6 -1.9
v 0.1 2.7 -1.9
v 0.2 0.4 -1.9
v 0.2 0.7 -1.9
v 0.2 2.6 -1.9
v 0.2 2.7 -1.9
v 0.3 0.4 -1.9
v 0.3 0.7 -1.9
v 0.3 2.6 -1.9
v 0.3 2.7 -1.9
v 0.4 0.4 -1.9
v 0.4 0.7 -1.9
v 0.4 2.6 -1.9
v 0.4 2.7 -1.9
v 0.5 2.6 -1.9
v 0.5 2.7 -1.9
v 0.5 3.1 -1.9
v 0.5 3.2 -1.9
v 0.5 3.3 -1.9
v 0.5 3.4 -1.9
v 0.6 2.6 -1.9
v 0.6 2.7 -1.9
v 0.6 3 -1.9
v 0.6 3.5 -1.9
v 0.7 2.6 -1.9
v 0.7 2.7 -1.9
v 0.7 2.9 -1.9
v 0.7 3.6 -1.9
v 0.8 2.6 -1.9
v 0.8 2.7 -1.9
v 0.8 2.9 -1.9
v 0.8 3.7 -1.9
v 1 2 -1.9
v 1 2.1 -1.9
v 1.1 2.2 -1.9
v 1.1 2.3 -1.9
v 1.2 2.4 -1.9
v 1.2 2.5 -1.9
v 1.4 0.6 -1.9
v 1.4 2 -1.9
v 1.4 2.1 -1.9
v 1.4 2.2 -1.9
v 1.4 2.3 -1.9
v 1.4 2.4 -1.9
v 1.4 2.5 -1.9
v 1.4 2.8 -1.9
v 1.5 0.7 -1.9
v 1.5 2.9 -1.9
v 1.6 0.4 -1.9
v 1.6 0.5 -1.9
v 1.6 3.6 -1.9
v 1.6 3.7 -1.9
v 1.7 0.4 -1.9
v 1.7 0.5 -1.9
v 1.7 3.6 -1.9
v 1.7 3.7 -1.9
v 1.8 0.3 -1.9
v 1.8 0.6 -1.9
v 1.8 0.7 -1.9
v 1.8 3.8 -1.9
v 1.9 0.2 -1.9
v 1.9 3.9 -1.9
v 2 0.2 -1.9
v 2 3.9 -1.9
v -2 0 -2
v -2 4 -2
v -1.9 0.2 -2
v -1.9 3.9 -2
v -1.8 0.3 -2
v -1.8 3.8 -2
v -0.5 0.4 -2
v -0.5 0.5 -2
v -0.5 3.6 -2
v -0.5 3.7 -2
v -0.4 0.4 -2
v -0.4 0.5 -2
v -0.4 3.6 -2
v -0.4 3.7 -2
v -0.3 0.3 -2
v -0.3 2.9 -2
v -0.3 3.6 -2
v -0.3 3.8 -2
v -0.2 0.3 -2
v -0.2 2.8 -2
v -0.2 3.1 -2
v -0.2 3.2 -2
v -0.2 3.3 -2
v -0.2 3.4 -2
v -0.2 3.7 -2
v -0.2 3.8 -2
v -0.0999999 0.4 -2
v -0.0999999 0.7 -2
v -0.0999999 2.6 -2
v -0.0999999 2.7 -2
v 2.38419e-007 0.4 -2
v 2.38419e-007 0.7 -2
v 2.38419e-007 2.6 -2
v 2.38419e-007 2.7 -2
v 0.1 0.4 -2
v 0.1 0.7 -2
v 0.1 2.6 -2
v 0.1 2.7 -2
v 0.2 0.4 -2
v 0.2 0.7 -2
v 0.2 2.6 -2
v 0.2 2.7 -2
v 0.3 0.4 -2
v 0.3 0.7 -2
v 0.3 2.6 -2
v 0.3 2.7 -2
v 0.4 0.4 -2
v 0.4 0.7 -2
v 0.4 2.6 -2
v 0.4 2.7 -2
v 0.5 2.6 -2
v 0.5 2.7 -2
v 0.5 3.1 -2
v 0.5 3.2 -2
v 0.5 3.3 -2
v 0.5 3.4 -2
v 0.6 2.6 -2
v 0.6 2.7 -2
v 0.7 2.6 -2
v 0.7 2.7 -2
v 0.7 2.9 -2
v 0.7 3.6 -2
v 0.8 2.6 -2
v 0.8 2.7 -2
v 0.8 2.9 -2
v 0.8 3.7 -2
v 1 2 -2
v 1 2.1 -2
v 1.1 2.2 -2
v 1.1 2.3 -2
v 1.2 2.4 -2
v 1.2 2.5 -2
v 1.4 0.6 -2
v 1.4 2 -2
v 1.4 2.1 -2
v 1.4 2.2 -2
v 1.4 2.3 -2
v 1.4 2.4 -2
v 1.4 2.5 -2
v 1.4 2.8 -2
v 1.5 0.7 -2
v 1.5 2.9 -2
v 1.6 0.4 -2
v 1.6 0.5 -2
v 1.6 3.6 -2
v 1.6 3.7 -2
v 1.7 0.4 -2
v 1.7 0.5 -2
v 1.7 3.6 -2
v 1.7 3.7 -2
v 1.8 0.3 -2
v 1.8 0.6 -2
v 1.8 0.7 -2
v 1.8 3.8 -2
v 1.9 0.2 -2
v 1.9 3.9 -2
v 2 0 -2
v 2 4 -2
v -1.6 0 -1.4
v -0.5 0 -1.4
v -2 0 -1.8
v -1.6 0 -1.8
v -0.5 0 -1.8
v 2 0 -1.8
v -2 0 -2
v 2 0 -2
v -0.3 3 -1.8
v 0.6 3 -1.8
v -0.3 3 -1.9
v 0.6 3 -1.9
v -0.2 3.2 -1.8
v 0.5 3.2 -1.8
v -0.2 3.2 -1.9
v 0.5 3.2 -1.9
v -0.2 3.4 -1.8
v 0.5 3.4 -1.8
v -0.2 3.4 -1.9
v 0.5 3.4 -1.9
v -1.6 3.9 -1.4
v -0.5 3.9 -1.4
v -1.4 3.9 -1.5
v -0.7 3.9 -1.5
v -1.5 3.9 -1.6
v -1.4 3.9 -1.6
v -0.7 3.9 -1.6
v -0.6 3.9 -1.6
v -2 3.9 -1.7
v -1.6 3.9 -1.7
v -0.5 3.9 -1.7
v 2 3.9 -1.7
v -2 3.9 -1.9
v -1.9 3.9 -1.9
v -1.5 3.9 -1.9
v -0.6 3.9 -1.9
v 1.9 3.9 -1.9
v 2 3.9 -1.9
v -1.6 0.2 -1.4
v -0.5 0.2 -1.4
v -1.4 0.2 -1.5
v -0.7 0.2 -1.5
v -1.5 0.2 -1.6
v -1.4 0.2 -1.6
v -0.7 0.2 -1.6
v -0.6 0.2 -1.6
v -2 0.2 -1.8
v -1.6 0.2 -1.8
v -0.5 0.2 -1.8
v 2 0.2 -1.8
v -2 0.2 -1.9
v -1.9 0.2 -1.9
v -1.5 0.2 -1.9
v -0.6 0.2 -1.9
v 1.9 0.2 -1.9
v 2 0.2 -1.9
v -0.2 3.1 -1.8
v 0.5 3.1 -1.8
v -0.2 3.1 -1.9
v 0.5 3.1 -1.9
v -0.2 3.3 -1.8
v 0.5 3.3 -1.8
v -0.2 3.3 -1.9
v 0.5 3.3 -1.9
v -0.3 3.5 -1.8
v 0.6 3.5 -1.8
v -0.3 3.5 -1.9
v 0.6 3.5 -1.9
v -1.6 4 -1.4
v -0.5 4 -1.4
v -2 4 -1.7
v -1.6 4 -1.7
v -0.5 4 -1.7
v 2 4 -1.7
v -2 4 -2
v 2 4 -2

# faces
f 3/4/1 2/4/1 1/4/1
f 4/4/1 2/4/1 3/4/1
f 6/4/1 2/4/1 4/4/1
f 7/4/1 6/4/1 5/4/1
f 8/4/1 2/4/1 6/4/1
f 8/4/1 6/4/1 7/4/1
f 11/4/1 10/4/1 9/4/1
f 12/4/1 10/4/1 11/4/1
f 15/4/1 14/4/1 13/4/1
f 16/4/1 14/4/1 15/4/1
f 19/3/1 18/3/1 17/3/1
f 20/3/1 19/3/1 17/3/1
f 21/3/1 20/3/1 17/3/1
f 22/3/1 20/3/1 21/3/1
f 25/3/1 24/3/1 23/3/1
f 26/3/1 24/3/1 25/3/1
f 27/2/1 26/2/1 25/2/1
f 28/2/1 26/2/1 27/2/1
f 29/3/1 28/3/1 27/3/1
f 30/3/1 28/3/1 29/3/1
f 33/4/1 32/4/1 31/4/1
f 34/4/1 32/4/1 33/4/1
f 37/4/1 36/4/1 35/4/1
f 38/4/1 36/4/1 37/4/1
f 41/4/1 40/4/1 39/4/1
f 42/4/1 40/4/1 41/4/1
f 43/3/2 44/3/2 45/3/2
f 45/3/2 44/3/2 46/3/2
f 45/2/2 46/2/2 47/2/2
f 47/2/2 46/2/2 48/2/2
f 47/3/2 48/3/2 49/3/2
f 49/3/2 48/3/2 50/3/2
f 51/3/2 52/3/2 53/3/2
f 51/3/2 53/3/2 54/3/2
f 51/3/2 54/3/2 55/3/2
f 55/3/2 54/3/2 56/3/2
f 57/4/2 58/4/2 59/4/2
f 59/4/2 58/4/2 60/4/2
f 61/4/2 62/4/2 63/4/2
f 63/4/2 62/4/2 64/4/2
f 65/4/2 66/4/2 67/4/2
f 67/4/2 66/4/2 68/4/2
f 69/4/2 70/4/2 71/4/2
f 71/4/2 70/4/2 72/4/2
f 73/4/2 74/4/2 75/4/2
f 75/4/2 74/4/2 76/4/2
f 77/4/2 78/4/2 79/4/2
f 79/4/2 78/4/2 80/4/2
f 80/4/2 78/4/2 82/4/2
f 81/4/2 82/4/2 83/4/2
f 82/4/2 78/4/2 84/4/2
f 83/4/2 82/4/2 84/4/2
f 89/4/3 86/4/3 85/4/3
f 90/4/3 86/4/3 89/4/3
f 91/4/3 88/4/3 87/4/3
f 92/4/3 88/4/3 91/4/3
f 97/3/3 94/3/3 93/3/3
f 97/2/3 95/2/3 94/2/3
f 98/3/3 96/3/3 95/3/3
f 98/2/3 95/2/3 97/2/3
f 99/3/3 97/3/3 93/3/3
f 99/3/3 98/3/3 97/3/3
f 100/3/3 96/3/3 98/3/3
f 100/3/3 98/3/3 99/3/3
f 101/3/3 99/3/3 93/3/3
f 101/2/3 100/2/3 99/2/3
f 102/3/3 96/3/3 100/3/3
f 102/2/3 100/2/3 101/2/3
f 103/3/3 101/3/3 93/3/3
f 103/3/3 102/3/3 101/3/3
f 104/3/3 96/3/3 102/3/3
f 104/3/3 102/3/3 103/3/3
f 105/3/3 103/3/3 93/3/3
f 105/2/3 104/2/3 103/2/3
f 106/3/3 96/3/3 104/3/3
f 106/2/3 104/2/3 105/2/3
f 107/3/3 105/3/3 93/3/3
f 107/3/3 106/3/3 105/3/3
f 108/3/3 96/3/3 106/3/3
f 108/3/3 106/3/3 107/3/3
f 109/3/3 107/3/3 93/3/3
f 110/2/3 108/2/3 107/2/3
f 110/3/3 107/3/3 109/3/3
f 111/3/3 96/3/3 108/3/3
f 111/2/3 108/2/3 110/2/3
f 112/3/3 96/3/3 111/3/3
f 115/3/3 114/3/3 113/3/3
f 116/3/3 114/3/3 115/3/3
f 117/3/3 114/3/3 116/3/3
f 118/3/3 114/3/3 117/3/3
f 123/3/3 120/3/3 119/3/3
f 123/3/3 122/3/3 121/3/3
f 123/3/3 121/3/3 120/3/3
f 124/3/3 122/3/3 123/3/3
f 127/4/3 126/4/3 125/4/3
f 128/4/3 126/4/3 127/4/3
f 131/4/3 130/4/3 129/4/3
f 132/4/3 130/4/3 131/4/3
f 135/4/3 134/4/3 133/4/3
f 136/4/3 134/4/3 135/4/3
f 141/4/3 140/4/3 139/4/3
f 142/4/3 140/4/3 141/4/3
f 143/4/3 140/4/3 142/4/3
f 144/4/3 140/4/3 143/4/3
f 145/4/3 141/4/3 139/4/3
f 146/4/3 143/4/3 142/4/3
f 147/4/3 143/4/3 146/4/3
f 148/4/3 140/4/3 144/4/3
f 149/4/3 147/4/3 146/4/3
f 149/4/3 148/4/3 147/4/3
f 149/4/3 145/4/3 139/4/3
f 149/4/3 146/4/3 145/4/3
f 150/4/3 140/4/3 148/4/3
f 150/4/3 148/4/3 149/4/3
f 151/4/3 138/4/3 137/4/3
f 152/4/3 138/4/3 151/4/3
f 155/4/3 154/4/3 153/4/3
f 156/4/3 154/4/3 155/4/3
f 157/3/3 156/3/3 155/3/3
f 158/3/3 156/3/3 157/3/3
f 159/3/3 157/3/3 155/3/3
f 160/2/3 158/2/3 157/2/3
f 160/3/3 157/3/3 159/3/3
f 161/3/3 156/3/3 158/3/3
f 161/2/3 158/2/3 160/2/3
f 162/3/3 156/3/3 161/3/3
f 167/2/3 165/2/3 164/2/3
f 168/2/3 165/2/3 167/2/3
f 169/2/3 165/2/3 168/2/3
f 170/2/3 165/2/3 169/2/3
f 171/2/3 167/2/3 164/2/3
f 171/1/3 168/1/3 167/1/3
f 172/2/3 169/2/3 168/2/3
f 172/1/3 168/1/3 171/1/3
f 173/1/3 170/1/3 169/1/3
f 173/2/3 169/2/3 172/2/3
f 174/2/3 165/2/3 170/2/3
f 174/1/3 170/1/3 173/1/3
f 175/3/3 164/3/3 163/3/3
f 175/2/3 173/2/3 172/2/3
f 175/2/3 174/2/3 173/2/3
f 175/2/3 171/2/3 164/2/3
f 175/2/3 172/2/3 171/2/3
f 176/2/3 174/2/3 175/2/3
f 177/2/3 174/2/3 176/2/3
f 178/2/3 174/2/3 177/2/3
f 179/2/3 174/2/3 178/2/3
f 180/2/3 165/2/3 174/2/3
f 180/2/3 174/2/3 179/2/3
f 180/3/3 166/3/3 165/3/3
f 181/3/3 175/3/3 163/3/3
f 181/3/3 176/3/3 175/3/3
f 182/3/3 176/3/3 181/3/3
f 187/3/3 180/3/3 179/3/3
f 188/3/3 166/3/3 180/3/3
f 188/3/3 180/3/3 187/3/3
f 189/2/3 182/2/3 181/2/3
f 190/2/3 182/2/3 189/2/3
f 191/2/3 182/2/3 190/2/3
f 192/2/3 182/2/3 191/2/3
f 193/2/3 189/2/3 181/2/3
f 193/4/3 190/4/3 189/4/3
f 194/2/3 191/2/3 190/2/3
f 194/4/3 190/4/3 193/4/3
f 195/3/3 192/3/3 191/3/3
f 195/2/3 191/2/3 194/2/3
f 196/2/3 182/2/3 192/2/3
f 196/3/3 192/3/3 195/3/3
f 197/2/3 195/2/3 194/2/3
f 197/2/3 194/2/3 193/2/3
f 197/2/3 196/2/3 195/2/3
f 197/2/3 193/2/3 181/2/3
f 198/2/3 196/2/3 197/2/3
f 199/2/3 196/2/3 198/2/3
f 200/2/3 182/2/3 196/2/3
f 200/2/3 196/2/3 199/2/3
f 201/2/3 197/2/3 181/2/3
f 201/4/3 198/4/3 197/4/3
f 202/2/3 199/2/3 198/2/3
f 202/4/3 198/4/3 201/4/3
f 203/3/3 200/3/3 199/3/3
f 203/2/3 199/2/3 202/2/3
f 204/2/3 182/2/3 200/2/3
f 204/3/3 200/3/3 203/3/3
f 205/2/3 201/2/3 181/2/3
f 205/2/3 203/2/3 202/2/3
f 205/2/3 204/2/3 203/2/3
f 205/2/3 202/2/3 201/2/3
f 206/2/3 204/2/3 205/2/3
f 207/2/3 204/2/3 206/2/3
f 208/2/3 182/2/3 204/2/3
f 208/2/3 204/2/3 207/2/3
f 209/2/3 205/2/3 181/2/3
f 209/4/3 206/4/3 205/4/3
f 210/2/3 207/2/3 206/2/3
f 210/4/3 206/4/3 209/4/3
f 211/3/3 208/3/3 207/3/3
f 211/2/3 207/2/3 210/2/3
f 212/2/3 182/2/3 208/2/3
f 212/3/3 208/3/3 211/3/3
f 213/2/3 211/2/3 210/2/3
f 213/2/3 210/2/3 209/2/3
f 213/2/3 212/2/3 211/2/3
f 214/2/3 182/2/3 212/2/3
f 214/2/3 212/2/3 213/2/3
f 215/5/3 184/5/3 183/5/3
f 216/5/3 184/5/3 215/5/3
f 217/5/3 186/5/3 185/5/3
f 218/5/3 186/5/3 217/5/3
f 219/2/3 213/2/3 209/2/3
f 219/3/3 214/3/3 213/3/3
f 220/2/3 182/2/3 214/2/3
f 220/3/3 214/3/3 219/3/3
f 221/2/3 177/2/3 176/2/3
f 222/2/3 179/2/3 178/2/3
f 223/2/3 220/2/3 219/2/3
f 223/2/3 219/2/3 209/2/3
f 224/2/3 182/2/3 220/2/3
f 224/2/3 220/2/3 223/2/3
f 225/2/3 221/2/3 176/2/3
f 225/2/3 222/2/3 221/2/3
f 225/3/3 176/3/3 182/3/3
f 226/3/3 187/3/3 179/3/3
f 226/2/3 222/2/3 225/2/3
f 226/2/3 179/2/3 222/2/3
f 227/3/3 224/3/3 223/3/3
f 227/2/3 223/2/3 209/2/3
f 228/2/3 182/2/3 224/2/3
f 228/3/3 224/3/3 227/3/3
f 229/3/3 225/3/3 182/3/3
f 229/3/3 226/3/3 225/3/3
f 230/3/3 187/3/3 226/3/3
f 230/3/3 226/3/3 229/3/3
f 230/2/3 188/2/3 187/2/3
f 231/2/3 227/2/3 209/2/3
f 231/2/3 228/2/3 227/2/3
f 232/2/3 228/2/3 231/2/3
f 233/2/3 228/2/3 232/2/3
f 234/2/3 228/2/3 233/2/3
f 235/2/3 228/2/3 234/2/3
f 236/2/3 228/2/3 235/2/3
f 237/2/3 231/2/3 209/2/3
f 238/3/3 232/3/3 231/3/3
f 238/2/3 231/2/3 237/2/3
f 239/2/3 233/2/3 232/2/3
f 239/3/3 232/3/3 238/3/3
f 240/3/3 234/3/3 233/3/3
f 240/2/3 233/2/3 239/2/3
f 241/2/3 235/2/3 234/2/3
f 241/3/3 234/3/3 240/3/3
f 242/3/3 236/3/3 235/3/3
f 242/2/3 235/2/3 241/2/3
f 243/2/3 228/2/3 236/2/3
f 243/3/3 236/3/3 242/3/3
f 244/2/3 182/2/3 228/2/3
f 244/2/3 228/2/3 243/2/3
f 244/3/3 229/3/3 182/3/3
f 245/3/3 243/3/3 242/3/3
f 245/3/3 241/3/3 240/3/3
f 245/3/3 244/3/3 243/3/3
f 245/3/3 240/3/3 239/3/3
f 245/3/3 239/3/3 238/3/3
f 245/3/3 238/3/3 237/3/3
f 245/3/3 242/3/3 241/3/3
f 246/3/3 229/3/3 244/3/3
f 246/3/3 244/3/3 245/3/3
f 246/2/3 230/2/3 229/2/3
f 247/2/3 237/2/3 209/2/3
f 247/2/3 209/2/3 181/2/3
f 248/2/3 237/2/3 247/2/3
f 249/2/3 230/2/3 246/2/3
f 249/2/3 246/2/3 245/2/3
f 250/2/3 188/2/3 230/2/3
f 250/2/3 230/2/3 249/2/3
f 251/1/3 248/1/3 247/1/3
f 251/2/3 247/2/3 181/2/3
f 252/2/3 237/2/3 248/2/3
f 252/1/3 248/1/3 251/1/3
f 253/2/3 249/2/3 245/2/3
f 253/1/3 250/1/3 249/1/3
f 254/2/3 188/2/3 250/2/3
f 254/1/3 250/1/3 253/1/3
f 255/2/3 251/2/3 181/2/3
f 255/3/3 181/3/3 163/3/3
f 255/2/3 252/2/3 251/2/3
f 256/2/3 237/2/3 252/2/3
f 256/2/3 252/2/3 255/2/3
f 256/3/3 245/3/3 237/3/3
f 257/2/3 253/2/3 245/2/3
f 257/3/3 245/3/3 256/3/3
f 257/2/3 254/2/3 253/2/3
f 258/2/3 188/2/3 254/2/3
f 258/2/3 254/2/3 257/2/3
f 258/3/3 166/3/3 188/3/3
f 259/3/3 255/3/3 163/3/3
f 259/3/3 257/3/3 256/3/3
f 259/3/3 258/3/3 257/3/3
f 259/3/3 256/3/3 255/3/3
f 260/3/3 166/3/3 258/3/3
f 260/3/3 258/3/3 259/3/3
f 261/4/3 260/4/3 259/4/3
f 262/4/3 260/4/3 261/4/3
f 263/4/4 264/4/4 265/4/4
f 265/4/4 264/4/4 266/4/4
f 265/3/4 266/3/4 267/3/4
f 267/3/4 266/3/4 268/3/4
f 267/2/4 268/2/4 269/2/4
f 269/2/4 268/2/4 270/2/4
f 270/2/4 268/2/4 271/2/4
f 271/2/4 268/2/4 272/2/4
f 267/2/4 269/2/4 273/2/4
f 269/1/4 270/1/4 273/1/4
f 270/2/4 271/2/4 274/2/4
f 273/1/4 270/1/4 274/1/4
f 271/1/4 272/1/4 275/1/4
f 274/2/4 271/2/4 275/2/4
f 272/2/4 268/2/4 276/2/4
f 275/1/4 272/1/4 276/1/4
f 265/3/4 267/3/4 277/3/4
f 274/2/4 275/2/4 277/2/4
f 275/2/4 276/2/4 277/2/4
f 267/2/4 273/2/4 277/2/4
f 273/2/4 274/2/4 277/2/4
f 277/2/4 276/2/4 278/2/4
f 278/2/4 276/2/4 279/2/4
f 276/2/4 268/2/4 280/2/4
f 279/2/4 276/2/4 280/2/4
f 268/3/4 266/3/4 280/3/4
f 277/3/4 278/3/4 281/3/4
f 265/3/4 277/3/4 281/3/4
f 281/3/4 278/3/4 282/3/4
f 278/2/4 279/2/4 283/2/4
f 283/2/4 279/2/4 284/2/4
f 284/2/4 279/2/4 285/2/4
f 285/2/4 279/2/4 286/2/4
f 279/3/4 280/3/4 287/3/4
f 280/3/4 266/3/4 288/3/4
f 287/3/4 280/3/4 288/3/4
f 281/2/4 282/2/4 289/2/4
f 289/2/4 282/2/4 290/2/4
f 290/2/4 282/2/4 291/2/4
f 291/2/4 282/2/4 292/2/4
f 281/2/4 289/2/4 293/2/4
f 289/4/4 290/4/4 293/4/4
f 290/2/4 291/2/4 294/2/4
f 293/4/4 290/4/4 294/4/4
f 291/3/4 292/3/4 295/3/4
f 294/2/4 291/2/4 295/2/4
f 292/2/4 282/2/4 296/2/4
f 295/3/4 292/3/4 296/3/4
f 294/2/4 295/2/4 297/2/4
f 293/2/4 294/2/4 297/2/4
f 295/2/4 296/2/4 297/2/4
f 281/2/4 293/2/4 297/2/4
f 297/2/4 296/2/4 298/2/4
f 298/2/4 296/2/4 299/2/4
f 296/2/4 282/2/4 300/2/4
f 299/2/4 296/2/4 300/2/4
f 281/2/4 297/2/4 301/2/4
f 297/4/4 298/4/4 301/4/4
f 298/2/4 299/2/4 302/2/4
f 301/4/4 298/4/4 302/4/4
f 299/3/4 300/3/4 303/3/4
f 302/2/4 299/2/4 303/2/4
f 300/2/4 282/2/4 304/2/4
f 303/3/4 300/3/4 304/3/4
f 281/2/4 301/2/4 305/2/4
f 302/2/4 303/2/4 305/2/4
f 303/2/4 304/2/4 305/2/4
f 301/2/4 302/2/4 305/2/4
f 305/2/4 304/2/4 306/2/4
f 306/2/4 304/2/4 307/2/4
f 304/2/4 282/2/4 308/2/4
f 307/2/4 304/2/4 308/2/4
f 281/2/4 305/2/4 309/2/4
f 305/4/4 306/4/4 309/4/4
f 306/2/4 307/2/4 310/2/4
f 309/4/4 306/4/4 310/4/4
f 307/3/4 308/3/4 311/3/4
f 310/2/4 307/2/4 311/2/4
f 308/2/4 282/2/4 312/2/4
f 311/3/4 308/3/4 312/3/4
f 310/2/4 311/2/4 313/2/4
f 309/2/4 310/2/4 313/2/4
f 311/2/4 312/2/4 313/2/4
f 312/2/4 282/2/4 314/2/4
f 313/2/4 312/2/4 314/2/4
f 278/2/4 283/2/4 315/2/4
f 283/5/4 284/5/4 315/5/4
f 284/2/4 285/2/4 316/2/4
f 315/5/4 284/5/4 316/5/4
f 285/5/4 286/5/4 317/5/4
f 316/2/4 285/2/4 317/2/4
f 286/2/4 279/2/4 318/2/4
f 317/5/4 286/5/4 318/5/4
f 313/3/4 314/3/4 319/3/4
f 309/2/4 313/2/4 319/2/4
f 314/2/4 282/2/4 320/2/4
f 319/3/4 314/3/4 320/3/4
f 309/2/4 319/2/4 321/2/4
f 319/2/4 320/2/4 321/2/4
f 320/2/4 282/2/4 322/2/4
f 321/2/4 320/2/4 322/2/4
f 282/3/4 278/3/4 323/3/4
f 316/2/4 317/2/4 323/2/4
f 278/2/4 315/2/4 323/2/4
f 317/2/4 318/2/4 323/2/4
f 315/2/4 316/2/4 323/2/4
f 279/3/4 287/3/4 324/3/4
f 323/2/4 318/2/4 324/2/4
f 318/2/4 279/2/4 324/2/4
f 321/3/4 322/3/4 325/3/4
f 309/2/4 321/2/4 325/2/4
f 322/2/4 282/2/4 326/2/4
f 325/3/4 322/3/4 326/3/4
f 282/3/4 323/3/4 327/3/4
f 323/3/4 324/3/4 327/3/4
f 324/3/4 287/3/4 328/3/4
f 327/3/4 324/3/4 328/3/4
f 287/2/4 288/2/4 328/2/4
f 309/2/4 325/2/4 329/2/4
f 325/2/4 326/2/4 329/2/4
f 329/2/4 326/2/4 330/2/4
f 330/2/4 326/2/4 331/2/4
f 331/2/4 326/2/4 332/2/4
f 332/2/4 326/2/4 333/2/4
f 333/2/4 326/2/4 334/2/4
f 309/2/4 329/2/4 335/2/4
f 329/3/4 330/3/4 336/3/4
f 335/2/4 329/2/4 336/2/4
f 330/2/4 331/2/4 337/2/4
f 336/3/4 330/3/4 337/3/4
f 331/3/4 332/3/4 338/3/4
f 337/2/4 331/2/4 338/2/4
f 332/2/4 333/2/4 339/2/4
f 338/3/4 332/3/4 339/3/4
f 333/3/4 334/3/4 340/3/4
f 339/2/4 333/2/4 340/2/4
f 334/2/4 326/2/4 341/2/4
f 340/3/4 334/3/4 341/3/4
f 326/2/4 282/2/4 342/2/4
f 341/2/4 326/2/4 342/2/4
f 282/3/4 327/3/4 342/3/4
f 340/3/4 341/3/4 343/3/4
f 338/3/4 339/3/4 343/3/4
f 341/3/4 342/3/4 343/3/4
f 337/3/4 338/3/4 343/3/4
f 336/3/4 337/3/4 343/3/4
f 335/3/4 336/3/4 343/3/4
f 339/3/4 340/3/4 343/3/4
f 342/3/4 327/3/4 344/3/4
f 343/3/4 342/3/4 344/3/4
f 327/2/4 328/2/4 344/2/4
f 309/2/4 335/2/4 345/2/4
f 281/2/4 309/2/4 345/2/4
f 345/2/4 335/2/4 346/2/4
f 344/2/4 328/2/4 347/2/4
f 343/2/4 344/2/4 347/2/4
f 328/2/4 288/2/4 348/2/4
f 347/2/4 328/2/4 348/2/4
f 345/1/4 346/1/4 349/1/4
f 281/2/4 345/2/4 349/2/4
f 346/2/4 335/2/4 350/2/4
f 349/1/4 346/1/4 350/1/4
f 343/2/4 347/2/4 351/2/4
f 347/1/4 348/1/4 351/1/4
f 348/2/4 288/2/4 352/2/4
f 351/1/4 348/1/4 352/1/4
f 281/2/4 349/2/4 353/2/4
f 265/3/4 281/3/4 353/3/4
f 349/2/4 350/2/4 353/2/4
f 350/2/4 335/2/4 354/2/4
f 353/2/4 350/2/4 354/2/4
f 335/3/4 343/3/4 354/3/4
f 343/2/4 351/2/4 355/2/4
f 354/3/4 343/3/4 355/3/4
f 351/2/4 352/2/4 355/2/4
f 352/2/4 288/2/4 356/2/4
f 355/2/4 352/2/4 356/2/4
f 288/3/4 266/3/4 356/3/4
f 263/4/4 265/4/4 357/4/4
f 265/3/4 353/3/4 357/3/4
f 355/3/4 356/3/4 357/3/4
f 354/3/4 355/3/4 357/3/4
f 353/3/4 354/3/4 357/3/4
f 356/3/4 266/3/4 358/3/4
f 357/3/4 356/3/4 358/3/4
f 266/4/4 264/4/4 358/4/4
f 263/4/4 357/4/4 359/4/4
f 357/4/4 358/4/4 359/4/4
f 358/4/4 264/4/4 360/4/4
f 359/4/4 358/4/4 360/4/4
f 364/4/5 362/4/5 361/4/5
f 365/4/5 362/4/5 364/4/5
f 367/4/5 364/4/5 363/4/5
f 367/4/5 366/4/5 365/4/5
f 367/4/5 365/4/5 364/4/5
f 368/4/5 366/4/5 367/4/5
f 371/4/5 370/4/5 369/4/5
f 372/4/5 370/4/5 371/4/5
f 375/4/5 374/4/5 373/4/5
f 376/4/5 374/4/5 375/4/5
f 379/4/5 378/4/5 377/4/5
f 380/4/5 378/4/5 379/4/5
f 383/4/5 382/4/5 381/4/5
f 384/4/5 382/4/5 383/4/5
f 385/4/5 383/4/5 381/4/5
f 386/4/5 383/4/5 385/4/5
f 387/4/5 382/4/5 384/4/5
f 388/4/5 382/4/5 387/4/5
f 390/4/5 385/4/5 381/4/5
f 391/4/5 382/4/5 388/4/5
f 393/4/5 390/4/5 389/4/5
f 394/4/5 390/4/5 393/4/5
f 395/4/5 385/4/5 390/4/5
f 395/4/5 390/4/5 394/4/5
f 396/4/5 392/4/5 391/4/5
f 396/4/5 391/4/5 388/4/5
f 397/4/5 392/4/5 396/4/5
f 398/4/5 392/4/5 397/4/5
f 399/4/6 400/4/6 401/4/6
f 401/4/6 400/4/6 402/4/6
f 399/4/6 401/4/6 403/4/6
f 403/4/6 401/4/6 404/4/6
f 402/4/6 400/4/6 405/4/6
f 405/4/6 400/4/6 406/4/6
f 399/4/6 403/4/6 408/4/6
f 406/4/6 400/4/6 409/4/6
f 407/4/6 408/4/6 411/4/6
f 411/4/6 408/4/6 412/4/6
f 408/4/6 403/4/6 413/4/6
f 412/4/6 408/4/6 413/4/6
f 409/4/6 410/4/6 414/4/6
f 406/4/6 409/4/6 414/4/6
f 414/4/6 410/4/6 415/4/6
f 415/4/6 410/4/6 416/4/6
f 417/4/6 418/4/6 419/4/6
f 419/4/6 418/4/6 420/4/6
f 421/4/6 422/4/6 423/4/6
f 423/4/6 422/4/6 424/4/6
f 425/4/6 426/4/6 427/4/6
f 427/4/6 426/4/6 428/4/6
f 429/4/6 430/4/6 432/4/6
f 432/4/6 430/4/6 433/4/6
f 431/4/6 432/4/6 435/4/6
f 433/4/6 434/4/6 435/4/6
f 432/4/6 433/4/6 435/4/6
f 435/4/6 434/4/6 436/4/6
