# MagicaVoxel @ Ephtracy

# group
o 

# material
mtllib glue_wall_b.mtl
usemtl palette

# normals
vn -1 0 0
vn 1 0 0
vn 0 0 1
vn 0 0 -1
vn 0 -1 0
vn 0 1 0

# texcoords
vt 0.638672 0.5
vt 0.642578 0.5
vt 0.970703 0.5
vt 0.974609 0.5
vt 0.978516 0.5
vt 0.982422 0.5
vt 0.986328 0.5

# verts
v -2 0 -1.8
v -2 0 -2
v -2 0.2 -1.8
v -2 0.2 -1.9
v -2 2.7 -1.9
v -2 2.7 -2
v -2 2.8 -1.9
v -2 2.8 -2
v -2 3 -1.9
v -2 3 -2
v -2 3.9 -1.7
v -2 3.9 -1.9
v -2 4 -1.7
v -2 4 -2
v -1.6 0 -1.4
v -1.6 0 -1.8
v -1.6 0.2 -1.4
v -1.6 0.2 -1.8
v -1.6 3.9 -1.4
v -1.6 3.9 -1.7
v -1.6 4 -1.4
v -1.6 4 -1.7
v -1.5 0.2 -1.6
v -1.5 0.2 -1.9
v -1.5 0.3 -1.9
v -1.5 2.7 -1.9
v -1.5 2.8 -1.9
v -1.5 3 -1.9
v -1.5 3.8 -1.9
v -1.5 3.9 -1.6
v -1.5 3.9 -1.9
v -1.4 0.2 -1.5
v -1.4 0.2 -1.6
v -1.4 0.3 -1.5
v -1.4 0.3 -1.6
v -1.4 3.8 -1.5
v -1.4 3.8 -1.6
v -1.4 3.9 -1.5
v -1.4 3.9 -1.6
v -0.3 3 -1.8
v -0.3 3 -1.9
v -0.3 3.5 -1.8
v -0.3 3.5 -1.9
v 0.5 3.1 -1.8
v 0.5 3.1 -1.9
v 0.5 3.2 -1.8
v 0.5 3.2 -1.9
v 0.5 3.3 -1.8
v 0.5 3.3 -1.9
v 0.5 3.4 -1.8
v 0.5 3.4 -1.9
v -0.7 0.2 -1.5
v -0.7 0.2 -1.6
v -0.7 0.3 -1.5
v -0.7 0.3 -1.6
v -0.7 3.8 -1.5
v -0.7 3.8 -1.6
v -0.7 3.9 -1.5
v -0.7 3.9 -1.6
v -0.6 0.2 -1.6
v -0.6 0.2 -1.9
v -0.6 0.3 -1.9
v -0.6 2.7 -1.9
v -0.6 2.8 -1.9
v -0.6 3 -1.9
v -0.6 3.8 -1.9
v -0.6 3.9 -1.6
v -0.6 3.9 -1.9
v -0.5 0 -1.4
v -0.5 0 -1.8
v -0.5 0.2 -1.4
v -0.5 0.2 -1.8
v -0.5 3.9 -1.4
v -0.5 3.9 -1.7
v -0.5 4 -1.4
v -0.5 4 -1.7
v -0.2 3.1 -1.8
v -0.2 3.1 -1.9
v -0.2 3.2 -1.8
v -0.2 3.2 -1.9
v -0.2 3.3 -1.8
v -0.2 3.3 -1.9
v -0.2 3.4 -1.8
v -0.2 3.4 -1.9
v 0.6 3 -1.8
v 0.6 3 -1.9
v 0.6 3.5 -1.8
v 0.6 3.5 -1.9
v 2 0 -1.8
v 2 0 -2
v 2 0.2 -1.8
v 2 0.2 -1.9
v 2 2.7 -1.9
v 2 2.7 -2
v 2 2.8 -1.9
v 2 2.8 -2
v 2 3 -1.9
v 2 3 -2
v 2 3.9 -1.7
v 2 3.9 -1.9
v 2 4 -1.7
v 2 4 -2
v -1.6 0 -1.4
v -1.6 0.2 -1.4
v -1.6 3.9 -1.4
v -1.6 4 -1.4
v -0.5 0 -1.4
v -0.5 0.2 -1.4
v -0.5 3.9 -1.4
v -0.5 4 -1.4
v -1.4 0.2 -1.5
v -1.4 0.3 -1.5
v -1.4 3.8 -1.5
v -1.4 3.9 -1.5
v -1.3 0.3 -1.5
v -1.3 3.8 -1.5
v -1.2 0.3 -1.5
v -1.2 3.8 -1.5
v -1.1 0.3 -1.5
v -1.1 3.8 -1.5
v -1 0.3 -1.5
v -1 3.8 -1.5
v -0.9 0.3 -1.5
v -0.9 3.8 -1.5
v -0.8 0.3 -1.5
v -0.8 3.8 -1.5
v -0.7 0.2 -1.5
v -0.7 0.3 -1.5
v -0.7 3.8 -1.5
v -0.7 3.9 -1.5
v -1.5 0.2 -1.6
v -1.5 3.9 -1.6
v -1.4 0.2 -1.6
v -1.4 0.3 -1.6
v -1.4 3.8 -1.6
v -1.4 3.9 -1.6
v -0.7 0.2 -1.6
v -0.7 0.3 -1.6
v -0.7 3.8 -1.6
v -0.7 3.9 -1.6
v -0.6 0.2 -1.6
v -0.6 3.9 -1.6
v -2 3.9 -1.7
v -2 4 -1.7
v -1.6 3.9 -1.7
v -1.6 4 -1.7
v -0.5 3.9 -1.7
v -0.5 4 -1.7
v 2 3.9 -1.7
v 2 4 -1.7
v -2 0 -1.8
v -2 0.2 -1.8
v -1.6 0 -1.8
v -1.6 0.2 -1.8
v -0.5 0 -1.8
v -0.5 0.2 -1.8
v -0.3 3 -1.8
v -0.3 3.5 -1.8
v -0.2 3.1 -1.8
v -0.2 3.2 -1.8
v -0.2 3.3 -1.8
v -0.2 3.4 -1.8
v 0.5 3.1 -1.8
v 0.5 3.2 -1.8
v 0.5 3.3 -1.8
v 0.5 3.4 -1.8
v 0.6 3 -1.8
v 0.6 3.5 -1.8
v 2 0 -1.8
v 2 0.2 -1.8
v -2 0.2 -1.9
v -2 2.7 -1.9
v -2 2.8 -1.9
v -2 3 -1.9
v -2 3.9 -1.9
v -1.9 0.2 -1.9
v -1.9 2.7 -1.9
v -1.9 3 -1.9
v -1.9 3.9 -1.9
v -1.8 0.3 -1.9
v -1.8 2.7 -1.9
v -1.8 3 -1.9
v -1.8 3.8 -1.9
v -1.5 0.2 -1.9
v -1.5 0.3 -1.9
v -1.5 2.7 -1.9
v -1.5 2.8 -1.9
v -1.5 3 -1.9
v -1.5 3.8 -1.9
v -1.5 3.9 -1.9
v -0.6 0.2 -1.9
v -0.6 0.3 -1.9
v -0.6 2.7 -1.9
v -0.6 2.8 -1.9
v -0.6 3 -1.9
v -0.6 3.8 -1.9
v -0.6 3.9 -1.9
v -0.5 0.4 -1.9
v -0.5 0.5 -1.9
v -0.5 3.6 -1.9
v -0.5 3.7 -1.9
v -0.4 0.4 -1.9
v -0.4 0.5 -1.9
v -0.4 3.6 -1.9
v -0.4 3.7 -1.9
v -0.3 0.3 -1.9
v -0.3 2.7 -1.9
v -0.3 3 -1.9
v -0.3 3.5 -1.9
v -0.3 3.6 -1.9
v -0.3 3.8 -1.9
v -0.2 0.3 -1.9
v -0.2 2.7 -1.9
v -0.2 3.1 -1.9
v -0.2 3.2 -1.9
v -0.2 3.3 -1.9
v -0.2 3.4 -1.9
v -0.2 3.7 -1.9
v -0.2 3.8 -1.9
v -0.0999999 0.4 -1.9
v -0.0999999 0.7 -1.9
v -0.0999999 2.6 -1.9
v -0.0999999 2.7 -1.9
v 2.38419e-007 0.4 -1.9
v 2.38419e-007 0.7 -1.9
v 2.38419e-007 2.6 -1.9
v 2.38419e-007 2.7 -1.9
v 0.1 0.4 -1.9
v 0.1 0.7 -1.9
v 0.1 2.6 -1.9
v 0.1 2.7 -1.9
v 0.2 0.4 -1.9
v 0.2 0.7 -1.9
v 0.2 2.6 -1.9
v 0.2 2.7 -1.9
v 0.3 0.4 -1.9
v 0.3 0.7 -1.9
v 0.3 2.6 -1.9
v 0.3 2.7 -1.9
v 0.4 0.4 -1.9
v 0.4 0.7 -1.9
v 0.4 2.6 -1.9
v 0.4 2.7 -1.9
v 0.5 2.6 -1.9
v 0.5 2.7 -1.9
v 0.5 3.1 -1.9
v 0.5 3.2 -1.9
v 0.5 3.3 -1.9
v 0.5 3.4 -1.9
v 0.6 2.6 -1.9
v 0.6 2.7 -1.9
v 0.6 3 -1.9
v 0.6 3.5 -1.9
v 0.7 2.6 -1.9
v 0.7 2.7 -1.9
v 0.7 3 -1.9
v 0.7 3.6 -1.9
v 0.8 2.6 -1.9
v 0.8 2.7 -1.9
v 0.8 3 -1.9
v 0.8 3.7 -1.9
v 1 2 -1.9
v 1 2.1 -1.9
v 1.1 2.2 -1.9
v 1.1 2.3 -1.9
v 1.2 2.4 -1.9
v 1.2 2.5 -1.9
v 1.4 0.6 -1.9
v 1.4 2 -1.9
v 1.4 2.1 -1.9
v 1.4 2.2 -1.9
v 1.4 2.3 -1.9
v 1.4 2.4 -1.9
v 1.4 2.5 -1.9
v 1.4 2.7 -1.9
v 1.5 0.7 -1.9
v 1.5 2.7 -1.9
v 1.6 0.4 -1.9
v 1.6 0.5 -1.9
v 1.6 3.6 -1.9
v 1.6 3.7 -1.9
v 1.7 0.4 -1.9
v 1.7 0.5 -1.9
v 1.7 3.6 -1.9
v 1.7 3.7 -1.9
v 1.8 0.3 -1.9
v 1.8 0.6 -1.9
v 1.8 0.7 -1.9
v 1.8 2.7 -1.9
v 1.8 3 -1.9
v 1.8 3.8 -1.9
v 1.9 0.2 -1.9
v 1.9 2.7 -1.9
v 1.9 3 -1.9
v 1.9 3.9 -1.9
v 2 0.2 -1.9
v 2 2.7 -1.9
v 2 2.8 -1.9
v 2 3 -1.9
v 2 3.9 -1.9
v -2 0 -2
v -2 2.7 -2
v -2 2.8 -2
v -2 3 -2
v -2 4 -2
v -1.9 0.2 -2
v -1.9 2.7 -2
v -1.9 3 -2
v -1.9 3.9 -2
v -1.8 0.3 -2
v -1.8 2.7 -2
v -1.8 3 -2
v -1.8 3.8 -2
v -0.5 0.4 -2
v -0.5 0.5 -2
v -0.5 3.6 -2
v -0.5 3.7 -2
v -0.4 0.4 -2
v -0.4 0.5 -2
v -0.4 3.6 -2
v -0.4 3.7 -2
v -0.3 0.3 -2
v -0.3 2.7 -2
v -0.3 3.6 -2
v -0.3 3.8 -2
v -0.2 0.3 -2
v -0.2 2.7 -2
v -0.2 3.1 -2
v -0.2 3.2 -2
v -0.2 3.3 -2
v -0.2 3.4 -2
v -0.2 3.7 -2
v -0.2 3.8 -2
v -0.0999999 0.4 -2
v -0.0999999 0.7 -2
v -0.0999999 2.6 -2
v -0.0999999 2.7 -2
v 2.38419e-007 0.4 -2
v 2.38419e-007 0.7 -2
v 2.38419e-007 2.6 -2
v 2.38419e-007 2.7 -2
v 0.1 0.4 -2
v 0.1 0.7 -2
v 0.1 2.6 -2
v 0.1 2.7 -2
v 0.2 0.4 -2
v 0.2 0.7 -2
v 0.2 2.6 -2
v 0.2 2.7 -2
v 0.3 0.4 -2
v 0.3 0.7 -2
v 0.3 2.6 -2
v 0.3 2.7 -2
v 0.4 0.4 -2
v 0.4 0.7 -2
v 0.4 2.6 -2
v 0.4 2.7 -2
v 0.5 2.6 -2
v 0.5 2.7 -2
v 0.5 3.1 -2
v 0.5 3.2 -2
v 0.5 3.3 -2
v 0.5 3.4 -2
v 0.6 2.6 -2
v 0.6 2.7 -2
v 0.7 2.6 -2
v 0.7 2.7 -2
v 0.7 3 -2
v 0.7 3.6 -2
v 0.8 2.6 -2
v 0.8 2.7 -2
v 0.8 3 -2
v 0.8 3.7 -2
v 1 2 -2
v 1 2.1 -2
v 1.1 2.2 -2
v 1.1 2.3 -2
v 1.2 2.4 -2
v 1.2 2.5 -2
v 1.4 0.6 -2
v 1.4 2 -2
v 1.4 2.1 -2
v 1.4 2.2 -2
v 1.4 2.3 -2
v 1.4 2.4 -2
v 1.4 2.5 -2
v 1.4 2.7 -2
v 1.5 0.7 -2
v 1.5 2.7 -2
v 1.6 0.4 -2
v 1.6 0.5 -2
v 1.6 3.6 -2
v 1.6 3.7 -2
v 1.7 0.4 -2
v 1.7 0.5 -2
v 1.7 3.6 -2
v 1.7 3.7 -2
v 1.8 0.3 -2
v 1.8 0.6 -2
v 1.8 0.7 -2
v 1.8 2.7 -2
v 1.8 3 -2
v 1.8 3.8 -2
v 1.9 0.2 -2
v 1.9 2.7 -2
v 1.9 3 -2
v 1.9 3.9 -2
v 2 0 -2
v 2 2.7 -2
v 2 2.8 -2
v 2 3 -2
v 2 4 -2
v -1.6 0 -1.4
v -0.5 0 -1.4
v -2 0 -1.8
v -1.6 0 -1.8
v -0.5 0 -1.8
v 2 0 -1.8
v -2 0 -2
v 2 0 -2
v -0.3 3 -1.8
v 0.6 3 -1.8
v -0.3 3 -1.9
v 0.6 3 -1.9
v -0.2 3.2 -1.8
v 0.5 3.2 -1.8
v -0.2 3.2 -1.9
v 0.5 3.2 -1.9
v -0.2 3.4 -1.8
v 0.5 3.4 -1.8
v -0.2 3.4 -1.9
v 0.5 3.4 -1.9
v -1.6 3.9 -1.4
v -0.5 3.9 -1.4
v -1.4 3.9 -1.5
v -0.7 3.9 -1.5
v -1.5 3.9 -1.6
v -1.4 3.9 -1.6
v -0.7 3.9 -1.6
v -0.6 3.9 -1.6
v -2 3.9 -1.7
v -1.6 3.9 -1.7
v -0.5 3.9 -1.7
v 2 3.9 -1.7
v -2 3.9 -1.9
v -1.9 3.9 -1.9
v -1.5 3.9 -1.9
v -0.6 3.9 -1.9
v 1.9 3.9 -1.9
v 2 3.9 -1.9
v -1.6 0.2 -1.4
v -0.5 0.2 -1.4
v -1.4 0.2 -1.5
v -0.7 0.2 -1.5
v -1.5 0.2 -1.6
v -1.4 0.2 -1.6
v -0.7 0.2 -1.6
v -0.6 0.2 -1.6
v -2 0.2 -1.8
v -1.6 0.2 -1.8
v -0.5 0.2 -1.8
v 2 0.2 -1.8
v -2 0.2 -1.9
v -1.9 0.2 -1.9
v -1.5 0.2 -1.9
v -0.6 0.2 -1.9
v 1.9 0.2 -1.9
v 2 0.2 -1.9
v -0.2 3.1 -1.8
v 0.5 3.1 -1.8
v -0.2 3.1 -1.9
v 0.5 3.1 -1.9
v -0.2 3.3 -1.8
v 0.5 3.3 -1.8
v -0.2 3.3 -1.9
v 0.5 3.3 -1.9
v -0.3 3.5 -1.8
v 0.6 3.5 -1.8
v -0.3 3.5 -1.9
v 0.6 3.5 -1.9
v -1.6 4 -1.4
v -0.5 4 -1.4
v -2 4 -1.7
v -1.6 4 -1.7
v -0.5 4 -1.7
v 2 4 -1.7
v -2 4 -2
v 2 4 -2

# faces
f 3/6/1 2/6/1 1/6/1
f 4/6/1 2/6/1 3/6/1
f 5/6/1 2/6/1 4/6/1
f 6/6/1 2/6/1 5/6/1
f 7/2/1 6/2/1 5/2/1
f 8/2/1 6/2/1 7/2/1
f 9/1/1 8/1/1 7/1/1
f 10/1/1 8/1/1 9/1/1
f 12/6/1 10/6/1 9/6/1
f 13/6/1 12/6/1 11/6/1
f 14/6/1 10/6/1 12/6/1
f 14/6/1 12/6/1 13/6/1
f 17/6/1 16/6/1 15/6/1
f 18/6/1 16/6/1 17/6/1
f 21/6/1 20/6/1 19/6/1
f 22/6/1 20/6/1 21/6/1
f 25/5/1 24/5/1 23/5/1
f 26/5/1 25/5/1 23/5/1
f 27/5/1 26/5/1 23/5/1
f 28/5/1 27/5/1 23/5/1
f 29/5/1 28/5/1 23/5/1
f 30/5/1 29/5/1 23/5/1
f 31/5/1 29/5/1 30/5/1
f 34/5/1 33/5/1 32/5/1
f 35/5/1 33/5/1 34/5/1
f 36/4/1 35/4/1 34/4/1
f 37/4/1 35/4/1 36/4/1
f 38/5/1 37/5/1 36/5/1
f 39/5/1 37/5/1 38/5/1
f 42/6/1 41/6/1 40/6/1
f 43/6/1 41/6/1 42/6/1
f 46/6/1 45/6/1 44/6/1
f 47/6/1 45/6/1 46/6/1
f 50/6/1 49/6/1 48/6/1
f 51/6/1 49/6/1 50/6/1
f 52/5/2 53/5/2 54/5/2
f 54/5/2 53/5/2 55/5/2
f 54/4/2 55/4/2 56/4/2
f 56/4/2 55/4/2 57/4/2
f 56/5/2 57/5/2 58/5/2
f 58/5/2 57/5/2 59/5/2
f 60/5/2 61/5/2 62/5/2
f 60/5/2 62/5/2 63/5/2
f 60/5/2 63/5/2 64/5/2
f 60/5/2 64/5/2 65/5/2
f 60/5/2 65/5/2 66/5/2
f 60/5/2 66/5/2 67/5/2
f 67/5/2 66/5/2 68/5/2
f 69/6/2 70/6/2 71/6/2
f 71/6/2 70/6/2 72/6/2
f 73/6/2 74/6/2 75/6/2
f 75/6/2 74/6/2 76/6/2
f 77/6/2 78/6/2 79/6/2
f 79/6/2 78/6/2 80/6/2
f 81/6/2 82/6/2 83/6/2
f 83/6/2 82/6/2 84/6/2
f 85/6/2 86/6/2 87/6/2
f 87/6/2 86/6/2 88/6/2
f 89/6/2 90/6/2 91/6/2
f 91/6/2 90/6/2 92/6/2
f 92/6/2 90/6/2 93/6/2
f 93/6/2 90/6/2 94/6/2
f 93/2/2 94/2/2 95/2/2
f 95/2/2 94/2/2 96/2/2
f 95/1/2 96/1/2 97/1/2
f 97/1/2 96/1/2 98/1/2
f 97/6/2 98/6/2 100/6/2
f 99/6/2 100/6/2 101/6/2
f 100/6/2 98/6/2 102/6/2
f 101/6/2 100/6/2 102/6/2
f 107/6/3 104/6/3 103/6/3
f 108/6/3 104/6/3 107/6/3
f 109/6/3 106/6/3 105/6/3
f 110/6/3 106/6/3 109/6/3
f 115/5/3 112/5/3 111/5/3
f 115/4/3 113/4/3 112/4/3
f 116/5/3 114/5/3 113/5/3
f 116/4/3 113/4/3 115/4/3
f 117/5/3 115/5/3 111/5/3
f 117/5/3 116/5/3 115/5/3
f 118/5/3 114/5/3 116/5/3
f 118/5/3 116/5/3 117/5/3
f 119/5/3 117/5/3 111/5/3
f 119/4/3 118/4/3 117/4/3
f 120/5/3 114/5/3 118/5/3
f 120/4/3 118/4/3 119/4/3
f 121/5/3 119/5/3 111/5/3
f 121/5/3 120/5/3 119/5/3
f 122/5/3 114/5/3 120/5/3
f 122/5/3 120/5/3 121/5/3
f 123/5/3 121/5/3 111/5/3
f 123/4/3 122/4/3 121/4/3
f 124/5/3 114/5/3 122/5/3
f 124/4/3 122/4/3 123/4/3
f 125/5/3 123/5/3 111/5/3
f 125/5/3 124/5/3 123/5/3
f 126/5/3 114/5/3 124/5/3
f 126/5/3 124/5/3 125/5/3
f 127/5/3 125/5/3 111/5/3
f 128/4/3 126/4/3 125/4/3
f 128/5/3 125/5/3 127/5/3
f 129/5/3 114/5/3 126/5/3
f 129/4/3 126/4/3 128/4/3
f 130/5/3 114/5/3 129/5/3
f 133/5/3 132/5/3 131/5/3
f 134/5/3 132/5/3 133/5/3
f 135/5/3 132/5/3 134/5/3
f 136/5/3 132/5/3 135/5/3
f 141/5/3 138/5/3 137/5/3
f 141/5/3 140/5/3 139/5/3
f 141/5/3 139/5/3 138/5/3
f 142/5/3 140/5/3 141/5/3
f 145/6/3 144/6/3 143/6/3
f 146/6/3 144/6/3 145/6/3
f 149/6/3 148/6/3 147/6/3
f 150/6/3 148/6/3 149/6/3
f 153/6/3 152/6/3 151/6/3
f 154/6/3 152/6/3 153/6/3
f 159/6/3 158/6/3 157/6/3
f 160/6/3 158/6/3 159/6/3
f 161/6/3 158/6/3 160/6/3
f 162/6/3 158/6/3 161/6/3
f 163/6/3 159/6/3 157/6/3
f 164/6/3 161/6/3 160/6/3
f 165/6/3 161/6/3 164/6/3
f 166/6/3 158/6/3 162/6/3
f 167/6/3 165/6/3 164/6/3
f 167/6/3 166/6/3 165/6/3
f 167/6/3 163/6/3 157/6/3
f 167/6/3 164/6/3 163/6/3
f 168/6/3 158/6/3 166/6/3
f 168/6/3 166/6/3 167/6/3
f 169/6/3 156/6/3 155/6/3
f 170/6/3 156/6/3 169/6/3
f 176/6/3 172/6/3 171/6/3
f 177/2/3 173/2/3 172/2/3
f 177/6/3 172/6/3 176/6/3
f 178/6/3 175/6/3 174/6/3
f 178/1/3 174/1/3 173/1/3
f 179/6/3 175/6/3 178/6/3
f 180/5/3 177/5/3 176/5/3
f 181/2/3 173/2/3 177/2/3
f 181/5/3 177/5/3 180/5/3
f 182/1/3 178/1/3 173/1/3
f 182/5/3 179/5/3 178/5/3
f 183/5/3 179/5/3 182/5/3
f 184/5/3 180/5/3 176/5/3
f 185/4/3 181/4/3 180/4/3
f 185/5/3 180/5/3 184/5/3
f 186/2/3 173/2/3 181/2/3
f 186/4/3 181/4/3 185/4/3
f 187/1/3 182/1/3 173/1/3
f 187/2/3 173/2/3 186/2/3
f 188/4/3 183/4/3 182/4/3
f 188/1/3 182/1/3 187/1/3
f 189/5/3 179/5/3 183/5/3
f 189/4/3 183/4/3 188/4/3
f 190/5/3 179/5/3 189/5/3
f 198/4/3 193/4/3 192/4/3
f 199/4/3 193/4/3 198/4/3
f 200/4/3 196/4/3 195/4/3
f 201/4/3 196/4/3 200/4/3
f 202/4/3 198/4/3 192/4/3
f 202/3/3 199/3/3 198/3/3
f 203/4/3 193/4/3 199/4/3
f 203/3/3 199/3/3 202/3/3
f 204/3/3 201/3/3 200/3/3
f 204/4/3 200/4/3 195/4/3
f 205/4/3 196/4/3 201/4/3
f 205/3/3 201/3/3 204/3/3
f 206/5/3 192/5/3 191/5/3
f 206/4/3 202/4/3 192/4/3
f 206/4/3 203/4/3 202/4/3
f 207/2/3 194/2/3 193/2/3
f 207/4/3 203/4/3 206/4/3
f 207/4/3 193/4/3 203/4/3
f 208/1/3 195/1/3 194/1/3
f 208/4/3 205/4/3 204/4/3
f 208/4/3 204/4/3 195/4/3
f 209/4/3 205/4/3 208/4/3
f 210/4/3 205/4/3 209/4/3
f 211/4/3 196/4/3 205/4/3
f 211/4/3 205/4/3 210/4/3
f 211/5/3 197/5/3 196/5/3
f 212/5/3 206/5/3 191/5/3
f 212/5/3 207/5/3 206/5/3
f 213/2/3 194/2/3 207/2/3
f 213/5/3 207/5/3 212/5/3
f 218/5/3 211/5/3 210/5/3
f 219/5/3 197/5/3 211/5/3
f 219/5/3 211/5/3 218/5/3
f 220/4/3 213/4/3 212/4/3
f 221/4/3 213/4/3 220/4/3
f 222/4/3 213/4/3 221/4/3
f 223/2/3 194/2/3 213/2/3
f 223/4/3 213/4/3 222/4/3
f 224/4/3 220/4/3 212/4/3
f 224/6/3 221/6/3 220/6/3
f 225/4/3 222/4/3 221/4/3
f 225/6/3 221/6/3 224/6/3
f 226/5/3 223/5/3 222/5/3
f 226/4/3 222/4/3 225/4/3
f 227/2/3 194/2/3 223/2/3
f 227/5/3 223/5/3 226/5/3
f 228/4/3 224/4/3 212/4/3
f 228/4/3 226/4/3 225/4/3
f 228/4/3 227/4/3 226/4/3
f 228/4/3 225/4/3 224/4/3
f 229/4/3 227/4/3 228/4/3
f 230/4/3 227/4/3 229/4/3
f 231/2/3 194/2/3 227/2/3
f 231/4/3 227/4/3 230/4/3
f 232/4/3 228/4/3 212/4/3
f 232/6/3 229/6/3 228/6/3
f 233/4/3 230/4/3 229/4/3
f 233/6/3 229/6/3 232/6/3
f 234/5/3 231/5/3 230/5/3
f 234/4/3 230/4/3 233/4/3
f 235/2/3 194/2/3 231/2/3
f 235/5/3 231/5/3 234/5/3
f 236/4/3 232/4/3 212/4/3
f 236/4/3 234/4/3 233/4/3
f 236/4/3 235/4/3 234/4/3
f 236/4/3 233/4/3 232/4/3
f 237/4/3 235/4/3 236/4/3
f 238/4/3 235/4/3 237/4/3
f 239/2/3 194/2/3 235/2/3
f 239/4/3 235/4/3 238/4/3
f 240/4/3 236/4/3 212/4/3
f 240/6/3 237/6/3 236/6/3
f 241/4/3 238/4/3 237/4/3
f 241/6/3 237/6/3 240/6/3
f 242/5/3 239/5/3 238/5/3
f 242/4/3 238/4/3 241/4/3
f 243/2/3 194/2/3 239/2/3
f 243/5/3 239/5/3 242/5/3
f 244/4/3 242/4/3 241/4/3
f 244/4/3 241/4/3 240/4/3
f 244/4/3 243/4/3 242/4/3
f 245/2/3 194/2/3 243/2/3
f 245/4/3 243/4/3 244/4/3
f 246/7/3 215/7/3 214/7/3
f 247/7/3 215/7/3 246/7/3
f 248/7/3 217/7/3 216/7/3
f 249/7/3 217/7/3 248/7/3
f 250/4/3 244/4/3 240/4/3
f 250/5/3 245/5/3 244/5/3
f 251/2/3 194/2/3 245/2/3
f 251/5/3 245/5/3 250/5/3
f 252/1/3 208/1/3 194/1/3
f 253/4/3 210/4/3 209/4/3
f 254/4/3 251/4/3 250/4/3
f 254/4/3 250/4/3 240/4/3
f 255/2/3 194/2/3 251/2/3
f 255/4/3 251/4/3 254/4/3
f 256/1/3 252/1/3 194/1/3
f 256/4/3 253/4/3 252/4/3
f 257/5/3 218/5/3 210/5/3
f 257/4/3 253/4/3 256/4/3
f 257/4/3 210/4/3 253/4/3
f 258/5/3 255/5/3 254/5/3
f 258/4/3 254/4/3 240/4/3
f 259/2/3 194/2/3 255/2/3
f 259/5/3 255/5/3 258/5/3
f 260/1/3 256/1/3 194/1/3
f 260/5/3 257/5/3 256/5/3
f 261/5/3 218/5/3 257/5/3
f 261/5/3 257/5/3 260/5/3
f 261/4/3 219/4/3 218/4/3
f 262/4/3 258/4/3 240/4/3
f 262/4/3 259/4/3 258/4/3
f 263/4/3 259/4/3 262/4/3
f 264/4/3 259/4/3 263/4/3
f 265/4/3 259/4/3 264/4/3
f 266/4/3 259/4/3 265/4/3
f 267/4/3 259/4/3 266/4/3
f 268/4/3 262/4/3 240/4/3
f 269/5/3 263/5/3 262/5/3
f 269/4/3 262/4/3 268/4/3
f 270/4/3 264/4/3 263/4/3
f 270/5/3 263/5/3 269/5/3
f 271/5/3 265/5/3 264/5/3
f 271/4/3 264/4/3 270/4/3
f 272/4/3 266/4/3 265/4/3
f 272/5/3 265/5/3 271/5/3
f 273/5/3 267/5/3 266/5/3
f 273/4/3 266/4/3 272/4/3
f 274/4/3 259/4/3 267/4/3
f 274/5/3 267/5/3 273/5/3
f 275/2/3 194/2/3 259/2/3
f 275/4/3 259/4/3 274/4/3
f 276/5/3 274/5/3 273/5/3
f 276/5/3 273/5/3 272/5/3
f 276/5/3 275/5/3 274/5/3
f 276/5/3 272/5/3 271/5/3
f 276/5/3 271/5/3 270/5/3
f 276/5/3 270/5/3 269/5/3
f 276/5/3 269/5/3 268/5/3
f 277/2/3 194/2/3 275/2/3
f 277/5/3 275/5/3 276/5/3
f 278/4/3 240/4/3 212/4/3
f 278/4/3 268/4/3 240/4/3
f 279/4/3 268/4/3 278/4/3
f 280/4/3 261/4/3 260/4/3
f 281/4/3 219/4/3 261/4/3
f 281/4/3 261/4/3 280/4/3
f 282/4/3 278/4/3 212/4/3
f 282/3/3 279/3/3 278/3/3
f 283/4/3 268/4/3 279/4/3
f 283/3/3 279/3/3 282/3/3
f 284/4/3 280/4/3 260/4/3
f 284/3/3 281/3/3 280/3/3
f 285/4/3 219/4/3 281/4/3
f 285/3/3 281/3/3 284/3/3
f 286/5/3 212/5/3 191/5/3
f 286/4/3 282/4/3 212/4/3
f 286/4/3 283/4/3 282/4/3
f 287/4/3 268/4/3 283/4/3
f 287/4/3 283/4/3 286/4/3
f 287/5/3 276/5/3 268/5/3
f 288/4/3 277/4/3 276/4/3
f 288/5/3 276/5/3 287/5/3
f 289/2/3 194/2/3 277/2/3
f 289/4/3 277/4/3 288/4/3
f 290/4/3 284/4/3 260/4/3
f 290/1/3 260/1/3 194/1/3
f 290/4/3 285/4/3 284/4/3
f 291/4/3 219/4/3 285/4/3
f 291/4/3 285/4/3 290/4/3
f 291/5/3 197/5/3 219/5/3
f 292/5/3 286/5/3 191/5/3
f 292/5/3 289/5/3 288/5/3
f 292/5/3 287/5/3 286/5/3
f 292/5/3 288/5/3 287/5/3
f 293/2/3 194/2/3 289/2/3
f 293/5/3 289/5/3 292/5/3
f 294/5/3 291/5/3 290/5/3
f 294/1/3 290/1/3 194/1/3
f 295/5/3 197/5/3 291/5/3
f 295/5/3 291/5/3 294/5/3
f 296/6/3 293/6/3 292/6/3
f 297/2/3 194/2/3 293/2/3
f 297/6/3 293/6/3 296/6/3
f 298/1/3 294/1/3 194/1/3
f 298/2/3 194/2/3 297/2/3
f 299/6/3 295/6/3 294/6/3
f 299/1/3 294/1/3 298/1/3
f 300/6/3 295/6/3 299/6/3
f 301/6/4 302/6/4 306/6/4
f 302/2/4 303/2/4 307/2/4
f 306/6/4 302/6/4 307/6/4
f 304/6/4 305/6/4 308/6/4
f 303/1/4 304/1/4 308/1/4
f 308/6/4 305/6/4 309/6/4
f 306/5/4 307/5/4 310/5/4
f 307/2/4 303/2/4 311/2/4
f 310/5/4 307/5/4 311/5/4
f 303/1/4 308/1/4 312/1/4
f 308/5/4 309/5/4 312/5/4
f 312/5/4 309/5/4 313/5/4
f 310/4/4 311/4/4 314/4/4
f 314/4/4 311/4/4 315/4/4
f 312/4/4 313/4/4 316/4/4
f 316/4/4 313/4/4 317/4/4
f 310/4/4 314/4/4 318/4/4
f 314/3/4 315/3/4 318/3/4
f 315/4/4 311/4/4 319/4/4
f 318/3/4 315/3/4 319/3/4
f 316/3/4 317/3/4 320/3/4
f 312/4/4 316/4/4 320/4/4
f 317/4/4 313/4/4 321/4/4
f 320/3/4 317/3/4 321/3/4
f 306/5/4 310/5/4 322/5/4
f 310/4/4 318/4/4 322/4/4
f 318/4/4 319/4/4 322/4/4
f 311/2/4 303/2/4 323/2/4
f 322/4/4 319/4/4 323/4/4
f 319/4/4 311/4/4 323/4/4
f 320/4/4 321/4/4 324/4/4
f 312/4/4 320/4/4 324/4/4
f 321/4/4 313/4/4 325/4/4
f 324/4/4 321/4/4 325/4/4
f 313/5/4 309/5/4 325/5/4
f 306/5/4 322/5/4 326/5/4
f 322/5/4 323/5/4 326/5/4
f 323/2/4 303/2/4 327/2/4
f 326/5/4 323/5/4 327/5/4
f 312/4/4 324/4/4 328/4/4
f 328/4/4 324/4/4 329/4/4
f 329/4/4 324/4/4 330/4/4
f 330/4/4 324/4/4 331/4/4
f 324/5/4 325/5/4 332/5/4
f 325/5/4 309/5/4 333/5/4
f 332/5/4 325/5/4 333/5/4
f 326/4/4 327/4/4 334/4/4
f 334/4/4 327/4/4 335/4/4
f 335/4/4 327/4/4 336/4/4
f 327/2/4 303/2/4 337/2/4
f 336/4/4 327/4/4 337/4/4
f 326/4/4 334/4/4 338/4/4
f 334/6/4 335/6/4 338/6/4
f 335/4/4 336/4/4 339/4/4
f 338/6/4 335/6/4 339/6/4
f 336/5/4 337/5/4 340/5/4
f 339/4/4 336/4/4 340/4/4
f 337/2/4 303/2/4 341/2/4
f 340/5/4 337/5/4 341/5/4
f 326/4/4 338/4/4 342/4/4
f 339/4/4 340/4/4 342/4/4
f 340/4/4 341/4/4 342/4/4
f 338/4/4 339/4/4 342/4/4
f 342/4/4 341/4/4 343/4/4
f 343/4/4 341/4/4 344/4/4
f 341/2/4 303/2/4 345/2/4
f 344/4/4 341/4/4 345/4/4
f 326/4/4 342/4/4 346/4/4
f 342/6/4 343/6/4 346/6/4
f 343/4/4 344/4/4 347/4/4
f 346/6/4 343/6/4 347/6/4
f 344/5/4 345/5/4 348/5/4
f 347/4/4 344/4/4 348/4/4
f 345/2/4 303/2/4 349/2/4
f 348/5/4 345/5/4 349/5/4
f 326/4/4 346/4/4 350/4/4
f 347/4/4 348/4/4 350/4/4
f 348/4/4 349/4/4 350/4/4
f 346/4/4 347/4/4 350/4/4
f 350/4/4 349/4/4 351/4/4
f 351/4/4 349/4/4 352/4/4
f 349/2/4 303/2/4 353/2/4
f 352/4/4 349/4/4 353/4/4
f 326/4/4 350/4/4 354/4/4
f 350/6/4 351/6/4 354/6/4
f 351/4/4 352/4/4 355/4/4
f 354/6/4 351/6/4 355/6/4
f 352/5/4 353/5/4 356/5/4
f 355/4/4 352/4/4 356/4/4
f 353/2/4 303/2/4 357/2/4
f 356/5/4 353/5/4 357/5/4
f 355/4/4 356/4/4 358/4/4
f 354/4/4 355/4/4 358/4/4
f 356/4/4 357/4/4 358/4/4
f 357/2/4 303/2/4 359/2/4
f 358/4/4 357/4/4 359/4/4
f 312/4/4 328/4/4 360/4/4
f 328/7/4 329/7/4 360/7/4
f 329/4/4 330/4/4 361/4/4
f 360/7/4 329/7/4 361/7/4
f 330/7/4 331/7/4 362/7/4
f 361/4/4 330/4/4 362/4/4
f 331/4/4 324/4/4 363/4/4
f 362/7/4 331/7/4 363/7/4
f 358/5/4 359/5/4 364/5/4
f 354/4/4 358/4/4 364/4/4
f 359/2/4 303/2/4 365/2/4
f 364/5/4 359/5/4 365/5/4
f 354/4/4 364/4/4 366/4/4
f 364/4/4 365/4/4 366/4/4
f 365/2/4 303/2/4 367/2/4
f 366/4/4 365/4/4 367/4/4
f 361/4/4 362/4/4 368/4/4
f 303/1/4 312/1/4 368/1/4
f 312/4/4 360/4/4 368/4/4
f 362/4/4 363/4/4 368/4/4
f 360/4/4 361/4/4 368/4/4
f 324/5/4 332/5/4 369/5/4
f 368/4/4 363/4/4 369/4/4
f 363/4/4 324/4/4 369/4/4
f 366/5/4 367/5/4 370/5/4
f 354/4/4 366/4/4 370/4/4
f 367/2/4 303/2/4 371/2/4
f 370/5/4 367/5/4 371/5/4
f 303/1/4 368/1/4 372/1/4
f 368/5/4 369/5/4 372/5/4
f 369/5/4 332/5/4 373/5/4
f 372/5/4 369/5/4 373/5/4
f 332/4/4 333/4/4 373/4/4
f 354/4/4 370/4/4 374/4/4
f 370/4/4 371/4/4 374/4/4
f 374/4/4 371/4/4 375/4/4
f 375/4/4 371/4/4 376/4/4
f 376/4/4 371/4/4 377/4/4
f 377/4/4 371/4/4 378/4/4
f 378/4/4 371/4/4 379/4/4
f 354/4/4 374/4/4 380/4/4
f 374/5/4 375/5/4 381/5/4
f 380/4/4 374/4/4 381/4/4
f 375/4/4 376/4/4 382/4/4
f 381/5/4 375/5/4 382/5/4
f 376/5/4 377/5/4 383/5/4
f 382/4/4 376/4/4 383/4/4
f 377/4/4 378/4/4 384/4/4
f 383/5/4 377/5/4 384/5/4
f 378/5/4 379/5/4 385/5/4
f 384/4/4 378/4/4 385/4/4
f 379/4/4 371/4/4 386/4/4
f 385/5/4 379/5/4 386/5/4
f 371/2/4 303/2/4 387/2/4
f 386/4/4 371/4/4 387/4/4
f 385/5/4 386/5/4 388/5/4
f 384/5/4 385/5/4 388/5/4
f 386/5/4 387/5/4 388/5/4
f 383/5/4 384/5/4 388/5/4
f 382/5/4 383/5/4 388/5/4
f 381/5/4 382/5/4 388/5/4
f 380/5/4 381/5/4 388/5/4
f 387/2/4 303/2/4 389/2/4
f 388/5/4 387/5/4 389/5/4
f 326/4/4 354/4/4 390/4/4
f 354/4/4 380/4/4 390/4/4
f 390/4/4 380/4/4 391/4/4
f 372/4/4 373/4/4 392/4/4
f 373/4/4 333/4/4 393/4/4
f 392/4/4 373/4/4 393/4/4
f 326/4/4 390/4/4 394/4/4
f 390/3/4 391/3/4 394/3/4
f 391/4/4 380/4/4 395/4/4
f 394/3/4 391/3/4 395/3/4
f 372/4/4 392/4/4 396/4/4
f 392/3/4 393/3/4 396/3/4
f 393/4/4 333/4/4 397/4/4
f 396/3/4 393/3/4 397/3/4
f 306/5/4 326/5/4 398/5/4
f 326/4/4 394/4/4 398/4/4
f 394/4/4 395/4/4 398/4/4
f 380/5/4 388/5/4 399/5/4
f 398/4/4 395/4/4 399/4/4
f 395/4/4 380/4/4 399/4/4
f 388/4/4 389/4/4 400/4/4
f 399/5/4 388/5/4 400/5/4
f 389/2/4 303/2/4 401/2/4
f 400/4/4 389/4/4 401/4/4
f 372/4/4 396/4/4 402/4/4
f 303/1/4 372/1/4 402/1/4
f 396/4/4 397/4/4 402/4/4
f 397/4/4 333/4/4 403/4/4
f 402/4/4 397/4/4 403/4/4
f 333/5/4 309/5/4 403/5/4
f 399/5/4 400/5/4 404/5/4
f 301/6/4 306/6/4 404/6/4
f 306/5/4 398/5/4 404/5/4
f 398/5/4 399/5/4 404/5/4
f 400/5/4 401/5/4 404/5/4
f 401/2/4 303/2/4 405/2/4
f 404/5/4 401/5/4 405/5/4
f 402/5/4 403/5/4 406/5/4
f 303/1/4 402/1/4 406/1/4
f 403/5/4 309/5/4 407/5/4
f 406/5/4 403/5/4 407/5/4
f 309/6/4 305/6/4 407/6/4
f 301/6/4 404/6/4 408/6/4
f 404/6/4 405/6/4 408/6/4
f 405/2/4 303/2/4 409/2/4
f 408/6/4 405/6/4 409/6/4
f 303/1/4 406/1/4 410/1/4
f 409/2/4 303/2/4 410/2/4
f 406/6/4 407/6/4 411/6/4
f 410/1/4 406/1/4 411/1/4
f 407/6/4 305/6/4 412/6/4
f 411/6/4 407/6/4 412/6/4
f 416/6/5 414/6/5 413/6/5
f 417/6/5 414/6/5 416/6/5
f 419/6/5 416/6/5 415/6/5
f 419/6/5 418/6/5 417/6/5
f 419/6/5 417/6/5 416/6/5
f 420/6/5 418/6/5 419/6/5
f 423/6/5 422/6/5 421/6/5
f 424/6/5 422/6/5 423/6/5
f 427/6/5 426/6/5 425/6/5
f 428/6/5 426/6/5 427/6/5
f 431/6/5 430/6/5 429/6/5
f 432/6/5 430/6/5 431/6/5
f 435/6/5 434/6/5 433/6/5
f 436/6/5 434/6/5 435/6/5
f 437/6/5 435/6/5 433/6/5
f 438/6/5 435/6/5 437/6/5
f 439/6/5 434/6/5 436/6/5
f 440/6/5 434/6/5 439/6/5
f 442/6/5 437/6/5 433/6/5
f 443/6/5 434/6/5 440/6/5
f 445/6/5 442/6/5 441/6/5
f 446/6/5 442/6/5 445/6/5
f 447/6/5 437/6/5 442/6/5
f 447/6/5 442/6/5 446/6/5
f 448/6/5 444/6/5 443/6/5
f 448/6/5 443/6/5 440/6/5
f 449/6/5 444/6/5 448/6/5
f 450/6/5 444/6/5 449/6/5
f 451/6/6 452/6/6 453/6/6
f 453/6/6 452/6/6 454/6/6
f 451/6/6 453/6/6 455/6/6
f 455/6/6 453/6/6 456/6/6
f 454/6/6 452/6/6 457/6/6
f 457/6/6 452/6/6 458/6/6
f 451/6/6 455/6/6 460/6/6
f 458/6/6 452/6/6 461/6/6
f 459/6/6 460/6/6 463/6/6
f 463/6/6 460/6/6 464/6/6
f 460/6/6 455/6/6 465/6/6
f 464/6/6 460/6/6 465/6/6
f 461/6/6 462/6/6 466/6/6
f 458/6/6 461/6/6 466/6/6
f 466/6/6 462/6/6 467/6/6
f 467/6/6 462/6/6 468/6/6
f 469/6/6 470/6/6 471/6/6
f 471/6/6 470/6/6 472/6/6
f 473/6/6 474/6/6 475/6/6
f 475/6/6 474/6/6 476/6/6
f 477/6/6 478/6/6 479/6/6
f 479/6/6 478/6/6 480/6/6
f 481/6/6 482/6/6 484/6/6
f 484/6/6 482/6/6 485/6/6
f 483/6/6 484/6/6 487/6/6
f 485/6/6 486/6/6 487/6/6
f 484/6/6 485/6/6 487/6/6
f 487/6/6 486/6/6 488/6/6
