# MagicaVoxel @ Ephtracy

# group
o 

# material
mtllib glue_plum.mtl
usemtl palette

# normals
vn -1 0 0
vn 1 0 0
vn 0 0 1
vn 0 0 -1
vn 0 -1 0
vn 0 1 0

# texcoords
vt 0.412109 0.5
vt 0.537109 0.5
vt 0.552734 0.5
vt 0.654297 0.5

# verts
v -0.3 0.1 0.1
v -0.3 0.1 -0.1
v -0.3 0.2 0.2
v -0.3 0.2 0.1
v -0.3 0.3 0.2
v -0.3 0.3 0.1
v -0.3 0.3 0
v -0.3 0.3 -0.1
v -0.3 0.3 -0.2
v -0.3 0.4 0.2
v -0.3 0.4 0.1
v -0.3 0.4 0
v -0.3 0.4 -0.1
v -0.3 0.5 0.2
v -0.3 0.5 0.1
v -0.3 0.5 0
v -0.3 0.5 -0.2
v -0.3 0.6 0.1
v -0.3 0.6 0
v -0.2 0 0.1
v -0.2 0 -0.1
v -0.2 0.1 0.2
v -0.2 0.1 0.1
v -0.2 0.1 -0.1
v -0.2 0.1 -0.2
v -0.2 0.2 0.2
v -0.2 0.2 0.1
v -0.2 0.2 -0.2
v -0.2 0.2 -0.3
v -0.2 0.3 0.3
v -0.2 0.3 0.2
v -0.2 0.3 -0.1
v -0.2 0.3 -0.2
v -0.2 0.3 -0.3
v -0.2 0.4 0.2
v -0.2 0.5 0.3
v -0.2 0.5 0.2
v -0.2 0.5 0.1
v -0.2 0.5 0
v -0.2 0.5 -0.2
v -0.2 0.5 -0.3
v -0.2 0.6 0.2
v -0.2 0.6 0.1
v -0.2 0.6 0
v -0.2 0.6 -0.2
v -0.2 0.7 0.2
v -0.2 0.7 0.1
v -0.2 0.8 0.3
v -0.2 0.8 0.2
v -0.2 0.9 0.3
v -0.2 0.9 0.1
v -0.1 0 0.2
v -0.1 0 0.1
v -0.1 0 -0.1
v -0.1 0 -0.2
v -0.1 0.1 0.3
v -0.1 0.1 0.2
v -0.1 0.1 0.1
v -0.1 0.1 -0.1
v -0.1 0.1 -0.2
v -0.1 0.1 -0.3
v -0.1 0.2 0.3
v -0.1 0.2 0.2
v -0.1 0.2 -0.2
v -0.1 0.2 -0.3
v -0.1 0.3 0.3
v -0.1 0.3 0.2
v -0.1 0.5 0.3
v -0.1 0.5 0.2
v -0.1 0.5 -0.2
v -0.1 0.5 -0.3
v -0.1 0.6 0.3
v -0.1 0.6 0.2
v -0.1 0.6 0.1
v -0.1 0.6 0
v -0.1 0.6 -0.2
v -0.1 0.6 -0.3
v -0.1 0.7 0.1
v -0.1 0.8 0.1
v -0.1 0.8 0
v 0 0.6 0
v 0 0.6 -0.1
v 0 0.8 0
v 0 0.8 -0.1
v -0.1 0.8 0.3
v -0.1 0.8 0.2
v -0.1 0.8 0.1
v -0.1 0.9 0.3
v -0.1 0.9 0.1
v 0 0.6 0.1
v 0 0.6 0
v 0 0.7 0.2
v 0 0.7 0.1
v 0 0.8 0.2
v 0 0.8 0
v 0.1 0 0.2
v 0.1 0 0.1
v 0.1 0 -0.1
v 0.1 0 -0.2
v 0.1 0.1 0.3
v 0.1 0.1 0.2
v 0.1 0.1 0.1
v 0.1 0.1 -0.1
v 0.1 0.1 -0.2
v 0.1 0.1 -0.3
v 0.1 0.2 0.3
v 0.1 0.2 0.2
v 0.1 0.3 -0.2
v 0.1 0.3 -0.3
v 0.1 0.5 0.3
v 0.1 0.5 0.2
v 0.1 0.5 -0.2
v 0.1 0.5 -0.3
v 0.1 0.6 0.3
v 0.1 0.6 0.2
v 0.1 0.6 0
v 0.1 0.6 -0.1
v 0.1 0.6 -0.2
v 0.1 0.6 -0.3
v 0.1 0.8 0
v 0.1 0.8 -0.1
v 0.2 0 0.1
v 0.2 0 -0.1
v 0.2 0.1 0.2
v 0.2 0.1 0.1
v 0.2 0.1 -0.1
v 0.2 0.1 -0.2
v 0.2 0.2 0.3
v 0.2 0.2 0.2
v 0.2 0.2 0.1
v 0.2 0.2 -0.1
v 0.2 0.2 -0.2
v 0.2 0.3 0.2
v 0.2 0.3 0.1
v 0.2 0.3 -0.2
v 0.2 0.3 -0.3
v 0.2 0.4 0.3
v 0.2 0.4 0.2
v 0.2 0.4 -0.2
v 0.2 0.4 -0.3
v 0.2 0.5 0.3
v 0.2 0.5 0.2
v 0.2 0.5 0.1
v 0.2 0.5 -0.1
v 0.2 0.5 -0.2
v 0.2 0.5 -0.3
v 0.2 0.6 0.2
v 0.2 0.6 0.1
v 0.2 0.6 -0.1
v 0.2 0.6 -0.2
v 0.3 0.1 0.1
v 0.3 0.1 -0.1
v 0.3 0.2 -0.1
v 0.3 0.2 -0.2
v 0.3 0.3 0.2
v 0.3 0.3 0.1
v 0.3 0.3 0
v 0.3 0.3 -0.1
v 0.3 0.3 -0.2
v 0.3 0.4 0.2
v 0.3 0.4 0.1
v 0.3 0.4 0
v 0.3 0.4 -0.2
v 0.3 0.5 0.2
v 0.3 0.5 0.1
v 0.3 0.5 0
v 0.3 0.5 -0.1
v 0.3 0.5 -0.2
v 0.3 0.6 0.1
v 0.3 0.6 -0.1
v -0.2 0.3 0.3
v -0.2 0.5 0.3
v -0.2 0.8 0.3
v -0.2 0.9 0.3
v -0.1 0.1 0.3
v -0.1 0.2 0.3
v -0.1 0.3 0.3
v -0.1 0.5 0.3
v -0.1 0.6 0.3
v -0.1 0.8 0.3
v -0.1 0.9 0.3
v 0 0.1 0.3
v 0 0.2 0.3
v 0 0.3 0.3
v 0 0.5 0.3
v 0.1 0.1 0.3
v 0.1 0.2 0.3
v 0.1 0.3 0.3
v 0.1 0.4 0.3
v 0.1 0.5 0.3
v 0.1 0.6 0.3
v 0.2 0.2 0.3
v 0.2 0.4 0.3
v 0.2 0.5 0.3
v -0.3 0.2 0.2
v -0.3 0.3 0.2
v -0.3 0.4 0.2
v -0.3 0.5 0.2
v -0.2 0.1 0.2
v -0.2 0.2 0.2
v -0.2 0.3 0.2
v -0.2 0.4 0.2
v -0.2 0.5 0.2
v -0.2 0.6 0.2
v -0.2 0.7 0.2
v -0.2 0.8 0.2
v -0.1 0 0.2
v -0.1 0.1 0.2
v -0.1 0.2 0.2
v -0.1 0.3 0.2
v -0.1 0.5 0.2
v -0.1 0.6 0.2
v -0.1 0.8 0.2
v 0 0.1 0.2
v 0 0.7 0.2
v 0 0.8 0.2
v 0.1 0 0.2
v 0.1 0.1 0.2
v 0.1 0.2 0.2
v 0.1 0.5 0.2
v 0.1 0.6 0.2
v 0.2 0.1 0.2
v 0.2 0.2 0.2
v 0.2 0.3 0.2
v 0.2 0.4 0.2
v 0.2 0.5 0.2
v 0.2 0.6 0.2
v 0.3 0.3 0.2
v 0.3 0.4 0.2
v 0.3 0.5 0.2
v -0.3 0.1 0.1
v -0.3 0.2 0.1
v -0.3 0.5 0.1
v -0.3 0.6 0.1
v -0.2 0 0.1
v -0.2 0.1 0.1
v -0.2 0.2 0.1
v -0.2 0.5 0.1
v -0.2 0.6 0.1
v -0.1 0 0.1
v -0.1 0.1 0.1
v -0.1 0.6 0.1
v -0.1 0.7 0.1
v 0 0.6 0.1
v 0 0.7 0.1
v 0.1 0 0.1
v 0.1 0.1 0.1
v 0.2 0 0.1
v 0.2 0.1 0.1
v 0.2 0.2 0.1
v 0.2 0.3 0.1
v 0.2 0.5 0.1
v 0.2 0.6 0.1
v 0.3 0.1 0.1
v 0.3 0.3 0.1
v 0.3 0.5 0.1
v 0.3 0.6 0.1
v 0 0.6 0
v 0 0.8 0
v 0.1 0.6 0
v 0.1 0.8 0
v -0.2 0.7 0.1
v -0.2 0.9 0.1
v -0.1 0.7 0.1
v -0.1 0.8 0.1
v -0.1 0.9 0.1
v -0.3 0.5 0
v -0.3 0.6 0
v -0.2 0.5 0
v -0.2 0.6 0
v -0.1 0.6 0
v -0.1 0.8 0
v 0 0.6 0
v 0 0.8 0
v -0.3 0.1 -0.1
v -0.3 0.3 -0.1
v -0.2 0 -0.1
v -0.2 0.1 -0.1
v -0.2 0.3 -0.1
v -0.1 0 -0.1
v -0.1 0.1 -0.1
v 0 0.6 -0.1
v 0 0.8 -0.1
v 0.1 0 -0.1
v 0.1 0.1 -0.1
v 0.1 0.6 -0.1
v 0.1 0.8 -0.1
v 0.2 0 -0.1
v 0.2 0.1 -0.1
v 0.2 0.2 -0.1
v 0.2 0.5 -0.1
v 0.2 0.6 -0.1
v 0.3 0.1 -0.1
v 0.3 0.2 -0.1
v 0.3 0.5 -0.1
v 0.3 0.6 -0.1
v -0.3 0.3 -0.2
v -0.3 0.5 -0.2
v -0.2 0.1 -0.2
v -0.2 0.2 -0.2
v -0.2 0.3 -0.2
v -0.2 0.5 -0.2
v -0.2 0.6 -0.2
v -0.1 0 -0.2
v -0.1 0.1 -0.2
v -0.1 0.2 -0.2
v -0.1 0.5 -0.2
v -0.1 0.6 -0.2
v 0 0.1 -0.2
v 0.1 0 -0.2
v 0.1 0.1 -0.2
v 0.1 0.3 -0.2
v 0.1 0.5 -0.2
v 0.1 0.6 -0.2
v 0.2 0.1 -0.2
v 0.2 0.2 -0.2
v 0.2 0.3 -0.2
v 0.2 0.4 -0.2
v 0.2 0.5 -0.2
v 0.2 0.6 -0.2
v 0.3 0.2 -0.2
v 0.3 0.3 -0.2
v 0.3 0.4 -0.2
v 0.3 0.5 -0.2
v -0.2 0.2 -0.3
v -0.2 0.3 -0.3
v -0.2 0.5 -0.3
v -0.1 0.1 -0.3
v -0.1 0.2 -0.3
v -0.1 0.5 -0.3
v -0.1 0.6 -0.3
v 0 0.1 -0.3
v 0 0.2 -0.3
v 0 0.3 -0.3
v 0 0.5 -0.3
v 0.1 0.1 -0.3
v 0.1 0.3 -0.3
v 0.1 0.4 -0.3
v 0.1 0.5 -0.3
v 0.1 0.6 -0.3
v 0.2 0.3 -0.3
v 0.2 0.4 -0.3
v 0.2 0.5 -0.3
v -0.1 0 0.2
v 0.1 0 0.2
v -0.2 0 0.1
v -0.1 0 0.1
v 0.1 0 0.1
v 0.2 0 0.1
v -0.2 0 -0.1
v -0.1 0 -0.1
v 0.1 0 -0.1
v 0.2 0 -0.1
v -0.1 0 -0.2
v 0.1 0 -0.2
v -0.1 0.1 0.3
v 0 0.1 0.3
v 0.1 0.1 0.3
v -0.2 0.1 0.2
v -0.1 0.1 0.2
v 0 0.1 0.2
v 0.1 0.1 0.2
v 0.2 0.1 0.2
v -0.3 0.1 0.1
v -0.2 0.1 0.1
v -0.1 0.1 0.1
v 0.1 0.1 0.1
v 0.2 0.1 0.1
v 0.3 0.1 0.1
v -0.3 0.1 -0.1
v -0.2 0.1 -0.1
v -0.1 0.1 -0.1
v 0.1 0.1 -0.1
v 0.2 0.1 -0.1
v 0.3 0.1 -0.1
v -0.2 0.1 -0.2
v -0.1 0.1 -0.2
v 0 0.1 -0.2
v 0.1 0.1 -0.2
v 0.2 0.1 -0.2
v -0.1 0.1 -0.3
v 0 0.1 -0.3
v 0.1 0.1 -0.3
v 0.1 0.2 0.3
v 0.2 0.2 0.3
v -0.3 0.2 0.2
v -0.2 0.2 0.2
v 0.1 0.2 0.2
v 0.2 0.2 0.2
v -0.3 0.2 0.1
v -0.2 0.2 0.1
v 0.2 0.2 -0.1
v 0.3 0.2 -0.1
v -0.2 0.2 -0.2
v -0.1 0.2 -0.2
v 0.2 0.2 -0.2
v 0.3 0.2 -0.2
v -0.2 0.2 -0.3
v -0.1 0.2 -0.3
v -0.2 0.3 0.3
v -0.1 0.3 0.3
v -0.2 0.3 0.2
v -0.1 0.3 0.2
v 0.2 0.3 0.2
v 0.3 0.3 0.2
v 0.2 0.3 0.1
v 0.3 0.3 0.1
v -0.3 0.3 -0.1
v -0.2 0.3 -0.1
v -0.3 0.3 -0.2
v -0.2 0.3 -0.2
v 0.1 0.3 -0.2
v 0.2 0.3 -0.2
v 0.1 0.3 -0.3
v 0.2 0.3 -0.3
v -0.2 0.7 0.2
v 0 0.7 0.2
v -0.2 0.7 0.1
v -0.1 0.7 0.1
v 0 0.7 0.1
v -0.2 0.8 0.3
v -0.1 0.8 0.3
v -0.2 0.8 0.2
v -0.1 0.8 0.2
v -0.2 0.5 0.3
v -0.1 0.5 0.3
v 0.1 0.5 0.3
v 0.2 0.5 0.3
v -0.3 0.5 0.2
v -0.2 0.5 0.2
v -0.1 0.5 0.2
v 0.1 0.5 0.2
v 0.2 0.5 0.2
v 0.3 0.5 0.2
v -0.3 0.5 0.1
v -0.2 0.5 0.1
v 0.2 0.5 0.1
v 0.3 0.5 0.1
v -0.3 0.5 0
v -0.2 0.5 0
v 0.2 0.5 -0.1
v 0.3 0.5 -0.1
v -0.3 0.5 -0.2
v -0.2 0.5 -0.2
v -0.1 0.5 -0.2
v 0.1 0.5 -0.2
v 0.2 0.5 -0.2
v 0.3 0.5 -0.2
v -0.2 0.5 -0.3
v -0.1 0.5 -0.3
v 0.1 0.5 -0.3
v 0.2 0.5 -0.3
v -0.1 0.6 0.3
v 0.1 0.6 0.3
v -0.2 0.6 0.2
v -0.1 0.6 0.2
v 0.1 0.6 0.2
v 0.2 0.6 0.2
v -0.3 0.6 0.1
v -0.2 0.6 0.1
v -0.1 0.6 0.1
v 0 0.6 0.1
v 0.2 0.6 0.1
v 0.3 0.6 0.1
v -0.3 0.6 0
v -0.2 0.6 0
v -0.1 0.6 0
v 0 0.6 0
v 0.1 0.6 0
v 0 0.6 -0.1
v 0.1 0.6 -0.1
v 0.2 0.6 -0.1
v 0.3 0.6 -0.1
v -0.2 0.6 -0.2
v -0.1 0.6 -0.2
v 0.1 0.6 -0.2
v 0.2 0.6 -0.2
v -0.1 0.6 -0.3
v 0.1 0.6 -0.3
v -0.1 0.8 0.2
v 0 0.8 0.2
v -0.1 0.8 0.1
v -0.1 0.8 0
v 0 0.8 0
v 0.1 0.8 0
v 0 0.8 -0.1
v 0.1 0.8 -0.1
v -0.2 0.9 0.3
v -0.1 0.9 0.3
v -0.2 0.9 0.1
v -0.1 0.9 0.1

# faces
f 4/3/1 2/3/1 1/3/1
f 5/1/1 4/1/1 3/1/1
f 6/3/1 2/3/1 4/3/1
f 6/1/1 4/1/1 5/1/1
f 7/3/1 2/3/1 6/3/1
f 8/3/1 2/3/1 7/3/1
f 10/3/1 6/3/1 5/3/1
f 11/1/1 7/1/1 6/1/1
f 11/3/1 6/3/1 10/3/1
f 12/3/1 8/3/1 7/3/1
f 12/1/1 7/1/1 11/1/1
f 13/1/1 9/1/1 8/1/1
f 13/3/1 8/3/1 12/3/1
f 14/1/1 12/1/1 11/1/1
f 14/1/1 11/1/1 10/1/1
f 14/1/1 13/1/1 12/1/1
f 15/1/1 13/1/1 14/1/1
f 16/1/1 13/1/1 15/1/1
f 17/1/1 9/1/1 13/1/1
f 17/1/1 13/1/1 16/1/1
f 18/1/1 16/1/1 15/1/1
f 19/1/1 16/1/1 18/1/1
f 23/3/1 21/3/1 20/3/1
f 24/3/1 21/3/1 23/3/1
f 26/3/1 23/3/1 22/3/1
f 27/3/1 23/3/1 26/3/1
f 28/3/1 25/3/1 24/3/1
f 32/3/1 29/3/1 28/3/1
f 32/3/1 28/3/1 24/3/1
f 33/3/1 29/3/1 32/3/1
f 34/3/1 29/3/1 33/3/1
f 35/1/1 31/1/1 30/1/1
f 36/1/1 35/1/1 30/1/1
f 37/1/1 35/1/1 36/1/1
f 40/1/1 34/1/1 33/1/1
f 41/1/1 34/1/1 40/1/1
f 42/1/1 38/1/1 37/1/1
f 43/1/1 38/1/1 42/1/1
f 44/1/1 40/1/1 39/1/1
f 45/1/1 40/1/1 44/1/1
f 49/4/1 47/4/1 46/4/1
f 50/4/1 49/4/1 48/4/1
f 51/4/1 47/4/1 49/4/1
f 51/4/1 49/4/1 50/4/1
f 57/3/1 53/3/1 52/3/1
f 58/3/1 53/3/1 57/3/1
f 59/3/1 55/3/1 54/3/1
f 60/3/1 55/3/1 59/3/1
f 62/1/1 57/1/1 56/1/1
f 63/1/1 57/1/1 62/1/1
f 64/1/1 61/1/1 60/1/1
f 65/1/1 61/1/1 64/1/1
f 66/3/1 63/3/1 62/3/1
f 67/3/1 63/3/1 66/3/1
f 72/1/1 69/1/1 68/1/1
f 73/1/1 69/1/1 72/1/1
f 76/1/1 71/1/1 70/1/1
f 77/1/1 71/1/1 76/1/1
f 78/4/1 75/4/1 74/4/1
f 79/4/1 75/4/1 78/4/1
f 80/4/1 75/4/1 79/4/1
f 83/2/1 82/2/1 81/2/1
f 84/2/1 82/2/1 83/2/1
f 85/4/2 86/4/2 88/4/2
f 86/4/2 87/4/2 88/4/2
f 88/4/2 87/4/2 89/4/2
f 90/4/2 91/4/2 93/4/2
f 92/4/2 93/4/2 94/4/2
f 93/4/2 91/4/2 95/4/2
f 94/4/2 93/4/2 95/4/2
f 96/3/2 97/3/2 101/3/2
f 101/3/2 97/3/2 102/3/2
f 98/3/2 99/3/2 103/3/2
f 103/3/2 99/3/2 104/3/2
f 100/3/2 101/3/2 106/3/2
f 106/3/2 101/3/2 107/3/2
f 104/3/2 105/3/2 108/3/2
f 108/3/2 105/3/2 109/3/2
f 110/1/2 111/1/2 114/1/2
f 114/1/2 111/1/2 115/1/2
f 112/1/2 113/1/2 118/1/2
f 118/1/2 113/1/2 119/1/2
f 116/2/2 117/2/2 120/2/2
f 120/2/2 117/2/2 121/2/2
f 122/3/2 123/3/2 125/3/2
f 125/3/2 123/3/2 126/3/2
f 124/3/2 125/3/2 129/3/2
f 129/3/2 125/3/2 130/3/2
f 126/3/2 127/3/2 131/3/2
f 131/3/2 127/3/2 132/3/2
f 129/1/2 130/1/2 133/1/2
f 128/3/2 129/3/2 133/3/2
f 133/1/2 130/1/2 134/1/2
f 128/3/2 133/3/2 137/3/2
f 137/3/2 133/3/2 138/3/2
f 135/3/2 136/3/2 139/3/2
f 139/3/2 136/3/2 140/3/2
f 137/1/2 138/1/2 141/1/2
f 141/1/2 138/1/2 142/1/2
f 139/1/2 140/1/2 145/1/2
f 145/1/2 140/1/2 146/1/2
f 142/1/2 143/1/2 147/1/2
f 147/1/2 143/1/2 148/1/2
f 144/1/2 145/1/2 149/1/2
f 149/1/2 145/1/2 150/1/2
f 151/3/2 152/3/2 153/3/2
f 151/3/2 153/3/2 156/3/2
f 156/3/2 153/3/2 157/3/2
f 153/1/2 154/1/2 158/1/2
f 157/3/2 153/3/2 158/3/2
f 158/1/2 154/1/2 159/1/2
f 155/3/2 156/3/2 160/3/2
f 156/1/2 157/1/2 161/1/2
f 160/3/2 156/3/2 161/3/2
f 157/3/2 158/3/2 162/3/2
f 161/1/2 157/1/2 162/1/2
f 158/3/2 159/3/2 162/3/2
f 162/3/2 159/3/2 163/3/2
f 160/1/2 161/1/2 164/1/2
f 161/3/2 162/3/2 165/3/2
f 164/1/2 161/1/2 165/1/2
f 162/1/2 163/1/2 166/1/2
f 165/3/2 162/3/2 166/3/2
f 166/1/2 163/1/2 167/1/2
f 167/1/2 163/1/2 168/1/2
f 165/1/2 166/1/2 169/1/2
f 166/1/2 167/1/2 169/1/2
f 169/1/2 167/1/2 170/1/2
f 177/1/3 172/1/3 171/1/3
f 178/1/3 172/1/3 177/1/3
f 180/4/3 174/4/3 173/4/3
f 181/4/3 174/4/3 180/4/3
f 182/1/3 176/1/3 175/1/3
f 183/3/3 177/3/3 176/3/3
f 183/1/3 176/1/3 182/1/3
f 183/3/3 178/3/3 177/3/3
f 184/3/3 178/3/3 183/3/3
f 185/1/3 179/1/3 178/1/3
f 185/3/3 178/3/3 184/3/3
f 186/3/3 184/3/3 183/3/3
f 186/3/3 183/3/3 182/3/3
f 187/3/3 184/3/3 186/3/3
f 188/1/3 185/1/3 184/1/3
f 188/3/3 184/3/3 187/3/3
f 189/1/3 185/1/3 188/1/3
f 190/1/3 179/1/3 185/1/3
f 190/1/3 185/1/3 189/1/3
f 191/1/3 179/1/3 190/1/3
f 192/3/3 189/3/3 188/3/3
f 192/3/3 188/3/3 187/3/3
f 193/1/3 190/1/3 189/1/3
f 193/3/3 189/3/3 192/3/3
f 194/1/3 190/1/3 193/1/3
f 200/1/3 196/1/3 195/1/3
f 201/3/3 197/3/3 196/3/3
f 201/1/3 196/1/3 200/1/3
f 202/1/3 198/1/3 197/1/3
f 202/3/3 197/3/3 201/3/3
f 203/1/3 198/1/3 202/1/3
f 208/3/3 201/3/3 200/3/3
f 208/3/3 200/3/3 199/3/3
f 209/3/3 201/3/3 208/3/3
f 210/3/3 201/3/3 209/3/3
f 211/1/3 204/1/3 203/1/3
f 212/1/3 204/1/3 211/1/3
f 213/4/3 206/4/3 205/4/3
f 214/3/3 208/3/3 207/3/3
f 215/4/3 213/4/3 205/4/3
f 216/4/3 213/4/3 215/4/3
f 217/3/3 214/3/3 207/3/3
f 218/3/3 214/3/3 217/3/3
f 222/3/3 219/3/3 218/3/3
f 223/3/3 219/3/3 222/3/3
f 226/1/3 221/1/3 220/1/3
f 227/1/3 221/1/3 226/1/3
f 228/3/3 225/3/3 224/3/3
f 229/1/3 226/1/3 225/1/3
f 229/3/3 225/3/3 228/3/3
f 230/1/3 226/1/3 229/1/3
f 236/3/3 232/3/3 231/3/3
f 237/3/3 232/3/3 236/3/3
f 238/1/3 234/1/3 233/1/3
f 239/1/3 234/1/3 238/1/3
f 240/3/3 236/3/3 235/3/3
f 241/3/3 236/3/3 240/3/3
f 244/4/3 243/4/3 242/4/3
f 245/4/3 243/4/3 244/4/3
f 248/3/3 247/3/3 246/3/3
f 249/3/3 247/3/3 248/3/3
f 254/3/3 250/3/3 249/3/3
f 254/3/3 251/3/3 250/3/3
f 255/3/3 251/3/3 254/3/3
f 256/1/3 253/1/3 252/1/3
f 257/1/3 253/1/3 256/1/3
f 260/2/3 259/2/3 258/2/3
f 261/2/3 259/2/3 260/2/3
f 262/4/4 263/4/4 264/4/4
f 264/4/4 263/4/4 265/4/4
f 265/4/4 263/4/4 266/4/4
f 267/1/4 268/1/4 269/1/4
f 269/1/4 268/1/4 270/1/4
f 271/4/4 272/4/4 273/4/4
f 273/4/4 272/4/4 274/4/4
f 275/3/4 276/3/4 278/3/4
f 278/3/4 276/3/4 279/3/4
f 277/3/4 278/3/4 280/3/4
f 280/3/4 278/3/4 281/3/4
f 282/2/4 283/2/4 286/2/4
f 286/2/4 283/2/4 287/2/4
f 284/3/4 285/3/4 288/3/4
f 288/3/4 285/3/4 289/3/4
f 289/3/4 290/3/4 293/3/4
f 293/3/4 290/3/4 294/3/4
f 291/1/4 292/1/4 295/1/4
f 295/1/4 292/1/4 296/1/4
f 297/1/4 298/1/4 301/1/4
f 301/1/4 298/1/4 302/1/4
f 299/3/4 300/3/4 305/3/4
f 305/3/4 300/3/4 306/3/4
f 302/1/4 303/1/4 307/1/4
f 307/1/4 303/1/4 308/1/4
f 304/3/4 305/3/4 309/3/4
f 304/3/4 309/3/4 310/3/4
f 310/3/4 309/3/4 311/3/4
f 311/3/4 312/3/4 315/3/4
f 315/3/4 312/3/4 316/3/4
f 316/3/4 312/3/4 317/3/4
f 313/1/4 314/1/4 319/1/4
f 319/1/4 314/1/4 320/1/4
f 316/1/4 317/1/4 321/1/4
f 317/3/4 318/3/4 322/3/4
f 321/1/4 317/1/4 322/1/4
f 318/1/4 319/1/4 323/1/4
f 322/3/4 318/3/4 323/3/4
f 323/1/4 319/1/4 324/1/4
f 325/3/4 326/3/4 329/3/4
f 326/1/4 327/1/4 330/1/4
f 328/1/4 329/1/4 332/1/4
f 329/3/4 326/3/4 333/3/4
f 332/1/4 329/1/4 333/1/4
f 330/1/4 331/1/4 334/1/4
f 333/3/4 326/3/4 334/3/4
f 326/1/4 330/1/4 334/1/4
f 334/1/4 331/1/4 335/1/4
f 332/3/4 333/3/4 336/3/4
f 333/3/4 334/3/4 336/3/4
f 334/3/4 335/3/4 336/3/4
f 336/3/4 335/3/4 337/3/4
f 337/3/4 335/3/4 338/3/4
f 335/1/4 331/1/4 339/1/4
f 338/3/4 335/3/4 339/3/4
f 339/1/4 331/1/4 340/1/4
f 337/3/4 338/3/4 341/3/4
f 338/1/4 339/1/4 342/1/4
f 341/3/4 338/3/4 342/3/4
f 342/1/4 339/1/4 343/1/4
f 347/3/5 345/3/5 344/3/5
f 348/3/5 345/3/5 347/3/5
f 350/3/5 347/3/5 346/3/5
f 350/3/5 349/3/5 348/3/5
f 350/3/5 348/3/5 347/3/5
f 351/3/5 349/3/5 350/3/5
f 352/3/5 349/3/5 351/3/5
f 353/3/5 349/3/5 352/3/5
f 354/3/5 352/3/5 351/3/5
f 355/3/5 352/3/5 354/3/5
f 360/1/5 357/1/5 356/1/5
f 361/3/5 358/3/5 357/3/5
f 361/1/5 357/1/5 360/1/5
f 362/3/5 358/3/5 361/3/5
f 365/3/5 360/3/5 359/3/5
f 366/3/5 360/3/5 365/3/5
f 367/3/5 363/3/5 362/3/5
f 368/3/5 363/3/5 367/3/5
f 370/3/5 365/3/5 364/3/5
f 371/3/5 365/3/5 370/3/5
f 374/3/5 369/3/5 368/3/5
f 375/3/5 369/3/5 374/3/5
f 376/3/5 372/3/5 371/3/5
f 377/3/5 372/3/5 376/3/5
f 379/3/5 374/3/5 373/3/5
f 380/3/5 374/3/5 379/3/5
f 381/1/5 378/1/5 377/1/5
f 382/3/5 379/3/5 378/3/5
f 382/1/5 378/1/5 381/1/5
f 383/3/5 379/3/5 382/3/5
f 388/3/5 385/3/5 384/3/5
f 389/3/5 385/3/5 388/3/5
f 390/1/5 387/1/5 386/1/5
f 391/1/5 387/1/5 390/1/5
f 396/1/5 393/1/5 392/1/5
f 397/1/5 393/1/5 396/1/5
f 398/3/5 395/3/5 394/3/5
f 399/3/5 395/3/5 398/3/5
f 402/1/5 401/1/5 400/1/5
f 403/1/5 401/1/5 402/1/5
f 406/3/5 405/3/5 404/3/5
f 407/3/5 405/3/5 406/3/5
f 410/1/5 409/1/5 408/1/5
f 411/1/5 409/1/5 410/1/5
f 414/3/5 413/3/5 412/3/5
f 415/3/5 413/3/5 414/3/5
f 418/4/5 417/4/5 416/4/5
f 419/4/5 417/4/5 418/4/5
f 420/4/5 417/4/5 419/4/5
f 423/4/5 422/4/5 421/4/5
f 424/4/5 422/4/5 423/4/5
f 425/1/6 426/1/6 430/1/6
f 430/1/6 426/1/6 431/1/6
f 427/1/6 428/1/6 432/1/6
f 432/1/6 428/1/6 433/1/6
f 429/1/6 430/1/6 435/1/6
f 435/1/6 430/1/6 436/1/6
f 433/1/6 434/1/6 437/1/6
f 437/1/6 434/1/6 438/1/6
f 439/1/6 440/1/6 443/1/6
f 443/1/6 440/1/6 444/1/6
f 441/1/6 442/1/6 447/1/6
f 447/1/6 442/1/6 448/1/6
f 444/1/6 445/1/6 449/1/6
f 449/1/6 445/1/6 450/1/6
f 446/1/6 447/1/6 451/1/6
f 451/1/6 447/1/6 452/1/6
f 453/1/6 454/1/6 456/1/6
f 456/1/6 454/1/6 457/1/6
f 455/1/6 456/1/6 460/1/6
f 457/1/6 458/1/6 460/1/6
f 456/1/6 457/1/6 460/1/6
f 460/1/6 458/1/6 461/1/6
f 461/1/6 458/1/6 462/1/6
f 462/1/6 458/1/6 463/1/6
f 459/1/6 460/1/6 465/1/6
f 460/1/6 461/1/6 465/1/6
f 465/1/6 461/1/6 466/1/6
f 466/1/6 461/1/6 467/1/6
f 463/1/6 464/1/6 468/1/6
f 462/1/6 463/1/6 468/1/6
f 468/1/6 464/1/6 469/1/6
f 466/1/6 467/1/6 470/1/6
f 467/1/6 468/1/6 470/1/6
f 469/1/6 464/1/6 471/1/6
f 471/1/6 464/1/6 472/1/6
f 472/1/6 464/1/6 473/1/6
f 466/1/6 470/1/6 474/1/6
f 470/1/6 471/1/6 474/1/6
f 471/1/6 472/1/6 474/1/6
f 474/1/6 472/1/6 475/1/6
f 475/1/6 472/1/6 476/1/6
f 476/1/6 472/1/6 477/1/6
f 475/1/6 476/1/6 478/1/6
f 478/1/6 476/1/6 479/1/6
f 480/4/6 481/4/6 482/4/6
f 482/4/6 481/4/6 483/4/6
f 483/4/6 481/4/6 484/4/6
f 484/2/6 485/2/6 486/2/6
f 486/2/6 485/2/6 487/2/6
f 488/4/6 489/4/6 490/4/6
f 490/4/6 489/4/6 491/4/6
