# MagicaVoxel @ Ephtracy

# group
o 

# material
mtllib glue_mug.mtl
usemtl palette

# normals
vn -1 0 0
vn 1 0 0
vn 0 0 1
vn 0 0 -1
vn 0 -1 0
vn 0 1 0

# texcoords
vt 0.00195313 0.5
vt 0.00585938 0.5
vt 0.0371094 0.5
vt 0.0644531 0.5
vt 0.369141 0.5

# verts
v -0.3 0 0.2
v -0.3 0 -0.1
v -0.3 0.5 0.2
v -0.3 0.5 -0.1
v -0.2 0 0.3
v -0.2 0 0.2
v -0.2 0 -0.1
v -0.2 0 -0.2
v -0.2 0.5 0.3
v -0.2 0.5 0.2
v -0.2 0.5 0.1
v -0.2 0.5 0
v -0.2 0.5 -0.1
v -0.2 0.5 -0.2
v -0.2 0.7 0.1
v -0.2 0.7 0
v -0.1 0.8 0.1
v -0.1 0.8 0
v -0.1 0.9 0.1
v -0.1 0.9 0
v 0 0.4 0
v 0 0.4 -0.1
v 0 0.5 -0.1
v 0 0.6 0.2
v 0 0.6 0.1
v 0 0.6 0
v 0 0.6 -0.1
v 0 0.8 0.2
v 0 0.8 0.1
v 0.1 0.4 0.2
v 0.1 0.4 0.1
v 0.1 0.4 0
v 0.1 0.5 0.2
v 0.1 0.5 0
v 0.3 0.2 0.1
v 0.3 0.2 0
v 0.3 0.4 0.1
v 0.3 0.4 0
v -0.2 0.4 0.2
v -0.2 0.4 0
v -0.2 0.4 -0.1
v -0.2 0.5 0.2
v -0.2 0.5 0.1
v -0.2 0.5 0
v -0.2 0.5 -0.1
v -0.1 0.5 0.1
v -0.1 0.5 0
v -0.1 0.7 0.1
v -0.1 0.7 0
v 0 0.8 0.1
v 0 0.8 0
v 0 0.9 0.1
v 0 0.9 0
v 0.1 0 0.3
v 0.1 0 0.2
v 0.1 0 -0.1
v 0.1 0 -0.2
v 0.1 0.5 0.3
v 0.1 0.5 0.2
v 0.1 0.5 0
v 0.1 0.5 -0.1
v 0.1 0.5 -0.2
v 0.1 0.6 0.2
v 0.1 0.6 0.1
v 0.1 0.6 0
v 0.1 0.6 -0.1
v 0.1 0.8 0.2
v 0.1 0.8 0.1
v 0.2 0 0.2
v 0.2 0 -0.1
v 0.2 0.1 0.1
v 0.2 0.1 0
v 0.2 0.2 0.1
v 0.2 0.2 0
v 0.2 0.4 0.1
v 0.2 0.4 0
v 0.2 0.5 0.2
v 0.2 0.5 0.1
v 0.2 0.5 0
v 0.2 0.5 -0.1
v 0.4 0.1 0.1
v 0.4 0.1 0
v 0.4 0.5 0.1
v 0.4 0.5 0
v -0.2 0 0.3
v -0.2 0.5 0.3
v 0.1 0 0.3
v 0.1 0.5 0.3
v -0.3 0 0.2
v -0.3 0.5 0.2
v -0.2 0 0.2
v -0.2 0.5 0.2
v 0 0.6 0.2
v 0 0.8 0.2
v 0.1 0 0.2
v 0.1 0.5 0.2
v 0.1 0.6 0.2
v 0.1 0.8 0.2
v 0.2 0 0.2
v 0.2 0.5 0.2
v -0.2 0.5 0.1
v -0.2 0.7 0.1
v -0.1 0.5 0.1
v -0.1 0.7 0.1
v -0.1 0.8 0.1
v -0.1 0.9 0.1
v 0 0.8 0.1
v 0 0.9 0.1
v 0.2 0.1 0.1
v 0.2 0.2 0.1
v 0.2 0.4 0.1
v 0.2 0.5 0.1
v 0.3 0.2 0.1
v 0.3 0.4 0.1
v 0.4 0.1 0.1
v 0.4 0.5 0.1
v 0 0.4 0
v 0 0.6 0
v 0.1 0.4 0
v 0.1 0.5 0
v 0.1 0.6 0
v -0.2 0.4 -0.1
v -0.2 0.5 -0.1
v 0 0.4 -0.1
v 0 0.5 -0.1
v -0.2 0.4 0.2
v -0.2 0.5 0.2
v 0 0.4 0.2
v 0.1 0.4 0.2
v 0.1 0.5 0.2
v 0 0.6 0.1
v 0 0.8 0.1
v 0.1 0.6 0.1
v 0.1 0.8 0.1
v -0.2 0.5 0
v -0.2 0.7 0
v -0.1 0.5 0
v -0.1 0.7 0
v -0.1 0.8 0
v -0.1 0.9 0
v 0 0.8 0
v 0 0.9 0
v 0.2 0.1 0
v 0.2 0.2 0
v 0.2 0.4 0
v 0.2 0.5 0
v 0.3 0.2 0
v 0.3 0.4 0
v 0.4 0.1 0
v 0.4 0.5 0
v -0.3 0 -0.1
v -0.3 0.5 -0.1
v -0.2 0 -0.1
v -0.2 0.5 -0.1
v 0 0.5 -0.1
v 0 0.6 -0.1
v 0.1 0 -0.1
v 0.1 0.5 -0.1
v 0.1 0.6 -0.1
v 0.2 0 -0.1
v 0.2 0.5 -0.1
v -0.2 0 -0.2
v -0.2 0.5 -0.2
v 0.1 0 -0.2
v 0.1 0.5 -0.2
v -0.2 0 0.3
v 0.1 0 0.3
v -0.3 0 0.2
v -0.2 0 0.2
v 0.1 0 0.2
v 0.2 0 0.2
v -0.3 0 -0.1
v -0.2 0 -0.1
v 0.1 0 -0.1
v 0.2 0 -0.1
v -0.2 0 -0.2
v 0.1 0 -0.2
v 0.2 0.1 0.1
v 0.4 0.1 0.1
v 0.2 0.1 0
v 0.4 0.1 0
v 0.2 0.4 0.1
v 0.3 0.4 0.1
v 0.2 0.4 0
v 0.3 0.4 0
v -0.2 0.5 0.1
v -0.1 0.5 0.1
v -0.2 0.5 0
v -0.1 0.5 0
v 0 0.6 0.2
v 0.1 0.6 0.2
v 0 0.6 0.1
v 0.1 0.6 0.1
v -0.1 0.8 0.1
v 0 0.8 0.1
v -0.1 0.8 0
v 0 0.8 0
v 0.2 0.2 0.1
v 0.3 0.2 0.1
v 0.2 0.2 0
v 0.3 0.2 0
v -0.2 0.4 0.2
v 0 0.4 0.2
v 0.1 0.4 0.2
v -0.1 0.4 0.1
v 0 0.4 0.1
v 0.1 0.4 0.1
v -0.2 0.4 0
v -0.1 0.4 0
v 0 0.4 0
v 0.1 0.4 0
v -0.2 0.4 -0.1
v 0 0.4 -0.1
v -0.2 0.5 0.3
v 0.1 0.5 0.3
v -0.3 0.5 0.2
v -0.2 0.5 0.2
v 0.1 0.5 0.2
v 0.2 0.5 0.2
v -0.2 0.5 0.1
v 0.2 0.5 0.1
v 0.4 0.5 0.1
v -0.2 0.5 0
v 0.1 0.5 0
v 0.2 0.5 0
v 0.4 0.5 0
v -0.3 0.5 -0.1
v -0.2 0.5 -0.1
v 0 0.5 -0.1
v 0.1 0.5 -0.1
v 0.2 0.5 -0.1
v -0.2 0.5 -0.2
v 0.1 0.5 -0.2
v 0 0.6 0
v 0.1 0.6 0
v 0 0.6 -0.1
v 0.1 0.6 -0.1
v -0.2 0.7 0.1
v -0.1 0.7 0.1
v -0.2 0.7 0
v -0.1 0.7 0
v 0 0.8 0.2
v 0.1 0.8 0.2
v 0 0.8 0.1
v 0.1 0.8 0.1
v -0.1 0.9 0.1
v 0 0.9 0.1
v -0.1 0.9 0
v 0 0.9 0

# faces
f 3/1/1 2/1/1 1/1/1
f 4/1/1 2/1/1 3/1/1
f 9/1/1 6/1/1 5/1/1
f 10/1/1 6/1/1 9/1/1
f 13/1/1 8/1/1 7/1/1
f 14/1/1 8/1/1 13/1/1
f 15/2/1 12/2/1 11/2/1
f 16/2/1 12/2/1 15/2/1
f 19/2/1 18/2/1 17/2/1
f 20/2/1 18/2/1 19/2/1
f 23/2/1 22/2/1 21/2/1
f 26/2/1 23/2/1 21/2/1
f 27/2/1 23/2/1 26/2/1
f 28/2/1 25/2/1 24/2/1
f 29/2/1 25/2/1 28/2/1
f 33/1/1 31/1/1 30/1/1
f 33/1/1 32/1/1 31/1/1
f 34/1/1 32/1/1 33/1/1
f 37/1/1 36/1/1 35/1/1
f 38/1/1 36/1/1 37/1/1
f 39/1/2 40/1/2 42/1/2
f 40/1/2 41/1/2 42/1/2
f 42/1/2 41/1/2 43/1/2
f 43/1/2 41/1/2 44/1/2
f 44/1/2 41/1/2 45/1/2
f 46/2/2 47/2/2 48/2/2
f 48/2/2 47/2/2 49/2/2
f 50/2/2 51/2/2 52/2/2
f 52/2/2 51/2/2 53/2/2
f 54/1/2 55/1/2 58/1/2
f 58/1/2 55/1/2 59/1/2
f 56/1/2 57/1/2 61/1/2
f 61/1/2 57/1/2 62/1/2
f 60/2/2 61/2/2 65/2/2
f 65/2/2 61/2/2 66/2/2
f 63/2/2 64/2/2 67/2/2
f 67/2/2 64/2/2 68/2/2
f 69/1/2 70/1/2 71/1/2
f 71/1/2 70/1/2 72/1/2
f 69/1/2 71/1/2 73/1/2
f 72/1/2 70/1/2 74/1/2
f 69/1/2 73/1/2 75/1/2
f 73/1/2 74/1/2 75/1/2
f 74/1/2 70/1/2 76/1/2
f 75/1/2 74/1/2 76/1/2
f 69/1/2 75/1/2 77/1/2
f 77/1/2 75/1/2 78/1/2
f 76/1/2 70/1/2 79/1/2
f 79/1/2 70/1/2 80/1/2
f 81/1/2 82/1/2 83/1/2
f 83/1/2 82/1/2 84/1/2
f 87/1/3 86/1/3 85/1/3
f 88/1/3 86/1/3 87/1/3
f 91/1/3 90/1/3 89/1/3
f 92/1/3 90/1/3 91/1/3
f 97/2/3 94/2/3 93/2/3
f 98/2/3 94/2/3 97/2/3
f 99/1/3 96/1/3 95/1/3
f 100/1/3 96/1/3 99/1/3
f 103/2/3 102/2/3 101/2/3
f 104/2/3 102/2/3 103/2/3
f 107/2/3 106/2/3 105/2/3
f 108/2/3 106/2/3 107/2/3
f 113/1/3 110/1/3 109/1/3
f 114/1/3 112/1/3 111/1/3
f 115/1/3 113/1/3 109/1/3
f 115/1/3 114/1/3 113/1/3
f 116/1/3 112/1/3 114/1/3
f 116/1/3 114/1/3 115/1/3
f 119/2/3 118/2/3 117/2/3
f 120/2/3 118/2/3 119/2/3
f 121/2/3 118/2/3 120/2/3
f 124/1/3 123/1/3 122/1/3
f 125/1/3 123/1/3 124/1/3
f 126/1/4 127/1/4 128/1/4
f 128/1/4 127/1/4 129/1/4
f 129/1/4 127/1/4 130/1/4
f 131/2/4 132/2/4 133/2/4
f 133/2/4 132/2/4 134/2/4
f 135/2/4 136/2/4 137/2/4
f 137/2/4 136/2/4 138/2/4
f 139/2/4 140/2/4 141/2/4
f 141/2/4 140/2/4 142/2/4
f 143/1/4 144/1/4 147/1/4
f 145/1/4 146/1/4 148/1/4
f 143/1/4 147/1/4 149/1/4
f 147/1/4 148/1/4 149/1/4
f 148/1/4 146/1/4 150/1/4
f 149/1/4 148/1/4 150/1/4
f 151/1/4 152/1/4 153/1/4
f 153/1/4 152/1/4 154/1/4
f 155/2/4 156/2/4 158/2/4
f 158/2/4 156/2/4 159/2/4
f 157/1/4 158/1/4 160/1/4
f 160/1/4 158/1/4 161/1/4
f 162/1/4 163/1/4 164/1/4
f 164/1/4 163/1/4 165/1/4
f 169/1/5 167/1/5 166/1/5
f 170/1/5 167/1/5 169/1/5
f 172/1/5 169/1/5 168/1/5
f 172/1/5 171/1/5 170/1/5
f 172/1/5 170/1/5 169/1/5
f 173/1/5 171/1/5 172/1/5
f 174/1/5 171/1/5 173/1/5
f 175/1/5 171/1/5 174/1/5
f 176/1/5 174/1/5 173/1/5
f 177/1/5 174/1/5 176/1/5
f 180/1/5 179/1/5 178/1/5
f 181/1/5 179/1/5 180/1/5
f 184/1/5 183/1/5 182/1/5
f 185/1/5 183/1/5 184/1/5
f 188/2/5 187/2/5 186/2/5
f 189/2/5 187/2/5 188/2/5
f 192/2/5 191/2/5 190/2/5
f 193/2/5 191/2/5 192/2/5
f 196/2/5 195/2/5 194/2/5
f 197/2/5 195/2/5 196/2/5
f 198/1/6 199/1/6 200/1/6
f 200/1/6 199/1/6 201/1/6
f 202/5/6 203/5/6 205/5/6
f 203/3/6 204/3/6 206/3/6
f 205/5/6 203/5/6 206/5/6
f 206/3/6 204/3/6 207/3/6
f 202/5/6 205/5/6 208/5/6
f 205/3/6 206/3/6 209/3/6
f 208/5/6 205/5/6 209/5/6
f 206/4/6 207/4/6 210/4/6
f 209/3/6 206/3/6 210/3/6
f 210/4/6 207/4/6 211/4/6
f 208/4/6 209/4/6 212/4/6
f 209/4/6 210/4/6 212/4/6
f 212/4/6 210/4/6 213/4/6
f 214/1/6 215/1/6 217/1/6
f 217/1/6 215/1/6 218/1/6
f 216/1/6 217/1/6 220/1/6
f 218/1/6 219/1/6 221/1/6
f 216/1/6 220/1/6 223/1/6
f 221/1/6 222/1/6 224/1/6
f 218/1/6 221/1/6 224/1/6
f 224/1/6 222/1/6 225/1/6
f 225/1/6 222/1/6 226/1/6
f 216/1/6 223/1/6 227/1/6
f 227/1/6 223/1/6 228/1/6
f 224/1/6 225/1/6 230/1/6
f 230/1/6 225/1/6 231/1/6
f 228/1/6 229/1/6 232/1/6
f 229/1/6 230/1/6 232/1/6
f 232/1/6 230/1/6 233/1/6
f 234/2/6 235/2/6 236/2/6
f 236/2/6 235/2/6 237/2/6
f 238/2/6 239/2/6 240/2/6
f 240/2/6 239/2/6 241/2/6
f 242/2/6 243/2/6 244/2/6
f 244/2/6 243/2/6 245/2/6
f 246/2/6 247/2/6 248/2/6
f 248/2/6 247/2/6 249/2/6
