# MagicaVoxel @ Ephtracy

# group
o 

# material
mtllib glue_cake.mtl
usemtl palette

# normals
vn -1 0 0
vn 1 0 0
vn 0 0 1
vn 0 0 -1
vn 0 -1 0
vn 0 1 0

# texcoords
vt 0.00976563 0.5
vt 0.138672 0.5
vt 0.232422 0.5

# verts
v 0 0.6 -0.4
v 0 0.6 -0.5
v 0 0.6 -0.6
v 0 0.6 -0.7
v 0 0.7 -0.3
v 0 0.7 -0.4
v 0 0.7 -0.5
v 0 0.7 -0.6
v 0 0.8 -0.3
v 0 0.8 -0.7
v 0.1 0.5 -0.3
v 0.1 0.5 -0.7
v 0.1 0.6 -0.2
v 0.1 0.6 -0.3
v 0.1 0.6 -0.4
v 0.1 0.6 -0.5
v 0.1 0.6 -0.6
v 0.1 0.6 -0.7
v 0.1 0.7 -0.3
v 0.1 0.7 -0.4
v 0.1 0.7 -0.5
v 0.1 0.7 -0.6
v 0.1 0.7 -0.7
v 0.1 0.7 -0.8
v 0.1 0.8 -0.3
v 0.1 0.8 -0.5
v 0.1 0.8 -0.6
v 0.1 0.8 -0.7
v 0.1 0.8 -0.8
v 0.1 0.9 -0.2
v 0.1 0.9 -0.5
v 0.1 0.9 -0.6
v 0.1 0.9 -0.7
v 0.2 0.5 -0.2
v 0.2 0.5 -0.3
v 0.2 0.5 -0.7
v 0.2 0.5 -0.8
v 0.2 0.6 -0.2
v 0.2 0.6 -0.3
v 0.2 0.6 -0.8
v 0.2 0.6 -0.9
v 0.2 0.7 -0.1
v 0.2 0.7 -0.2
v 0.2 0.7 -0.7
v 0.2 0.7 -0.8
v 0.2 0.8 -0.1
v 0.2 0.8 -0.2
v 0.2 0.8 -0.7
v 0.2 0.8 -0.8
v 0.2 0.9 -0.3
v 0.2 0.9 -0.4
v 0.2 0.9 -0.7
v 0.2 0.9 -0.9
v 0.2 1 -0.3
v 0.2 1 -0.4
v 0.3 0.5 -0.1
v 0.3 0.5 -0.2
v 0.3 0.5 -0.8
v 0.3 0.5 -0.9
v 0.3 0.6 0
v 0.3 0.6 -0.1
v 0.3 0.6 -0.8
v 0.3 0.6 -0.9
v 0.3 0.7 0
v 0.3 0.7 -0.1
v 0.3 0.7 -0.2
v 0.3 0.7 -0.9
v 0.3 0.7 -1
v 0.3 0.8 0
v 0.3 0.8 -0.1
v 0.3 0.8 -0.2
v 0.3 0.8 -0.9
v 0.3 0.8 -1
v 0.3 0.9 -0.1
v 0.3 0.9 -0.2
v 0.4 0.6 -0.9
v 0.4 0.6 -1
v 0.4 0.7 -0.9
v 0.4 0.7 -1
v 0.4 0.9 -0.5
v 0.4 0.9 -0.6
v 0.4 1 -0.5
v 0.4 1 -0.6
v 0.5 0.6 0
v 0.5 0.6 -0.1
v 0.5 0.7 0
v 0.5 0.7 -0.1
v 0.5 0.9 -0.2
v 0.5 0.9 -0.3
v 0.5 1 -0.2
v 0.5 1 -0.3
v 0.6 0.6 -0.9
v 0.6 0.6 -1
v 0.6 0.7 -0.9
v 0.6 0.7 -1
v 0.7 0.9 -0.7
v 0.7 0.9 -0.8
v 0.7 1 -0.7
v 0.7 1 -0.8
v 0.3 0.9 -0.3
v 0.3 0.9 -0.4
v 0.3 1 -0.3
v 0.3 1 -0.4
v 0.4 0.6 0
v 0.4 0.6 -0.1
v 0.4 0.7 0
v 0.4 0.7 -0.1
v 0.5 0.6 -0.9
v 0.5 0.6 -1
v 0.5 0.7 -0.9
v 0.5 0.7 -1
v 0.5 0.9 -0.5
v 0.5 0.9 -0.6
v 0.5 1 -0.5
v 0.5 1 -0.6
v 0.6 0.6 0
v 0.6 0.6 -0.1
v 0.6 0.7 0
v 0.6 0.7 -0.1
v 0.6 0.9 -0.2
v 0.6 0.9 -0.3
v 0.6 1 -0.2
v 0.6 1 -0.3
v 0.7 0.5 -0.1
v 0.7 0.5 -0.2
v 0.7 0.5 -0.8
v 0.7 0.5 -0.9
v 0.7 0.6 -0.1
v 0.7 0.6 -0.2
v 0.7 0.6 -0.9
v 0.7 0.6 -1
v 0.7 0.7 0
v 0.7 0.7 -0.1
v 0.7 0.7 -0.8
v 0.7 0.7 -0.9
v 0.7 0.8 0
v 0.7 0.8 -0.1
v 0.7 0.8 -0.8
v 0.7 0.8 -0.9
v 0.7 0.8 -1
v 0.7 0.9 -0.8
v 0.7 0.9 -0.9
v 0.8 0.5 -0.2
v 0.8 0.5 -0.3
v 0.8 0.5 -0.7
v 0.8 0.5 -0.8
v 0.8 0.6 -0.1
v 0.8 0.6 -0.2
v 0.8 0.6 -0.7
v 0.8 0.6 -0.8
v 0.8 0.7 -0.2
v 0.8 0.7 -0.3
v 0.8 0.7 -0.8
v 0.8 0.7 -0.9
v 0.8 0.8 -0.2
v 0.8 0.8 -0.3
v 0.8 0.8 -0.8
v 0.8 0.8 -0.9
v 0.8 0.9 -0.1
v 0.8 0.9 -0.3
v 0.8 0.9 -0.7
v 0.8 0.9 -0.8
v 0.8 1 -0.7
v 0.8 1 -0.8
v 0.9 0.5 -0.3
v 0.9 0.5 -0.7
v 0.9 0.6 -0.3
v 0.9 0.6 -0.4
v 0.9 0.6 -0.5
v 0.9 0.6 -0.6
v 0.9 0.6 -0.7
v 0.9 0.6 -0.8
v 0.9 0.7 -0.2
v 0.9 0.7 -0.3
v 0.9 0.7 -0.4
v 0.9 0.7 -0.5
v 0.9 0.7 -0.6
v 0.9 0.7 -0.7
v 0.9 0.8 -0.2
v 0.9 0.8 -0.3
v 0.9 0.8 -0.4
v 0.9 0.8 -0.5
v 0.9 0.8 -0.7
v 0.9 0.9 -0.3
v 0.9 0.9 -0.8
v 1 0.6 -0.3
v 1 0.6 -0.4
v 1 0.6 -0.5
v 1 0.6 -0.6
v 1 0.7 -0.4
v 1 0.7 -0.5
v 1 0.7 -0.6
v 1 0.7 -0.7
v 1 0.8 -0.3
v 1 0.8 -0.4
v 1 0.8 -0.5
v 1 0.8 -0.7
v 0.3 0.6 0
v 0.3 0.7 0
v 0.3 0.8 0
v 0.4 0.6 0
v 0.4 0.7 0
v 0.4 0.8 0
v 0.5 0.6 0
v 0.5 0.7 0
v 0.6 0.6 0
v 0.6 0.7 0
v 0.7 0.7 0
v 0.7 0.8 0
v 0.2 0.7 -0.1
v 0.2 0.8 -0.1
v 0.3 0.5 -0.1
v 0.3 0.6 -0.1
v 0.3 0.7 -0.1
v 0.3 0.8 -0.1
v 0.3 0.9 -0.1
v 0.4 0.6 -0.1
v 0.4 0.7 -0.1
v 0.4 0.8 -0.1
v 0.5 0.6 -0.1
v 0.5 0.7 -0.1
v 0.6 0.6 -0.1
v 0.6 0.7 -0.1
v 0.6 0.8 -0.1
v 0.6 0.9 -0.1
v 0.7 0.5 -0.1
v 0.7 0.6 -0.1
v 0.7 0.7 -0.1
v 0.7 0.8 -0.1
v 0.7 0.9 -0.1
v 0.8 0.6 -0.1
v 0.8 0.9 -0.1
v 0.1 0.6 -0.2
v 0.1 0.9 -0.2
v 0.2 0.5 -0.2
v 0.2 0.6 -0.2
v 0.2 0.7 -0.2
v 0.2 0.8 -0.2
v 0.3 0.5 -0.2
v 0.3 0.7 -0.2
v 0.3 0.8 -0.2
v 0.3 0.9 -0.2
v 0.5 0.9 -0.2
v 0.5 1 -0.2
v 0.6 0.9 -0.2
v 0.6 1 -0.2
v 0.7 0.5 -0.2
v 0.7 0.6 -0.2
v 0.8 0.5 -0.2
v 0.8 0.6 -0.2
v 0.8 0.7 -0.2
v 0.8 0.8 -0.2
v 0.9 0.7 -0.2
v 0.9 0.8 -0.2
v 0 0.7 -0.3
v 0 0.8 -0.3
v 0.1 0.5 -0.3
v 0.1 0.6 -0.3
v 0.1 0.7 -0.3
v 0.1 0.8 -0.3
v 0.2 0.5 -0.3
v 0.2 0.6 -0.3
v 0.2 0.9 -0.3
v 0.2 1 -0.3
v 0.3 0.9 -0.3
v 0.3 1 -0.3
v 0.8 0.5 -0.3
v 0.8 0.7 -0.3
v 0.8 0.8 -0.3
v 0.8 0.9 -0.3
v 0.9 0.5 -0.3
v 0.9 0.6 -0.3
v 0.9 0.7 -0.3
v 0.9 0.8 -0.3
v 0.9 0.9 -0.3
v 1 0.6 -0.3
v 1 0.8 -0.3
v 0 0.6 -0.4
v 0 0.7 -0.4
v 0.1 0.6 -0.4
v 0.1 0.7 -0.4
v 0.4 0.9 -0.5
v 0.4 1 -0.5
v 0.5 0.9 -0.5
v 0.5 1 -0.5
v 0.9 0.6 -0.5
v 0.9 0.7 -0.5
v 1 0.6 -0.5
v 1 0.7 -0.5
v 0 0.6 -0.6
v 0 0.7 -0.6
v 0.1 0.6 -0.6
v 0.1 0.7 -0.6
v 0.7 0.9 -0.7
v 0.7 1 -0.7
v 0.8 0.9 -0.7
v 0.8 1 -0.7
v 0.5 0.9 -0.3
v 0.5 1 -0.3
v 0.6 0.9 -0.3
v 0.6 1 -0.3
v 0.2 0.9 -0.4
v 0.2 1 -0.4
v 0.3 0.9 -0.4
v 0.3 1 -0.4
v 0.9 0.6 -0.4
v 0.9 0.7 -0.4
v 1 0.6 -0.4
v 1 0.7 -0.4
v 0 0.6 -0.5
v 0 0.7 -0.5
v 0.1 0.6 -0.5
v 0.1 0.7 -0.5
v 0.4 0.9 -0.6
v 0.4 1 -0.6
v 0.5 0.9 -0.6
v 0.5 1 -0.6
v 0.9 0.6 -0.6
v 0.9 0.7 -0.6
v 1 0.6 -0.6
v 1 0.7 -0.6
v 0 0.6 -0.7
v 0 0.8 -0.7
v 0.1 0.5 -0.7
v 0.1 0.6 -0.7
v 0.1 0.7 -0.7
v 0.1 0.8 -0.7
v 0.1 0.9 -0.7
v 0.2 0.5 -0.7
v 0.2 0.7 -0.7
v 0.2 0.8 -0.7
v 0.2 0.9 -0.7
v 0.8 0.5 -0.7
v 0.8 0.6 -0.7
v 0.9 0.5 -0.7
v 0.9 0.6 -0.7
v 0.9 0.7 -0.7
v 0.9 0.8 -0.7
v 1 0.7 -0.7
v 1 0.8 -0.7
v 0.1 0.7 -0.8
v 0.1 0.8 -0.8
v 0.2 0.5 -0.8
v 0.2 0.6 -0.8
v 0.2 0.7 -0.8
v 0.2 0.8 -0.8
v 0.3 0.5 -0.8
v 0.3 0.6 -0.8
v 0.7 0.5 -0.8
v 0.7 0.7 -0.8
v 0.7 0.8 -0.8
v 0.7 0.9 -0.8
v 0.7 1 -0.8
v 0.8 0.5 -0.8
v 0.8 0.6 -0.8
v 0.8 0.7 -0.8
v 0.8 0.8 -0.8
v 0.8 0.9 -0.8
v 0.8 1 -0.8
v 0.9 0.6 -0.8
v 0.9 0.9 -0.8
v 0.2 0.6 -0.9
v 0.2 0.9 -0.9
v 0.3 0.5 -0.9
v 0.3 0.6 -0.9
v 0.3 0.7 -0.9
v 0.3 0.8 -0.9
v 0.4 0.6 -0.9
v 0.4 0.7 -0.9
v 0.5 0.6 -0.9
v 0.5 0.7 -0.9
v 0.5 0.8 -0.9
v 0.5 0.9 -0.9
v 0.6 0.6 -0.9
v 0.6 0.7 -0.9
v 0.6 0.8 -0.9
v 0.6 0.9 -0.9
v 0.7 0.5 -0.9
v 0.7 0.6 -0.9
v 0.7 0.7 -0.9
v 0.7 0.8 -0.9
v 0.7 0.9 -0.9
v 0.8 0.7 -0.9
v 0.8 0.8 -0.9
v 0.3 0.7 -1
v 0.3 0.8 -1
v 0.4 0.6 -1
v 0.4 0.7 -1
v 0.5 0.6 -1
v 0.5 0.7 -1
v 0.6 0.6 -1
v 0.6 0.7 -1
v 0.7 0.6 -1
v 0.7 0.8 -1
v 0.3 0.5 -0.1
v 0.7 0.5 -0.1
v 0.2 0.5 -0.2
v 0.3 0.5 -0.2
v 0.7 0.5 -0.2
v 0.8 0.5 -0.2
v 0.1 0.5 -0.3
v 0.2 0.5 -0.3
v 0.8 0.5 -0.3
v 0.9 0.5 -0.3
v 0.1 0.5 -0.7
v 0.2 0.5 -0.7
v 0.8 0.5 -0.7
v 0.9 0.5 -0.7
v 0.2 0.5 -0.8
v 0.3 0.5 -0.8
v 0.7 0.5 -0.8
v 0.8 0.5 -0.8
v 0.3 0.5 -0.9
v 0.7 0.5 -0.9
v 0.3 0.6 0
v 0.4 0.6 0
v 0.5 0.6 0
v 0.6 0.6 0
v 0.3 0.6 -0.1
v 0.4 0.6 -0.1
v 0.5 0.6 -0.1
v 0.6 0.6 -0.1
v 0.7 0.6 -0.1
v 0.8 0.6 -0.1
v 0.1 0.6 -0.2
v 0.2 0.6 -0.2
v 0.7 0.6 -0.2
v 0.8 0.6 -0.2
v 0.1 0.6 -0.3
v 0.2 0.6 -0.3
v 0.9 0.6 -0.3
v 1 0.6 -0.3
v 0 0.6 -0.4
v 0.1 0.6 -0.4
v 0.9 0.6 -0.4
v 1 0.6 -0.4
v 0 0.6 -0.5
v 0.1 0.6 -0.5
v 0.9 0.6 -0.5
v 1 0.6 -0.5
v 0 0.6 -0.6
v 0.1 0.6 -0.6
v 0.9 0.6 -0.6
v 1 0.6 -0.6
v 0 0.6 -0.7
v 0.1 0.6 -0.7
v 0.8 0.6 -0.7
v 0.9 0.6 -0.7
v 0.2 0.6 -0.8
v 0.3 0.6 -0.8
v 0.8 0.6 -0.8
v 0.9 0.6 -0.8
v 0.2 0.6 -0.9
v 0.3 0.6 -0.9
v 0.4 0.6 -0.9
v 0.5 0.6 -0.9
v 0.6 0.6 -0.9
v 0.7 0.6 -0.9
v 0.4 0.6 -1
v 0.5 0.6 -1
v 0.6 0.6 -1
v 0.7 0.6 -1
v 0.4 0.7 0
v 0.5 0.7 0
v 0.6 0.7 0
v 0.7 0.7 0
v 0.2 0.7 -0.1
v 0.3 0.7 -0.1
v 0.4 0.7 -0.1
v 0.5 0.7 -0.1
v 0.6 0.7 -0.1
v 0.7 0.7 -0.1
v 0.2 0.7 -0.2
v 0.3 0.7 -0.2
v 0.8 0.7 -0.2
v 0.9 0.7 -0.2
v 0 0.7 -0.3
v 0.1 0.7 -0.3
v 0.8 0.7 -0.3
v 0.9 0.7 -0.3
v 0 0.7 -0.4
v 0.1 0.7 -0.4
v 0.9 0.7 -0.4
v 1 0.7 -0.4
v 0 0.7 -0.5
v 0.1 0.7 -0.5
v 0.9 0.7 -0.5
v 1 0.7 -0.5
v 0 0.7 -0.6
v 0.1 0.7 -0.6
v 0.9 0.7 -0.6
v 1 0.7 -0.6
v 0.1 0.7 -0.7
v 0.2 0.7 -0.7
v 0.9 0.7 -0.7
v 1 0.7 -0.7
v 0.1 0.7 -0.8
v 0.2 0.7 -0.8
v 0.7 0.7 -0.8
v 0.8 0.7 -0.8
v 0.3 0.7 -0.9
v 0.4 0.7 -0.9
v 0.5 0.7 -0.9
v 0.6 0.7 -0.9
v 0.7 0.7 -0.9
v 0.8 0.7 -0.9
v 0.3 0.7 -1
v 0.4 0.7 -1
v 0.5 0.7 -1
v 0.6 0.7 -1
v 0.3 0.8 0
v 0.4 0.8 0
v 0.7 0.8 0
v 0.2 0.8 -0.1
v 0.3 0.8 -0.1
v 0.4 0.8 -0.1
v 0.6 0.8 -0.1
v 0.7 0.8 -0.1
v 0.2 0.8 -0.2
v 0.3 0.8 -0.2
v 0.8 0.8 -0.2
v 0.9 0.8 -0.2
v 0 0.8 -0.3
v 0.1 0.8 -0.3
v 0.8 0.8 -0.3
v 0.9 0.8 -0.3
v 1 0.8 -0.3
v 0.9 0.8 -0.4
v 1 0.8 -0.4
v 0.1 0.8 -0.5
v 0.9 0.8 -0.5
v 1 0.8 -0.5
v 0.1 0.8 -0.6
v 0 0.8 -0.7
v 0.1 0.8 -0.7
v 0.2 0.8 -0.7
v 0.9 0.8 -0.7
v 1 0.8 -0.7
v 0.1 0.8 -0.8
v 0.2 0.8 -0.8
v 0.7 0.8 -0.8
v 0.8 0.8 -0.8
v 0.3 0.8 -0.9
v 0.5 0.8 -0.9
v 0.6 0.8 -0.9
v 0.7 0.8 -0.9
v 0.8 0.8 -0.9
v 0.3 0.8 -1
v 0.7 0.8 -1
v 0.3 0.9 -0.1
v 0.6 0.9 -0.1
v 0.7 0.9 -0.1
v 0.8 0.9 -0.1
v 0.1 0.9 -0.2
v 0.3 0.9 -0.2
v 0.5 0.9 -0.2
v 0.6 0.9 -0.2
v 0.7 0.9 -0.2
v 0.2 0.9 -0.3
v 0.3 0.9 -0.3
v 0.5 0.9 -0.3
v 0.6 0.9 -0.3
v 0.8 0.9 -0.3
v 0.9 0.9 -0.3
v 0.2 0.9 -0.4
v 0.3 0.9 -0.4
v 0.6 0.9 -0.4
v 0.7 0.9 -0.4
v 0.1 0.9 -0.5
v 0.2 0.9 -0.5
v 0.4 0.9 -0.5
v 0.5 0.9 -0.5
v 0.6 0.9 -0.5
v 0.7 0.9 -0.5
v 0.1 0.9 -0.6
v 0.2 0.9 -0.6
v 0.4 0.9 -0.6
v 0.5 0.9 -0.6
v 0.1 0.9 -0.7
v 0.2 0.9 -0.7
v 0.3 0.9 -0.7
v 0.4 0.9 -0.7
v 0.7 0.9 -0.7
v 0.8 0.9 -0.7
v 0.3 0.9 -0.8
v 0.4 0.9 -0.8
v 0.5 0.9 -0.8
v 0.6 0.9 -0.8
v 0.7 0.9 -0.8
v 0.8 0.9 -0.8
v 0.9 0.9 -0.8
v 0.2 0.9 -0.9
v 0.5 0.9 -0.9
v 0.6 0.9 -0.9
v 0.7 0.9 -0.9
v 0.5 1 -0.2
v 0.6 1 -0.2
v 0.2 1 -0.3
v 0.3 1 -0.3
v 0.5 1 -0.3
v 0.6 1 -0.3
v 0.2 1 -0.4
v 0.3 1 -0.4
v 0.4 1 -0.5
v 0.5 1 -0.5
v 0.4 1 -0.6
v 0.5 1 -0.6
v 0.7 1 -0.7
v 0.8 1 -0.7
v 0.7 1 -0.8
v 0.8 1 -0.8

# faces
f 6/1/1 2/1/1 1/1/1
f 7/1/1 2/1/1 6/1/1
f 8/1/1 4/1/1 3/1/1
f 9/1/1 7/1/1 6/1/1
f 9/1/1 8/1/1 7/1/1
f 9/1/1 6/1/1 5/1/1
f 10/1/1 4/1/1 8/1/1
f 10/1/1 8/1/1 9/1/1
f 14/3/1 12/3/1 11/3/1
f 15/3/1 12/3/1 14/3/1
f 16/3/1 12/3/1 15/3/1
f 17/3/1 12/3/1 16/3/1
f 18/3/1 12/3/1 17/3/1
f 19/1/1 14/1/1 13/1/1
f 19/3/1 15/3/1 14/3/1
f 20/3/1 15/3/1 19/3/1
f 21/3/1 17/3/1 16/3/1
f 22/3/1 17/3/1 21/3/1
f 25/1/1 19/1/1 13/1/1
f 28/1/1 24/1/1 23/1/1
f 29/1/1 24/1/1 28/1/1
f 30/1/1 25/1/1 13/1/1
f 30/1/1 26/1/1 25/1/1
f 31/2/1 27/2/1 26/2/1
f 31/1/1 26/1/1 30/1/1
f 32/1/1 28/1/1 27/1/1
f 32/2/1 27/2/1 31/2/1
f 33/1/1 28/1/1 32/1/1
f 38/3/1 35/3/1 34/3/1
f 39/3/1 35/3/1 38/3/1
f 40/3/1 37/3/1 36/3/1
f 44/3/1 40/3/1 36/3/1
f 45/1/1 41/1/1 40/1/1
f 45/3/1 40/3/1 44/3/1
f 46/1/1 43/1/1 42/1/1
f 47/1/1 43/1/1 46/1/1
f 49/1/1 41/1/1 45/1/1
f 52/1/1 49/1/1 48/1/1
f 53/1/1 41/1/1 49/1/1
f 53/1/1 49/1/1 52/1/1
f 54/2/1 51/2/1 50/2/1
f 55/2/1 51/2/1 54/2/1
f 61/3/1 57/3/1 56/3/1
f 62/3/1 59/3/1 58/3/1
f 63/3/1 59/3/1 62/3/1
f 64/1/1 61/1/1 60/1/1
f 65/3/1 57/3/1 61/3/1
f 65/1/1 61/1/1 64/1/1
f 66/3/1 57/3/1 65/3/1
f 69/2/1 65/2/1 64/2/1
f 70/2/1 65/2/1 69/2/1
f 72/1/1 68/1/1 67/1/1
f 73/1/1 68/1/1 72/1/1
f 74/1/1 71/1/1 70/1/1
f 75/1/1 71/1/1 74/1/1
f 78/1/1 77/1/1 76/1/1
f 79/1/1 77/1/1 78/1/1
f 82/2/1 81/2/1 80/2/1
f 83/2/1 81/2/1 82/2/1
f 86/1/1 85/1/1 84/1/1
f 87/1/1 85/1/1 86/1/1
f 90/2/1 89/2/1 88/2/1
f 91/2/1 89/2/1 90/2/1
f 94/1/1 93/1/1 92/1/1
f 95/1/1 93/1/1 94/1/1
f 98/2/1 97/2/1 96/2/1
f 99/2/1 97/2/1 98/2/1
f 100/2/2 101/2/2 102/2/2
f 102/2/2 101/2/2 103/2/2
f 104/1/2 105/1/2 106/1/2
f 106/1/2 105/1/2 107/1/2
f 108/1/2 109/1/2 110/1/2
f 110/1/2 109/1/2 111/1/2
f 112/2/2 113/2/2 114/2/2
f 114/2/2 113/2/2 115/2/2
f 116/1/2 117/1/2 118/1/2
f 118/1/2 117/1/2 119/1/2
f 120/2/2 121/2/2 122/2/2
f 122/2/2 121/2/2 123/2/2
f 124/3/2 125/3/2 128/3/2
f 128/3/2 125/3/2 129/3/2
f 126/3/2 127/3/2 130/3/2
f 126/3/2 130/3/2 134/3/2
f 130/1/2 131/1/2 135/1/2
f 134/3/2 130/3/2 135/3/2
f 132/1/2 133/1/2 136/1/2
f 136/1/2 133/1/2 137/1/2
f 135/1/2 131/1/2 139/1/2
f 139/1/2 131/1/2 140/1/2
f 138/1/2 139/1/2 141/1/2
f 141/1/2 139/1/2 142/1/2
f 143/3/2 144/3/2 148/3/2
f 145/3/2 146/3/2 149/3/2
f 149/3/2 146/3/2 150/3/2
f 147/1/2 148/1/2 151/1/2
f 148/3/2 144/3/2 151/3/2
f 151/3/2 144/3/2 152/3/2
f 147/1/2 151/1/2 155/1/2
f 153/1/2 154/1/2 157/1/2
f 157/1/2 154/1/2 158/1/2
f 155/1/2 156/1/2 159/1/2
f 147/1/2 155/1/2 159/1/2
f 159/1/2 156/1/2 160/1/2
f 161/2/2 162/2/2 163/2/2
f 163/2/2 162/2/2 164/2/2
f 165/3/2 166/3/2 167/3/2
f 167/3/2 166/3/2 168/3/2
f 168/3/2 166/3/2 169/3/2
f 169/3/2 166/3/2 170/3/2
f 170/3/2 166/3/2 171/3/2
f 168/3/2 169/3/2 175/3/2
f 175/3/2 169/3/2 176/3/2
f 170/3/2 171/3/2 177/3/2
f 171/1/2 172/1/2 178/1/2
f 177/3/2 171/3/2 178/3/2
f 173/1/2 174/1/2 179/1/2
f 179/1/2 174/1/2 180/1/2
f 178/1/2 172/1/2 183/1/2
f 181/1/2 182/1/2 184/1/2
f 182/1/2 183/1/2 184/1/2
f 180/1/2 181/1/2 184/1/2
f 183/1/2 172/1/2 185/1/2
f 184/1/2 183/1/2 185/1/2
f 186/1/2 187/1/2 190/1/2
f 188/1/2 189/1/2 191/1/2
f 191/1/2 189/1/2 192/1/2
f 186/1/2 190/1/2 194/1/2
f 190/2/2 191/2/2 195/2/2
f 194/1/2 190/1/2 195/1/2
f 192/1/2 193/1/2 196/1/2
f 195/2/2 191/2/2 196/2/2
f 191/1/2 192/1/2 196/1/2
f 196/1/2 193/1/2 197/1/2
f 201/1/3 199/1/3 198/1/3
f 202/2/3 200/2/3 199/2/3
f 202/1/3 199/1/3 201/1/3
f 203/2/3 200/2/3 202/2/3
f 205/1/3 203/1/3 202/1/3
f 206/1/3 205/1/3 204/1/3
f 207/1/3 203/1/3 205/1/3
f 207/1/3 205/1/3 206/1/3
f 208/1/3 203/1/3 207/1/3
f 209/1/3 203/1/3 208/1/3
f 214/1/3 211/1/3 210/1/3
f 215/1/3 211/1/3 214/1/3
f 217/3/3 213/3/3 212/3/3
f 219/1/3 216/1/3 215/1/3
f 220/3/3 218/3/3 217/3/3
f 220/3/3 217/3/3 212/3/3
f 221/3/3 218/3/3 220/3/3
f 222/3/3 220/3/3 212/3/3
f 224/1/3 216/1/3 219/1/3
f 225/1/3 216/1/3 224/1/3
f 226/3/3 223/3/3 222/3/3
f 226/3/3 222/3/3 212/3/3
f 227/3/3 223/3/3 226/3/3
f 228/3/3 223/3/3 227/3/3
f 229/2/3 225/2/3 224/2/3
f 230/2/3 225/2/3 229/2/3
f 231/1/3 228/1/3 227/1/3
f 231/1/3 230/1/3 229/1/3
f 231/1/3 229/1/3 228/1/3
f 232/1/3 230/1/3 231/1/3
f 236/1/3 234/1/3 233/1/3
f 237/1/3 234/1/3 236/1/3
f 238/1/3 234/1/3 237/1/3
f 239/3/3 236/3/3 235/3/3
f 239/3/3 237/3/3 236/3/3
f 240/3/3 237/3/3 239/3/3
f 241/1/3 234/1/3 238/1/3
f 242/1/3 234/1/3 241/1/3
f 245/2/3 244/2/3 243/2/3
f 246/2/3 244/2/3 245/2/3
f 249/3/3 248/3/3 247/3/3
f 250/3/3 248/3/3 249/3/3
f 253/1/3 252/1/3 251/1/3
f 254/1/3 252/1/3 253/1/3
f 259/1/3 256/1/3 255/1/3
f 260/1/3 256/1/3 259/1/3
f 261/3/3 258/3/3 257/3/3
f 262/3/3 258/3/3 261/3/3
f 265/2/3 264/2/3 263/2/3
f 266/2/3 264/2/3 265/2/3
f 271/3/3 268/3/3 267/3/3
f 272/3/3 268/3/3 271/3/3
f 273/3/3 268/3/3 272/3/3
f 274/1/3 270/1/3 269/1/3
f 275/1/3 270/1/3 274/1/3
f 276/1/3 273/1/3 272/1/3
f 276/1/3 274/1/3 273/1/3
f 277/1/3 274/1/3 276/1/3
f 280/1/3 279/1/3 278/1/3
f 281/1/3 279/1/3 280/1/3
f 284/2/3 283/2/3 282/2/3
f 285/2/3 283/2/3 284/2/3
f 288/1/3 287/1/3 286/1/3
f 289/1/3 287/1/3 288/1/3
f 292/1/3 291/1/3 290/1/3
f 293/1/3 291/1/3 292/1/3
f 296/2/3 295/2/3 294/2/3
f 297/2/3 295/2/3 296/2/3
f 298/2/4 299/2/4 300/2/4
f 300/2/4 299/2/4 301/2/4
f 302/2/4 303/2/4 304/2/4
f 304/2/4 303/2/4 305/2/4
f 306/1/4 307/1/4 308/1/4
f 308/1/4 307/1/4 309/1/4
f 310/1/4 311/1/4 312/1/4
f 312/1/4 311/1/4 313/1/4
f 314/2/4 315/2/4 316/2/4
f 316/2/4 315/2/4 317/2/4
f 318/1/4 319/1/4 320/1/4
f 320/1/4 319/1/4 321/1/4
f 322/1/4 323/1/4 325/1/4
f 325/1/4 323/1/4 326/1/4
f 326/1/4 323/1/4 327/1/4
f 324/3/4 325/3/4 329/3/4
f 325/3/4 326/3/4 329/3/4
f 329/3/4 326/3/4 330/3/4
f 327/1/4 328/1/4 331/1/4
f 331/1/4 328/1/4 332/1/4
f 333/3/4 334/3/4 335/3/4
f 335/3/4 334/3/4 336/3/4
f 337/1/4 338/1/4 339/1/4
f 339/1/4 338/1/4 340/1/4
f 341/1/4 342/1/4 345/1/4
f 345/1/4 342/1/4 346/1/4
f 343/3/4 344/3/4 347/3/4
f 347/3/4 344/3/4 348/3/4
f 349/3/4 350/3/4 354/3/4
f 354/3/4 350/3/4 355/3/4
f 355/3/4 350/3/4 356/3/4
f 351/1/4 352/1/4 357/1/4
f 352/2/4 353/2/4 358/2/4
f 357/1/4 352/1/4 358/1/4
f 358/2/4 353/2/4 359/2/4
f 356/1/4 357/1/4 360/1/4
f 355/1/4 356/1/4 360/1/4
f 357/1/4 358/1/4 360/1/4
f 360/1/4 358/1/4 361/1/4
f 362/1/4 363/1/4 365/1/4
f 365/1/4 363/1/4 366/1/4
f 366/1/4 363/1/4 367/1/4
f 364/3/4 365/3/4 368/3/4
f 365/3/4 366/3/4 368/3/4
f 368/3/4 366/3/4 369/3/4
f 364/3/4 368/3/4 370/3/4
f 367/1/4 363/1/4 372/1/4
f 372/1/4 363/1/4 373/1/4
f 370/3/4 371/3/4 374/3/4
f 364/3/4 370/3/4 374/3/4
f 374/3/4 371/3/4 375/3/4
f 372/2/4 373/2/4 376/2/4
f 376/2/4 373/2/4 377/2/4
f 364/3/4 374/3/4 378/3/4
f 378/3/4 374/3/4 379/3/4
f 376/1/4 377/1/4 381/1/4
f 381/1/4 377/1/4 382/1/4
f 380/1/4 381/1/4 383/1/4
f 383/1/4 381/1/4 384/1/4
f 385/1/4 386/1/4 388/1/4
f 387/1/4 388/1/4 389/1/4
f 388/1/4 386/1/4 390/1/4
f 389/1/4 388/1/4 390/1/4
f 390/1/4 386/1/4 392/1/4
f 391/1/4 392/1/4 393/1/4
f 392/1/4 386/1/4 394/1/4
f 393/1/4 392/1/4 394/1/4
f 398/3/5 396/3/5 395/3/5
f 399/3/5 396/3/5 398/3/5
f 402/3/5 398/3/5 397/3/5
f 402/3/5 400/3/5 399/3/5
f 402/3/5 399/3/5 398/3/5
f 403/3/5 400/3/5 402/3/5
f 405/3/5 402/3/5 401/3/5
f 405/3/5 404/3/5 403/3/5
f 405/3/5 403/3/5 402/3/5
f 406/3/5 404/3/5 405/3/5
f 407/3/5 404/3/5 406/3/5
f 408/3/5 404/3/5 407/3/5
f 409/3/5 407/3/5 406/3/5
f 410/3/5 407/3/5 409/3/5
f 411/3/5 407/3/5 410/3/5
f 412/3/5 407/3/5 411/3/5
f 413/3/5 411/3/5 410/3/5
f 414/3/5 411/3/5 413/3/5
f 419/1/5 416/1/5 415/1/5
f 420/1/5 416/1/5 419/1/5
f 421/1/5 418/1/5 417/1/5
f 422/1/5 418/1/5 421/1/5
f 427/1/5 424/1/5 423/1/5
f 428/1/5 424/1/5 427/1/5
f 429/1/5 426/1/5 425/1/5
f 430/1/5 426/1/5 429/1/5
f 435/1/5 432/1/5 431/1/5
f 436/1/5 432/1/5 435/1/5
f 437/1/5 434/1/5 433/1/5
f 438/1/5 434/1/5 437/1/5
f 443/1/5 440/1/5 439/1/5
f 444/1/5 440/1/5 443/1/5
f 445/1/5 442/1/5 441/1/5
f 446/1/5 442/1/5 445/1/5
f 451/1/5 448/1/5 447/1/5
f 452/1/5 448/1/5 451/1/5
f 453/1/5 450/1/5 449/1/5
f 454/1/5 450/1/5 453/1/5
f 459/1/5 456/1/5 455/1/5
f 460/1/5 456/1/5 459/1/5
f 461/1/5 458/1/5 457/1/5
f 462/1/5 458/1/5 461/1/5
f 469/1/5 464/1/5 463/1/5
f 470/1/5 464/1/5 469/1/5
f 471/1/5 466/1/5 465/1/5
f 472/1/5 466/1/5 471/1/5
f 473/1/5 468/1/5 467/1/5
f 474/1/5 468/1/5 473/1/5
f 479/1/5 476/1/5 475/1/5
f 480/1/5 476/1/5 479/1/5
f 481/1/5 478/1/5 477/1/5
f 482/1/5 478/1/5 481/1/5
f 487/2/5 484/2/5 483/2/5
f 488/2/5 484/2/5 487/2/5
f 489/1/5 486/1/5 485/1/5
f 490/1/5 486/1/5 489/1/5
f 495/1/5 492/1/5 491/1/5
f 496/1/5 492/1/5 495/1/5
f 497/1/5 494/1/5 493/1/5
f 498/1/5 494/1/5 497/1/5
f 505/1/5 500/1/5 499/1/5
f 506/1/5 500/1/5 505/1/5
f 507/1/5 502/1/5 501/1/5
f 508/1/5 502/1/5 507/1/5
f 509/1/5 504/1/5 503/1/5
f 510/1/5 504/1/5 509/1/5
f 511/2/6 512/2/6 515/2/6
f 512/1/6 513/1/6 516/1/6
f 515/2/6 512/2/6 516/2/6
f 516/1/6 513/1/6 517/1/6
f 517/1/6 513/1/6 518/1/6
f 514/1/6 515/1/6 519/1/6
f 519/1/6 515/1/6 520/1/6
f 521/1/6 522/1/6 525/1/6
f 525/1/6 522/1/6 526/1/6
f 526/1/6 527/1/6 528/1/6
f 528/1/6 527/1/6 529/1/6
f 523/1/6 524/1/6 530/1/6
f 528/2/6 529/2/6 531/2/6
f 531/2/6 529/2/6 532/2/6
f 523/1/6 530/1/6 533/1/6
f 523/1/6 533/1/6 534/1/6
f 534/1/6 533/1/6 535/1/6
f 531/1/6 532/1/6 537/1/6
f 537/1/6 532/1/6 538/1/6
f 535/1/6 536/1/6 539/1/6
f 539/1/6 536/1/6 540/1/6
f 541/1/6 542/1/6 546/1/6
f 546/1/6 542/1/6 547/1/6
f 544/1/6 545/1/6 548/1/6
f 543/1/6 544/1/6 548/1/6
f 545/1/6 546/1/6 548/1/6
f 548/1/6 546/1/6 549/1/6
f 550/1/6 551/1/6 555/1/6
f 555/1/6 551/1/6 556/1/6
f 551/2/6 552/2/6 557/2/6
f 556/1/6 551/1/6 557/1/6
f 552/1/6 553/1/6 558/1/6
f 557/2/6 552/2/6 558/2/6
f 555/1/6 556/1/6 559/1/6
f 554/1/6 555/1/6 559/1/6
f 559/1/6 556/1/6 560/1/6
f 560/1/6 556/1/6 561/1/6
f 557/1/6 558/1/6 562/1/6
f 558/1/6 553/1/6 563/1/6
f 562/1/6 558/1/6 563/1/6
f 554/1/6 559/1/6 565/1/6
f 561/1/6 562/1/6 566/1/6
f 560/1/6 561/1/6 566/1/6
f 563/1/6 564/1/6 566/1/6
f 562/1/6 563/1/6 566/1/6
f 566/1/6 564/1/6 567/1/6
f 567/1/6 564/1/6 568/1/6
f 554/1/6 565/1/6 569/1/6
f 565/1/6 566/1/6 569/1/6
f 566/1/6 567/1/6 569/1/6
f 569/1/6 567/1/6 570/1/6
f 570/1/6 567/1/6 571/1/6
f 571/1/6 567/1/6 572/1/6
f 567/2/6 568/2/6 573/2/6
f 572/1/6 567/1/6 573/1/6
f 568/1/6 564/1/6 574/1/6
f 573/2/6 568/2/6 574/2/6
f 569/2/6 570/2/6 575/2/6
f 570/1/6 571/1/6 576/1/6
f 575/2/6 570/2/6 576/2/6
f 576/1/6 571/1/6 577/1/6
f 572/1/6 573/1/6 578/1/6
f 573/1/6 574/1/6 578/1/6
f 576/1/6 577/1/6 579/1/6
f 577/1/6 578/1/6 579/1/6
f 575/1/6 576/1/6 579/1/6
f 579/1/6 578/1/6 580/1/6
f 580/1/6 578/1/6 581/1/6
f 581/1/6 578/1/6 582/1/6
f 578/1/6 574/1/6 583/1/6
f 582/1/6 578/1/6 583/1/6
f 574/1/6 564/1/6 583/1/6
f 583/1/6 564/1/6 584/1/6
f 581/2/6 582/2/6 585/2/6
f 580/1/6 581/1/6 585/1/6
f 582/1/6 583/1/6 586/1/6
f 585/2/6 582/2/6 586/2/6
f 586/1/6 583/1/6 587/1/6
f 587/1/6 583/1/6 588/1/6
f 588/1/6 583/1/6 589/1/6
f 584/1/6 564/1/6 590/1/6
f 590/1/6 564/1/6 591/1/6
f 580/1/6 585/1/6 592/1/6
f 585/1/6 586/1/6 592/1/6
f 586/1/6 587/1/6 592/1/6
f 587/2/6 588/2/6 593/2/6
f 592/1/6 587/1/6 593/1/6
f 588/1/6 589/1/6 594/1/6
f 593/2/6 588/2/6 594/2/6
f 594/1/6 589/1/6 595/1/6
f 596/2/6 597/2/6 600/2/6
f 600/2/6 597/2/6 601/2/6
f 598/2/6 599/2/6 602/2/6
f 602/2/6 599/2/6 603/2/6
f 604/2/6 605/2/6 606/2/6
f 606/2/6 605/2/6 607/2/6
f 608/2/6 609/2/6 610/2/6
f 610/2/6 609/2/6 611/2/6
