# MagicaVoxel @ Ephtracy

# group
o 

# material
mtllib glue_apple.mtl
usemtl palette

# normals
vn -1 0 0
vn 1 0 0
vn 0 0 1
vn 0 0 -1
vn 0 -1 0
vn 0 1 0

# texcoords
vt 0.138672 0.5
vt 0.396484 0.5
vt 0.771484 0.5
vt 0.845703 0.5

# verts
v 0.2 0.6 -0.4
v 0.2 0.6 -0.6
v 0.2 0.7 -0.3
v 0.2 0.7 -0.4
v 0.2 0.8 -0.6
v 0.2 0.8 -0.7
v 0.2 1 -0.3
v 0.2 1 -0.4
v 0.2 1 -0.5
v 0.2 1 -0.7
v 0.2 1.1 -0.4
v 0.2 1.1 -0.5
v 0.3 0.5 -0.4
v 0.3 0.5 -0.6
v 0.3 0.6 -0.3
v 0.3 0.6 -0.4
v 0.3 0.6 -0.6
v 0.3 0.6 -0.7
v 0.3 0.7 -0.3
v 0.3 0.7 -0.4
v 0.3 0.7 -0.7
v 0.3 0.7 -0.8
v 0.3 0.8 -0.2
v 0.3 0.8 -0.3
v 0.3 0.8 -0.6
v 0.3 0.8 -0.7
v 0.3 1 -0.2
v 0.3 1 -0.3
v 0.3 1 -0.4
v 0.3 1 -0.5
v 0.3 1 -0.7
v 0.3 1 -0.8
v 0.3 1.1 -0.3
v 0.3 1.1 -0.4
v 0.3 1.1 -0.5
v 0.3 1.1 -0.7
v 0.3 1.2 -0.3
v 0.3 1.2 -0.4
v 0.3 1.3 -0.2
v 0.3 1.3 -0.3
v 0.3 1.4 -0.2
v 0.3 1.4 -0.4
v 0.4 0.5 -0.3
v 0.4 0.5 -0.4
v 0.4 0.5 -0.6
v 0.4 0.5 -0.7
v 0.4 0.6 -0.2
v 0.4 0.6 -0.3
v 0.4 0.6 -0.4
v 0.4 0.6 -0.6
v 0.4 0.6 -0.7
v 0.4 0.6 -0.8
v 0.4 0.7 -0.7
v 0.4 0.7 -0.8
v 0.4 0.8 -0.2
v 0.4 0.8 -0.3
v 0.4 1 -0.2
v 0.4 1 -0.3
v 0.4 1 -0.7
v 0.4 1 -0.8
v 0.4 1.1 -0.2
v 0.4 1.1 -0.3
v 0.4 1.1 -0.4
v 0.4 1.1 -0.5
v 0.4 1.1 -0.7
v 0.4 1.1 -0.8
v 0.4 1.2 -0.4
v 0.4 1.3 -0.4
v 0.4 1.3 -0.5
v 0.5 1.1 -0.5
v 0.5 1.1 -0.6
v 0.5 1.3 -0.5
v 0.5 1.3 -0.6
v 0.4 1.3 -0.2
v 0.4 1.3 -0.3
v 0.4 1.3 -0.4
v 0.4 1.4 -0.2
v 0.4 1.4 -0.4
v 0.5 1.1 -0.4
v 0.5 1.1 -0.5
v 0.5 1.2 -0.3
v 0.5 1.2 -0.4
v 0.5 1.3 -0.3
v 0.5 1.3 -0.5
v 0.6 0.5 -0.3
v 0.6 0.5 -0.4
v 0.6 0.5 -0.6
v 0.6 0.5 -0.7
v 0.6 0.6 -0.2
v 0.6 0.6 -0.3
v 0.6 0.6 -0.4
v 0.6 0.6 -0.6
v 0.6 0.6 -0.7
v 0.6 0.6 -0.8
v 0.6 0.7 -0.2
v 0.6 0.7 -0.3
v 0.6 0.8 -0.7
v 0.6 0.8 -0.8
v 0.6 1 -0.2
v 0.6 1 -0.3
v 0.6 1 -0.7
v 0.6 1 -0.8
v 0.6 1.1 -0.2
v 0.6 1.1 -0.3
v 0.6 1.1 -0.5
v 0.6 1.1 -0.6
v 0.6 1.1 -0.7
v 0.6 1.1 -0.8
v 0.6 1.3 -0.5
v 0.6 1.3 -0.6
v 0.7 0.5 -0.4
v 0.7 0.5 -0.6
v 0.7 0.6 -0.3
v 0.7 0.6 -0.4
v 0.7 0.6 -0.6
v 0.7 0.6 -0.7
v 0.7 0.7 -0.2
v 0.7 0.7 -0.3
v 0.7 0.7 -0.6
v 0.7 0.7 -0.7
v 0.7 0.8 -0.3
v 0.7 0.8 -0.4
v 0.7 0.8 -0.7
v 0.7 0.8 -0.8
v 0.7 1 -0.2
v 0.7 1 -0.3
v 0.7 1 -0.4
v 0.7 1 -0.6
v 0.7 1 -0.7
v 0.7 1 -0.8
v 0.7 1.1 -0.3
v 0.7 1.1 -0.4
v 0.7 1.1 -0.6
v 0.7 1.1 -0.7
v 0.8 0.6 -0.4
v 0.8 0.6 -0.6
v 0.8 0.7 -0.6
v 0.8 0.7 -0.7
v 0.8 0.8 -0.3
v 0.8 0.8 -0.4
v 0.8 1 -0.3
v 0.8 1 -0.4
v 0.8 1 -0.6
v 0.8 1 -0.7
v 0.8 1.1 -0.4
v 0.8 1.1 -0.6
v 0.3 0.8 -0.2
v 0.3 1 -0.2
v 0.3 1.3 -0.2
v 0.3 1.4 -0.2
v 0.4 0.6 -0.2
v 0.4 0.8 -0.2
v 0.4 1 -0.2
v 0.4 1.1 -0.2
v 0.4 1.3 -0.2
v 0.4 1.4 -0.2
v 0.6 0.6 -0.2
v 0.6 0.7 -0.2
v 0.6 1 -0.2
v 0.6 1.1 -0.2
v 0.7 0.7 -0.2
v 0.7 1 -0.2
v 0.2 0.7 -0.3
v 0.2 1 -0.3
v 0.3 0.6 -0.3
v 0.3 0.7 -0.3
v 0.3 0.8 -0.3
v 0.3 1 -0.3
v 0.3 1.1 -0.3
v 0.3 1.2 -0.3
v 0.3 1.3 -0.3
v 0.4 0.5 -0.3
v 0.4 0.6 -0.3
v 0.4 0.8 -0.3
v 0.4 1 -0.3
v 0.4 1.1 -0.3
v 0.4 1.3 -0.3
v 0.5 1.2 -0.3
v 0.5 1.3 -0.3
v 0.6 0.5 -0.3
v 0.6 0.6 -0.3
v 0.6 0.7 -0.3
v 0.6 1 -0.3
v 0.6 1.1 -0.3
v 0.7 0.6 -0.3
v 0.7 0.7 -0.3
v 0.7 0.8 -0.3
v 0.7 1 -0.3
v 0.7 1.1 -0.3
v 0.8 0.8 -0.3
v 0.8 1 -0.3
v 0.2 0.6 -0.4
v 0.2 0.7 -0.4
v 0.2 1 -0.4
v 0.2 1.1 -0.4
v 0.3 0.5 -0.4
v 0.3 0.6 -0.4
v 0.3 0.7 -0.4
v 0.3 1 -0.4
v 0.3 1.1 -0.4
v 0.4 0.5 -0.4
v 0.4 0.6 -0.4
v 0.4 1.1 -0.4
v 0.4 1.2 -0.4
v 0.5 1.1 -0.4
v 0.5 1.2 -0.4
v 0.6 0.5 -0.4
v 0.6 0.6 -0.4
v 0.7 0.5 -0.4
v 0.7 0.6 -0.4
v 0.7 0.8 -0.4
v 0.7 1 -0.4
v 0.7 1.1 -0.4
v 0.8 0.6 -0.4
v 0.8 0.8 -0.4
v 0.8 1 -0.4
v 0.8 1.1 -0.4
v 0.5 1.1 -0.5
v 0.5 1.3 -0.5
v 0.6 1.1 -0.5
v 0.6 1.3 -0.5
v 0.3 1.2 -0.4
v 0.3 1.4 -0.4
v 0.4 1.2 -0.4
v 0.4 1.3 -0.4
v 0.4 1.4 -0.4
v 0.2 1 -0.5
v 0.2 1.1 -0.5
v 0.3 1 -0.5
v 0.3 1.1 -0.5
v 0.4 1.1 -0.5
v 0.4 1.3 -0.5
v 0.5 1.1 -0.5
v 0.5 1.3 -0.5
v 0.2 0.6 -0.6
v 0.2 0.8 -0.6
v 0.3 0.5 -0.6
v 0.3 0.6 -0.6
v 0.3 0.8 -0.6
v 0.4 0.5 -0.6
v 0.4 0.6 -0.6
v 0.5 1.1 -0.6
v 0.5 1.3 -0.6
v 0.6 0.5 -0.6
v 0.6 0.6 -0.6
v 0.6 1.1 -0.6
v 0.6 1.3 -0.6
v 0.7 0.5 -0.6
v 0.7 0.6 -0.6
v 0.7 0.7 -0.6
v 0.7 1 -0.6
v 0.7 1.1 -0.6
v 0.8 0.6 -0.6
v 0.8 0.7 -0.6
v 0.8 1 -0.6
v 0.8 1.1 -0.6
v 0.2 0.8 -0.7
v 0.2 1 -0.7
v 0.3 0.6 -0.7
v 0.3 0.7 -0.7
v 0.3 0.8 -0.7
v 0.3 1 -0.7
v 0.3 1.1 -0.7
v 0.4 0.5 -0.7
v 0.4 0.6 -0.7
v 0.4 0.7 -0.7
v 0.4 1 -0.7
v 0.4 1.1 -0.7
v 0.6 0.5 -0.7
v 0.6 0.6 -0.7
v 0.6 0.8 -0.7
v 0.6 1 -0.7
v 0.6 1.1 -0.7
v 0.7 0.6 -0.7
v 0.7 0.7 -0.7
v 0.7 0.8 -0.7
v 0.7 1 -0.7
v 0.7 1.1 -0.7
v 0.8 0.7 -0.7
v 0.8 1 -0.7
v 0.3 0.7 -0.8
v 0.3 1 -0.8
v 0.4 0.6 -0.8
v 0.4 0.7 -0.8
v 0.4 1 -0.8
v 0.4 1.1 -0.8
v 0.6 0.6 -0.8
v 0.6 0.8 -0.8
v 0.6 1 -0.8
v 0.6 1.1 -0.8
v 0.7 0.8 -0.8
v 0.7 1 -0.8
v 0.4 0.5 -0.3
v 0.6 0.5 -0.3
v 0.3 0.5 -0.4
v 0.4 0.5 -0.4
v 0.5 0.5 -0.4
v 0.6 0.5 -0.4
v 0.7 0.5 -0.4
v 0.5 0.5 -0.5
v 0.6 0.5 -0.5
v 0.3 0.5 -0.6
v 0.4 0.5 -0.6
v 0.6 0.5 -0.6
v 0.7 0.5 -0.6
v 0.4 0.5 -0.7
v 0.6 0.5 -0.7
v 0.4 0.6 -0.2
v 0.6 0.6 -0.2
v 0.3 0.6 -0.3
v 0.4 0.6 -0.3
v 0.6 0.6 -0.3
v 0.7 0.6 -0.3
v 0.2 0.6 -0.4
v 0.3 0.6 -0.4
v 0.4 0.6 -0.4
v 0.6 0.6 -0.4
v 0.7 0.6 -0.4
v 0.8 0.6 -0.4
v 0.2 0.6 -0.6
v 0.3 0.6 -0.6
v 0.4 0.6 -0.6
v 0.6 0.6 -0.6
v 0.7 0.6 -0.6
v 0.8 0.6 -0.6
v 0.3 0.6 -0.7
v 0.4 0.6 -0.7
v 0.6 0.6 -0.7
v 0.7 0.6 -0.7
v 0.4 0.6 -0.8
v 0.6 0.6 -0.8
v 0.6 0.7 -0.2
v 0.7 0.7 -0.2
v 0.2 0.7 -0.3
v 0.3 0.7 -0.3
v 0.6 0.7 -0.3
v 0.7 0.7 -0.3
v 0.2 0.7 -0.4
v 0.3 0.7 -0.4
v 0.7 0.7 -0.6
v 0.8 0.7 -0.6
v 0.3 0.7 -0.7
v 0.4 0.7 -0.7
v 0.7 0.7 -0.7
v 0.8 0.7 -0.7
v 0.3 0.7 -0.8
v 0.4 0.7 -0.8
v 0.3 0.8 -0.2
v 0.4 0.8 -0.2
v 0.3 0.8 -0.3
v 0.4 0.8 -0.3
v 0.7 0.8 -0.3
v 0.8 0.8 -0.3
v 0.7 0.8 -0.4
v 0.8 0.8 -0.4
v 0.2 0.8 -0.6
v 0.3 0.8 -0.6
v 0.2 0.8 -0.7
v 0.3 0.8 -0.7
v 0.6 0.8 -0.7
v 0.7 0.8 -0.7
v 0.6 0.8 -0.8
v 0.7 0.8 -0.8
v 0.3 1.2 -0.3
v 0.5 1.2 -0.3
v 0.3 1.2 -0.4
v 0.4 1.2 -0.4
v 0.5 1.2 -0.4
v 0.3 1.3 -0.2
v 0.4 1.3 -0.2
v 0.3 1.3 -0.3
v 0.4 1.3 -0.3
v 0.3 1 -0.2
v 0.4 1 -0.2
v 0.6 1 -0.2
v 0.7 1 -0.2
v 0.2 1 -0.3
v 0.3 1 -0.3
v 0.4 1 -0.3
v 0.6 1 -0.3
v 0.7 1 -0.3
v 0.8 1 -0.3
v 0.2 1 -0.4
v 0.3 1 -0.4
v 0.7 1 -0.4
v 0.8 1 -0.4
v 0.2 1 -0.5
v 0.3 1 -0.5
v 0.7 1 -0.6
v 0.8 1 -0.6
v 0.2 1 -0.7
v 0.3 1 -0.7
v 0.4 1 -0.7
v 0.6 1 -0.7
v 0.7 1 -0.7
v 0.8 1 -0.7
v 0.3 1 -0.8
v 0.4 1 -0.8
v 0.6 1 -0.8
v 0.7 1 -0.8
v 0.4 1.1 -0.2
v 0.6 1.1 -0.2
v 0.3 1.1 -0.3
v 0.4 1.1 -0.3
v 0.5 1.1 -0.3
v 0.6 1.1 -0.3
v 0.7 1.1 -0.3
v 0.2 1.1 -0.4
v 0.3 1.1 -0.4
v 0.4 1.1 -0.4
v 0.5 1.1 -0.4
v 0.6 1.1 -0.4
v 0.7 1.1 -0.4
v 0.8 1.1 -0.4
v 0.2 1.1 -0.5
v 0.3 1.1 -0.5
v 0.4 1.1 -0.5
v 0.5 1.1 -0.5
v 0.6 1.1 -0.5
v 0.4 1.1 -0.6
v 0.5 1.1 -0.6
v 0.6 1.1 -0.6
v 0.7 1.1 -0.6
v 0.8 1.1 -0.6
v 0.3 1.1 -0.7
v 0.4 1.1 -0.7
v 0.6 1.1 -0.7
v 0.7 1.1 -0.7
v 0.4 1.1 -0.8
v 0.6 1.1 -0.8
v 0.4 1.3 -0.3
v 0.5 1.3 -0.3
v 0.4 1.3 -0.4
v 0.4 1.3 -0.5
v 0.5 1.3 -0.5
v 0.6 1.3 -0.5
v 0.5 1.3 -0.6
v 0.6 1.3 -0.6
v 0.3 1.4 -0.2
v 0.4 1.4 -0.2
v 0.3 1.4 -0.4
v 0.4 1.4 -0.4

# faces
f 4/1/1 2/1/1 1/1/1
f 5/1/1 2/1/1 4/1/1
f 5/1/1 4/1/1 3/1/1
f 7/1/1 5/1/1 3/1/1
f 7/1/1 6/1/1 5/1/1
f 8/1/1 6/1/1 7/1/1
f 9/1/1 6/1/1 8/1/1
f 10/1/1 6/1/1 9/1/1
f 11/1/1 9/1/1 8/1/1
f 12/1/1 9/1/1 11/1/1
f 16/1/1 14/1/1 13/1/1
f 17/1/1 14/1/1 16/1/1
f 19/1/1 16/1/1 15/1/1
f 20/1/1 16/1/1 19/1/1
f 21/1/1 18/1/1 17/1/1
f 25/1/1 22/1/1 21/1/1
f 25/1/1 21/1/1 17/1/1
f 26/1/1 22/1/1 25/1/1
f 27/1/1 24/1/1 23/1/1
f 28/1/1 24/1/1 27/1/1
f 31/1/1 22/1/1 26/1/1
f 32/1/1 22/1/1 31/1/1
f 33/4/1 29/4/1 28/4/1
f 34/4/1 29/4/1 33/4/1
f 35/1/1 31/1/1 30/1/1
f 36/1/1 31/1/1 35/1/1
f 40/3/1 38/3/1 37/3/1
f 41/3/1 40/3/1 39/3/1
f 42/3/1 38/3/1 40/3/1
f 42/3/1 40/3/1 41/3/1
f 48/1/1 44/1/1 43/1/1
f 49/1/1 44/1/1 48/1/1
f 50/1/1 46/1/1 45/1/1
f 51/1/1 46/1/1 50/1/1
f 53/1/1 52/1/1 51/1/1
f 54/1/1 52/1/1 53/1/1
f 55/1/1 48/1/1 47/1/1
f 56/1/1 48/1/1 55/1/1
f 61/1/1 58/1/1 57/1/1
f 62/1/1 58/1/1 61/1/1
f 65/1/1 60/1/1 59/1/1
f 66/1/1 60/1/1 65/1/1
f 67/3/1 64/3/1 63/3/1
f 68/3/1 64/3/1 67/3/1
f 69/3/1 64/3/1 68/3/1
f 72/2/1 71/2/1 70/2/1
f 73/2/1 71/2/1 72/2/1
f 74/3/2 75/3/2 77/3/2
f 75/3/2 76/3/2 77/3/2
f 77/3/2 76/3/2 78/3/2
f 79/3/2 80/3/2 82/3/2
f 81/3/2 82/3/2 83/3/2
f 82/3/2 80/3/2 84/3/2
f 83/3/2 82/3/2 84/3/2
f 85/1/2 86/1/2 90/1/2
f 90/1/2 86/1/2 91/1/2
f 87/1/2 88/1/2 92/1/2
f 92/1/2 88/1/2 93/1/2
f 89/1/2 90/1/2 95/1/2
f 95/1/2 90/1/2 96/1/2
f 93/1/2 94/1/2 97/1/2
f 97/1/2 94/1/2 98/1/2
f 99/1/2 100/1/2 103/1/2
f 103/1/2 100/1/2 104/1/2
f 101/1/2 102/1/2 107/1/2
f 107/1/2 102/1/2 108/1/2
f 105/2/2 106/2/2 109/2/2
f 109/2/2 106/2/2 110/2/2
f 111/1/2 112/1/2 114/1/2
f 114/1/2 112/1/2 115/1/2
f 113/1/2 114/1/2 118/1/2
f 115/1/2 116/1/2 119/1/2
f 119/1/2 116/1/2 120/1/2
f 117/1/2 118/1/2 121/1/2
f 118/1/2 114/1/2 121/1/2
f 121/1/2 114/1/2 122/1/2
f 117/1/2 121/1/2 125/1/2
f 125/1/2 121/1/2 126/1/2
f 123/1/2 124/1/2 129/1/2
f 129/1/2 124/1/2 130/1/2
f 126/1/2 127/1/2 131/1/2
f 131/1/2 127/1/2 132/1/2
f 128/1/2 129/1/2 133/1/2
f 133/1/2 129/1/2 134/1/2
f 135/1/2 136/1/2 137/1/2
f 135/1/2 137/1/2 140/1/2
f 137/1/2 138/1/2 140/1/2
f 139/1/2 140/1/2 141/1/2
f 140/1/2 138/1/2 142/1/2
f 141/1/2 140/1/2 142/1/2
f 142/1/2 138/1/2 143/1/2
f 143/1/2 138/1/2 144/1/2
f 142/1/2 143/1/2 145/1/2
f 145/1/2 143/1/2 146/1/2
f 152/1/3 148/1/3 147/1/3
f 153/1/3 148/1/3 152/1/3
f 155/3/3 150/3/3 149/3/3
f 156/3/3 150/3/3 155/3/3
f 157/1/3 154/1/3 153/1/3
f 157/1/3 152/1/3 151/1/3
f 157/1/3 153/1/3 152/1/3
f 158/1/3 154/1/3 157/1/3
f 159/1/3 154/1/3 158/1/3
f 160/1/3 154/1/3 159/1/3
f 161/1/3 159/1/3 158/1/3
f 162/1/3 159/1/3 161/1/3
f 166/1/3 164/1/3 163/1/3
f 167/1/3 164/1/3 166/1/3
f 168/1/3 164/1/3 167/1/3
f 173/1/3 166/1/3 165/1/3
f 173/1/3 167/1/3 166/1/3
f 174/1/3 167/1/3 173/1/3
f 175/4/3 169/4/3 168/4/3
f 176/4/3 169/4/3 175/4/3
f 177/3/3 171/3/3 170/3/3
f 178/3/3 177/3/3 170/3/3
f 179/3/3 177/3/3 178/3/3
f 180/1/3 173/1/3 172/1/3
f 181/1/3 173/1/3 180/1/3
f 185/1/3 182/1/3 181/1/3
f 186/1/3 182/1/3 185/1/3
f 188/1/3 184/1/3 183/1/3
f 189/1/3 184/1/3 188/1/3
f 190/1/3 188/1/3 187/1/3
f 191/1/3 188/1/3 190/1/3
f 197/1/3 193/1/3 192/1/3
f 198/1/3 193/1/3 197/1/3
f 199/1/3 195/1/3 194/1/3
f 200/1/3 195/1/3 199/1/3
f 201/1/3 197/1/3 196/1/3
f 202/1/3 197/1/3 201/1/3
f 205/3/3 204/3/3 203/3/3
f 206/3/3 204/3/3 205/3/3
f 209/1/3 208/1/3 207/1/3
f 210/1/3 208/1/3 209/1/3
f 214/1/3 211/1/3 210/1/3
f 215/1/3 211/1/3 214/1/3
f 216/1/3 213/1/3 212/1/3
f 217/1/3 213/1/3 216/1/3
f 220/2/3 219/2/3 218/2/3
f 221/2/3 219/2/3 220/2/3
f 222/3/4 223/3/4 224/3/4
f 224/3/4 223/3/4 225/3/4
f 225/3/4 223/3/4 226/3/4
f 227/1/4 228/1/4 229/1/4
f 229/1/4 228/1/4 230/1/4
f 231/3/4 232/3/4 233/3/4
f 233/3/4 232/3/4 234/3/4
f 235/1/4 236/1/4 238/1/4
f 238/1/4 236/1/4 239/1/4
f 237/1/4 238/1/4 240/1/4
f 240/1/4 238/1/4 241/1/4
f 242/2/4 243/2/4 246/2/4
f 246/2/4 243/2/4 247/2/4
f 244/1/4 245/1/4 248/1/4
f 248/1/4 245/1/4 249/1/4
f 249/1/4 250/1/4 253/1/4
f 253/1/4 250/1/4 254/1/4
f 251/1/4 252/1/4 255/1/4
f 255/1/4 252/1/4 256/1/4
f 257/1/4 258/1/4 261/1/4
f 261/1/4 258/1/4 262/1/4
f 259/1/4 260/1/4 265/1/4
f 265/1/4 260/1/4 266/1/4
f 262/1/4 263/1/4 267/1/4
f 267/1/4 263/1/4 268/1/4
f 264/1/4 265/1/4 269/1/4
f 269/1/4 265/1/4 270/1/4
f 270/1/4 271/1/4 274/1/4
f 274/1/4 271/1/4 275/1/4
f 275/1/4 271/1/4 276/1/4
f 272/1/4 273/1/4 277/1/4
f 277/1/4 273/1/4 278/1/4
f 275/1/4 276/1/4 279/1/4
f 276/1/4 277/1/4 279/1/4
f 279/1/4 277/1/4 280/1/4
f 281/1/4 282/1/4 284/1/4
f 284/1/4 282/1/4 285/1/4
f 283/1/4 284/1/4 287/1/4
f 285/1/4 286/1/4 287/1/4
f 284/1/4 285/1/4 287/1/4
f 287/1/4 286/1/4 288/1/4
f 288/1/4 286/1/4 289/1/4
f 289/1/4 286/1/4 290/1/4
f 288/1/4 289/1/4 291/1/4
f 291/1/4 289/1/4 292/1/4
f 296/1/5 294/1/5 293/1/5
f 297/1/5 294/1/5 296/1/5
f 298/1/5 294/1/5 297/1/5
f 300/4/5 297/4/5 296/4/5
f 300/1/5 299/1/5 298/1/5
f 300/1/5 298/1/5 297/1/5
f 301/1/5 299/1/5 300/1/5
f 302/1/5 296/1/5 295/1/5
f 303/4/5 300/4/5 296/4/5
f 303/1/5 296/1/5 302/1/5
f 303/4/5 301/4/5 300/4/5
f 304/1/5 299/1/5 301/1/5
f 304/4/5 301/4/5 303/4/5
f 305/1/5 299/1/5 304/1/5
f 306/1/5 304/1/5 303/1/5
f 307/1/5 304/1/5 306/1/5
f 311/1/5 309/1/5 308/1/5
f 312/1/5 309/1/5 311/1/5
f 315/1/5 311/1/5 310/1/5
f 316/1/5 311/1/5 315/1/5
f 317/1/5 313/1/5 312/1/5
f 318/1/5 313/1/5 317/1/5
f 320/1/5 315/1/5 314/1/5
f 321/1/5 315/1/5 320/1/5
f 324/1/5 319/1/5 318/1/5
f 325/1/5 319/1/5 324/1/5
f 326/1/5 322/1/5 321/1/5
f 327/1/5 322/1/5 326/1/5
f 328/1/5 324/1/5 323/1/5
f 329/1/5 324/1/5 328/1/5
f 330/1/5 328/1/5 327/1/5
f 331/1/5 328/1/5 330/1/5
f 336/1/5 333/1/5 332/1/5
f 337/1/5 333/1/5 336/1/5
f 338/1/5 335/1/5 334/1/5
f 339/1/5 335/1/5 338/1/5
f 344/1/5 341/1/5 340/1/5
f 345/1/5 341/1/5 344/1/5
f 346/1/5 343/1/5 342/1/5
f 347/1/5 343/1/5 346/1/5
f 350/1/5 349/1/5 348/1/5
f 351/1/5 349/1/5 350/1/5
f 354/1/5 353/1/5 352/1/5
f 355/1/5 353/1/5 354/1/5
f 358/1/5 357/1/5 356/1/5
f 359/1/5 357/1/5 358/1/5
f 362/1/5 361/1/5 360/1/5
f 363/1/5 361/1/5 362/1/5
f 366/3/5 365/3/5 364/3/5
f 367/3/5 365/3/5 366/3/5
f 368/3/5 365/3/5 367/3/5
f 371/3/5 370/3/5 369/3/5
f 372/3/5 370/3/5 371/3/5
f 373/1/6 374/1/6 378/1/6
f 378/1/6 374/1/6 379/1/6
f 375/1/6 376/1/6 380/1/6
f 380/1/6 376/1/6 381/1/6
f 377/1/6 378/1/6 383/1/6
f 383/1/6 378/1/6 384/1/6
f 381/1/6 382/1/6 385/1/6
f 385/1/6 382/1/6 386/1/6
f 387/1/6 388/1/6 391/1/6
f 391/1/6 388/1/6 392/1/6
f 389/1/6 390/1/6 395/1/6
f 395/1/6 390/1/6 396/1/6
f 392/1/6 393/1/6 397/1/6
f 397/1/6 393/1/6 398/1/6
f 394/1/6 395/1/6 399/1/6
f 399/1/6 395/1/6 400/1/6
f 401/1/6 402/1/6 404/1/6
f 404/1/6 402/1/6 405/1/6
f 405/1/6 402/1/6 406/1/6
f 403/4/6 404/4/6 409/4/6
f 404/4/6 405/4/6 409/4/6
f 409/4/6 405/4/6 410/4/6
f 406/1/6 407/1/6 411/1/6
f 410/4/6 405/4/6 411/4/6
f 405/1/6 406/1/6 411/1/6
f 411/1/6 407/1/6 412/1/6
f 412/1/6 407/1/6 413/1/6
f 408/1/6 409/1/6 415/1/6
f 409/4/6 410/4/6 416/4/6
f 415/1/6 409/1/6 416/1/6
f 416/4/6 410/4/6 417/4/6
f 411/4/6 412/4/6 418/4/6
f 413/1/6 414/1/6 419/1/6
f 412/1/6 413/1/6 419/1/6
f 418/4/6 412/4/6 419/4/6
f 417/4/6 418/4/6 420/4/6
f 416/1/6 417/1/6 420/1/6
f 420/4/6 418/4/6 421/4/6
f 419/1/6 414/1/6 422/1/6
f 422/1/6 414/1/6 423/1/6
f 423/1/6 414/1/6 424/1/6
f 420/1/6 421/1/6 425/1/6
f 416/1/6 420/1/6 425/1/6
f 422/1/6 423/1/6 425/1/6
f 421/1/6 422/1/6 425/1/6
f 425/1/6 423/1/6 426/1/6
f 426/1/6 423/1/6 427/1/6
f 427/1/6 423/1/6 428/1/6
f 426/1/6 427/1/6 429/1/6
f 429/1/6 427/1/6 430/1/6
f 431/3/6 432/3/6 433/3/6
f 433/3/6 432/3/6 434/3/6
f 434/3/6 432/3/6 435/3/6
f 435/2/6 436/2/6 437/2/6
f 437/2/6 436/2/6 438/2/6
f 439/3/6 440/3/6 441/3/6
f 441/3/6 440/3/6 442/3/6
