# MagicaVoxel @ Ephtracy

# group
o 

# material
mtllib glue_strawberry_cake.mtl
usemtl palette

# normals
vn -1 0 0
vn 1 0 0
vn 0 0 1
vn 0 0 -1
vn 0 -1 0
vn 0 1 0

# texcoords
vt 0.00976563 0.5
vt 0.0371094 0.5
vt 0.0605469 0.5
vt 0.138672 0.5
vt 0.794922 0.5
vt 0.865234 0.5

# verts
v -0.5 0 0
v -0.5 0 -0.2
v -0.5 0.5 0
v -0.5 0.5 -0.2
v -0.4 0 0.1
v -0.4 0 0
v -0.4 0 -0.2
v -0.4 0 -0.3
v -0.4 0.5 0.1
v -0.4 0.5 0
v -0.4 0.5 -0.2
v -0.4 0.5 -0.3
v -0.4 0.6 0
v -0.4 0.6 -0.2
v -0.3 0 -0.3
v -0.3 0 -0.4
v -0.3 0.5 0.1
v -0.3 0.5 0
v -0.3 0.5 -0.2
v -0.3 0.5 -0.3
v -0.3 0.5 -0.4
v -0.3 0.6 0.1
v -0.3 0.6 0
v -0.3 0.6 -0.2
v -0.3 0.6 -0.3
v -0.2 0 -0.4
v -0.2 0 -0.5
v -0.2 0.5 -0.3
v -0.2 0.5 -0.4
v -0.2 0.5 -0.5
v -0.2 0.6 0
v -0.2 0.6 -0.2
v -0.2 0.6 -0.3
v -0.2 0.6 -0.4
v -0.2 0.7 0
v -0.2 0.7 -0.2
v -0.2 0.7 -0.3
v -0.1 0 0.2
v -0.1 0 0.1
v -0.1 0.1 0.2
v -0.1 0.1 0.1
v -0.1 0.2 0.2
v -0.1 0.2 0.1
v -0.1 0.3 0.2
v -0.1 0.3 0.1
v -0.1 0.4 0.2
v -0.1 0.4 0.1
v -0.1 0.5 0.2
v -0.1 0.5 0.1
v -0.1 0.5 0
v -0.1 0.6 0.1
v -0.1 0.6 0
v 0.1 0 0.3
v 0.1 0 0.2
v 0.1 0.1 0.3
v 0.1 0.1 0.2
v 0.1 0.2 0.3
v 0.1 0.2 0.2
v 0.1 0.3 0.3
v 0.1 0.3 0.2
v 0.1 0.4 0.3
v 0.1 0.4 0.2
v 0.1 0.5 0.3
v 0.1 0.5 0.2
v 0.3 0 0.4
v 0.3 0 0.3
v 0.3 0.1 0.4
v 0.3 0.1 0.3
v 0.3 0.2 0.4
v 0.3 0.2 0.3
v 0.3 0.3 0.4
v 0.3 0.3 0.3
v 0.3 0.4 0.4
v 0.3 0.4 0.3
v 0.3 0.5 0.4
v 0.3 0.5 0.3
v -0.2 0.5 0.1
v -0.2 0.5 0
v -0.2 0.6 0.1
v -0.2 0.6 0
v -0.1 0.6 -0.1
v -0.1 0.6 -0.2
v -0.1 0.6 -0.3
v -0.1 0.7 -0.1
v -0.1 0.7 -0.2
v -0.1 0.7 -0.3
v 0 0 -0.4
v 0 0 -0.5
v 0 0.5 0
v 0 0.5 -0.2
v 0 0.5 -0.3
v 0 0.5 -0.4
v 0 0.5 -0.5
v 0 0.6 0
v 0 0.6 -0.1
v 0 0.6 -0.2
v 0 0.6 -0.3
v 0 0.6 -0.4
v 0 0.7 0
v 0 0.7 -0.1
v 0.1 0 -0.1
v 0.1 0 -0.3
v 0.1 0 -0.4
v 0.1 0.1 -0.1
v 0.1 0.1 -0.3
v 0.1 0.2 -0.1
v 0.1 0.2 -0.3
v 0.1 0.3 -0.1
v 0.1 0.3 -0.3
v 0.1 0.4 -0.1
v 0.1 0.4 -0.3
v 0.1 0.5 0.1
v 0.1 0.5 0
v 0.1 0.5 -0.1
v 0.1 0.5 -0.2
v 0.1 0.5 -0.3
v 0.1 0.5 -0.4
v 0.1 0.6 0.1
v 0.1 0.6 0
v 0.1 0.6 -0.2
v 0.1 0.6 -0.3
v 0.2 0 0.1
v 0.2 0 -0.1
v 0.2 0.1 0.1
v 0.2 0.1 -0.1
v 0.2 0.2 0.1
v 0.2 0.2 -0.1
v 0.2 0.3 0.1
v 0.2 0.3 -0.1
v 0.2 0.4 0.1
v 0.2 0.4 -0.1
v 0.2 0.5 0.1
v 0.2 0.5 -0.1
v 0.3 0 0.3
v 0.3 0 0.1
v 0.3 0.1 0.3
v 0.3 0.1 0.1
v 0.3 0.2 0.3
v 0.3 0.2 0.1
v 0.3 0.3 0.3
v 0.3 0.3 0.1
v 0.3 0.4 0.3
v 0.3 0.4 0.1
v 0.3 0.5 0.3
v 0.3 0.5 0.1
v 0.4 0 0.4
v 0.4 0 0.3
v 0.4 0.1 0.4
v 0.4 0.1 0.3
v 0.4 0.2 0.4
v 0.4 0.2 0.3
v 0.4 0.3 0.4
v 0.4 0.3 0.3
v 0.4 0.4 0.4
v 0.4 0.4 0.3
v 0.4 0.5 0.4
v 0.4 0.5 0.3
v 0.3 0 0.4
v 0.3 0.1 0.4
v 0.3 0.2 0.4
v 0.3 0.3 0.4
v 0.3 0.4 0.4
v 0.3 0.5 0.4
v 0.4 0 0.4
v 0.4 0.1 0.4
v 0.4 0.2 0.4
v 0.4 0.3 0.4
v 0.4 0.4 0.4
v 0.4 0.5 0.4
v 0.1 0 0.3
v 0.1 0.1 0.3
v 0.1 0.2 0.3
v 0.1 0.3 0.3
v 0.1 0.4 0.3
v 0.1 0.5 0.3
v 0.3 0 0.3
v 0.3 0.1 0.3
v 0.3 0.2 0.3
v 0.3 0.3 0.3
v 0.3 0.4 0.3
v 0.3 0.5 0.3
v -0.1 0 0.2
v -0.1 0.1 0.2
v -0.1 0.2 0.2
v -0.1 0.3 0.2
v -0.1 0.4 0.2
v -0.1 0.5 0.2
v 0.1 0 0.2
v 0.1 0.1 0.2
v 0.1 0.2 0.2
v 0.1 0.3 0.2
v 0.1 0.4 0.2
v 0.1 0.5 0.2
v -0.4 0 0.1
v -0.4 0.5 0.1
v -0.3 0 0.1
v -0.3 0.1 0.1
v -0.3 0.2 0.1
v -0.3 0.3 0.1
v -0.3 0.4 0.1
v -0.3 0.5 0.1
v -0.3 0.6 0.1
v -0.2 0.5 0.1
v -0.2 0.6 0.1
v -0.1 0 0.1
v -0.1 0.1 0.1
v -0.1 0.2 0.1
v -0.1 0.3 0.1
v -0.1 0.4 0.1
v -0.1 0.5 0.1
v -0.1 0.6 0.1
v 0.1 0.5 0.1
v 0.1 0.6 0.1
v -0.5 0 0
v -0.5 0.5 0
v -0.4 0 0
v -0.4 0.5 0
v -0.4 0.6 0
v -0.3 0.5 0
v -0.3 0.6 0
v -0.2 0.5 0
v -0.2 0.6 0
v -0.2 0.7 0
v -0.1 0.5 0
v -0.1 0.6 0
v 0 0.6 0
v 0 0.7 0
v 0 0.5 -0.2
v 0 0.6 -0.2
v 0.1 0.5 -0.2
v 0.1 0.6 -0.2
v 0.3 0 0.3
v 0.3 0.1 0.3
v 0.3 0.2 0.3
v 0.3 0.3 0.3
v 0.3 0.4 0.3
v 0.3 0.5 0.3
v 0.4 0 0.3
v 0.4 0.1 0.3
v 0.4 0.2 0.3
v 0.4 0.3 0.3
v 0.4 0.4 0.3
v 0.4 0.5 0.3
v 0.2 0 0.1
v 0.2 0.1 0.1
v 0.2 0.2 0.1
v 0.2 0.3 0.1
v 0.2 0.4 0.1
v 0.2 0.5 0.1
v 0.3 0 0.1
v 0.3 0.1 0.1
v 0.3 0.2 0.1
v 0.3 0.3 0.1
v 0.3 0.4 0.1
v 0.3 0.5 0.1
v 0 0.5 0
v 0 0.6 0
v 0.1 0.5 0
v 0.1 0.6 0
v -0.1 0.6 -0.1
v -0.1 0.7 -0.1
v 0 0.6 -0.1
v 0 0.7 -0.1
v 0.1 0 -0.1
v 0.1 0.1 -0.1
v 0.1 0.2 -0.1
v 0.1 0.3 -0.1
v 0.1 0.4 -0.1
v 0.1 0.5 -0.1
v 0.2 0 -0.1
v 0.2 0.1 -0.1
v 0.2 0.2 -0.1
v 0.2 0.3 -0.1
v 0.2 0.4 -0.1
v 0.2 0.5 -0.1
v -0.5 0 -0.2
v -0.5 0.5 -0.2
v -0.4 0 -0.2
v -0.4 0.5 -0.2
v -0.4 0.6 -0.2
v -0.3 0.5 -0.2
v -0.3 0.6 -0.2
v -0.4 0 -0.3
v -0.4 0.5 -0.3
v -0.3 0 -0.3
v -0.3 0.5 -0.3
v -0.3 0.6 -0.3
v -0.2 0.5 -0.3
v -0.2 0.6 -0.3
v -0.2 0.7 -0.3
v -0.1 0.6 -0.3
v -0.1 0.7 -0.3
v 0 0.5 -0.3
v 0 0.6 -0.3
v 0.1 0.5 -0.3
v 0.1 0.6 -0.3
v -0.3 0 -0.4
v -0.3 0.5 -0.4
v -0.2 0 -0.4
v -0.2 0.5 -0.4
v -0.2 0.6 -0.4
v 0 0 -0.4
v 0 0.5 -0.4
v 0 0.6 -0.4
v 0.1 0 -0.4
v 0.1 0.5 -0.4
v -0.2 0 -0.5
v -0.2 0.5 -0.5
v 0 0 -0.5
v 0 0.5 -0.5
v 0.3 0 0.4
v 0.4 0 0.4
v 0.1 0 0.3
v 0.3 0 0.3
v 0.4 0 0.3
v -0.1 0 0.2
v 0.1 0 0.2
v -0.4 0 0.1
v -0.3 0 0.1
v -0.1 0 0.1
v 0.2 0 0.1
v 0.3 0 0.1
v -0.5 0 0
v -0.4 0 0
v -0.3 0 0
v -0.4 0 -0.1
v -0.3 0 -0.1
v 0.1 0 -0.1
v 0.2 0 -0.1
v -0.5 0 -0.2
v -0.4 0 -0.2
v -0.3 0 -0.2
v -0.2 0 -0.2
v -0.4 0 -0.3
v -0.3 0 -0.3
v -0.2 0 -0.3
v -0.1 0 -0.3
v 0 0 -0.3
v 0.1 0 -0.3
v -0.3 0 -0.4
v -0.2 0 -0.4
v -0.1 0 -0.4
v 0 0 -0.4
v 0.1 0 -0.4
v -0.2 0 -0.5
v 0 0 -0.5
v 0.3 0.5 0.4
v 0.4 0.5 0.4
v 0.1 0.5 0.3
v 0.3 0.5 0.3
v 0.4 0.5 0.3
v -0.1 0.5 0.2
v 0.1 0.5 0.2
v -0.4 0.5 0.1
v -0.3 0.5 0.1
v -0.2 0.5 0.1
v -0.1 0.5 0.1
v 0.1 0.5 0.1
v 0.2 0.5 0.1
v 0.3 0.5 0.1
v -0.5 0.5 0
v -0.4 0.5 0
v -0.3 0.5 0
v -0.2 0.5 0
v -0.1 0.5 0
v 0 0.5 0
v 0.1 0.5 0
v 0.1 0.5 -0.1
v 0.2 0.5 -0.1
v -0.5 0.5 -0.2
v -0.4 0.5 -0.2
v -0.3 0.5 -0.2
v 0 0.5 -0.2
v 0.1 0.5 -0.2
v -0.4 0.5 -0.3
v -0.3 0.5 -0.3
v -0.2 0.5 -0.3
v 0 0.5 -0.3
v 0.1 0.5 -0.3
v -0.3 0.5 -0.4
v -0.2 0.5 -0.4
v 0 0.5 -0.4
v 0.1 0.5 -0.4
v -0.2 0.5 -0.5
v 0 0.5 -0.5
v -0.3 0.6 0.1
v -0.2 0.6 0.1
v -0.1 0.6 0.1
v 0.1 0.6 0.1
v -0.4 0.6 0
v -0.3 0.6 0
v -0.2 0.6 0
v -0.1 0.6 0
v 0 0.6 0
v 0.1 0.6 0
v -0.1 0.6 -0.1
v 0 0.6 -0.1
v -0.4 0.6 -0.2
v -0.3 0.6 -0.2
v -0.2 0.6 -0.2
v -0.1 0.6 -0.2
v 0 0.6 -0.2
v 0.1 0.6 -0.2
v -0.3 0.6 -0.3
v -0.2 0.6 -0.3
v -0.1 0.6 -0.3
v 0 0.6 -0.3
v 0.1 0.6 -0.3
v -0.2 0.6 -0.4
v 0 0.6 -0.4
v -0.2 0.7 0
v 0 0.7 0
v -0.1 0.7 -0.1
v 0 0.7 -0.1
v -0.2 0.7 -0.2
v -0.1 0.7 -0.2
v -0.2 0.7 -0.3
v -0.1 0.7 -0.3

# faces
f 3/3/1 2/3/1 1/3/1
f 4/3/1 2/3/1 3/3/1
f 9/3/1 6/3/1 5/3/1
f 10/3/1 6/3/1 9/3/1
f 11/3/1 8/3/1 7/3/1
f 12/3/1 8/3/1 11/3/1
f 13/3/1 11/3/1 10/3/1
f 14/3/1 11/3/1 13/3/1
f 20/3/1 16/3/1 15/3/1
f 21/3/1 16/3/1 20/3/1
f 22/3/1 18/3/1 17/3/1
f 23/3/1 18/3/1 22/3/1
f 24/3/1 20/3/1 19/3/1
f 25/3/1 20/3/1 24/3/1
f 29/3/1 27/3/1 26/3/1
f 30/3/1 27/3/1 29/3/1
f 33/3/1 29/3/1 28/3/1
f 34/3/1 29/3/1 33/3/1
f 35/4/1 32/4/1 31/4/1
f 36/5/1 33/5/1 32/5/1
f 36/4/1 32/4/1 35/4/1
f 37/5/1 33/5/1 36/5/1
f 40/6/1 39/6/1 38/6/1
f 41/6/1 39/6/1 40/6/1
f 42/1/1 41/1/1 40/1/1
f 43/1/1 41/1/1 42/1/1
f 44/6/1 43/6/1 42/6/1
f 45/6/1 43/6/1 44/6/1
f 46/1/1 45/1/1 44/1/1
f 47/1/1 45/1/1 46/1/1
f 48/6/1 47/6/1 46/6/1
f 49/6/1 47/6/1 48/6/1
f 51/4/1 50/4/1 49/4/1
f 52/4/1 50/4/1 51/4/1
f 55/6/1 54/6/1 53/6/1
f 56/6/1 54/6/1 55/6/1
f 57/1/1 56/1/1 55/1/1
f 58/1/1 56/1/1 57/1/1
f 59/6/1 58/6/1 57/6/1
f 60/6/1 58/6/1 59/6/1
f 61/1/1 60/1/1 59/1/1
f 62/1/1 60/1/1 61/1/1
f 63/6/1 62/6/1 61/6/1
f 64/6/1 62/6/1 63/6/1
f 67/6/1 66/6/1 65/6/1
f 68/6/1 66/6/1 67/6/1
f 69/1/1 68/1/1 67/1/1
f 70/1/1 68/1/1 69/1/1
f 71/6/1 70/6/1 69/6/1
f 72/6/1 70/6/1 71/6/1
f 73/1/1 72/1/1 71/1/1
f 74/1/1 72/1/1 73/1/1
f 75/6/1 74/6/1 73/6/1
f 76/6/1 74/6/1 75/6/1
f 77/3/2 78/3/2 79/3/2
f 79/3/2 78/3/2 80/3/2
f 81/4/2 82/4/2 84/4/2
f 82/5/2 83/5/2 85/5/2
f 84/4/2 82/4/2 85/4/2
f 85/5/2 83/5/2 86/5/2
f 87/3/2 88/3/2 92/3/2
f 92/3/2 88/3/2 93/3/2
f 89/4/2 90/4/2 94/4/2
f 94/4/2 90/4/2 95/4/2
f 95/4/2 90/4/2 96/4/2
f 91/3/2 92/3/2 97/3/2
f 97/3/2 92/3/2 98/3/2
f 94/4/2 95/4/2 99/4/2
f 99/4/2 95/4/2 100/4/2
f 101/6/2 102/6/2 104/6/2
f 102/3/2 103/3/2 105/3/2
f 104/6/2 102/6/2 105/6/2
f 104/1/2 105/1/2 106/1/2
f 105/3/2 103/3/2 107/3/2
f 106/1/2 105/1/2 107/1/2
f 106/6/2 107/6/2 108/6/2
f 107/3/2 103/3/2 109/3/2
f 108/6/2 107/6/2 109/6/2
f 108/1/2 109/1/2 110/1/2
f 109/3/2 103/3/2 111/3/2
f 110/1/2 109/1/2 111/1/2
f 110/6/2 111/6/2 114/6/2
f 114/6/2 111/6/2 115/6/2
f 111/3/2 103/3/2 116/3/2
f 115/6/2 111/6/2 116/6/2
f 116/3/2 103/3/2 117/3/2
f 112/4/2 113/4/2 118/4/2
f 118/4/2 113/4/2 119/4/2
f 115/3/2 116/3/2 120/3/2
f 120/3/2 116/3/2 121/3/2
f 122/6/2 123/6/2 124/6/2
f 124/6/2 123/6/2 125/6/2
f 124/1/2 125/1/2 126/1/2
f 126/1/2 125/1/2 127/1/2
f 126/6/2 127/6/2 128/6/2
f 128/6/2 127/6/2 129/6/2
f 128/1/2 129/1/2 130/1/2
f 130/1/2 129/1/2 131/1/2
f 130/6/2 131/6/2 132/6/2
f 132/6/2 131/6/2 133/6/2
f 134/6/2 135/6/2 136/6/2
f 136/6/2 135/6/2 137/6/2
f 136/1/2 137/1/2 138/1/2
f 138/1/2 137/1/2 139/1/2
f 138/6/2 139/6/2 140/6/2
f 140/6/2 139/6/2 141/6/2
f 140/1/2 141/1/2 142/1/2
f 142/1/2 141/1/2 143/1/2
f 142/6/2 143/6/2 144/6/2
f 144/6/2 143/6/2 145/6/2
f 146/6/2 147/6/2 148/6/2
f 148/6/2 147/6/2 149/6/2
f 148/1/2 149/1/2 150/1/2
f 150/1/2 149/1/2 151/1/2
f 150/6/2 151/6/2 152/6/2
f 152/6/2 151/6/2 153/6/2
f 152/1/2 153/1/2 154/1/2
f 154/1/2 153/1/2 155/1/2
f 154/6/2 155/6/2 156/6/2
f 156/6/2 155/6/2 157/6/2
f 164/6/3 159/6/3 158/6/3
f 165/1/3 160/1/3 159/1/3
f 165/6/3 159/6/3 164/6/3
f 166/6/3 161/6/3 160/6/3
f 166/1/3 160/1/3 165/1/3
f 167/1/3 162/1/3 161/1/3
f 167/6/3 161/6/3 166/6/3
f 168/6/3 163/6/3 162/6/3
f 168/1/3 162/1/3 167/1/3
f 169/6/3 163/6/3 168/6/3
f 176/6/3 171/6/3 170/6/3
f 177/1/3 172/1/3 171/1/3
f 177/6/3 171/6/3 176/6/3
f 178/6/3 173/6/3 172/6/3
f 178/1/3 172/1/3 177/1/3
f 179/1/3 174/1/3 173/1/3
f 179/6/3 173/6/3 178/6/3
f 180/6/3 175/6/3 174/6/3
f 180/1/3 174/1/3 179/1/3
f 181/6/3 175/6/3 180/6/3
f 188/6/3 183/6/3 182/6/3
f 189/1/3 184/1/3 183/1/3
f 189/6/3 183/6/3 188/6/3
f 190/6/3 185/6/3 184/6/3
f 190/1/3 184/1/3 189/1/3
f 191/1/3 186/1/3 185/1/3
f 191/6/3 185/6/3 190/6/3
f 192/6/3 187/6/3 186/6/3
f 192/1/3 186/1/3 191/1/3
f 193/6/3 187/6/3 192/6/3
f 196/3/3 195/3/3 194/3/3
f 197/3/3 195/3/3 196/3/3
f 198/3/3 195/3/3 197/3/3
f 199/3/3 195/3/3 198/3/3
f 200/3/3 195/3/3 199/3/3
f 201/3/3 195/3/3 200/3/3
f 203/6/3 201/6/3 200/6/3
f 203/3/3 202/3/3 201/3/3
f 204/3/3 202/3/3 203/3/3
f 205/6/3 197/6/3 196/6/3
f 206/1/3 198/1/3 197/1/3
f 206/6/3 197/6/3 205/6/3
f 207/6/3 199/6/3 198/6/3
f 207/1/3 198/1/3 206/1/3
f 208/1/3 200/1/3 199/1/3
f 208/6/3 199/6/3 207/6/3
f 209/6/3 203/6/3 200/6/3
f 209/1/3 200/1/3 208/1/3
f 210/6/3 203/6/3 209/6/3
f 212/4/3 211/4/3 210/4/3
f 213/4/3 211/4/3 212/4/3
f 216/3/3 215/3/3 214/3/3
f 217/3/3 215/3/3 216/3/3
f 219/3/3 218/3/3 217/3/3
f 220/3/3 218/3/3 219/3/3
f 224/4/3 222/4/3 221/4/3
f 224/4/3 223/4/3 222/4/3
f 225/4/3 223/4/3 224/4/3
f 226/4/3 223/4/3 225/4/3
f 227/4/3 223/4/3 226/4/3
f 230/3/3 229/3/3 228/3/3
f 231/3/3 229/3/3 230/3/3
f 232/6/4 233/6/4 238/6/4
f 233/1/4 234/1/4 239/1/4
f 238/6/4 233/6/4 239/6/4
f 234/6/4 235/6/4 240/6/4
f 239/1/4 234/1/4 240/1/4
f 235/1/4 236/1/4 241/1/4
f 240/6/4 235/6/4 241/6/4
f 236/6/4 237/6/4 242/6/4
f 241/1/4 236/1/4 242/1/4
f 242/6/4 237/6/4 243/6/4
f 244/6/4 245/6/4 250/6/4
f 245/1/4 246/1/4 251/1/4
f 250/6/4 245/6/4 251/6/4
f 246/6/4 247/6/4 252/6/4
f 251/1/4 246/1/4 252/1/4
f 247/1/4 248/1/4 253/1/4
f 252/6/4 247/6/4 253/6/4
f 248/6/4 249/6/4 254/6/4
f 253/1/4 248/1/4 254/1/4
f 254/6/4 249/6/4 255/6/4
f 256/4/4 257/4/4 258/4/4
f 258/4/4 257/4/4 259/4/4
f 260/4/4 261/4/4 262/4/4
f 262/4/4 261/4/4 263/4/4
f 264/6/4 265/6/4 270/6/4
f 265/1/4 266/1/4 271/1/4
f 270/6/4 265/6/4 271/6/4
f 266/6/4 267/6/4 272/6/4
f 271/1/4 266/1/4 272/1/4
f 267/1/4 268/1/4 273/1/4
f 272/6/4 267/6/4 273/6/4
f 268/6/4 269/6/4 274/6/4
f 273/1/4 268/1/4 274/1/4
f 274/6/4 269/6/4 275/6/4
f 276/3/4 277/3/4 278/3/4
f 278/3/4 277/3/4 279/3/4
f 279/3/4 280/3/4 281/3/4
f 281/3/4 280/3/4 282/3/4
f 283/3/4 284/3/4 285/3/4
f 285/3/4 284/3/4 286/3/4
f 286/3/4 287/3/4 288/3/4
f 288/3/4 287/3/4 289/3/4
f 289/5/4 290/5/4 291/5/4
f 291/5/4 290/5/4 292/5/4
f 293/3/4 294/3/4 295/3/4
f 295/3/4 294/3/4 296/3/4
f 297/3/4 298/3/4 299/3/4
f 299/3/4 298/3/4 300/3/4
f 300/3/4 301/3/4 303/3/4
f 303/3/4 301/3/4 304/3/4
f 302/3/4 303/3/4 305/3/4
f 305/3/4 303/3/4 306/3/4
f 307/3/4 308/3/4 309/3/4
f 309/3/4 308/3/4 310/3/4
f 314/6/5 312/6/5 311/6/5
f 315/6/5 312/6/5 314/6/5
f 317/6/5 314/6/5 313/6/5
f 320/6/5 317/6/5 316/6/5
f 321/6/5 314/6/5 317/6/5
f 321/6/5 317/6/5 320/6/5
f 322/6/5 314/6/5 321/6/5
f 324/3/5 319/3/5 318/3/5
f 325/6/5 320/6/5 319/6/5
f 325/6/5 321/6/5 320/6/5
f 325/3/5 319/3/5 324/3/5
f 326/3/5 324/3/5 323/3/5
f 326/6/5 325/6/5 324/6/5
f 327/6/5 321/6/5 325/6/5
f 327/6/5 325/6/5 326/6/5
f 328/6/5 321/6/5 327/6/5
f 329/6/5 321/6/5 328/6/5
f 330/3/5 326/3/5 323/3/5
f 330/3/5 327/3/5 326/3/5
f 331/3/5 327/3/5 330/3/5
f 332/6/5 328/6/5 327/6/5
f 332/3/5 327/3/5 331/3/5
f 333/6/5 328/6/5 332/6/5
f 334/3/5 332/3/5 331/3/5
f 334/3/5 333/3/5 332/3/5
f 335/3/5 333/3/5 334/3/5
f 336/6/5 328/6/5 333/6/5
f 336/3/5 333/3/5 335/3/5
f 337/6/5 328/6/5 336/6/5
f 338/6/5 328/6/5 337/6/5
f 339/6/5 328/6/5 338/6/5
f 340/3/5 336/3/5 335/3/5
f 340/3/5 337/3/5 336/3/5
f 341/3/5 337/3/5 340/3/5
f 342/6/5 338/6/5 337/6/5
f 342/3/5 337/3/5 341/3/5
f 343/3/5 339/3/5 338/3/5
f 343/6/5 338/6/5 342/6/5
f 344/3/5 339/3/5 343/3/5
f 345/3/5 342/3/5 341/3/5
f 345/3/5 343/3/5 342/3/5
f 346/3/5 343/3/5 345/3/5
f 347/6/6 348/6/6 350/6/6
f 350/6/6 348/6/6 351/6/6
f 349/6/6 350/6/6 353/6/6
f 352/6/6 353/6/6 357/6/6
f 353/6/6 350/6/6 358/6/6
f 357/6/6 353/6/6 358/6/6
f 358/6/6 350/6/6 359/6/6
f 359/6/6 350/6/6 360/6/6
f 354/3/6 355/3/6 362/3/6
f 362/3/6 355/3/6 363/3/6
f 356/6/6 357/6/6 364/6/6
f 364/6/6 357/6/6 365/6/6
f 358/6/6 359/6/6 367/6/6
f 366/6/6 367/6/6 368/6/6
f 367/6/6 359/6/6 368/6/6
f 368/6/6 359/6/6 369/6/6
f 361/3/6 362/3/6 370/3/6
f 370/3/6 362/3/6 371/3/6
f 366/6/6 368/6/6 373/6/6
f 373/6/6 368/6/6 374/6/6
f 371/3/6 372/3/6 375/3/6
f 375/3/6 372/3/6 376/3/6
f 376/3/6 377/3/6 380/3/6
f 380/3/6 377/3/6 381/3/6
f 378/3/6 379/3/6 382/3/6
f 382/3/6 379/3/6 383/3/6
f 381/3/6 382/3/6 384/3/6
f 384/3/6 382/3/6 385/3/6
f 386/3/6 387/3/6 391/3/6
f 391/3/6 387/3/6 392/3/6
f 388/4/6 389/4/6 393/4/6
f 393/4/6 389/4/6 394/4/6
f 394/4/6 389/4/6 395/4/6
f 391/3/6 392/3/6 398/3/6
f 390/3/6 391/3/6 398/3/6
f 398/3/6 392/3/6 399/3/6
f 399/3/6 392/3/6 400/3/6
f 396/4/6 397/4/6 401/4/6
f 401/4/6 397/4/6 402/4/6
f 399/3/6 400/3/6 404/3/6
f 404/3/6 400/3/6 405/3/6
f 402/3/6 403/3/6 406/3/6
f 401/3/6 402/3/6 406/3/6
f 406/3/6 403/3/6 407/3/6
f 407/3/6 403/3/6 408/3/6
f 405/3/6 406/3/6 409/3/6
f 406/3/6 407/3/6 409/3/6
f 409/3/6 407/3/6 410/3/6
f 411/4/6 412/4/6 413/4/6
f 413/4/6 412/4/6 414/4/6
f 411/4/6 413/4/6 415/4/6
f 415/4/6 413/4/6 416/4/6
f 415/5/6 416/5/6 417/5/6
f 417/5/6 416/5/6 418/5/6
