# MagicaVoxel @ Ephtracy

# group
o 

# material
mtllib glue_box2.mtl
usemtl palette

# normals
vn -1 0 0
vn 1 0 0
vn 0 0 1
vn 0 0 -1
vn 0 -1 0
vn 0 1 0

# texcoords
vt 0.173828 0.5
vt 0.369141 0.5
vt 0.994141 0.5

# verts
v -0.1 0 0.4
v -0.1 0 -0.2
v -0.1 0.5 0.3
v -0.1 0.5 0.2
v -0.1 0.5 0.1
v -0.1 0.5 0
v -0.1 0.6 0.3
v -0.1 0.6 0.2
v -0.1 0.6 0.1
v -0.1 0.6 0
v -0.1 0.7 0.3
v -0.1 0.7 0.2
v -0.1 0.7 0.1
v -0.1 0.7 0
v -0.1 0.8 0.4
v -0.1 0.8 -0.2
v 0.5 0 0.4
v 0.5 0 -0.2
v 0.5 0.2 0.3
v 0.5 0.2 0.1
v 0.5 0.3 0.3
v 0.5 0.3 0.2
v 0.5 0.5 0.3
v 0.5 0.5 0.2
v 0.5 0.5 0.1
v 0.5 0.6 0.2
v 0.5 0.6 0.1
v 0.5 0.7 0.3
v 0.5 0.7 0.1
v 0.5 0.8 0.4
v 0.5 0.8 -0.2
v -0.1 0 0.4
v -0.1 0.8 0.4
v 0.5 0 0.4
v 0.5 0.8 0.4
v -0.1 0 -0.2
v -0.1 0.8 -0.2
v 1.49012e-008 0.2 -0.2
v 1.49012e-008 0.3 -0.2
v 1.49012e-008 0.4 -0.2
v 0.1 0.2 -0.2
v 0.1 0.3 -0.2
v 0.1 0.4 -0.2
v 0.3 0.2 -0.2
v 0.3 0.3 -0.2
v 0.3 0.4 -0.2
v 0.5 0 -0.2
v 0.5 0.8 -0.2
v -0.1 0 0.4
v 0.5 0 0.4
v -0.1 0 -0.2
v 0.5 0 -0.2
v -0.1 0.8 0.4
v 0.5 0.8 0.4
v -0.1 0.8 -0.2
v 0.5 0.8 -0.2

# faces
f 3/2/1 2/2/1 1/2/1
f 4/2/1 2/2/1 3/2/1
f 5/2/1 2/2/1 4/2/1
f 6/2/1 2/2/1 5/2/1
f 7/2/1 3/2/1 1/2/1
f 7/3/1 4/3/1 3/3/1
f 8/1/1 5/1/1 4/1/1
f 8/3/1 4/3/1 7/3/1
f 9/3/1 6/3/1 5/3/1
f 9/1/1 5/1/1 8/1/1
f 10/2/1 2/2/1 6/2/1
f 10/3/1 6/3/1 9/3/1
f 11/1/1 8/1/1 7/1/1
f 11/2/1 7/2/1 1/2/1
f 12/3/1 9/3/1 8/3/1
f 12/1/1 8/1/1 11/1/1
f 13/1/1 10/1/1 9/1/1
f 13/3/1 9/3/1 12/3/1
f 14/2/1 2/2/1 10/2/1
f 14/1/1 10/1/1 13/1/1
f 15/2/1 11/2/1 1/2/1
f 15/2/1 13/2/1 12/2/1
f 15/2/1 14/2/1 13/2/1
f 15/2/1 12/2/1 11/2/1
f 16/2/1 2/2/1 14/2/1
f 16/2/1 14/2/1 15/2/1
f 17/2/2 18/2/2 19/2/2
f 19/2/2 18/2/2 20/2/2
f 17/2/2 19/2/2 21/2/2
f 19/1/2 20/1/2 21/1/2
f 21/1/2 20/1/2 22/1/2
f 17/2/2 21/2/2 23/2/2
f 21/3/2 22/3/2 23/3/2
f 22/1/2 20/1/2 24/1/2
f 23/3/2 22/3/2 24/3/2
f 20/2/2 18/2/2 25/2/2
f 24/1/2 20/1/2 25/1/2
f 23/1/2 24/1/2 26/1/2
f 24/3/2 25/3/2 26/3/2
f 25/2/2 18/2/2 27/2/2
f 26/3/2 25/3/2 27/3/2
f 23/1/2 26/1/2 28/1/2
f 17/2/2 23/2/2 28/2/2
f 26/1/2 27/1/2 28/1/2
f 27/2/2 18/2/2 29/2/2
f 28/1/2 27/1/2 29/1/2
f 17/2/2 28/2/2 30/2/2
f 28/2/2 29/2/2 30/2/2
f 29/2/2 18/2/2 31/2/2
f 30/2/2 29/2/2 31/2/2
f 34/2/3 33/2/3 32/2/3
f 35/2/3 33/2/3 34/2/3
f 36/2/4 37/2/4 38/2/4
f 38/2/4 37/2/4 39/2/4
f 39/2/4 37/2/4 40/2/4
f 36/2/4 38/2/4 41/2/4
f 38/3/4 39/3/4 41/3/4
f 39/1/4 40/1/4 42/1/4
f 41/3/4 39/3/4 42/3/4
f 40/2/4 37/2/4 43/2/4
f 42/1/4 40/1/4 43/1/4
f 41/1/4 42/1/4 44/1/4
f 36/2/4 41/2/4 44/2/4
f 42/3/4 43/3/4 45/3/4
f 44/1/4 42/1/4 45/1/4
f 43/2/4 37/2/4 46/2/4
f 45/3/4 43/3/4 46/3/4
f 44/2/4 45/2/4 47/2/4
f 36/2/4 44/2/4 47/2/4
f 45/2/4 46/2/4 47/2/4
f 46/2/4 37/2/4 48/2/4
f 47/2/4 46/2/4 48/2/4
f 51/2/5 50/2/5 49/2/5
f 52/2/5 50/2/5 51/2/5
f 53/2/6 54/2/6 55/2/6
f 55/2/6 54/2/6 56/2/6
