# MagicaVoxel @ Ephtracy

# group
o 

# material
mtllib glue_book4.mtl
usemtl palette

# normals
vn -1 0 0
vn 1 0 0
vn 0 0 1
vn 0 0 -1
vn 0 -1 0
vn 0 1 0

# texcoords
vt 0.00585938 0.5
vt 0.833984 0.5
vt 0.873047 0.5

# verts
v -0.3 0 0.4
v -0.3 0 -0.4
v -0.3 0.1 0.4
v -0.3 0.1 -0.4
v -0.3 0.2 0.4
v -0.3 0.2 -0.4
v -0.3 0.3 0.4
v -0.3 0.3 -0.4
v -0.2 0.1 0.3
v -0.2 0.1 -0.3
v -0.2 0.2 0.3
v -0.2 0.2 -0.3
v 0.2 0.1 0.4
v 0.2 0.1 0.3
v 0.2 0.1 -0.3
v 0.2 0.1 -0.4
v 0.2 0.2 0.4
v 0.2 0.2 0.3
v 0.2 0.2 -0.3
v 0.2 0.2 -0.4
v 0.3 0 0.4
v 0.3 0 -0.4
v 0.3 0.1 0.3
v 0.3 0.1 0.1
v 0.3 0.1 0
v 0.3 0.1 -0.2
v 0.3 0.2 0.3
v 0.3 0.2 0.1
v 0.3 0.2 0
v 0.3 0.2 -0.2
v 0.3 0.3 0.4
v 0.3 0.3 -0.4
v -0.3 0 0.4
v -0.3 0.1 0.4
v -0.3 0.2 0.4
v -0.3 0.3 0.4
v 0.2 0.1 0.4
v 0.2 0.2 0.4
v 0.3 0 0.4
v 0.3 0.3 0.4
v -0.2 0.1 0.3
v -0.2 0.2 0.3
v 0.2 0.1 0.3
v 0.2 0.2 0.3
v -0.2 0.1 -0.3
v -0.2 0.2 -0.3
v 0.2 0.1 -0.3
v 0.2 0.2 -0.3
v -0.3 0 -0.4
v -0.3 0.1 -0.4
v -0.3 0.2 -0.4
v -0.3 0.3 -0.4
v 0.2 0.1 -0.4
v 0.2 0.2 -0.4
v 0.3 0 -0.4
v 0.3 0.3 -0.4
v -0.3 0 0.4
v 0.3 0 0.4
v -0.3 0 -0.4
v 0.3 0 -0.4
v -0.3 0.2 0.4
v 0.2 0.2 0.4
v -0.2 0.2 0.3
v 0.2 0.2 0.3
v -0.2 0.2 -0.3
v 0.2 0.2 -0.3
v -0.3 0.2 -0.4
v 0.2 0.2 -0.4
v -0.3 0.1 0.4
v 0.2 0.1 0.4
v -0.2 0.1 0.3
v 0.2 0.1 0.3
v -0.2 0.1 -0.3
v 0.2 0.1 -0.3
v -0.3 0.1 -0.4
v 0.2 0.1 -0.4
v -0.3 0.3 0.4
v 0.3 0.3 0.4
v -0.1 0.3 0.3
v 0 0.3 0.3
v 0.1 0.3 0.3
v 0.2 0.3 0.3
v -0.2 0.3 0.2
v -0.1 0.3 0.2
v 0 0.3 0.2
v 0.1 0.3 0.2
v 0.2 0.3 0.2
v -0.2 0.3 0.1
v -0.1 0.3 0.1
v 0 0.3 0.1
v 0.1 0.3 0.1
v -0.1 0.3 -0.2
v 0.1 0.3 -0.2
v -0.1 0.3 -0.3
v 0.1 0.3 -0.3
v -0.3 0.3 -0.4
v 0.3 0.3 -0.4

# faces
f 3/2/1 2/2/1 1/2/1
f 4/2/1 2/2/1 3/2/1
f 7/2/1 6/2/1 5/2/1
f 8/2/1 6/2/1 7/2/1
f 11/1/1 10/1/1 9/1/1
f 12/1/1 10/1/1 11/1/1
f 17/2/1 14/2/1 13/2/1
f 18/2/1 14/2/1 17/2/1
f 19/2/1 16/2/1 15/2/1
f 20/2/1 16/2/1 19/2/1
f 21/2/2 22/2/2 23/2/2
f 23/2/2 22/2/2 24/2/2
f 24/2/2 22/2/2 25/2/2
f 25/2/2 22/2/2 26/2/2
f 21/2/2 23/2/2 27/2/2
f 23/3/2 24/3/2 27/3/2
f 24/2/2 25/2/2 28/2/2
f 27/3/2 24/3/2 28/3/2
f 25/3/2 26/3/2 29/3/2
f 28/2/2 25/2/2 29/2/2
f 26/2/2 22/2/2 30/2/2
f 29/3/2 26/3/2 30/3/2
f 28/2/2 29/2/2 31/2/2
f 27/2/2 28/2/2 31/2/2
f 29/2/2 30/2/2 31/2/2
f 21/2/2 27/2/2 31/2/2
f 30/2/2 22/2/2 32/2/2
f 31/2/2 30/2/2 32/2/2
f 37/2/3 34/2/3 33/2/3
f 38/2/3 36/2/3 35/2/3
f 39/2/3 37/2/3 33/2/3
f 39/2/3 38/2/3 37/2/3
f 40/2/3 36/2/3 38/2/3
f 40/2/3 38/2/3 39/2/3
f 43/1/3 42/1/3 41/1/3
f 44/1/3 42/1/3 43/1/3
f 45/1/4 46/1/4 47/1/4
f 47/1/4 46/1/4 48/1/4
f 49/2/4 50/2/4 53/2/4
f 51/2/4 52/2/4 54/2/4
f 49/2/4 53/2/4 55/2/4
f 53/2/4 54/2/4 55/2/4
f 54/2/4 52/2/4 56/2/4
f 55/2/4 54/2/4 56/2/4
f 59/2/5 58/2/5 57/2/5
f 60/2/5 58/2/5 59/2/5
f 63/2/5 62/2/5 61/2/5
f 64/2/5 62/2/5 63/2/5
f 65/2/5 63/2/5 61/2/5
f 67/2/5 65/2/5 61/2/5
f 67/2/5 66/2/5 65/2/5
f 68/2/5 66/2/5 67/2/5
f 69/2/6 70/2/6 71/2/6
f 71/2/6 70/2/6 72/2/6
f 69/2/6 71/2/6 73/2/6
f 69/2/6 73/2/6 75/2/6
f 73/2/6 74/2/6 75/2/6
f 75/2/6 74/2/6 76/2/6
f 77/2/6 78/2/6 79/2/6
f 79/2/6 78/2/6 80/2/6
f 80/2/6 78/2/6 81/2/6
f 81/2/6 78/2/6 82/2/6
f 77/2/6 79/2/6 83/2/6
f 79/3/6 80/3/6 84/3/6
f 83/2/6 79/2/6 84/2/6
f 80/2/6 81/2/6 85/2/6
f 84/3/6 80/3/6 85/3/6
f 81/3/6 82/3/6 86/3/6
f 85/2/6 81/2/6 86/2/6
f 82/2/6 78/2/6 87/2/6
f 86/3/6 82/3/6 87/3/6
f 77/2/6 83/2/6 88/2/6
f 83/3/6 84/3/6 88/3/6
f 84/2/6 85/2/6 89/2/6
f 88/3/6 84/3/6 89/3/6
f 85/3/6 86/3/6 90/3/6
f 89/2/6 85/2/6 90/2/6
f 86/2/6 87/2/6 91/2/6
f 90/3/6 86/3/6 91/3/6
f 88/2/6 89/2/6 92/2/6
f 89/2/6 90/2/6 92/2/6
f 90/2/6 91/2/6 92/2/6
f 91/2/6 87/2/6 93/2/6
f 92/2/6 91/2/6 93/2/6
f 88/2/6 92/2/6 94/2/6
f 92/3/6 93/3/6 94/3/6
f 93/2/6 87/2/6 95/2/6
f 94/3/6 93/3/6 95/3/6
f 88/2/6 94/2/6 96/2/6
f 77/2/6 88/2/6 96/2/6
f 94/2/6 95/2/6 96/2/6
f 95/2/6 87/2/6 97/2/6
f 96/2/6 95/2/6 97/2/6
f 87/2/6 78/2/6 97/2/6
