# MagicaVoxel @ Ephtracy

# group
o 

# material
mtllib glue_box3.mtl
usemtl palette

# normals
vn -1 0 0
vn 1 0 0
vn 0 0 1
vn 0 0 -1
vn 0 -1 0
vn 0 1 0

# texcoords
vt 0.173828 0.5
vt 0.369141 0.5
vt 0.994141 0.5

# verts
v -0.2 0 0.5
v -0.2 0 0.4
v -0.2 0 0.3
v -0.2 0 0.2
v -0.2 0 0.1
v -0.2 0 -0.5
v -0.2 0.1 0.4
v -0.2 0.1 0.3
v -0.2 0.1 0.2
v -0.2 0.1 0.1
v -0.2 0.3 -0.1
v -0.2 0.3 -0.4
v -0.2 0.3 -0.5
v -0.2 0.4 0.5
v -0.2 0.4 -0.1
v -0.2 0.4 -0.4
v -0.2 0.4 -0.5
v 0.2 0 0.5
v 0.2 0 -0.5
v 0.2 0.1 0.4
v 0.2 0.1 0.3
v 0.2 0.1 0.2
v 0.2 0.1 0.1
v 0.2 0.1 0
v 0.2 0.2 0.3
v 0.2 0.2 0.2
v 0.2 0.2 0.1
v 0.2 0.2 0
v 0.2 0.3 0.4
v 0.2 0.3 0.2
v 0.2 0.3 0.1
v 0.2 0.3 0
v 0.2 0.4 0.5
v 0.2 0.4 -0.5
v -0.2 0 0.5
v -0.2 0.4 0.5
v -0.1 0.2 0.5
v -0.1 0.3 0.5
v 0 0.2 0.5
v 0 0.3 0.5
v 0.1 0.2 0.5
v 0.1 0.3 0.5
v 0.2 0 0.5
v 0.2 0.4 0.5
v -0.2 0 -0.5
v -0.2 0.3 -0.5
v -0.2 0.4 -0.5
v -0.1 0.3 -0.5
v -0.1 0.4 -0.5
v 0 0.3 -0.5
v 0 0.4 -0.5
v 0.2 0 -0.5
v 0.2 0.4 -0.5
v -0.2 0 0.5
v 0.2 0 0.5
v -0.2 0 0.4
v -0.1 0 0.4
v -0.2 0 0.3
v -0.1 0 0.3
v -0.2 0 0.2
v -0.1 0 0.2
v -0.2 0 0.1
v -0.1 0 0.1
v -0.2 0 -0.5
v 0.2 0 -0.5
v -0.2 0.4 0.5
v 0.2 0.4 0.5
v -0.2 0.4 -0.1
v 0 0.4 -0.1
v -0.1 0.4 -0.2
v 0 0.4 -0.2
v -0.2 0.4 -0.4
v -0.1 0.4 -0.4
v 0 0.4 -0.4
v -0.2 0.4 -0.5
v -0.1 0.4 -0.5
v 0 0.4 -0.5
v 0.2 0.4 -0.5

# faces
f 7/2/1 2/2/1 1/2/1
f 7/1/1 3/1/1 2/1/1
f 8/3/1 4/3/1 3/3/1
f 8/1/1 3/1/1 7/1/1
f 9/1/1 5/1/1 4/1/1
f 9/3/1 4/3/1 8/3/1
f 10/2/1 6/2/1 5/2/1
f 10/1/1 5/1/1 9/1/1
f 11/2/1 9/2/1 8/2/1
f 11/2/1 6/2/1 10/2/1
f 11/2/1 10/2/1 9/2/1
f 11/2/1 8/2/1 7/2/1
f 12/2/1 6/2/1 11/2/1
f 13/2/1 6/2/1 12/2/1
f 14/2/1 7/2/1 1/2/1
f 14/2/1 11/2/1 7/2/1
f 15/1/1 12/1/1 11/1/1
f 15/2/1 11/2/1 14/2/1
f 16/3/1 13/3/1 12/3/1
f 16/1/1 12/1/1 15/1/1
f 17/3/1 13/3/1 16/3/1
f 18/2/2 19/2/2 20/2/2
f 20/2/2 19/2/2 21/2/2
f 21/2/2 19/2/2 22/2/2
f 22/2/2 19/2/2 23/2/2
f 23/2/2 19/2/2 24/2/2
f 20/1/2 21/1/2 25/1/2
f 21/3/2 22/3/2 25/3/2
f 22/1/2 23/1/2 26/1/2
f 25/3/2 22/3/2 26/3/2
f 23/3/2 24/3/2 27/3/2
f 26/1/2 23/1/2 27/1/2
f 24/2/2 19/2/2 28/2/2
f 27/3/2 24/3/2 28/3/2
f 18/2/2 20/2/2 29/2/2
f 25/1/2 26/1/2 29/1/2
f 20/1/2 25/1/2 29/1/2
f 26/3/2 27/3/2 30/3/2
f 29/1/2 26/1/2 30/1/2
f 27/1/2 28/1/2 31/1/2
f 30/3/2 27/3/2 31/3/2
f 28/2/2 19/2/2 32/2/2
f 31/1/2 28/1/2 32/1/2
f 30/2/2 31/2/2 33/2/2
f 18/2/2 29/2/2 33/2/2
f 31/2/2 32/2/2 33/2/2
f 29/2/2 30/2/2 33/2/2
f 32/2/2 19/2/2 34/2/2
f 33/2/2 32/2/2 34/2/2
f 37/2/3 36/2/3 35/2/3
f 38/2/3 36/2/3 37/2/3
f 39/2/3 37/2/3 35/2/3
f 39/1/3 38/1/3 37/1/3
f 40/2/3 36/2/3 38/2/3
f 40/1/3 38/1/3 39/1/3
f 41/2/3 39/2/3 35/2/3
f 41/3/3 40/3/3 39/3/3
f 42/2/3 36/2/3 40/2/3
f 42/3/3 40/3/3 41/3/3
f 43/2/3 41/2/3 35/2/3
f 43/2/3 42/2/3 41/2/3
f 44/2/3 36/2/3 42/2/3
f 44/2/3 42/2/3 43/2/3
f 45/2/4 46/2/4 48/2/4
f 46/3/4 47/3/4 48/3/4
f 48/3/4 47/3/4 49/3/4
f 45/2/4 48/2/4 50/2/4
f 48/1/4 49/1/4 50/1/4
f 50/1/4 49/1/4 51/1/4
f 45/2/4 50/2/4 52/2/4
f 50/2/4 51/2/4 52/2/4
f 52/2/4 51/2/4 53/2/4
f 56/2/5 55/2/5 54/2/5
f 57/2/5 55/2/5 56/2/5
f 58/1/5 57/1/5 56/1/5
f 59/2/5 55/2/5 57/2/5
f 59/1/5 57/1/5 58/1/5
f 60/3/5 59/3/5 58/3/5
f 61/2/5 55/2/5 59/2/5
f 61/3/5 59/3/5 60/3/5
f 62/1/5 61/1/5 60/1/5
f 63/2/5 55/2/5 61/2/5
f 63/1/5 61/1/5 62/1/5
f 64/2/5 63/2/5 62/2/5
f 65/2/5 55/2/5 63/2/5
f 65/2/5 63/2/5 64/2/5
f 66/2/6 67/2/6 68/2/6
f 68/2/6 67/2/6 69/2/6
f 68/1/6 69/1/6 70/1/6
f 69/2/6 67/2/6 71/2/6
f 70/1/6 69/1/6 71/1/6
f 68/1/6 70/1/6 72/1/6
f 70/3/6 71/3/6 73/3/6
f 72/1/6 70/1/6 73/1/6
f 71/2/6 67/2/6 74/2/6
f 73/3/6 71/3/6 74/3/6
f 72/3/6 73/3/6 75/3/6
f 73/1/6 74/1/6 76/1/6
f 75/3/6 73/3/6 76/3/6
f 74/2/6 67/2/6 77/2/6
f 76/1/6 74/1/6 77/1/6
f 77/2/6 67/2/6 78/2/6
