# MagicaVoxel @ Ephtracy

# group
o 

# material
mtllib glue_fridge.mtl
usemtl palette

# normals
vn -1 0 0
vn 1 0 0
vn 0 0 1
vn 0 0 -1
vn 0 -1 0
vn 0 1 0

# texcoords
vt 0.00585938 0.5
vt 0.138672 0.5
vt 0.423828 0.5
vt 0.669922 0.5
vt 0.748047 0.5
vt 0.970703 0.5
vt 0.974609 0.5
vt 0.982422 0.5

# verts
v -0.4 0 0.7
v -0.4 0 -0.2
v -0.4 0.9 0.7
v -0.4 0.9 -0.1
v -0.4 0.9 -0.2
v -0.4 1 0.7
v -0.4 1 0.5
v -0.4 1 0.4
v -0.4 1 0.3
v -0.4 1 0
v -0.4 1 -0.1
v -0.4 1 -0.2
v -0.4 1.1 0.4
v -0.4 1.1 0.3
v -0.4 1.1 0.2
v -0.4 1.1 0.1
v -0.4 1.1 0
v -0.4 1.2 0.4
v -0.4 1.2 0.3
v -0.4 1.2 0.1
v -0.4 1.2 0
v -0.4 1.3 0.4
v -0.4 1.3 0.2
v -0.4 1.3 0.1
v -0.4 1.4 0.5
v -0.4 1.4 0.2
v -0.4 1.4 0.1
v -0.4 1.4 0
v -0.4 1.5 0.7
v -0.4 1.5 -0.2
v -0.3 0.7 -0.2
v -0.3 0.7 -0.3
v -0.3 0.8 -0.2
v -0.3 0.8 -0.3
v -0.2 0.3 -0.2
v -0.2 0.3 -0.3
v -0.2 0.4 -0.2
v -0.2 0.4 -0.3
v -0.1 0.6 -0.2
v -0.1 0.6 -0.3
v -0.1 0.7 -0.2
v -0.1 0.7 -0.3
v 0 0.4 -0.2
v 0 0.4 -0.3
v 0 0.5 -0.2
v 0 0.5 -0.3
v 0.1 0.6 -0.2
v 0.1 0.6 -0.3
v 0.1 0.7 -0.2
v 0.1 0.7 -0.3
v 0.3 0.6 -0.2
v 0.3 0.6 -0.3
v 0.3 0.8 -0.2
v 0.3 0.8 -0.3
v 0.3 1.1 -0.2
v 0.3 1.1 -0.3
v 0.3 1.3 -0.2
v 0.3 1.3 -0.3
v -0.2 0.7 -0.2
v -0.2 0.7 -0.3
v -0.2 0.8 -0.2
v -0.2 0.8 -0.3
v -0.1 0.3 -0.2
v -0.1 0.3 -0.3
v -0.1 0.4 -0.2
v -0.1 0.4 -0.3
v 0 0.6 -0.2
v 0 0.6 -0.3
v 0 0.7 -0.2
v 0 0.7 -0.3
v 0.1 0.4 -0.2
v 0.1 0.4 -0.3
v 0.1 0.5 -0.2
v 0.1 0.5 -0.3
v 0.2 0.6 -0.2
v 0.2 0.6 -0.3
v 0.2 0.7 -0.2
v 0.2 0.7 -0.3
v 0.4 0.6 -0.2
v 0.4 0.6 -0.3
v 0.4 0.8 -0.2
v 0.4 0.8 -0.3
v 0.4 1.1 -0.2
v 0.4 1.1 -0.3
v 0.4 1.3 -0.2
v 0.4 1.3 -0.3
v 0.5 0 0.7
v 0.5 0 -0.2
v 0.5 0.9 0.7
v 0.5 0.9 -0.1
v 0.5 0.9 -0.2
v 0.5 1 0.7
v 0.5 1 -0.1
v 0.5 1 -0.2
v 0.5 1.5 0.7
v 0.5 1.5 -0.2
v -0.4 0 0.7
v -0.4 0.9 0.7
v -0.4 1 0.7
v -0.4 1.5 0.7
v 0.5 0 0.7
v 0.5 0.9 0.7
v 0.5 1 0.7
v 0.5 1.5 0.7
v -0.4 0.9 -0.1
v -0.4 1 -0.1
v 0.5 0.9 -0.1
v 0.5 1 -0.1
v -0.4 0 -0.2
v -0.4 0.9 -0.2
v -0.4 1 -0.2
v -0.4 1.5 -0.2
v -0.3 0.7 -0.2
v -0.3 0.8 -0.2
v -0.2 0.3 -0.2
v -0.2 0.4 -0.2
v -0.2 0.7 -0.2
v -0.2 0.8 -0.2
v -0.1 0.3 -0.2
v -0.1 0.4 -0.2
v -0.1 0.6 -0.2
v -0.1 0.7 -0.2
v 0 0.4 -0.2
v 0 0.5 -0.2
v 0 0.6 -0.2
v 0 0.7 -0.2
v 0.1 0.4 -0.2
v 0.1 0.5 -0.2
v 0.1 0.6 -0.2
v 0.1 0.7 -0.2
v 0.2 0.6 -0.2
v 0.2 0.7 -0.2
v 0.3 0.6 -0.2
v 0.3 0.8 -0.2
v 0.3 1.1 -0.2
v 0.3 1.3 -0.2
v 0.4 0.6 -0.2
v 0.4 0.8 -0.2
v 0.4 1.1 -0.2
v 0.4 1.3 -0.2
v 0.5 0 -0.2
v 0.5 0.9 -0.2
v 0.5 1 -0.2
v 0.5 1.5 -0.2
v -0.3 0.7 -0.3
v -0.3 0.8 -0.3
v -0.2 0.3 -0.3
v -0.2 0.4 -0.3
v -0.2 0.7 -0.3
v -0.2 0.8 -0.3
v -0.1 0.3 -0.3
v -0.1 0.4 -0.3
v -0.1 0.6 -0.3
v -0.1 0.7 -0.3
v 0 0.4 -0.3
v 0 0.5 -0.3
v 0 0.6 -0.3
v 0 0.7 -0.3
v 0.1 0.4 -0.3
v 0.1 0.5 -0.3
v 0.1 0.6 -0.3
v 0.1 0.7 -0.3
v 0.2 0.6 -0.3
v 0.2 0.7 -0.3
v 0.3 0.6 -0.3
v 0.3 0.8 -0.3
v 0.3 1.1 -0.3
v 0.3 1.3 -0.3
v 0.4 0.6 -0.3
v 0.4 0.8 -0.3
v 0.4 1.1 -0.3
v 0.4 1.3 -0.3
v -0.4 0 0.7
v 0.5 0 0.7
v -0.4 0 -0.2
v 0.5 0 -0.2
v -0.2 0.3 -0.2
v -0.1 0.3 -0.2
v -0.2 0.3 -0.3
v -0.1 0.3 -0.3
v 0 0.4 -0.2
v 0.1 0.4 -0.2
v 0 0.4 -0.3
v 0.1 0.4 -0.3
v -0.1 0.6 -0.2
v 0 0.6 -0.2
v 0.1 0.6 -0.2
v 0.2 0.6 -0.2
v 0.3 0.6 -0.2
v 0.4 0.6 -0.2
v -0.1 0.6 -0.3
v 0 0.6 -0.3
v 0.1 0.6 -0.3
v 0.2 0.6 -0.3
v 0.3 0.6 -0.3
v 0.4 0.6 -0.3
v -0.3 0.7 -0.2
v -0.2 0.7 -0.2
v -0.3 0.7 -0.3
v -0.2 0.7 -0.3
v -0.4 1 -0.1
v 0.5 1 -0.1
v -0.4 1 -0.2
v 0.5 1 -0.2
v 0.3 1.1 -0.2
v 0.4 1.1 -0.2
v 0.3 1.1 -0.3
v 0.4 1.1 -0.3
v -0.2 0.4 -0.2
v -0.1 0.4 -0.2
v -0.2 0.4 -0.3
v -0.1 0.4 -0.3
v 0 0.5 -0.2
v 0.1 0.5 -0.2
v 0 0.5 -0.3
v 0.1 0.5 -0.3
v -0.1 0.7 -0.2
v 0 0.7 -0.2
v 0.1 0.7 -0.2
v 0.2 0.7 -0.2
v -0.1 0.7 -0.3
v 0 0.7 -0.3
v 0.1 0.7 -0.3
v 0.2 0.7 -0.3
v -0.3 0.8 -0.2
v -0.2 0.8 -0.2
v 0.3 0.8 -0.2
v 0.4 0.8 -0.2
v -0.3 0.8 -0.3
v -0.2 0.8 -0.3
v 0.3 0.8 -0.3
v 0.4 0.8 -0.3
v -0.4 0.9 -0.1
v 0.5 0.9 -0.1
v -0.4 0.9 -0.2
v 0.5 0.9 -0.2
v 0.3 1.3 -0.2
v 0.4 1.3 -0.2
v 0.3 1.3 -0.3
v 0.4 1.3 -0.3
v -0.4 1.5 0.7
v 0.5 1.5 0.7
v -0.4 1.5 -0.2
v 0.5 1.5 -0.2

# faces
f 3/6/1 2/6/1 1/6/1
f 4/6/1 2/6/1 3/6/1
f 5/6/1 2/6/1 4/6/1
f 6/7/1 4/7/1 3/7/1
f 7/7/1 4/7/1 6/7/1
f 8/7/1 4/7/1 7/7/1
f 9/7/1 4/7/1 8/7/1
f 10/7/1 4/7/1 9/7/1
f 11/7/1 4/7/1 10/7/1
f 13/1/1 8/1/1 7/1/1
f 13/8/1 9/8/1 8/8/1
f 14/1/1 10/1/1 9/1/1
f 14/8/1 9/8/1 13/8/1
f 15/1/1 10/1/1 14/1/1
f 16/1/1 10/1/1 15/1/1
f 17/6/1 12/6/1 11/6/1
f 17/1/1 10/1/1 16/1/1
f 17/6/1 11/6/1 10/6/1
f 18/1/1 13/1/1 7/1/1
f 18/1/1 14/1/1 13/1/1
f 19/8/1 15/8/1 14/8/1
f 19/1/1 14/1/1 18/1/1
f 20/1/1 16/1/1 15/1/1
f 20/8/1 17/8/1 16/8/1
f 21/6/1 12/6/1 17/6/1
f 21/8/1 17/8/1 20/8/1
f 22/1/1 18/1/1 7/1/1
f 22/8/1 19/8/1 18/8/1
f 23/8/1 15/8/1 19/8/1
f 23/8/1 19/8/1 22/8/1
f 23/1/1 20/1/1 15/1/1
f 23/1/1 21/1/1 20/1/1
f 24/1/1 21/1/1 23/1/1
f 25/6/1 7/6/1 6/6/1
f 25/1/1 22/1/1 7/1/1
f 25/1/1 23/1/1 22/1/1
f 26/8/1 24/8/1 23/8/1
f 26/1/1 23/1/1 25/1/1
f 27/1/1 21/1/1 24/1/1
f 27/8/1 24/8/1 26/8/1
f 28/6/1 12/6/1 21/6/1
f 28/1/1 21/1/1 27/1/1
f 29/6/1 26/6/1 25/6/1
f 29/6/1 25/6/1 6/6/1
f 29/6/1 28/6/1 27/6/1
f 29/6/1 27/6/1 26/6/1
f 30/6/1 12/6/1 28/6/1
f 30/6/1 28/6/1 29/6/1
f 33/5/1 32/5/1 31/5/1
f 34/5/1 32/5/1 33/5/1
f 37/3/1 36/3/1 35/3/1
f 38/3/1 36/3/1 37/3/1
f 41/5/1 40/5/1 39/5/1
f 42/5/1 40/5/1 41/5/1
f 45/4/1 44/4/1 43/4/1
f 46/4/1 44/4/1 45/4/1
f 49/2/1 48/2/1 47/2/1
f 50/2/1 48/2/1 49/2/1
f 53/7/1 52/7/1 51/7/1
f 54/7/1 52/7/1 53/7/1
f 57/7/1 56/7/1 55/7/1
f 58/7/1 56/7/1 57/7/1
f 59/5/2 60/5/2 61/5/2
f 61/5/2 60/5/2 62/5/2
f 63/3/2 64/3/2 65/3/2
f 65/3/2 64/3/2 66/3/2
f 67/5/2 68/5/2 69/5/2
f 69/5/2 68/5/2 70/5/2
f 71/4/2 72/4/2 73/4/2
f 73/4/2 72/4/2 74/4/2
f 75/2/2 76/2/2 77/2/2
f 77/2/2 76/2/2 78/2/2
f 79/7/2 80/7/2 81/7/2
f 81/7/2 80/7/2 82/7/2
f 83/7/2 84/7/2 85/7/2
f 85/7/2 84/7/2 86/7/2
f 87/6/2 88/6/2 89/6/2
f 89/6/2 88/6/2 90/6/2
f 90/6/2 88/6/2 91/6/2
f 89/7/2 90/7/2 92/7/2
f 92/7/2 90/7/2 93/7/2
f 92/6/2 93/6/2 95/6/2
f 93/6/2 94/6/2 95/6/2
f 95/6/2 94/6/2 96/6/2
f 101/6/3 98/6/3 97/6/3
f 102/7/3 99/7/3 98/7/3
f 102/6/3 98/6/3 101/6/3
f 103/6/3 100/6/3 99/6/3
f 103/7/3 99/7/3 102/7/3
f 104/6/3 100/6/3 103/6/3
f 105/7/4 106/7/4 107/7/4
f 107/7/4 106/7/4 108/7/4
f 109/6/4 110/6/4 113/6/4
f 113/6/4 110/6/4 114/6/4
f 109/6/4 113/6/4 115/6/4
f 115/6/4 113/6/4 116/6/4
f 116/6/4 113/6/4 117/6/4
f 114/6/4 110/6/4 118/6/4
f 109/6/4 115/6/4 119/6/4
f 116/6/4 117/6/4 120/6/4
f 117/6/4 118/6/4 120/6/4
f 120/6/4 118/6/4 121/6/4
f 121/6/4 118/6/4 122/6/4
f 119/6/4 120/6/4 123/6/4
f 120/6/4 121/6/4 123/6/4
f 123/6/4 121/6/4 124/6/4
f 124/6/4 121/6/4 125/6/4
f 122/6/4 118/6/4 126/6/4
f 119/6/4 123/6/4 127/6/4
f 124/6/4 125/6/4 128/6/4
f 125/6/4 126/6/4 128/6/4
f 128/6/4 126/6/4 129/6/4
f 126/6/4 118/6/4 130/6/4
f 129/6/4 126/6/4 130/6/4
f 128/6/4 129/6/4 131/6/4
f 127/6/4 128/6/4 131/6/4
f 130/6/4 118/6/4 132/6/4
f 127/6/4 131/6/4 133/6/4
f 131/6/4 132/6/4 133/6/4
f 118/6/4 110/6/4 134/6/4
f 133/6/4 132/6/4 134/6/4
f 132/6/4 118/6/4 134/6/4
f 111/6/4 112/6/4 135/6/4
f 135/6/4 112/6/4 136/6/4
f 127/6/4 133/6/4 137/6/4
f 134/6/4 110/6/4 138/6/4
f 111/6/4 135/6/4 139/6/4
f 136/6/4 112/6/4 140/6/4
f 127/6/4 137/6/4 141/6/4
f 109/6/4 119/6/4 141/6/4
f 119/6/4 127/6/4 141/6/4
f 137/6/4 138/6/4 141/6/4
f 138/6/4 110/6/4 142/6/4
f 141/6/4 138/6/4 142/6/4
f 139/6/4 140/6/4 143/6/4
f 111/6/4 139/6/4 143/6/4
f 140/6/4 112/6/4 144/6/4
f 143/6/4 140/6/4 144/6/4
f 145/5/4 146/5/4 149/5/4
f 149/5/4 146/5/4 150/5/4
f 147/3/4 148/3/4 151/3/4
f 151/3/4 148/3/4 152/3/4
f 153/5/4 154/5/4 157/5/4
f 157/5/4 154/5/4 158/5/4
f 155/4/4 156/4/4 159/4/4
f 159/4/4 156/4/4 160/4/4
f 161/2/4 162/2/4 163/2/4
f 163/2/4 162/2/4 164/2/4
f 165/7/4 166/7/4 169/7/4
f 169/7/4 166/7/4 170/7/4
f 167/7/4 168/7/4 171/7/4
f 171/7/4 168/7/4 172/7/4
f 175/6/5 174/6/5 173/6/5
f 176/6/5 174/6/5 175/6/5
f 179/3/5 178/3/5 177/3/5
f 180/3/5 178/3/5 179/3/5
f 183/4/5 182/4/5 181/4/5
f 184/4/5 182/4/5 183/4/5
f 191/5/5 186/5/5 185/5/5
f 192/5/5 186/5/5 191/5/5
f 193/2/5 188/2/5 187/2/5
f 194/2/5 188/2/5 193/2/5
f 195/7/5 190/7/5 189/7/5
f 196/7/5 190/7/5 195/7/5
f 199/5/5 198/5/5 197/5/5
f 200/5/5 198/5/5 199/5/5
f 203/6/5 202/6/5 201/6/5
f 204/6/5 202/6/5 203/6/5
f 207/7/5 206/7/5 205/7/5
f 208/7/5 206/7/5 207/7/5
f 209/3/6 210/3/6 211/3/6
f 211/3/6 210/3/6 212/3/6
f 213/4/6 214/4/6 215/4/6
f 215/4/6 214/4/6 216/4/6
f 217/5/6 218/5/6 221/5/6
f 221/5/6 218/5/6 222/5/6
f 219/2/6 220/2/6 223/2/6
f 223/2/6 220/2/6 224/2/6
f 225/5/6 226/5/6 229/5/6
f 229/5/6 226/5/6 230/5/6
f 227/7/6 228/7/6 231/7/6
f 231/7/6 228/7/6 232/7/6
f 233/6/6 234/6/6 235/6/6
f 235/6/6 234/6/6 236/6/6
f 237/7/6 238/7/6 239/7/6
f 239/7/6 238/7/6 240/7/6
f 241/6/6 242/6/6 243/6/6
f 243/6/6 242/6/6 244/6/6
