# MagicaVoxel @ Ephtracy

# group
o 

# material
mtllib glue_cinnamon_roll.mtl
usemtl palette

# normals
vn -1 0 0
vn 1 0 0
vn 0 0 1
vn 0 0 -1
vn 0 -1 0
vn 0 1 0

# texcoords
vt 0.00976563 0.5
vt 0.373047 0.5

# verts
v -0.3 0 0.2
v -0.3 0 -0.2
v -0.3 0.1 0.2
v -0.3 0.1 0
v -0.3 0.2 0.2
v -0.3 0.2 0
v -0.3 0.2 -0.2
v -0.2 0 0.3
v -0.2 0 0.2
v -0.2 0 -0.2
v -0.2 0 -0.3
v -0.2 0.1 0.3
v -0.2 0.1 0.2
v -0.2 0.2 0.3
v -0.2 0.2 0.2
v -0.2 0.2 0.1
v -0.2 0.2 0
v -0.2 0.2 -0.1
v -0.2 0.2 -0.2
v -0.2 0.2 -0.3
v -0.2 0.3 0.1
v -0.2 0.3 0
v -0.2 0.3 -0.1
v -0.1 0.2 0.2
v -0.1 0.2 0.1
v -0.1 0.2 -0.1
v -0.1 0.2 -0.2
v -0.1 0.3 0.2
v -0.1 0.3 0.1
v -0.1 0.3 -0.1
v -0.1 0.3 -0.2
v 0.1 0.2 -0.1
v 0.1 0.2 -0.2
v 0.1 0.3 -0.1
v 0.1 0.3 -0.2
v 0.2 0 0.3
v 0.2 0 0.2
v 0.2 0 -0.2
v 0.2 0 -0.3
v 0.2 0.2 0.3
v 0.2 0.2 0.2
v 0.2 0.2 -0.1
v 0.2 0.2 -0.2
v 0.2 0.2 -0.3
v 0.2 0.3 0.2
v 0.2 0.3 -0.1
v 0.3 0 0.2
v 0.3 0 -0.2
v 0.3 0.2 0.2
v 0.3 0.2 -0.2
v -0.2 0 0.3
v -0.2 0.1 0.3
v -0.2 0.2 0.3
v 0.1 0.1 0.3
v 0.1 0.2 0.3
v 0.2 0 0.3
v 0.2 0.2 0.3
v -0.3 0 0.2
v -0.3 0.1 0.2
v -0.3 0.2 0.2
v -0.2 0 0.2
v -0.2 0.1 0.2
v -0.2 0.2 0.2
v -0.1 0.2 0.2
v -0.1 0.3 0.2
v 0.1 0.2 0.2
v 0.1 0.3 0.2
v 0.2 0 0.2
v 0.2 0.2 0.2
v 0.2 0.3 0.2
v 0.3 0 0.2
v 0.3 0.2 0.2
v -0.2 0.2 0.1
v -0.2 0.3 0.1
v -0.1 0.2 0.1
v -0.1 0.3 0.1
v -0.2 0.2 -0.1
v -0.2 0.3 -0.1
v -0.1 0.2 -0.1
v -0.1 0.3 -0.1
v 0.1 0.2 -0.1
v 0.1 0.3 -0.1
v 0.2 0.2 -0.1
v 0.2 0.3 -0.1
v -0.3 0 -0.2
v -0.3 0.2 -0.2
v -0.2 0 -0.2
v -0.2 0.2 -0.2
v -0.1 0.2 -0.2
v -0.1 0.3 -0.2
v 0.1 0.2 -0.2
v 0.1 0.3 -0.2
v 0.2 0 -0.2
v 0.2 0.2 -0.2
v 0.3 0 -0.2
v 0.3 0.2 -0.2
v -0.2 0 -0.3
v -0.2 0.2 -0.3
v 0.2 0 -0.3
v 0.2 0.2 -0.3
v -0.2 0 0.3
v 0.2 0 0.3
v -0.3 0 0.2
v -0.2 0 0.2
v 0.2 0 0.2
v 0.3 0 0.2
v -0.3 0 -0.2
v -0.2 0 -0.2
v 0.2 0 -0.2
v 0.3 0 -0.2
v -0.2 0 -0.3
v 0.2 0 -0.3
v -0.2 0.2 0.3
v 0.1 0.2 0.3
v 0.2 0.2 0.3
v -0.3 0.2 0.2
v -0.2 0.2 0.2
v -0.1 0.2 0.2
v 0.1 0.2 0.2
v 0.2 0.2 0.2
v 0.3 0.2 0.2
v -0.2 0.2 0.1
v -0.1 0.2 0.1
v -0.3 0.2 0
v -0.2 0.2 0
v -0.2 0.2 -0.1
v -0.1 0.2 -0.1
v 0.1 0.2 -0.1
v 0.2 0.2 -0.1
v -0.3 0.2 -0.2
v -0.2 0.2 -0.2
v -0.1 0.2 -0.2
v 0.1 0.2 -0.2
v 0.2 0.2 -0.2
v 0.3 0.2 -0.2
v -0.2 0.2 -0.3
v 0.2 0.2 -0.3
v -0.1 0.3 0.2
v 0.1 0.3 0.2
v 0.2 0.3 0.2
v -0.2 0.3 0.1
v -0.1 0.3 0.1
v 0 0.3 0.1
v -0.2 0.3 0
v -0.1 0.3 0
v 0 0.3 0
v -0.2 0.3 -0.1
v -0.1 0.3 -0.1
v 0.1 0.3 -0.1
v 0.2 0.3 -0.1
v -0.1 0.3 -0.2
v 0.1 0.3 -0.2

# faces
f 3/2/1 2/2/1 1/2/1
f 4/2/1 2/2/1 3/2/1
f 5/1/1 4/1/1 3/1/1
f 6/2/1 2/2/1 4/2/1
f 6/1/1 4/1/1 5/1/1
f 7/2/1 2/2/1 6/2/1
f 12/2/1 9/2/1 8/2/1
f 13/2/1 9/2/1 12/2/1
f 14/1/1 13/1/1 12/1/1
f 15/1/1 13/1/1 14/1/1
f 19/2/1 11/2/1 10/2/1
f 20/2/1 11/2/1 19/2/1
f 21/2/1 17/2/1 16/2/1
f 22/1/1 18/1/1 17/1/1
f 22/2/1 17/2/1 21/2/1
f 23/1/1 18/1/1 22/1/1
f 28/2/1 25/2/1 24/2/1
f 29/2/1 25/2/1 28/2/1
f 30/1/1 27/1/1 26/1/1
f 31/1/1 27/1/1 30/1/1
f 32/1/2 33/1/2 34/1/2
f 34/1/2 33/1/2 35/1/2
f 36/2/2 37/2/2 40/2/2
f 40/2/2 37/2/2 41/2/2
f 38/2/2 39/2/2 43/2/2
f 43/2/2 39/2/2 44/2/2
f 41/1/2 42/1/2 45/1/2
f 45/1/2 42/1/2 46/1/2
f 47/2/2 48/2/2 49/2/2
f 49/2/2 48/2/2 50/2/2
f 54/2/3 52/2/3 51/2/3
f 54/1/3 53/1/3 52/1/3
f 55/1/3 53/1/3 54/1/3
f 56/2/3 54/2/3 51/2/3
f 56/2/3 55/2/3 54/2/3
f 57/2/3 55/2/3 56/2/3
f 61/2/3 59/2/3 58/2/3
f 62/1/3 60/1/3 59/1/3
f 62/2/3 59/2/3 61/2/3
f 63/1/3 60/1/3 62/1/3
f 66/2/3 65/2/3 64/2/3
f 67/2/3 65/2/3 66/2/3
f 69/1/3 67/1/3 66/1/3
f 70/1/3 67/1/3 69/1/3
f 71/2/3 69/2/3 68/2/3
f 72/2/3 69/2/3 71/2/3
f 75/2/3 74/2/3 73/2/3
f 76/2/3 74/2/3 75/2/3
f 77/1/4 78/1/4 79/1/4
f 79/1/4 78/1/4 80/1/4
f 81/1/4 82/1/4 83/1/4
f 83/1/4 82/1/4 84/1/4
f 85/2/4 86/2/4 87/2/4
f 87/2/4 86/2/4 88/2/4
f 89/1/4 90/1/4 91/1/4
f 91/1/4 90/1/4 92/1/4
f 93/2/4 94/2/4 95/2/4
f 95/2/4 94/2/4 96/2/4
f 97/2/4 98/2/4 99/2/4
f 99/2/4 98/2/4 100/2/4
f 104/2/5 102/2/5 101/2/5
f 105/2/5 102/2/5 104/2/5
f 107/2/5 104/2/5 103/2/5
f 107/2/5 106/2/5 105/2/5
f 107/2/5 105/2/5 104/2/5
f 108/2/5 106/2/5 107/2/5
f 109/2/5 106/2/5 108/2/5
f 110/2/5 106/2/5 109/2/5
f 111/2/5 109/2/5 108/2/5
f 112/2/5 109/2/5 111/2/5
f 113/1/6 114/1/6 117/1/6
f 117/1/6 114/1/6 118/1/6
f 114/2/6 115/2/6 119/2/6
f 118/1/6 114/1/6 119/1/6
f 119/2/6 115/2/6 120/2/6
f 117/2/6 118/2/6 122/2/6
f 116/1/6 117/1/6 122/1/6
f 122/2/6 118/2/6 123/2/6
f 116/1/6 122/1/6 124/1/6
f 124/1/6 122/1/6 125/1/6
f 124/2/6 125/2/6 126/2/6
f 120/2/6 121/2/6 129/2/6
f 124/2/6 126/2/6 130/2/6
f 126/2/6 127/2/6 130/2/6
f 130/2/6 127/2/6 131/2/6
f 131/2/6 127/2/6 132/2/6
f 128/2/6 129/2/6 133/2/6
f 129/2/6 121/2/6 134/2/6
f 133/2/6 129/2/6 134/2/6
f 134/2/6 121/2/6 135/2/6
f 131/2/6 132/2/6 136/2/6
f 132/2/6 133/2/6 136/2/6
f 133/2/6 134/2/6 136/2/6
f 136/2/6 134/2/6 137/2/6
f 138/2/6 139/2/6 142/2/6
f 142/2/6 139/2/6 143/2/6
f 141/2/6 142/2/6 144/2/6
f 142/1/6 143/1/6 145/1/6
f 144/2/6 142/2/6 145/2/6
f 143/2/6 139/2/6 146/2/6
f 145/1/6 143/1/6 146/1/6
f 144/1/6 145/1/6 147/1/6
f 145/2/6 146/2/6 148/2/6
f 147/1/6 145/1/6 148/1/6
f 139/1/6 140/1/6 149/1/6
f 148/2/6 146/2/6 149/2/6
f 146/2/6 139/2/6 149/2/6
f 149/1/6 140/1/6 150/1/6
f 148/1/6 149/1/6 151/1/6
f 151/1/6 149/1/6 152/1/6
