# MagicaVoxel @ Ephtracy

# group
o 

# material
mtllib glue_dino.mtl
usemtl palette

# normals
vn -1 0 0
vn 1 0 0
vn 0 0 1
vn 0 0 -1
vn 0 -1 0
vn 0 1 0

# texcoords
vt 0.0605469 0.5
vt 0.384766 0.5
vt 0.568359 0.5
vt 0.650391 0.5
vt 0.697266 0.5
vt 0.955078 0.5

# verts
v -0.4 0 0.2
v -0.4 0 -0.2
v -0.4 0.1 0.2
v -0.4 0.1 0.1
v -0.4 0.1 -0.1
v -0.4 0.1 -0.2
v -0.4 0.2 0
v -0.4 0.2 -0.1
v -0.4 0.3 0
v -0.4 0.3 -0.2
v -0.4 0.4 -0.1
v -0.4 0.4 -0.2
v -0.4 0.5 0.1
v -0.4 0.5 -0.1
v -0.3 0 0.3
v -0.3 0 0.2
v -0.3 0 -0.2
v -0.3 0 -0.3
v -0.3 0.1 0.3
v -0.3 0.1 0.2
v -0.3 0.1 -0.2
v -0.3 0.1 -0.3
v -0.3 0.2 0.3
v -0.3 0.2 0.2
v -0.3 0.3 0.3
v -0.3 0.3 0.2
v -0.3 0.3 0.1
v -0.3 0.4 0.3
v -0.3 0.4 0.2
v -0.3 0.4 0.1
v -0.3 0.4 -0.1
v -0.3 0.4 -0.2
v -0.3 0.5 0.2
v -0.3 0.5 0.1
v -0.3 0.5 0
v -0.3 0.5 -0.1
v -0.3 0.5 -0.2
v -0.3 0.6 0.1
v -0.3 0.6 0
v -0.3 0.6 -0.1
v -0.2 0 0.4
v -0.2 0 0.3
v -0.2 0 -0.3
v -0.2 0 -0.4
v -0.2 0.1 0.4
v -0.2 0.1 0.3
v -0.2 0.1 -0.3
v -0.2 0.1 -0.4
v -0.2 0.2 0.4
v -0.2 0.2 0.3
v -0.2 0.3 0.4
v -0.2 0.3 0.3
v -0.2 0.3 -0.2
v -0.2 0.3 -0.4
v -0.2 0.4 -0.2
v -0.2 0.4 -0.3
v -0.2 0.4 -0.4
v -0.2 0.5 -0.1
v -0.2 0.5 -0.2
v -0.2 0.5 -0.3
v -0.2 0.6 0
v -0.2 0.6 -0.1
v -0.2 0.6 -0.2
v -0.2 0.7 0
v -0.2 0.7 -0.1
v -0.1 0.1 0.2
v -0.1 0.1 0.1
v -0.1 0.2 -0.3
v -0.1 0.2 -0.4
v -0.1 0.3 0.2
v -0.1 0.3 0.1
v -0.1 0.3 -0.3
v -0.1 0.3 -0.4
v -0.1 0.5 -0.2
v -0.1 0.5 -0.3
v -0.1 0.6 -0.1
v -0.1 0.6 -0.2
v -0.1 0.6 -0.3
v -0.1 0.7 -0.1
v -0.1 0.7 -0.3
v 0 0.1 0.4
v 0 0.1 0.3
v 0 0.1 0.1
v 0 0.1 0
v 0 0.2 0.4
v 0 0.2 0.3
v 0 0.2 0.1
v 0 0.2 0
v 0 0.2 -0.1
v 0 0.2 -0.2
v 0 0.3 -0.1
v 0 0.3 -0.2
v 0 0.7 -0.1
v 0 0.7 -0.2
v 0 0.8 -0.1
v 0 0.8 -0.2
v 0.1 0.6 0
v 0.1 0.6 -0.1
v 0.1 0.7 0
v 0.1 0.7 -0.1
v 0.2 0.3 -0.1
v 0.2 0.3 -0.2
v 0.2 0.4 0
v 0.2 0.4 -0.1
v 0.2 0.4 -0.2
v 0.2 0.5 0
v 0.2 0.5 -0.1
v 0.2 0.7 -0.1
v 0.2 0.7 -0.2
v 0.2 0.8 -0.1
v 0.2 0.8 -0.2
v 0.3 0.2 0.3
v 0.3 0.2 0.2
v 0.3 0.3 0.3
v 0.3 0.3 0.2
v 0.3 0.5 0
v 0.3 0.5 -0.1
v 0.3 0.5 -0.2
v 0.3 0.5 -0.3
v 0.3 0.6 0
v 0.3 0.6 -0.1
v 0.3 0.6 -0.2
v 0.3 0.6 -0.3
v -0.3 0.1 0.1
v -0.3 0.1 -0.1
v -0.3 0.2 0
v -0.3 0.2 -0.1
v -0.3 0.3 0.1
v -0.3 0.3 0
v -0.2 0.2 0.3
v -0.2 0.2 0.2
v -0.2 0.3 0.3
v -0.2 0.3 0.2
v -0.2 0.3 0.1
v -0.2 0.4 0.2
v -0.2 0.4 0.1
v -0.2 0.5 0.2
v -0.2 0.5 0.1
v -0.2 0.5 0
v -0.2 0.6 0.1
v -0.2 0.6 0
v -0.1 0.3 0.3
v -0.1 0.3 0.2
v -0.1 0.3 -0.2
v -0.1 0.3 -0.3
v -0.1 0.3 -0.4
v -0.1 0.4 0.3
v -0.1 0.4 0.2
v -0.1 0.4 0.1
v -0.1 0.4 0
v -0.1 0.4 -0.2
v -0.1 0.4 -0.3
v -0.1 0.4 -0.4
v -0.1 0.5 0.1
v -0.1 0.5 0
v -0.1 0.6 0
v -0.1 0.6 -0.1
v -0.1 0.7 0
v -0.1 0.7 -0.1
v 0 0.1 0.2
v 0 0.1 0.1
v 0 0.2 0.4
v 0 0.2 0.3
v 0 0.2 0.1
v 0 0.2 -0.3
v 0 0.2 -0.4
v 0 0.3 0.4
v 0 0.3 0.3
v 0 0.3 0.2
v 0 0.3 0.1
v 0 0.3 -0.1
v 0 0.3 -0.2
v 0 0.3 -0.3
v 0 0.3 -0.4
v 0 0.4 0.1
v 0 0.4 0
v 0 0.4 -0.1
v 0 0.4 -0.2
v 0 0.5 0
v 0 0.5 -0.1
v 0.1 0.1 0.1
v 0.1 0.1 0
v 0.1 0.2 0.1
v 0.1 0.2 0
v 0.1 0.2 -0.1
v 0.1 0.2 -0.2
v 0.1 0.3 -0.1
v 0.1 0.3 -0.2
v 0.1 0.7 -0.1
v 0.1 0.7 -0.2
v 0.1 0.8 -0.1
v 0.1 0.8 -0.2
v 0.2 0 0.4
v 0.2 0 0.3
v 0.2 0 -0.3
v 0.2 0 -0.4
v 0.2 0.1 0.4
v 0.2 0.1 0.3
v 0.2 0.1 -0.3
v 0.2 0.1 -0.4
v 0.2 0.5 0
v 0.2 0.5 -0.1
v 0.2 0.5 -0.2
v 0.2 0.5 -0.3
v 0.2 0.6 0
v 0.2 0.6 -0.1
v 0.2 0.6 -0.2
v 0.2 0.6 -0.3
v 0.3 0 0.3
v 0.3 0 0.2
v 0.3 0 -0.2
v 0.3 0 -0.3
v 0.3 0.1 0.4
v 0.3 0.1 0.3
v 0.3 0.1 0.2
v 0.3 0.1 -0.2
v 0.3 0.1 -0.3
v 0.3 0.2 0.4
v 0.3 0.2 0.3
v 0.3 0.4 0
v 0.3 0.4 -0.1
v 0.3 0.4 -0.2
v 0.3 0.4 -0.3
v 0.3 0.5 0
v 0.3 0.5 -0.1
v 0.3 0.5 -0.2
v 0.3 0.5 -0.3
v 0.3 0.7 -0.1
v 0.3 0.7 -0.2
v 0.3 0.8 -0.1
v 0.3 0.8 -0.2
v 0.4 0 0.2
v 0.4 0 -0.2
v 0.4 0.1 0.2
v 0.4 0.1 -0.2
v 0.4 0.2 0.3
v 0.4 0.2 0.2
v 0.4 0.3 0.3
v 0.4 0.3 0.2
v 0.4 0.3 -0.1
v 0.4 0.3 -0.2
v 0.4 0.4 -0.1
v 0.4 0.4 -0.2
v 0.4 0.6 0
v 0.4 0.6 -0.1
v 0.4 0.6 -0.2
v 0.4 0.6 -0.3
v 0.4 0.7 0
v 0.4 0.7 -0.1
v 0.4 0.7 -0.2
v 0.4 0.7 -0.3
v 0.5 0.5 0
v 0.5 0.5 -0.3
v 0.5 0.6 0
v 0.5 0.6 -0.3
v -0.2 0 0.4
v -0.2 0.1 0.4
v -0.2 0.2 0.4
v -0.2 0.3 0.4
v 0 0.1 0.4
v 0 0.2 0.4
v 0 0.3 0.4
v 0.1 0.1 0.4
v 0.1 0.2 0.4
v 0.2 0 0.4
v 0.2 0.1 0.4
v 0.2 0.2 0.4
v 0.3 0.1 0.4
v 0.3 0.2 0.4
v -0.3 0 0.3
v -0.3 0.1 0.3
v -0.3 0.2 0.3
v -0.3 0.3 0.3
v -0.3 0.4 0.3
v -0.2 0 0.3
v -0.2 0.1 0.3
v -0.2 0.2 0.3
v -0.2 0.3 0.3
v -0.1 0.3 0.3
v -0.1 0.4 0.3
v 0.2 0 0.3
v 0.2 0.1 0.3
v 0.3 0 0.3
v 0.3 0.1 0.3
v 0.3 0.2 0.3
v 0.3 0.3 0.3
v 0.4 0.2 0.3
v 0.4 0.3 0.3
v -0.4 0 0.2
v -0.4 0.1 0.2
v -0.3 0 0.2
v -0.3 0.1 0.2
v -0.3 0.4 0.2
v -0.3 0.5 0.2
v -0.2 0.4 0.2
v -0.2 0.5 0.2
v -0.1 0.1 0.2
v -0.1 0.3 0.2
v 0 0.1 0.2
v 0 0.3 0.2
v 0.3 0 0.2
v 0.3 0.1 0.2
v 0.4 0 0.2
v 0.4 0.1 0.2
v -0.4 0.1 0.1
v -0.4 0.5 0.1
v -0.3 0.1 0.1
v -0.3 0.3 0.1
v -0.3 0.4 0.1
v -0.3 0.5 0.1
v -0.3 0.6 0.1
v -0.2 0.3 0.1
v -0.2 0.4 0.1
v -0.2 0.5 0.1
v -0.2 0.6 0.1
v -0.1 0.3 0.1
v -0.1 0.4 0.1
v -0.1 0.5 0.1
v 0 0.1 0.1
v 0 0.2 0.1
v 0 0.3 0.1
v 0 0.4 0.1
v 0.1 0.1 0.1
v 0.1 0.2 0.1
v -0.2 0.5 0
v -0.2 0.6 0
v -0.2 0.7 0
v -0.1 0.4 0
v -0.1 0.5 0
v -0.1 0.6 0
v -0.1 0.7 0
v 0 0.4 0
v 0 0.5 0
v 0 0.6 0
v 0.1 0.5 0
v 0.1 0.6 0
v 0.1 0.7 0
v 0.2 0.4 0
v 0.2 0.5 0
v 0.2 0.6 0
v 0.2 0.7 0
v 0.3 0.4 0
v 0.3 0.5 0
v 0.3 0.6 0
v 0.3 0.7 0
v 0.4 0.6 0
v 0.4 0.7 0
v 0.5 0.5 0
v 0.5 0.6 0
v -0.1 0.6 -0.1
v -0.1 0.7 -0.1
v 0 0.2 -0.1
v 0 0.3 -0.1
v 0 0.4 -0.1
v 0 0.5 -0.1
v 0 0.6 -0.1
v 0 0.7 -0.1
v 0 0.8 -0.1
v 0.1 0.2 -0.1
v 0.1 0.3 -0.1
v 0.1 0.5 -0.1
v 0.1 0.6 -0.1
v 0.1 0.7 -0.1
v 0.1 0.8 -0.1
v 0.2 0.3 -0.1
v 0.2 0.4 -0.1
v 0.2 0.5 -0.1
v 0.2 0.6 -0.1
v 0.2 0.7 -0.1
v 0.2 0.8 -0.1
v 0.3 0.4 -0.1
v 0.3 0.5 -0.1
v 0.3 0.6 -0.1
v 0.3 0.7 -0.1
v 0.3 0.8 -0.1
v 0.4 0.3 -0.1
v 0.4 0.4 -0.1
v -0.1 0.2 -0.3
v -0.1 0.3 -0.3
v 0 0.2 -0.3
v 0 0.3 -0.3
v -0.2 0.2 0.3
v -0.2 0.3 0.3
v -0.1 0.3 0.3
v 0 0.1 0.3
v 0 0.2 0.3
v 0 0.3 0.3
v 0.1 0.1 0.3
v 0.1 0.2 0.3
v 0.2 0.1 0.3
v 0.2 0.2 0.3
v 0.3 0.1 0.3
v 0.3 0.2 0.3
v -0.3 0.2 0.2
v -0.3 0.3 0.2
v -0.2 0.2 0.2
v -0.2 0.3 0.2
v -0.2 0.4 0.2
v -0.1 0.3 0.2
v -0.1 0.4 0.2
v 0.3 0.2 0.2
v 0.3 0.3 0.2
v 0.4 0.2 0.2
v 0.4 0.3 0.2
v -0.1 0.1 0.1
v -0.1 0.3 0.1
v 0 0.1 0.1
v 0 0.2 0.1
v 0 0.3 0.1
v -0.4 0.2 0
v -0.4 0.3 0
v -0.3 0.2 0
v -0.3 0.3 0
v 0 0.1 0
v 0 0.2 0
v 0.1 0.1 0
v 0.1 0.2 0
v -0.4 0.1 -0.1
v -0.4 0.2 -0.1
v -0.4 0.4 -0.1
v -0.4 0.5 -0.1
v -0.3 0.1 -0.1
v -0.3 0.2 -0.1
v -0.3 0.4 -0.1
v -0.3 0.5 -0.1
v -0.3 0.6 -0.1
v -0.2 0.5 -0.1
v -0.2 0.6 -0.1
v -0.2 0.7 -0.1
v -0.1 0.6 -0.1
v -0.1 0.7 -0.1
v -0.4 0 -0.2
v -0.4 0.1 -0.2
v -0.4 0.3 -0.2
v -0.4 0.4 -0.2
v -0.3 0 -0.2
v -0.3 0.1 -0.2
v -0.3 0.4 -0.2
v -0.3 0.5 -0.2
v -0.2 0.3 -0.2
v -0.2 0.4 -0.2
v -0.2 0.5 -0.2
v -0.2 0.6 -0.2
v -0.1 0.3 -0.2
v -0.1 0.4 -0.2
v -0.1 0.5 -0.2
v -0.1 0.6 -0.2
v 0 0.2 -0.2
v 0 0.3 -0.2
v 0 0.4 -0.2
v 0 0.7 -0.2
v 0 0.8 -0.2
v 0.1 0.2 -0.2
v 0.1 0.3 -0.2
v 0.1 0.7 -0.2
v 0.1 0.8 -0.2
v 0.2 0.3 -0.2
v 0.2 0.4 -0.2
v 0.2 0.5 -0.2
v 0.2 0.6 -0.2
v 0.2 0.7 -0.2
v 0.2 0.8 -0.2
v 0.3 0 -0.2
v 0.3 0.1 -0.2
v 0.3 0.4 -0.2
v 0.3 0.5 -0.2
v 0.3 0.6 -0.2
v 0.3 0.7 -0.2
v 0.3 0.8 -0.2
v 0.4 0 -0.2
v 0.4 0.1 -0.2
v 0.4 0.3 -0.2
v 0.4 0.4 -0.2
v -0.3 0 -0.3
v -0.3 0.1 -0.3
v -0.2 0 -0.3
v -0.2 0.1 -0.3
v -0.2 0.4 -0.3
v -0.2 0.5 -0.3
v -0.1 0.4 -0.3
v -0.1 0.5 -0.3
v -0.1 0.6 -0.3
v -0.1 0.7 -0.3
v 0 0.5 -0.3
v 0 0.6 -0.3
v 0 0.7 -0.3
v 0.1 0.5 -0.3
v 0.1 0.6 -0.3
v 0.1 0.7 -0.3
v 0.2 0 -0.3
v 0.2 0.1 -0.3
v 0.2 0.5 -0.3
v 0.2 0.6 -0.3
v 0.2 0.7 -0.3
v 0.3 0 -0.3
v 0.3 0.1 -0.3
v 0.3 0.4 -0.3
v 0.3 0.5 -0.3
v 0.3 0.6 -0.3
v 0.3 0.7 -0.3
v 0.4 0.6 -0.3
v 0.4 0.7 -0.3
v 0.5 0.5 -0.3
v 0.5 0.6 -0.3
v -0.2 0 -0.4
v -0.2 0.1 -0.4
v -0.2 0.3 -0.4
v -0.2 0.4 -0.4
v -0.1 0.2 -0.4
v -0.1 0.3 -0.4
v -0.1 0.4 -0.4
v 0 0.2 -0.4
v 0 0.3 -0.4
v 0.2 0 -0.4
v 0.2 0.1 -0.4
v -0.2 0 0.4
v 0.2 0 0.4
v -0.3 0 0.3
v -0.2 0 0.3
v 0.2 0 0.3
v 0.3 0 0.3
v -0.4 0 0.2
v -0.3 0 0.2
v 0.3 0 0.2
v 0.4 0 0.2
v -0.4 0 -0.2
v -0.3 0 -0.2
v 0.3 0 -0.2
v 0.4 0 -0.2
v -0.3 0 -0.3
v -0.2 0 -0.3
v 0.2 0 -0.3
v 0.3 0 -0.3
v -0.2 0 -0.4
v 0.2 0 -0.4
v 0.2 0.1 0.4
v 0.3 0.1 0.4
v 0.2 0.1 0.3
v 0.3 0.1 0.3
v -0.2 0.2 0.4
v 0 0.2 0.4
v -0.3 0.2 0.3
v -0.2 0.2 0.3
v 0 0.2 0.3
v 0.3 0.2 0.3
v 0.4 0.2 0.3
v -0.3 0.2 0.2
v -0.2 0.2 0.2
v 0.3 0.2 0.2
v 0.4 0.2 0.2
v 0 0.2 -0.1
v 0.1 0.2 -0.1
v 0 0.2 -0.2
v 0.1 0.2 -0.2
v -0.1 0.2 -0.3
v 0 0.2 -0.3
v -0.1 0.2 -0.4
v 0 0.2 -0.4
v -0.2 0.3 0.3
v -0.1 0.3 0.3
v -0.3 0.3 0.2
v -0.2 0.3 0.2
v -0.1 0.3 0.2
v -0.3 0.3 0.1
v -0.2 0.3 0.1
v -0.1 0.3 0.1
v 0 0.3 0.1
v -0.4 0.3 0
v -0.3 0.3 0
v 0 0.3 -0.1
v 0.2 0.3 -0.1
v 0.4 0.3 -0.1
v -0.4 0.3 -0.2
v -0.2 0.3 -0.2
v -0.1 0.3 -0.2
v 0 0.3 -0.2
v 0.2 0.3 -0.2
v 0.4 0.3 -0.2
v -0.1 0.3 -0.3
v -0.2 0.3 -0.4
v -0.1 0.3 -0.4
v 0.2 0.4 0
v 0.3 0.4 0
v 0 0.4 -0.1
v 0.2 0.4 -0.1
v 0.3 0.4 -0.1
v -0.1 0.4 -0.2
v 0 0.4 -0.2
v 0.2 0.4 -0.2
v 0.3 0.4 -0.2
v -0.1 0.4 -0.3
v 0.3 0.4 -0.3
v 0 0.5 0
v 0.1 0.5 0
v 0.2 0.5 0
v 0.3 0.5 0
v 0.5 0.5 0
v 0 0.5 -0.1
v 0.1 0.5 -0.1
v 0.2 0.5 -0.1
v 0.3 0.5 -0.1
v 0.4 0.5 -0.1
v 0.3 0.5 -0.2
v 0.4 0.5 -0.2
v 0.3 0.5 -0.3
v 0.5 0.5 -0.3
v 0.2 0.6 0
v 0.3 0.6 0
v 0.2 0.6 -0.1
v 0.3 0.6 -0.1
v 0.2 0.6 -0.2
v 0.3 0.6 -0.2
v 0.2 0.6 -0.3
v 0.3 0.6 -0.3
v -0.2 0.1 0.4
v 0 0.1 0.4
v -0.3 0.1 0.3
v -0.2 0.1 0.3
v 0 0.1 0.3
v 0.1 0.1 0.3
v 0.2 0.1 0.3
v 0.3 0.1 0.3
v -0.4 0.1 0.2
v -0.3 0.1 0.2
v -0.1 0.1 0.2
v 0 0.1 0.2
v 0.3 0.1 0.2
v 0.4 0.1 0.2
v -0.4 0.1 0.1
v -0.3 0.1 0.1
v -0.1 0.1 0.1
v 0 0.1 0.1
v 0.1 0.1 0.1
v 0 0.1 0
v 0.1 0.1 0
v -0.4 0.1 -0.1
v -0.3 0.1 -0.1
v -0.4 0.1 -0.2
v -0.3 0.1 -0.2
v 0.3 0.1 -0.2
v 0.4 0.1 -0.2
v -0.3 0.1 -0.3
v -0.2 0.1 -0.3
v 0.2 0.1 -0.3
v 0.3 0.1 -0.3
v -0.2 0.1 -0.4
v 0.2 0.1 -0.4
v 0 0.2 0.4
v 0.1 0.2 0.4
v 0.2 0.2 0.4
v 0.3 0.2 0.4
v 0 0.2 0.3
v 0.1 0.2 0.3
v 0.2 0.2 0.3
v 0.3 0.2 0.3
v 0 0.2 0.1
v 0.1 0.2 0.1
v -0.4 0.2 0
v -0.3 0.2 0
v 0 0.2 0
v 0.1 0.2 0
v -0.4 0.2 -0.1
v -0.3 0.2 -0.1
v -0.2 0.3 0.4
v 0 0.3 0.4
v -0.2 0.3 0.3
v -0.1 0.3 0.3
v 0 0.3 0.3
v 0.3 0.3 0.3
v 0.4 0.3 0.3
v -0.1 0.3 0.2
v 0 0.3 0.2
v 0.3 0.3 0.2
v 0.4 0.3 0.2
v -0.1 0.3 0.1
v 0 0.3 0.1
v 0 0.3 -0.1
v 0.1 0.3 -0.1
v 0 0.3 -0.2
v 0.1 0.3 -0.2
v -0.1 0.3 -0.3
v 0 0.3 -0.3
v -0.1 0.3 -0.4
v 0 0.3 -0.4
v -0.3 0.4 0.3
v -0.1 0.4 0.3
v -0.3 0.4 0.2
v -0.2 0.4 0.2
v -0.1 0.4 0.2
v -0.1 0.4 0.1
v 0 0.4 0.1
v -0.1 0.4 0
v 0 0.4 0
v -0.4 0.4 -0.1
v -0.3 0.4 -0.1
v 0.3 0.4 -0.1
v 0.4 0.4 -0.1
v -0.4 0.4 -0.2
v -0.3 0.4 -0.2
v 0.3 0.4 -0.2
v 0.4 0.4 -0.2
v -0.2 0.4 -0.3
v -0.1 0.4 -0.3
v -0.2 0.4 -0.4
v -0.1 0.4 -0.4
v -0.3 0.5 0.2
v -0.2 0.5 0.2
v -0.4 0.5 0.1
v -0.3 0.5 0.1
v -0.2 0.5 0.1
v -0.1 0.5 0.1
v -0.3 0.5 0
v -0.2 0.5 0
v -0.1 0.5 0
v 0.2 0.5 0
v 0.3 0.5 0
v -0.4 0.5 -0.1
v -0.3 0.5 -0.1
v -0.2 0.5 -0.1
v 0.2 0.5 -0.1
v 0.3 0.5 -0.1
v -0.3 0.5 -0.2
v -0.2 0.5 -0.2
v -0.1 0.5 -0.2
v 0.2 0.5 -0.2
v 0.3 0.5 -0.2
v -0.2 0.5 -0.3
v -0.1 0.5 -0.3
v 0.2 0.5 -0.3
v 0.3 0.5 -0.3
v -0.3 0.6 0.1
v -0.2 0.6 0.1
v -0.3 0.6 0
v -0.2 0.6 0
v -0.1 0.6 0
v 0 0.6 0
v 0.1 0.6 0
v 0.4 0.6 0
v 0.5 0.6 0
v -0.3 0.6 -0.1
v -0.2 0.6 -0.1
v -0.1 0.6 -0.1
v 0 0.6 -0.1
v 0.1 0.6 -0.1
v 0.4 0.6 -0.1
v -0.2 0.6 -0.2
v -0.1 0.6 -0.2
v 0.4 0.6 -0.2
v 0.4 0.6 -0.3
v 0.5 0.6 -0.3
v -0.2 0.7 0
v -0.1 0.7 0
v 0.1 0.7 0
v 0.2 0.7 0
v 0.3 0.7 0
v 0.4 0.7 0
v -0.2 0.7 -0.1
v -0.1 0.7 -0.1
v 0 0.7 -0.1
v 0.1 0.7 -0.1
v 0.2 0.7 -0.1
v 0.3 0.7 -0.1
v 0.4 0.7 -0.1
v 0 0.7 -0.2
v 0.1 0.7 -0.2
v 0.2 0.7 -0.2
v 0.3 0.7 -0.2
v 0.4 0.7 -0.2
v -0.1 0.7 -0.3
v 0 0.7 -0.3
v 0.1 0.7 -0.3
v 0.2 0.7 -0.3
v 0.3 0.7 -0.3
v 0.4 0.7 -0.3
v 0 0.8 -0.1
v 0.1 0.8 -0.1
v 0.2 0.8 -0.1
v 0.3 0.8 -0.1
v 0 0.8 -0.2
v 0.1 0.8 -0.2
v 0.2 0.8 -0.2
v 0.3 0.8 -0.2

# faces
f 3/6/1 2/6/1 1/6/1
f 4/6/1 2/6/1 3/6/1
f 5/6/1 2/6/1 4/6/1
f 6/6/1 2/6/1 5/6/1
f 7/3/1 5/3/1 4/3/1
f 8/3/1 5/3/1 7/3/1
f 9/3/1 7/3/1 4/3/1
f 11/3/1 10/3/1 9/3/1
f 12/3/1 10/3/1 11/3/1
f 13/3/1 9/3/1 4/3/1
f 13/3/1 11/3/1 9/3/1
f 14/3/1 11/3/1 13/3/1
f 19/6/1 16/6/1 15/6/1
f 20/6/1 16/6/1 19/6/1
f 21/6/1 18/6/1 17/6/1
f 22/6/1 18/6/1 21/6/1
f 25/3/1 24/3/1 23/3/1
f 26/3/1 24/3/1 25/3/1
f 28/4/1 26/4/1 25/4/1
f 29/3/1 27/3/1 26/3/1
f 29/4/1 26/4/1 28/4/1
f 30/3/1 27/3/1 29/3/1
f 33/5/1 30/5/1 29/5/1
f 34/5/1 30/5/1 33/5/1
f 36/4/1 32/4/1 31/4/1
f 37/4/1 32/4/1 36/4/1
f 38/5/1 35/5/1 34/5/1
f 39/4/1 36/4/1 35/4/1
f 39/5/1 35/5/1 38/5/1
f 40/4/1 36/4/1 39/4/1
f 45/6/1 42/6/1 41/6/1
f 46/6/1 42/6/1 45/6/1
f 47/6/1 44/6/1 43/6/1
f 48/6/1 44/6/1 47/6/1
f 51/3/1 50/3/1 49/3/1
f 52/3/1 50/3/1 51/3/1
f 55/3/1 54/3/1 53/3/1
f 56/3/1 54/3/1 55/3/1
f 57/3/1 54/3/1 56/3/1
f 59/3/1 56/3/1 55/3/1
f 60/3/1 56/3/1 59/3/1
f 62/3/1 59/3/1 58/3/1
f 63/3/1 59/3/1 62/3/1
f 64/5/1 62/5/1 61/5/1
f 65/5/1 62/5/1 64/5/1
f 70/3/1 67/3/1 66/3/1
f 71/3/1 67/3/1 70/3/1
f 72/3/1 69/3/1 68/3/1
f 73/3/1 69/3/1 72/3/1
f 77/3/1 75/3/1 74/3/1
f 78/3/1 75/3/1 77/3/1
f 79/4/1 77/4/1 76/4/1
f 79/4/1 78/4/1 77/4/1
f 80/4/1 78/4/1 79/4/1
f 85/4/1 82/4/1 81/4/1
f 86/4/1 82/4/1 85/4/1
f 87/3/1 84/3/1 83/3/1
f 88/3/1 84/3/1 87/3/1
f 91/3/1 90/3/1 89/3/1
f 92/3/1 90/3/1 91/3/1
f 95/5/1 94/5/1 93/5/1
f 96/5/1 94/5/1 95/5/1
f 99/4/1 98/4/1 97/4/1
f 100/4/1 98/4/1 99/4/1
f 104/3/1 102/3/1 101/3/1
f 105/3/1 102/3/1 104/3/1
f 106/3/1 104/3/1 103/3/1
f 107/3/1 104/3/1 106/3/1
f 110/5/1 109/5/1 108/5/1
f 111/5/1 109/5/1 110/5/1
f 114/3/1 113/3/1 112/3/1
f 115/3/1 113/3/1 114/3/1
f 120/3/1 117/3/1 116/3/1
f 121/3/1 117/3/1 120/3/1
f 122/3/1 119/3/1 118/3/1
f 123/3/1 119/3/1 122/3/1
f 124/3/2 125/3/2 126/3/2
f 126/3/2 125/3/2 127/3/2
f 124/3/2 126/3/2 128/3/2
f 128/3/2 126/3/2 129/3/2
f 130/3/2 131/3/2 132/3/2
f 132/3/2 131/3/2 133/3/2
f 133/3/2 134/3/2 135/3/2
f 135/3/2 134/3/2 136/3/2
f 135/5/2 136/5/2 137/5/2
f 137/5/2 136/5/2 138/5/2
f 138/5/2 139/5/2 140/5/2
f 140/5/2 139/5/2 141/5/2
f 142/4/2 143/4/2 147/4/2
f 147/4/2 143/4/2 148/4/2
f 145/3/2 146/3/2 151/3/2
f 144/3/2 145/3/2 151/3/2
f 151/3/2 146/3/2 152/3/2
f 152/3/2 146/3/2 153/3/2
f 149/4/2 150/4/2 154/4/2
f 154/4/2 150/4/2 155/4/2
f 156/5/2 157/5/2 158/5/2
f 158/5/2 157/5/2 159/5/2
f 160/3/2 161/3/2 164/3/2
f 162/3/2 163/3/2 167/3/2
f 167/3/2 163/3/2 168/3/2
f 160/3/2 164/3/2 169/3/2
f 169/3/2 164/3/2 170/3/2
f 165/3/2 166/3/2 173/3/2
f 173/3/2 166/3/2 174/3/2
f 171/3/2 172/3/2 175/3/2
f 170/3/2 171/3/2 175/3/2
f 175/3/2 172/3/2 176/3/2
f 176/3/2 172/3/2 177/3/2
f 177/3/2 172/3/2 178/3/2
f 176/3/2 177/3/2 179/3/2
f 179/3/2 177/3/2 180/3/2
f 181/3/2 182/3/2 183/3/2
f 183/3/2 182/3/2 184/3/2
f 185/3/2 186/3/2 187/3/2
f 187/3/2 186/3/2 188/3/2
f 189/5/2 190/5/2 191/5/2
f 191/5/2 190/5/2 192/5/2
f 193/6/2 194/6/2 197/6/2
f 197/6/2 194/6/2 198/6/2
f 195/6/2 196/6/2 199/6/2
f 199/6/2 196/6/2 200/6/2
f 201/3/2 202/3/2 205/3/2
f 205/3/2 202/3/2 206/3/2
f 203/3/2 204/3/2 207/3/2
f 207/3/2 204/3/2 208/3/2
f 209/6/2 210/6/2 214/6/2
f 214/6/2 210/6/2 215/6/2
f 211/6/2 212/6/2 216/6/2
f 216/6/2 212/6/2 217/6/2
f 213/4/2 214/4/2 218/4/2
f 218/4/2 214/4/2 219/4/2
f 220/3/2 221/3/2 224/3/2
f 221/1/2 222/1/2 225/1/2
f 224/3/2 221/3/2 225/3/2
f 222/3/2 223/3/2 226/3/2
f 225/1/2 222/1/2 226/1/2
f 226/3/2 223/3/2 227/3/2
f 228/5/2 229/5/2 230/5/2
f 230/5/2 229/5/2 231/5/2
f 232/6/2 233/6/2 234/6/2
f 234/6/2 233/6/2 235/6/2
f 236/3/2 237/3/2 238/3/2
f 238/3/2 237/3/2 239/3/2
f 240/3/2 241/3/2 242/3/2
f 242/3/2 241/3/2 243/3/2
f 244/2/2 245/2/2 248/2/2
f 245/3/2 246/3/2 249/3/2
f 248/2/2 245/2/2 249/2/2
f 246/2/2 247/2/2 250/2/2
f 249/3/2 246/3/2 250/3/2
f 250/2/2 247/2/2 251/2/2
f 252/3/2 253/3/2 254/3/2
f 254/3/2 253/3/2 255/3/2
f 260/6/3 257/6/3 256/6/3
f 261/3/3 259/3/3 258/3/3
f 262/3/3 259/3/3 261/3/3
f 263/6/3 260/6/3 256/6/3
f 263/4/3 261/4/3 260/4/3
f 264/4/3 261/4/3 263/4/3
f 265/6/3 263/6/3 256/6/3
f 266/3/3 264/3/3 263/3/3
f 266/6/3 263/6/3 265/6/3
f 267/3/3 264/3/3 266/3/3
f 268/4/3 267/4/3 266/4/3
f 269/4/3 267/4/3 268/4/3
f 275/6/3 271/6/3 270/6/3
f 276/6/3 271/6/3 275/6/3
f 277/3/3 273/3/3 272/3/3
f 278/4/3 274/4/3 273/4/3
f 278/3/3 273/3/3 277/3/3
f 279/4/3 274/4/3 278/4/3
f 280/4/3 274/4/3 279/4/3
f 283/6/3 282/6/3 281/6/3
f 284/6/3 282/6/3 283/6/3
f 287/3/3 286/3/3 285/3/3
f 288/3/3 286/3/3 287/3/3
f 291/6/3 290/6/3 289/6/3
f 292/6/3 290/6/3 291/6/3
f 295/5/3 294/5/3 293/5/3
f 296/5/3 294/5/3 295/5/3
f 299/3/3 298/3/3 297/3/3
f 300/3/3 298/3/3 299/3/3
f 303/6/3 302/6/3 301/6/3
f 304/6/3 302/6/3 303/6/3
f 307/3/3 306/3/3 305/3/3
f 308/3/3 306/3/3 307/3/3
f 309/3/3 306/3/3 308/3/3
f 310/3/3 306/3/3 309/3/3
f 314/5/3 311/5/3 310/5/3
f 315/5/3 311/5/3 314/5/3
f 316/3/3 313/3/3 312/3/3
f 317/4/3 314/4/3 313/4/3
f 317/3/3 313/3/3 316/3/3
f 318/4/3 314/4/3 317/4/3
f 321/3/3 317/3/3 316/3/3
f 322/3/3 317/3/3 321/3/3
f 323/3/3 320/3/3 319/3/3
f 324/3/3 320/3/3 323/3/3
f 329/3/3 326/3/3 325/3/3
f 330/5/3 327/5/3 326/5/3
f 330/3/3 326/3/3 329/3/3
f 331/5/3 327/5/3 330/5/3
f 332/3/3 329/3/3 328/3/3
f 332/3/3 330/3/3 329/3/3
f 333/3/3 330/3/3 332/3/3
f 334/3/3 330/3/3 333/3/3
f 335/4/3 334/4/3 333/4/3
f 336/4/3 334/4/3 335/4/3
f 339/3/3 336/3/3 335/3/3
f 340/4/3 337/4/3 336/4/3
f 340/3/3 336/3/3 339/3/3
f 341/4/3 337/4/3 340/4/3
f 342/3/3 339/3/3 338/3/3
f 343/3/3 339/3/3 342/3/3
f 344/3/3 341/3/3 340/3/3
f 345/3/3 341/3/3 344/3/3
f 346/3/3 344/3/3 343/3/3
f 346/2/3 345/2/3 344/2/3
f 347/2/3 345/2/3 346/2/3
f 348/3/3 346/3/3 343/3/3
f 349/3/3 346/3/3 348/3/3
f 356/4/3 351/4/3 350/4/3
f 357/4/3 351/4/3 356/4/3
f 359/3/3 353/3/3 352/3/3
f 360/3/3 353/3/3 359/3/3
f 361/3/3 355/3/3 354/3/3
f 362/3/3 357/3/3 356/3/3
f 363/5/3 358/5/3 357/5/3
f 363/3/3 357/3/3 362/3/3
f 364/5/3 358/5/3 363/5/3
f 366/3/3 361/3/3 354/3/3
f 367/3/3 361/3/3 366/3/3
f 371/3/3 366/3/3 365/3/3
f 372/3/3 368/3/3 367/3/3
f 373/3/3 368/3/3 372/3/3
f 374/5/3 370/5/3 369/5/3
f 375/5/3 370/5/3 374/5/3
f 376/3/3 371/3/3 365/3/3
f 377/3/3 371/3/3 376/3/3
f 380/3/3 379/3/3 378/3/3
f 381/3/3 379/3/3 380/3/3
f 382/3/4 383/3/4 384/3/4
f 382/3/4 384/3/4 386/3/4
f 386/3/4 384/3/4 387/3/4
f 385/4/4 386/4/4 388/4/4
f 388/4/4 386/4/4 389/4/4
f 388/3/4 389/3/4 390/3/4
f 390/3/4 389/3/4 391/3/4
f 390/4/4 391/4/4 392/4/4
f 392/4/4 391/4/4 393/4/4
f 394/3/4 395/3/4 396/3/4
f 396/3/4 395/3/4 397/3/4
f 397/4/4 398/4/4 399/4/4
f 399/4/4 398/4/4 400/4/4
f 401/3/4 402/3/4 403/3/4
f 403/3/4 402/3/4 404/3/4
f 405/3/4 406/3/4 407/3/4
f 407/3/4 406/3/4 408/3/4
f 408/3/4 406/3/4 409/3/4
f 410/3/4 411/3/4 412/3/4
f 412/3/4 411/3/4 413/3/4
f 414/3/4 415/3/4 416/3/4
f 416/3/4 415/3/4 417/3/4
f 418/3/4 419/3/4 422/3/4
f 422/3/4 419/3/4 423/3/4
f 420/3/4 421/3/4 424/3/4
f 424/3/4 421/3/4 425/3/4
f 425/4/4 426/4/4 427/4/4
f 427/4/4 426/4/4 428/4/4
f 428/5/4 429/5/4 430/5/4
f 430/5/4 429/5/4 431/5/4
f 432/6/4 433/6/4 436/6/4
f 436/6/4 433/6/4 437/6/4
f 434/3/4 435/3/4 438/3/4
f 434/3/4 438/3/4 440/3/4
f 438/4/4 439/4/4 441/4/4
f 440/3/4 438/3/4 441/3/4
f 441/4/4 439/4/4 442/4/4
f 442/3/4 443/3/4 446/3/4
f 446/3/4 443/3/4 447/3/4
f 444/3/4 445/3/4 449/3/4
f 449/3/4 445/3/4 450/3/4
f 448/3/4 449/3/4 453/3/4
f 453/3/4 449/3/4 454/3/4
f 451/5/4 452/5/4 455/5/4
f 455/5/4 452/5/4 456/5/4
f 457/3/4 458/3/4 465/3/4
f 459/3/4 460/3/4 466/3/4
f 466/3/4 460/3/4 467/3/4
f 461/5/4 462/5/4 468/5/4
f 468/5/4 462/5/4 469/5/4
f 463/6/4 464/6/4 470/6/4
f 470/6/4 464/6/4 471/6/4
f 457/3/4 465/3/4 472/3/4
f 472/3/4 465/3/4 473/3/4
f 474/6/4 475/6/4 476/6/4
f 476/6/4 475/6/4 477/6/4
f 478/3/4 479/3/4 480/3/4
f 480/3/4 479/3/4 481/3/4
f 480/3/4 481/3/4 484/3/4
f 481/3/4 482/3/4 484/3/4
f 482/4/4 483/4/4 485/4/4
f 484/3/4 482/3/4 485/3/4
f 485/4/4 483/4/4 486/4/4
f 480/3/4 484/3/4 487/3/4
f 484/4/4 485/4/4 487/4/4
f 485/3/4 486/3/4 488/3/4
f 487/4/4 485/4/4 488/4/4
f 488/3/4 486/3/4 489/3/4
f 480/3/4 487/3/4 492/3/4
f 487/3/4 488/3/4 492/3/4
f 488/4/4 489/4/4 493/4/4
f 492/3/4 488/3/4 493/3/4
f 493/4/4 489/4/4 494/4/4
f 490/6/4 491/6/4 495/6/4
f 495/6/4 491/6/4 496/6/4
f 480/3/4 492/3/4 497/3/4
f 497/3/4 492/3/4 498/3/4
f 493/3/4 494/3/4 499/3/4
f 499/3/4 494/3/4 500/3/4
f 499/2/4 500/2/4 501/2/4
f 498/3/4 499/3/4 501/3/4
f 501/2/4 500/2/4 502/2/4
f 498/3/4 501/3/4 503/3/4
f 503/3/4 501/3/4 504/3/4
f 507/3/4 508/3/4 510/3/4
f 510/3/4 508/3/4 511/3/4
f 509/3/4 510/3/4 512/3/4
f 512/3/4 510/3/4 513/3/4
f 505/6/4 506/6/4 514/6/4
f 514/6/4 506/6/4 515/6/4
f 519/6/5 517/6/5 516/6/5
f 520/6/5 517/6/5 519/6/5
f 523/6/5 519/6/5 518/6/5
f 523/6/5 521/6/5 520/6/5
f 523/6/5 520/6/5 519/6/5
f 524/6/5 521/6/5 523/6/5
f 526/6/5 523/6/5 522/6/5
f 526/6/5 525/6/5 524/6/5
f 526/6/5 524/6/5 523/6/5
f 527/6/5 525/6/5 526/6/5
f 528/6/5 525/6/5 527/6/5
f 529/6/5 525/6/5 528/6/5
f 530/6/5 528/6/5 527/6/5
f 531/6/5 528/6/5 530/6/5
f 532/6/5 528/6/5 531/6/5
f 533/6/5 528/6/5 532/6/5
f 534/6/5 532/6/5 531/6/5
f 535/6/5 532/6/5 534/6/5
f 538/4/5 537/4/5 536/4/5
f 539/4/5 537/4/5 538/4/5
f 543/3/5 541/3/5 540/3/5
f 544/3/5 541/3/5 543/3/5
f 547/3/5 543/3/5 542/3/5
f 548/3/5 543/3/5 547/3/5
f 549/3/5 546/3/5 545/3/5
f 550/3/5 546/3/5 549/3/5
f 553/3/5 552/3/5 551/3/5
f 554/3/5 552/3/5 553/3/5
f 557/3/5 556/3/5 555/3/5
f 558/3/5 556/3/5 557/3/5
f 562/4/5 560/4/5 559/4/5
f 563/4/5 560/4/5 562/4/5
f 564/3/5 562/3/5 561/3/5
f 565/3/5 562/3/5 564/3/5
f 569/3/5 566/3/5 565/3/5
f 569/3/5 567/3/5 566/3/5
f 569/3/5 565/3/5 564/3/5
f 570/3/5 567/3/5 569/3/5
f 570/3/5 569/3/5 568/3/5
f 573/3/5 570/3/5 568/3/5
f 574/3/5 570/3/5 573/3/5
f 575/3/5 570/3/5 574/3/5
f 576/3/5 570/3/5 575/3/5
f 577/3/5 572/3/5 571/3/5
f 578/3/5 572/3/5 577/3/5
f 579/3/5 575/3/5 574/3/5
f 580/3/5 579/3/5 574/3/5
f 581/3/5 579/3/5 580/3/5
f 585/3/5 583/3/5 582/3/5
f 586/3/5 583/3/5 585/3/5
f 588/3/5 585/3/5 584/3/5
f 589/3/5 585/3/5 588/3/5
f 591/3/5 588/3/5 587/3/5
f 591/3/5 590/3/5 589/3/5
f 591/3/5 589/3/5 588/3/5
f 592/3/5 590/3/5 591/3/5
f 598/4/5 594/4/5 593/4/5
f 599/3/5 595/3/5 594/3/5
f 599/4/5 594/4/5 598/4/5
f 600/3/5 595/3/5 599/3/5
f 601/3/5 597/3/5 596/3/5
f 602/3/5 597/3/5 601/3/5
f 603/1/5 602/1/5 601/1/5
f 604/3/5 597/3/5 602/3/5
f 604/1/5 602/1/5 603/1/5
f 605/3/5 604/3/5 603/3/5
f 606/3/5 597/3/5 604/3/5
f 606/3/5 604/3/5 605/3/5
f 609/3/5 608/3/5 607/3/5
f 610/3/5 608/3/5 609/3/5
f 613/3/5 612/3/5 611/3/5
f 614/3/5 612/3/5 613/3/5
f 615/6/6 616/6/6 618/6/6
f 618/6/6 616/6/6 619/6/6
f 617/6/6 618/6/6 624/6/6
f 621/6/6 622/6/6 624/6/6
f 620/6/6 621/6/6 624/6/6
f 619/6/6 620/6/6 624/6/6
f 618/6/6 619/6/6 624/6/6
f 624/6/6 622/6/6 625/6/6
f 625/6/6 622/6/6 626/6/6
f 626/6/6 622/6/6 627/6/6
f 623/6/6 624/6/6 629/6/6
f 624/6/6 625/6/6 629/6/6
f 629/6/6 625/6/6 630/6/6
f 630/6/6 625/6/6 631/6/6
f 627/6/6 628/6/6 632/6/6
f 626/6/6 627/6/6 632/6/6
f 632/6/6 628/6/6 633/6/6
f 630/6/6 631/6/6 634/6/6
f 631/6/6 632/6/6 634/6/6
f 633/6/6 628/6/6 635/6/6
f 630/6/6 634/6/6 637/6/6
f 634/6/6 635/6/6 637/6/6
f 636/6/6 637/6/6 638/6/6
f 637/6/6 635/6/6 639/6/6
f 638/6/6 637/6/6 639/6/6
f 635/6/6 628/6/6 640/6/6
f 639/6/6 635/6/6 640/6/6
f 640/6/6 628/6/6 641/6/6
f 639/6/6 640/6/6 642/6/6
f 642/6/6 640/6/6 643/6/6
f 643/6/6 640/6/6 644/6/6
f 644/6/6 640/6/6 645/6/6
f 643/6/6 644/6/6 646/6/6
f 646/6/6 644/6/6 647/6/6
f 648/4/6 649/4/6 652/4/6
f 649/3/6 650/3/6 653/3/6
f 652/4/6 649/4/6 653/4/6
f 650/4/6 651/4/6 654/4/6
f 653/3/6 650/3/6 654/3/6
f 654/4/6 651/4/6 655/4/6
f 656/3/6 657/3/6 660/3/6
f 660/3/6 657/3/6 661/3/6
f 658/3/6 659/3/6 662/3/6
f 662/3/6 659/3/6 663/3/6
f 664/3/6 665/3/6 666/3/6
f 666/3/6 665/3/6 667/3/6
f 667/3/6 665/3/6 668/3/6
f 669/3/6 670/3/6 673/3/6
f 673/3/6 670/3/6 674/3/6
f 671/3/6 672/3/6 675/3/6
f 675/3/6 672/3/6 676/3/6
f 677/3/6 678/3/6 679/3/6
f 679/3/6 678/3/6 680/3/6
f 681/3/6 682/3/6 683/3/6
f 683/3/6 682/3/6 684/3/6
f 685/4/6 686/4/6 687/4/6
f 687/4/6 686/4/6 688/4/6
f 688/4/6 686/4/6 689/4/6
f 690/3/6 691/3/6 692/3/6
f 692/3/6 691/3/6 693/3/6
f 694/3/6 695/3/6 698/3/6
f 698/3/6 695/3/6 699/3/6
f 696/3/6 697/3/6 700/3/6
f 700/3/6 697/3/6 701/3/6
f 702/3/6 703/3/6 704/3/6
f 704/3/6 703/3/6 705/3/6
f 706/5/6 707/5/6 709/5/6
f 709/5/6 707/5/6 710/5/6
f 708/3/6 709/3/6 712/3/6
f 710/4/6 711/4/6 713/4/6
f 713/4/6 711/4/6 714/4/6
f 708/3/6 712/3/6 717/3/6
f 717/3/6 712/3/6 718/3/6
f 715/3/6 716/3/6 720/3/6
f 720/3/6 716/3/6 721/3/6
f 718/4/6 719/4/6 722/4/6
f 722/4/6 719/4/6 723/4/6
f 723/3/6 724/3/6 727/3/6
f 727/3/6 724/3/6 728/3/6
f 725/3/6 726/3/6 729/3/6
f 729/3/6 726/3/6 730/3/6
f 731/5/6 732/5/6 733/5/6
f 733/5/6 732/5/6 734/5/6
f 733/4/6 734/4/6 740/4/6
f 740/4/6 734/4/6 741/4/6
f 735/3/6 736/3/6 742/3/6
f 736/4/6 737/4/6 743/4/6
f 742/3/6 736/3/6 743/3/6
f 743/4/6 737/4/6 744/4/6
f 738/3/6 739/3/6 745/3/6
f 741/3/6 742/3/6 746/3/6
f 746/3/6 742/3/6 747/3/6
f 745/3/6 739/3/6 748/3/6
f 748/3/6 739/3/6 749/3/6
f 749/3/6 739/3/6 750/3/6
f 751/5/6 752/5/6 757/5/6
f 757/5/6 752/5/6 758/5/6
f 753/4/6 754/4/6 760/4/6
f 754/3/6 755/3/6 761/3/6
f 760/4/6 754/4/6 761/4/6
f 755/2/6 756/2/6 762/2/6
f 761/3/6 755/3/6 762/3/6
f 762/2/6 756/2/6 763/2/6
f 758/4/6 759/4/6 764/4/6
f 760/4/6 761/4/6 765/4/6
f 765/4/6 761/4/6 766/4/6
f 762/3/6 763/3/6 767/3/6
f 767/3/6 763/3/6 768/3/6
f 758/4/6 764/4/6 769/4/6
f 764/3/6 765/3/6 770/3/6
f 769/4/6 764/4/6 770/4/6
f 765/4/6 766/4/6 771/4/6
f 770/3/6 765/3/6 771/3/6
f 766/3/6 767/3/6 772/3/6
f 771/4/6 766/4/6 772/4/6
f 767/2/6 768/2/6 773/2/6
f 772/3/6 767/3/6 773/3/6
f 773/2/6 768/2/6 774/2/6
f 775/5/6 776/5/6 779/5/6
f 779/5/6 776/5/6 780/5/6
f 777/5/6 778/5/6 781/5/6
f 781/5/6 778/5/6 782/5/6
