# MagicaVoxel @ Ephtracy

# group
o 

# material
mtllib glue_monitor.mtl
usemtl palette

# normals
vn -1 0 0
vn 1 0 0
vn 0 0 1
vn 0 0 -1
vn 0 -1 0
vn 0 1 0

# texcoords
vt 0.732422 0.5
vt 0.755859 0.5
vt 0.771484 0.5
vt 0.888672 0.5
vt 0.892578 0.5
vt 0.900391 0.5
vt 0.958984 0.5
vt 0.994141 0.5

# verts
v -0.1 0 0.1
v -0.1 0 -0.1
v -0.1 0.5 0.1
v -0.1 0.5 -0.1
v 1.49012e-008 0 0.2
v 1.49012e-008 0 0.1
v 1.49012e-008 0 -0.1
v 1.49012e-008 0 -0.2
v 1.49012e-008 0.1 0.2
v 1.49012e-008 0.1 0.1
v 1.49012e-008 0.1 -0.1
v 1.49012e-008 0.1 -0.2
v 1.49012e-008 0.2 0.5
v 1.49012e-008 0.2 0.1
v 1.49012e-008 0.2 -0.1
v 1.49012e-008 0.2 -0.5
v 1.49012e-008 0.5 0.1
v 1.49012e-008 0.5 -0.1
v 1.49012e-008 0.9 0.5
v 1.49012e-008 0.9 -0.5
v 1.49012e-008 0.1 0.1
v 1.49012e-008 0.1 -0.1
v 1.49012e-008 0.2 0.1
v 1.49012e-008 0.2 -0.1
v 0.1 0 0.2
v 0.1 0 0.1
v 0.1 0 -0.1
v 0.1 0 -0.2
v 0.1 0.1 0.2
v 0.1 0.1 0.1
v 0.1 0.1 -0.1
v 0.1 0.1 -0.2
v 0.2 0 0.1
v 0.2 0 -0.1
v 0.2 0.1 0.1
v 0.2 0.1 -0.1
v 0.2 0.2 0.5
v 0.2 0.2 -0.5
v 0.2 0.3 0.4
v 0.2 0.3 0.2
v 0.2 0.3 0.1
v 0.2 0.3 0
v 0.2 0.3 -0.1
v 0.2 0.3 -0.2
v 0.2 0.3 -0.3
v 0.2 0.3 -0.4
v 0.2 0.4 0.4
v 0.2 0.4 0.3
v 0.2 0.4 0.2
v 0.2 0.4 0.1
v 0.2 0.4 0
v 0.2 0.4 -0.1
v 0.2 0.4 -0.2
v 0.2 0.4 -0.3
v 0.2 0.4 -0.4
v 0.2 0.5 0.4
v 0.2 0.5 0.3
v 0.2 0.5 0.1
v 0.2 0.5 0
v 0.2 0.5 -0.1
v 0.2 0.5 -0.3
v 0.2 0.5 -0.4
v 0.2 0.6 0.4
v 0.2 0.6 0.3
v 0.2 0.6 0
v 0.2 0.6 -0.1
v 0.2 0.6 -0.2
v 0.2 0.6 -0.4
v 0.2 0.7 0.4
v 0.2 0.7 0.3
v 0.2 0.7 0.2
v 0.2 0.7 0
v 0.2 0.7 -0.1
v 0.2 0.7 -0.2
v 0.2 0.7 -0.3
v 0.2 0.7 -0.4
v 0.2 0.8 0.4
v 0.2 0.8 0.2
v 0.2 0.8 0
v 0.2 0.8 -0.3
v 0.2 0.8 -0.4
v 0.2 0.9 0.5
v 0.2 0.9 -0.5
v 1.49012e-008 0.2 0.5
v 1.49012e-008 0.9 0.5
v 0.2 0.2 0.5
v 0.2 0.9 0.5
v 1.49012e-008 0 0.2
v 1.49012e-008 0.1 0.2
v 0.1 0 0.2
v 0.1 0.1 0.2
v -0.1 0 0.1
v -0.1 0.5 0.1
v 1.49012e-008 0 0.1
v 1.49012e-008 0.1 0.1
v 1.49012e-008 0.2 0.1
v 1.49012e-008 0.5 0.1
v 0.1 0 0.1
v 0.1 0.1 0.1
v 0.2 0 0.1
v 0.2 0.1 0.1
v -0.1 0 -0.1
v -0.1 0.5 -0.1
v 1.49012e-008 0 -0.1
v 1.49012e-008 0.1 -0.1
v 1.49012e-008 0.2 -0.1
v 1.49012e-008 0.5 -0.1
v 0.1 0 -0.1
v 0.1 0.1 -0.1
v 0.2 0 -0.1
v 0.2 0.1 -0.1
v 1.49012e-008 0 -0.2
v 1.49012e-008 0.1 -0.2
v 0.1 0 -0.2
v 0.1 0.1 -0.2
v 1.49012e-008 0.2 -0.5
v 1.49012e-008 0.9 -0.5
v 0.2 0.2 -0.5
v 0.2 0.9 -0.5
v 1.49012e-008 0 0.2
v 0.1 0 0.2
v -0.1 0 0.1
v 1.49012e-008 0 0.1
v 0.1 0 0.1
v 0.2 0 0.1
v -0.1 0 -0.1
v 1.49012e-008 0 -0.1
v 0.1 0 -0.1
v 0.2 0 -0.1
v 1.49012e-008 0 -0.2
v 0.1 0 -0.2
v 1.49012e-008 0.2 0.5
v 0.2 0.2 0.5
v 1.49012e-008 0.2 0.1
v 1.49012e-008 0.2 -0.1
v 1.49012e-008 0.2 -0.5
v 0.2 0.2 -0.5
v 1.49012e-008 0.1 0.2
v 0.1 0.1 0.2
v 1.49012e-008 0.1 0.1
v 0.1 0.1 0.1
v 0.2 0.1 0.1
v 1.49012e-008 0.1 -0.1
v 0.1 0.1 -0.1
v 0.2 0.1 -0.1
v 1.49012e-008 0.1 -0.2
v 0.1 0.1 -0.2
v -0.1 0.5 0.1
v 1.49012e-008 0.5 0.1
v -0.1 0.5 -0.1
v 1.49012e-008 0.5 -0.1
v 1.49012e-008 0.9 0.5
v 0.2 0.9 0.5
v 1.49012e-008 0.9 -0.5
v 0.2 0.9 -0.5

# faces
f 3/8/1 2/8/1 1/8/1
f 4/8/1 2/8/1 3/8/1
f 9/8/1 6/8/1 5/8/1
f 10/8/1 6/8/1 9/8/1
f 11/8/1 8/8/1 7/8/1
f 12/8/1 8/8/1 11/8/1
f 17/8/1 14/8/1 13/8/1
f 18/8/1 16/8/1 15/8/1
f 19/8/1 17/8/1 13/8/1
f 19/8/1 18/8/1 17/8/1
f 20/8/1 16/8/1 18/8/1
f 20/8/1 18/8/1 19/8/1
f 21/8/2 22/8/2 23/8/2
f 23/8/2 22/8/2 24/8/2
f 25/8/2 26/8/2 29/8/2
f 29/8/2 26/8/2 30/8/2
f 27/8/2 28/8/2 31/8/2
f 31/8/2 28/8/2 32/8/2
f 33/8/2 34/8/2 35/8/2
f 35/8/2 34/8/2 36/8/2
f 37/8/2 38/8/2 39/8/2
f 39/8/2 38/8/2 40/8/2
f 40/8/2 38/8/2 41/8/2
f 41/8/2 38/8/2 42/8/2
f 42/8/2 38/8/2 43/8/2
f 43/8/2 38/8/2 44/8/2
f 44/8/2 38/8/2 45/8/2
f 45/8/2 38/8/2 46/8/2
f 37/8/2 39/8/2 47/8/2
f 39/6/2 40/6/2 47/6/2
f 47/6/2 40/6/2 48/6/2
f 40/3/2 41/3/2 49/3/2
f 48/6/2 40/6/2 49/6/2
f 41/5/2 42/5/2 50/5/2
f 49/3/2 41/3/2 50/3/2
f 42/3/2 43/3/2 51/3/2
f 50/5/2 42/5/2 51/5/2
f 43/5/2 44/5/2 52/5/2
f 51/3/2 43/3/2 52/3/2
f 44/3/2 45/3/2 53/3/2
f 52/5/2 44/5/2 53/5/2
f 45/6/2 46/6/2 54/6/2
f 53/3/2 45/3/2 54/3/2
f 46/8/2 38/8/2 55/8/2
f 54/6/2 46/6/2 55/6/2
f 47/3/2 48/3/2 56/3/2
f 37/8/2 47/8/2 56/8/2
f 48/5/2 49/5/2 57/5/2
f 56/3/2 48/3/2 57/3/2
f 49/5/2 50/5/2 57/5/2
f 50/3/2 51/3/2 58/3/2
f 57/5/2 50/5/2 58/5/2
f 51/5/2 52/5/2 59/5/2
f 58/3/2 51/3/2 59/3/2
f 53/4/2 54/4/2 60/4/2
f 59/5/2 52/5/2 60/5/2
f 52/4/2 53/4/2 60/4/2
f 54/3/2 55/3/2 61/3/2
f 60/4/2 54/4/2 61/4/2
f 55/8/2 38/8/2 62/8/2
f 61/3/2 55/3/2 62/3/2
f 58/4/2 59/4/2 63/4/2
f 57/4/2 58/4/2 63/4/2
f 37/8/2 56/8/2 63/8/2
f 56/4/2 57/4/2 63/4/2
f 63/4/2 59/4/2 64/4/2
f 61/1/2 62/1/2 65/1/2
f 64/4/2 59/4/2 65/4/2
f 60/1/2 61/1/2 65/1/2
f 59/1/2 60/1/2 65/1/2
f 65/1/2 62/1/2 66/1/2
f 66/1/2 62/1/2 67/1/2
f 62/8/2 38/8/2 68/8/2
f 67/1/2 62/1/2 68/1/2
f 63/7/2 64/7/2 69/7/2
f 37/8/2 63/8/2 69/8/2
f 64/1/2 65/1/2 70/1/2
f 69/7/2 64/7/2 70/7/2
f 65/1/2 66/1/2 70/1/2
f 70/1/2 66/1/2 71/1/2
f 71/1/2 66/1/2 72/1/2
f 66/7/2 67/7/2 73/7/2
f 72/1/2 66/1/2 73/1/2
f 67/2/2 68/2/2 74/2/2
f 73/7/2 67/7/2 74/7/2
f 74/2/2 68/2/2 75/2/2
f 68/8/2 38/8/2 76/8/2
f 75/2/2 68/2/2 76/2/2
f 37/8/2 69/8/2 77/8/2
f 69/2/2 70/2/2 77/2/2
f 70/2/2 71/2/2 77/2/2
f 71/7/2 72/7/2 78/7/2
f 77/2/2 71/2/2 78/2/2
f 74/2/2 75/2/2 79/2/2
f 78/7/2 72/7/2 79/7/2
f 72/2/2 73/2/2 79/2/2
f 73/2/2 74/2/2 79/2/2
f 75/7/2 76/7/2 80/7/2
f 79/2/2 75/2/2 80/2/2
f 76/8/2 38/8/2 81/8/2
f 80/7/2 76/7/2 81/7/2
f 37/8/2 77/8/2 82/8/2
f 77/8/2 78/8/2 82/8/2
f 80/8/2 81/8/2 82/8/2
f 79/8/2 80/8/2 82/8/2
f 78/8/2 79/8/2 82/8/2
f 81/8/2 38/8/2 83/8/2
f 82/8/2 81/8/2 83/8/2
f 86/8/3 85/8/3 84/8/3
f 87/8/3 85/8/3 86/8/3
f 90/8/3 89/8/3 88/8/3
f 91/8/3 89/8/3 90/8/3
f 94/8/3 93/8/3 92/8/3
f 95/8/3 93/8/3 94/8/3
f 96/8/3 93/8/3 95/8/3
f 97/8/3 93/8/3 96/8/3
f 100/8/3 99/8/3 98/8/3
f 101/8/3 99/8/3 100/8/3
f 102/8/4 103/8/4 104/8/4
f 104/8/4 103/8/4 105/8/4
f 105/8/4 103/8/4 106/8/4
f 106/8/4 103/8/4 107/8/4
f 108/8/4 109/8/4 110/8/4
f 110/8/4 109/8/4 111/8/4
f 112/8/4 113/8/4 114/8/4
f 114/8/4 113/8/4 115/8/4
f 116/8/4 117/8/4 118/8/4
f 118/8/4 117/8/4 119/8/4
f 123/8/5 121/8/5 120/8/5
f 124/8/5 121/8/5 123/8/5
f 126/8/5 123/8/5 122/8/5
f 126/8/5 125/8/5 124/8/5
f 126/8/5 124/8/5 123/8/5
f 127/8/5 125/8/5 126/8/5
f 128/8/5 125/8/5 127/8/5
f 129/8/5 125/8/5 128/8/5
f 130/8/5 128/8/5 127/8/5
f 131/8/5 128/8/5 130/8/5
f 134/8/5 133/8/5 132/8/5
f 135/8/5 133/8/5 134/8/5
f 136/8/5 133/8/5 135/8/5
f 137/8/5 133/8/5 136/8/5
f 138/8/6 139/8/6 140/8/6
f 140/8/6 139/8/6 141/8/6
f 140/8/6 141/8/6 143/8/6
f 141/8/6 142/8/6 143/8/6
f 143/8/6 142/8/6 144/8/6
f 144/8/6 142/8/6 145/8/6
f 143/8/6 144/8/6 146/8/6
f 146/8/6 144/8/6 147/8/6
f 148/8/6 149/8/6 150/8/6
f 150/8/6 149/8/6 151/8/6
f 152/8/6 153/8/6 154/8/6
f 154/8/6 153/8/6 155/8/6
