# MagicaVoxel @ Ephtracy

# group
o 

# material
mtllib glue_ceiling_a.mtl
usemtl palette

# normals
vn -1 0 0
vn 1 0 0
vn 0 0 1
vn 0 0 -1
vn 0 -1 0
vn 0 1 0

# texcoords
vt 0.970703 0.5
vt 0.974609 0.5
vt 0.978516 0.5
vt 0.982422 0.5

# verts
v -2 3.9 2
v -2 3.9 -2
v -2 4 2
v -2 4 -2
v -1.9 4 1.6
v -1.9 4 -1.6
v -1.9 4.1 1.6
v -1.9 4.1 -1.6
v 1.9 3.9 1.6
v 1.9 3.9 -1.6
v 1.9 4 1.6
v 1.9 4 -1.6
v -1.9 3.9 1.6
v -1.9 3.9 -1.6
v -1.9 4 1.6
v -1.9 4 -1.6
v 1.9 4 1.6
v 1.9 4 -1.6
v 1.9 4.1 1.6
v 1.9 4.1 -1.6
v 2 3.9 2
v 2 3.9 -2
v 2 4 2
v 2 4 -2
v -2 3.9 2
v -2 4 2
v 2 3.9 2
v 2 4 2
v -1.9 4 1.6
v -1.9 4.1 1.6
v 1.9 4 1.6
v 1.9 4.1 1.6
v -1.9 3.9 -1.6
v -1.9 4 -1.6
v 1.9 3.9 -1.6
v 1.9 4 -1.6
v -1.9 3.9 1.6
v -1.9 4 1.6
v 1.9 3.9 1.6
v 1.9 4 1.6
v -1.9 4 -1.6
v -1.9 4.1 -1.6
v 1.9 4 -1.6
v 1.9 4.1 -1.6
v -2 3.9 -2
v -2 4 -2
v 2 3.9 -2
v 2 4 -2
v -2 3.9 2
v 2 3.9 2
v -1.9 3.9 1.9
v 1.9 3.9 1.9
v -1.9 3.9 1.8
v 1.9 3.9 1.8
v -1.9 3.9 1.6
v 1.9 3.9 1.6
v -1.9 3.9 -1.6
v 1.9 3.9 -1.6
v -1.9 3.9 -1.8
v 1.9 3.9 -1.8
v -1.9 3.9 -1.9
v 1.9 3.9 -1.9
v -2 3.9 -2
v 2 3.9 -2
v -1.9 4 1.6
v 1.9 4 1.6
v -1.8 4 1.5
v -0.0999999 4 1.5
v 0.1 4 1.5
v 1.8 4 1.5
v -1.7 4 1.4
v -0.2 4 1.4
v 0.2 4 1.4
v 1.7 4 1.4
v -1.6 4 1.3
v -1.5 4 1.3
v -0.4 4 1.3
v -0.3 4 1.3
v 0.3 4 1.3
v 0.4 4 1.3
v 1.5 4 1.3
v 1.6 4 1.3
v -1.6 4 1.2
v -1.5 4 1.2
v -0.4 4 1.2
v -0.3 4 1.2
v 0.3 4 1.2
v 0.4 4 1.2
v 1.5 4 1.2
v 1.6 4 1.2
v -1.6 4 0.4
v -1.5 4 0.4
v -0.4 4 0.4
v -0.3 4 0.4
v 0.3 4 0.4
v 0.4 4 0.4
v 1.5 4 0.4
v 1.6 4 0.4
v -1.6 4 0.3
v -1.5 4 0.3
v -0.4 4 0.3
v -0.3 4 0.3
v 0.3 4 0.3
v 0.4 4 0.3
v 1.5 4 0.3
v 1.6 4 0.3
v -1.7 4 0.2
v -0.2 4 0.2
v 0.2 4 0.2
v 1.7 4 0.2
v -1.8 4 0.0999999
v -0.0999999 4 0.0999999
v 0.1 4 0.0999999
v 1.8 4 0.0999999
v -1.8 4 -0.1
v -0.0999999 4 -0.1
v 0.1 4 -0.1
v 1.8 4 -0.1
v -1.7 4 -0.2
v -0.2 4 -0.2
v 0.2 4 -0.2
v 1.7 4 -0.2
v -1.6 4 -0.3
v -1.5 4 -0.3
v -0.4 4 -0.3
v -0.3 4 -0.3
v 0.3 4 -0.3
v 0.4 4 -0.3
v 1.5 4 -0.3
v 1.6 4 -0.3
v -1.6 4 -0.4
v -1.5 4 -0.4
v -0.4 4 -0.4
v -0.3 4 -0.4
v 0.3 4 -0.4
v 0.4 4 -0.4
v 1.5 4 -0.4
v 1.6 4 -0.4
v -1.6 4 -1.2
v -1.5 4 -1.2
v -0.4 4 -1.2
v -0.3 4 -1.2
v 0.3 4 -1.2
v 0.4 4 -1.2
v 1.5 4 -1.2
v 1.6 4 -1.2
v -1.6 4 -1.3
v -1.5 4 -1.3
v -0.4 4 -1.3
v -0.3 4 -1.3
v 0.3 4 -1.3
v 0.4 4 -1.3
v 1.5 4 -1.3
v 1.6 4 -1.3
v -1.7 4 -1.4
v -0.2 4 -1.4
v 0.2 4 -1.4
v 1.7 4 -1.4
v -1.8 4 -1.5
v -0.0999999 4 -1.5
v 0.1 4 -1.5
v 1.8 4 -1.5
v -1.9 4 -1.6
v 1.9 4 -1.6
v -2 4 2
v 2 4 2
v -1.9 4 1.9
v 1.9 4 1.9
v -1.9 4 1.8
v 1.9 4 1.8
v -1.9 4 1.6
v 1.9 4 1.6
v -1.9 4 -1.6
v 1.9 4 -1.6
v -1.9 4 -1.8
v 1.9 4 -1.8
v -1.9 4 -1.9
v 1.9 4 -1.9
v -2 4 -2
v 2 4 -2
v -1.9 4.1 1.6
v 1.9 4.1 1.6
v -1.8 4.1 1.5
v -0.0999999 4.1 1.5
v 0.1 4.1 1.5
v 1.8 4.1 1.5
v -1.7 4.1 1.4
v -0.2 4.1 1.4
v 0.2 4.1 1.4
v 1.7 4.1 1.4
v -1.6 4.1 1.3
v -1.5 4.1 1.3
v -0.4 4.1 1.3
v -0.3 4.1 1.3
v 0.3 4.1 1.3
v 0.4 4.1 1.3
v 1.5 4.1 1.3
v 1.6 4.1 1.3
v -1.6 4.1 1.2
v -1.5 4.1 1.2
v -0.4 4.1 1.2
v -0.3 4.1 1.2
v 0.3 4.1 1.2
v 0.4 4.1 1.2
v 1.5 4.1 1.2
v 1.6 4.1 1.2
v -1.6 4.1 0.4
v -1.5 4.1 0.4
v -0.4 4.1 0.4
v -0.3 4.1 0.4
v 0.3 4.1 0.4
v 0.4 4.1 0.4
v 1.5 4.1 0.4
v 1.6 4.1 0.4
v -1.6 4.1 0.3
v -1.5 4.1 0.3
v -0.4 4.1 0.3
v -0.3 4.1 0.3
v 0.3 4.1 0.3
v 0.4 4.1 0.3
v 1.5 4.1 0.3
v 1.6 4.1 0.3
v -1.7 4.1 0.2
v -0.2 4.1 0.2
v 0.2 4.1 0.2
v 1.7 4.1 0.2
v -1.8 4.1 0.0999999
v -0.0999999 4.1 0.0999999
v 0.1 4.1 0.0999999
v 1.8 4.1 0.0999999
v -1.8 4.1 -0.1
v -0.0999999 4.1 -0.1
v 0.1 4.1 -0.1
v 1.8 4.1 -0.1
v -1.7 4.1 -0.2
v -0.2 4.1 -0.2
v 0.2 4.1 -0.2
v 1.7 4.1 -0.2
v -1.6 4.1 -0.3
v -1.5 4.1 -0.3
v -0.4 4.1 -0.3
v -0.3 4.1 -0.3
v 0.3 4.1 -0.3
v 0.4 4.1 -0.3
v 1.5 4.1 -0.3
v 1.6 4.1 -0.3
v -1.6 4.1 -0.4
v -1.5 4.1 -0.4
v -0.4 4.1 -0.4
v -0.3 4.1 -0.4
v 0.3 4.1 -0.4
v 0.4 4.1 -0.4
v 1.5 4.1 -0.4
v 1.6 4.1 -0.4
v -1.6 4.1 -1.2
v -1.5 4.1 -1.2
v -0.4 4.1 -1.2
v -0.3 4.1 -1.2
v 0.3 4.1 -1.2
v 0.4 4.1 -1.2
v 1.5 4.1 -1.2
v 1.6 4.1 -1.2
v -1.6 4.1 -1.3
v -1.5 4.1 -1.3
v -0.4 4.1 -1.3
v -0.3 4.1 -1.3
v 0.3 4.1 -1.3
v 0.4 4.1 -1.3
v 1.5 4.1 -1.3
v 1.6 4.1 -1.3
v -1.7 4.1 -1.4
v -0.2 4.1 -1.4
v 0.2 4.1 -1.4
v 1.7 4.1 -1.4
v -1.8 4.1 -1.5
v -0.0999999 4.1 -1.5
v 0.1 4.1 -1.5
v 1.8 4.1 -1.5
v -1.9 4.1 -1.6
v 1.9 4.1 -1.6

# faces
f 3/4/1 2/4/1 1/4/1
f 4/4/1 2/4/1 3/4/1
f 7/3/1 6/3/1 5/3/1
f 8/3/1 6/3/1 7/3/1
f 11/4/1 10/4/1 9/4/1
f 12/4/1 10/4/1 11/4/1
f 13/4/2 14/4/2 15/4/2
f 15/4/2 14/4/2 16/4/2
f 17/3/2 18/3/2 19/3/2
f 19/3/2 18/3/2 20/3/2
f 21/4/2 22/4/2 23/4/2
f 23/4/2 22/4/2 24/4/2
f 27/4/3 26/4/3 25/4/3
f 28/4/3 26/4/3 27/4/3
f 31/3/3 30/3/3 29/3/3
f 32/3/3 30/3/3 31/3/3
f 35/4/3 34/4/3 33/4/3
f 36/4/3 34/4/3 35/4/3
f 37/4/4 38/4/4 39/4/4
f 39/4/4 38/4/4 40/4/4
f 41/3/4 42/3/4 43/3/4
f 43/3/4 42/3/4 44/3/4
f 45/4/4 46/4/4 47/4/4
f 47/4/4 46/4/4 48/4/4
f 51/4/5 50/4/5 49/4/5
f 52/4/5 50/4/5 51/4/5
f 53/4/5 51/4/5 49/4/5
f 53/3/5 52/3/5 51/3/5
f 54/4/5 50/4/5 52/4/5
f 54/3/5 52/3/5 53/3/5
f 55/4/5 53/4/5 49/4/5
f 55/4/5 54/4/5 53/4/5
f 56/4/5 50/4/5 54/4/5
f 56/4/5 54/4/5 55/4/5
f 57/4/5 55/4/5 49/4/5
f 58/4/5 50/4/5 56/4/5
f 59/4/5 57/4/5 49/4/5
f 59/4/5 58/4/5 57/4/5
f 60/4/5 50/4/5 58/4/5
f 60/4/5 58/4/5 59/4/5
f 61/4/5 59/4/5 49/4/5
f 61/3/5 60/3/5 59/3/5
f 62/4/5 50/4/5 60/4/5
f 62/3/5 60/3/5 61/3/5
f 63/4/5 61/4/5 49/4/5
f 63/4/5 62/4/5 61/4/5
f 64/4/5 50/4/5 62/4/5
f 64/4/5 62/4/5 63/4/5
f 67/3/5 66/3/5 65/3/5
f 68/3/5 66/3/5 67/3/5
f 69/3/5 66/3/5 68/3/5
f 70/3/5 66/3/5 69/3/5
f 71/4/5 68/4/5 67/4/5
f 72/4/5 68/4/5 71/4/5
f 73/4/5 70/4/5 69/4/5
f 74/4/5 70/4/5 73/4/5
f 75/2/5 72/2/5 71/2/5
f 76/2/5 72/2/5 75/2/5
f 77/2/5 72/2/5 76/2/5
f 78/2/5 72/2/5 77/2/5
f 79/2/5 74/2/5 73/2/5
f 80/2/5 74/2/5 79/2/5
f 81/2/5 74/2/5 80/2/5
f 82/2/5 74/2/5 81/2/5
f 83/2/5 75/2/5 71/2/5
f 83/1/5 76/1/5 75/1/5
f 84/2/5 77/2/5 76/2/5
f 84/1/5 76/1/5 83/1/5
f 85/1/5 78/1/5 77/1/5
f 85/2/5 77/2/5 84/2/5
f 86/2/5 72/2/5 78/2/5
f 86/1/5 78/1/5 85/1/5
f 87/2/5 79/2/5 73/2/5
f 87/1/5 80/1/5 79/1/5
f 88/2/5 81/2/5 80/2/5
f 88/1/5 80/1/5 87/1/5
f 89/1/5 82/1/5 81/1/5
f 89/2/5 81/2/5 88/2/5
f 90/2/5 74/2/5 82/2/5
f 90/1/5 82/1/5 89/1/5
f 91/2/5 85/2/5 84/2/5
f 91/2/5 83/2/5 71/2/5
f 91/2/5 84/2/5 83/2/5
f 91/2/5 86/2/5 85/2/5
f 92/2/5 86/2/5 91/2/5
f 93/2/5 86/2/5 92/2/5
f 94/2/5 72/2/5 86/2/5
f 94/2/5 86/2/5 93/2/5
f 95/2/5 89/2/5 88/2/5
f 95/2/5 88/2/5 87/2/5
f 95/2/5 90/2/5 89/2/5
f 95/2/5 87/2/5 73/2/5
f 96/2/5 90/2/5 95/2/5
f 97/2/5 90/2/5 96/2/5
f 98/2/5 74/2/5 90/2/5
f 98/2/5 90/2/5 97/2/5
f 99/1/5 92/1/5 91/1/5
f 99/2/5 91/2/5 71/2/5
f 100/2/5 93/2/5 92/2/5
f 100/1/5 92/1/5 99/1/5
f 101/1/5 94/1/5 93/1/5
f 101/2/5 93/2/5 100/2/5
f 102/2/5 72/2/5 94/2/5
f 102/1/5 94/1/5 101/1/5
f 103/2/5 95/2/5 73/2/5
f 103/1/5 96/1/5 95/1/5
f 104/2/5 97/2/5 96/2/5
f 104/1/5 96/1/5 103/1/5
f 105/1/5 98/1/5 97/1/5
f 105/2/5 97/2/5 104/2/5
f 106/2/5 74/2/5 98/2/5
f 106/1/5 98/1/5 105/1/5
f 107/4/5 71/4/5 67/4/5
f 107/2/5 101/2/5 100/2/5
f 107/2/5 100/2/5 99/2/5
f 107/2/5 102/2/5 101/2/5
f 107/2/5 99/2/5 71/2/5
f 108/4/5 68/4/5 72/4/5
f 108/2/5 102/2/5 107/2/5
f 108/2/5 72/2/5 102/2/5
f 109/4/5 73/4/5 69/4/5
f 109/2/5 103/2/5 73/2/5
f 109/2/5 106/2/5 105/2/5
f 109/2/5 105/2/5 104/2/5
f 109/2/5 104/2/5 103/2/5
f 110/2/5 74/2/5 106/2/5
f 110/2/5 106/2/5 109/2/5
f 110/4/5 70/4/5 74/4/5
f 111/3/5 67/3/5 65/3/5
f 111/4/5 107/4/5 67/4/5
f 111/4/5 108/4/5 107/4/5
f 112/3/5 69/3/5 68/3/5
f 112/4/5 108/4/5 111/4/5
f 112/4/5 68/4/5 108/4/5
f 113/4/5 110/4/5 109/4/5
f 113/3/5 69/3/5 112/3/5
f 113/4/5 109/4/5 69/4/5
f 114/4/5 70/4/5 110/4/5
f 114/4/5 110/4/5 113/4/5
f 114/3/5 66/3/5 70/3/5
f 115/3/5 113/3/5 112/3/5
f 115/3/5 112/3/5 111/3/5
f 115/3/5 114/3/5 113/3/5
f 115/3/5 111/3/5 65/3/5
f 116/3/5 114/3/5 115/3/5
f 117/3/5 114/3/5 116/3/5
f 118/3/5 66/3/5 114/3/5
f 118/3/5 114/3/5 117/3/5
f 119/4/5 116/4/5 115/4/5
f 120/4/5 116/4/5 119/4/5
f 121/4/5 118/4/5 117/4/5
f 122/4/5 118/4/5 121/4/5
f 123/2/5 120/2/5 119/2/5
f 124/2/5 120/2/5 123/2/5
f 125/2/5 120/2/5 124/2/5
f 126/2/5 120/2/5 125/2/5
f 127/2/5 122/2/5 121/2/5
f 128/2/5 122/2/5 127/2/5
f 129/2/5 122/2/5 128/2/5
f 130/2/5 122/2/5 129/2/5
f 131/2/5 123/2/5 119/2/5
f 131/1/5 124/1/5 123/1/5
f 132/2/5 125/2/5 124/2/5
f 132/1/5 124/1/5 131/1/5
f 133/1/5 126/1/5 125/1/5
f 133/2/5 125/2/5 132/2/5
f 134/2/5 120/2/5 126/2/5
f 134/1/5 126/1/5 133/1/5
f 135/2/5 127/2/5 121/2/5
f 135/1/5 128/1/5 127/1/5
f 136/2/5 129/2/5 128/2/5
f 136/1/5 128/1/5 135/1/5
f 137/1/5 130/1/5 129/1/5
f 137/2/5 129/2/5 136/2/5
f 138/2/5 122/2/5 130/2/5
f 138/1/5 130/1/5 137/1/5
f 139/2/5 133/2/5 132/2/5
f 139/2/5 131/2/5 119/2/5
f 139/2/5 132/2/5 131/2/5
f 139/2/5 134/2/5 133/2/5
f 140/2/5 134/2/5 139/2/5
f 141/2/5 134/2/5 140/2/5
f 142/2/5 120/2/5 134/2/5
f 142/2/5 134/2/5 141/2/5
f 143/2/5 137/2/5 136/2/5
f 143/2/5 136/2/5 135/2/5
f 143/2/5 138/2/5 137/2/5
f 143/2/5 135/2/5 121/2/5
f 144/2/5 138/2/5 143/2/5
f 145/2/5 138/2/5 144/2/5
f 146/2/5 122/2/5 138/2/5
f 146/2/5 138/2/5 145/2/5
f 147/1/5 140/1/5 139/1/5
f 147/2/5 139/2/5 119/2/5
f 148/2/5 141/2/5 140/2/5
f 148/1/5 140/1/5 147/1/5
f 149/1/5 142/1/5 141/1/5
f 149/2/5 141/2/5 148/2/5
f 150/2/5 120/2/5 142/2/5
f 150/1/5 142/1/5 149/1/5
f 151/2/5 143/2/5 121/2/5
f 151/1/5 144/1/5 143/1/5
f 152/2/5 145/2/5 144/2/5
f 152/1/5 144/1/5 151/1/5
f 153/1/5 146/1/5 145/1/5
f 153/2/5 145/2/5 152/2/5
f 154/2/5 122/2/5 146/2/5
f 154/1/5 146/1/5 153/1/5
f 155/4/5 119/4/5 115/4/5
f 155/2/5 149/2/5 148/2/5
f 155/2/5 148/2/5 147/2/5
f 155/2/5 150/2/5 149/2/5
f 155/2/5 147/2/5 119/2/5
f 156/4/5 116/4/5 120/4/5
f 156/2/5 150/2/5 155/2/5
f 156/2/5 120/2/5 150/2/5
f 157/4/5 121/4/5 117/4/5
f 157/2/5 151/2/5 121/2/5
f 157/2/5 154/2/5 153/2/5
f 157/2/5 153/2/5 152/2/5
f 157/2/5 152/2/5 151/2/5
f 158/2/5 122/2/5 154/2/5
f 158/2/5 154/2/5 157/2/5
f 158/4/5 118/4/5 122/4/5
f 159/3/5 115/3/5 65/3/5
f 159/4/5 155/4/5 115/4/5
f 159/4/5 156/4/5 155/4/5
f 160/3/5 117/3/5 116/3/5
f 160/4/5 156/4/5 159/4/5
f 160/4/5 116/4/5 156/4/5
f 161/4/5 158/4/5 157/4/5
f 161/3/5 117/3/5 160/3/5
f 161/4/5 157/4/5 117/4/5
f 162/4/5 118/4/5 158/4/5
f 162/4/5 158/4/5 161/4/5
f 162/3/5 66/3/5 118/3/5
f 163/3/5 159/3/5 65/3/5
f 163/3/5 161/3/5 160/3/5
f 163/3/5 162/3/5 161/3/5
f 163/3/5 160/3/5 159/3/5
f 164/3/5 66/3/5 162/3/5
f 164/3/5 162/3/5 163/3/5
f 165/4/6 166/4/6 167/4/6
f 167/4/6 166/4/6 168/4/6
f 165/4/6 167/4/6 169/4/6
f 167/3/6 168/3/6 169/3/6
f 168/4/6 166/4/6 170/4/6
f 169/3/6 168/3/6 170/3/6
f 165/4/6 169/4/6 171/4/6
f 169/4/6 170/4/6 171/4/6
f 170/4/6 166/4/6 172/4/6
f 171/4/6 170/4/6 172/4/6
f 165/4/6 171/4/6 173/4/6
f 172/4/6 166/4/6 174/4/6
f 165/4/6 173/4/6 175/4/6
f 173/4/6 174/4/6 175/4/6
f 174/4/6 166/4/6 176/4/6
f 175/4/6 174/4/6 176/4/6
f 165/4/6 175/4/6 177/4/6
f 175/3/6 176/3/6 177/3/6
f 176/4/6 166/4/6 178/4/6
f 177/3/6 176/3/6 178/3/6
f 165/4/6 177/4/6 179/4/6
f 177/4/6 178/4/6 179/4/6
f 178/4/6 166/4/6 180/4/6
f 179/4/6 178/4/6 180/4/6
f 181/3/6 182/3/6 183/3/6
f 183/3/6 182/3/6 184/3/6
f 184/3/6 182/3/6 185/3/6
f 185/3/6 182/3/6 186/3/6
f 183/4/6 184/4/6 187/4/6
f 187/4/6 184/4/6 188/4/6
f 185/4/6 186/4/6 189/4/6
f 189/4/6 186/4/6 190/4/6
f 187/2/6 188/2/6 191/2/6
f 191/2/6 188/2/6 192/2/6
f 192/2/6 188/2/6 193/2/6
f 193/2/6 188/2/6 194/2/6
f 189/2/6 190/2/6 195/2/6
f 195/2/6 190/2/6 196/2/6
f 196/2/6 190/2/6 197/2/6
f 197/2/6 190/2/6 198/2/6
f 187/2/6 191/2/6 199/2/6
f 191/1/6 192/1/6 199/1/6
f 192/2/6 193/2/6 200/2/6
f 199/1/6 192/1/6 200/1/6
f 193/1/6 194/1/6 201/1/6
f 200/2/6 193/2/6 201/2/6
f 194/2/6 188/2/6 202/2/6
f 201/1/6 194/1/6 202/1/6
f 189/2/6 195/2/6 203/2/6
f 195/1/6 196/1/6 203/1/6
f 196/2/6 197/2/6 204/2/6
f 203/1/6 196/1/6 204/1/6
f 197/1/6 198/1/6 205/1/6
f 204/2/6 197/2/6 205/2/6
f 198/2/6 190/2/6 206/2/6
f 205/1/6 198/1/6 206/1/6
f 200/2/6 201/2/6 207/2/6
f 187/2/6 199/2/6 207/2/6
f 199/2/6 200/2/6 207/2/6
f 201/2/6 202/2/6 207/2/6
f 207/2/6 202/2/6 208/2/6
f 208/2/6 202/2/6 209/2/6
f 202/2/6 188/2/6 210/2/6
f 209/2/6 202/2/6 210/2/6
f 204/2/6 205/2/6 211/2/6
f 203/2/6 204/2/6 211/2/6
f 205/2/6 206/2/6 211/2/6
f 189/2/6 203/2/6 211/2/6
f 211/2/6 206/2/6 212/2/6
f 212/2/6 206/2/6 213/2/6
f 206/2/6 190/2/6 214/2/6
f 213/2/6 206/2/6 214/2/6
f 207/1/6 208/1/6 215/1/6
f 187/2/6 207/2/6 215/2/6
f 208/2/6 209/2/6 216/2/6
f 215/1/6 208/1/6 216/1/6
f 209/1/6 210/1/6 217/1/6
f 216/2/6 209/2/6 217/2/6
f 210/2/6 188/2/6 218/2/6
f 217/1/6 210/1/6 218/1/6
f 189/2/6 211/2/6 219/2/6
f 211/1/6 212/1/6 219/1/6
f 212/2/6 213/2/6 220/2/6
f 219/1/6 212/1/6 220/1/6
f 213/1/6 214/1/6 221/1/6
f 220/2/6 213/2/6 221/2/6
f 214/2/6 190/2/6 222/2/6
f 221/1/6 214/1/6 222/1/6
f 183/4/6 187/4/6 223/4/6
f 216/2/6 217/2/6 223/2/6
f 215/2/6 216/2/6 223/2/6
f 217/2/6 218/2/6 223/2/6
f 187/2/6 215/2/6 223/2/6
f 188/4/6 184/4/6 224/4/6
f 223/2/6 218/2/6 224/2/6
f 218/2/6 188/2/6 224/2/6
f 185/4/6 189/4/6 225/4/6
f 189/2/6 219/2/6 225/2/6
f 221/2/6 222/2/6 225/2/6
f 220/2/6 221/2/6 225/2/6
f 219/2/6 220/2/6 225/2/6
f 222/2/6 190/2/6 226/2/6
f 225/2/6 222/2/6 226/2/6
f 190/4/6 186/4/6 226/4/6
f 181/3/6 183/3/6 227/3/6
f 183/4/6 223/4/6 227/4/6
f 223/4/6 224/4/6 227/4/6
f 184/3/6 185/3/6 228/3/6
f 227/4/6 224/4/6 228/4/6
f 224/4/6 184/4/6 228/4/6
f 225/4/6 226/4/6 229/4/6
f 228/3/6 185/3/6 229/3/6
f 185/4/6 225/4/6 229/4/6
f 226/4/6 186/4/6 230/4/6
f 229/4/6 226/4/6 230/4/6
f 186/3/6 182/3/6 230/3/6
f 228/3/6 229/3/6 231/3/6
f 227/3/6 228/3/6 231/3/6
f 229/3/6 230/3/6 231/3/6
f 181/3/6 227/3/6 231/3/6
f 231/3/6 230/3/6 232/3/6
f 232/3/6 230/3/6 233/3/6
f 230/3/6 182/3/6 234/3/6
f 233/3/6 230/3/6 234/3/6
f 231/4/6 232/4/6 235/4/6
f 235/4/6 232/4/6 236/4/6
f 233/4/6 234/4/6 237/4/6
f 237/4/6 234/4/6 238/4/6
f 235/2/6 236/2/6 239/2/6
f 239/2/6 236/2/6 240/2/6
f 240/2/6 236/2/6 241/2/6
f 241/2/6 236/2/6 242/2/6
f 237/2/6 238/2/6 243/2/6
f 243/2/6 238/2/6 244/2/6
f 244/2/6 238/2/6 245/2/6
f 245/2/6 238/2/6 246/2/6
f 235/2/6 239/2/6 247/2/6
f 239/1/6 240/1/6 247/1/6
f 240/2/6 241/2/6 248/2/6
f 247/1/6 240/1/6 248/1/6
f 241/1/6 242/1/6 249/1/6
f 248/2/6 241/2/6 249/2/6
f 242/2/6 236/2/6 250/2/6
f 249/1/6 242/1/6 250/1/6
f 237/2/6 243/2/6 251/2/6
f 243/1/6 244/1/6 251/1/6
f 244/2/6 245/2/6 252/2/6
f 251/1/6 244/1/6 252/1/6
f 245/1/6 246/1/6 253/1/6
f 252/2/6 245/2/6 253/2/6
f 246/2/6 238/2/6 254/2/6
f 253/1/6 246/1/6 254/1/6
f 248/2/6 249/2/6 255/2/6
f 235/2/6 247/2/6 255/2/6
f 247/2/6 248/2/6 255/2/6
f 249/2/6 250/2/6 255/2/6
f 255/2/6 250/2/6 256/2/6
f 256/2/6 250/2/6 257/2/6
f 250/2/6 236/2/6 258/2/6
f 257/2/6 250/2/6 258/2/6
f 252/2/6 253/2/6 259/2/6
f 251/2/6 252/2/6 259/2/6
f 253/2/6 254/2/6 259/2/6
f 237/2/6 251/2/6 259/2/6
f 259/2/6 254/2/6 260/2/6
f 260/2/6 254/2/6 261/2/6
f 254/2/6 238/2/6 262/2/6
f 261/2/6 254/2/6 262/2/6
f 255/1/6 256/1/6 263/1/6
f 235/2/6 255/2/6 263/2/6
f 256/2/6 257/2/6 264/2/6
f 263/1/6 256/1/6 264/1/6
f 257/1/6 258/1/6 265/1/6
f 264/2/6 257/2/6 265/2/6
f 258/2/6 236/2/6 266/2/6
f 265/1/6 258/1/6 266/1/6
f 237/2/6 259/2/6 267/2/6
f 259/1/6 260/1/6 267/1/6
f 260/2/6 261/2/6 268/2/6
f 267/1/6 260/1/6 268/1/6
f 261/1/6 262/1/6 269/1/6
f 268/2/6 261/2/6 269/2/6
f 262/2/6 238/2/6 270/2/6
f 269/1/6 262/1/6 270/1/6
f 231/4/6 235/4/6 271/4/6
f 264/2/6 265/2/6 271/2/6
f 263/2/6 264/2/6 271/2/6
f 265/2/6 266/2/6 271/2/6
f 235/2/6 263/2/6 271/2/6
f 236/4/6 232/4/6 272/4/6
f 271/2/6 266/2/6 272/2/6
f 266/2/6 236/2/6 272/2/6
f 233/4/6 237/4/6 273/4/6
f 237/2/6 267/2/6 273/2/6
f 269/2/6 270/2/6 273/2/6
f 268/2/6 269/2/6 273/2/6
f 267/2/6 268/2/6 273/2/6
f 270/2/6 238/2/6 274/2/6
f 273/2/6 270/2/6 274/2/6
f 238/4/6 234/4/6 274/4/6
f 181/3/6 231/3/6 275/3/6
f 231/4/6 271/4/6 275/4/6
f 271/4/6 272/4/6 275/4/6
f 232/3/6 233/3/6 276/3/6
f 275/4/6 272/4/6 276/4/6
f 272/4/6 232/4/6 276/4/6
f 273/4/6 274/4/6 277/4/6
f 276/3/6 233/3/6 277/3/6
f 233/4/6 273/4/6 277/4/6
f 274/4/6 234/4/6 278/4/6
f 277/4/6 274/4/6 278/4/6
f 234/3/6 182/3/6 278/3/6
f 181/3/6 275/3/6 279/3/6
f 276/3/6 277/3/6 279/3/6
f 277/3/6 278/3/6 279/3/6
f 275/3/6 276/3/6 279/3/6
f 278/3/6 182/3/6 280/3/6
f 279/3/6 278/3/6 280/3/6
