# MagicaVoxel @ Ephtracy

# group
o 

# material
mtllib glue_head.mtl
usemtl palette

# normals
vn -1 0 0
vn 1 0 0
vn 0 0 1
vn 0 0 -1
vn 0 -1 0
vn 0 1 0

# texcoords
vt 0.595703 0.5
vt 0.974609 0.5
vt 0.978516 0.5
vt 0.982422 0.5
vt 0.986328 0.5

# verts
v 0.1 2 -0.1
v 0.1 2 -0.4
v 0.1 2.1 -0.1
v 0.1 2.1 -0.2
v 0.1 2.1 -0.3
v 0.1 2.1 -0.4
v 0.1 2.2 -0.1
v 0.1 2.2 -0.2
v 0.1 2.2 -0.3
v 0.1 2.2 -0.4
v 0.1 2.3 -0.1
v 0.1 2.3 -0.4
v 0.4 2 -0.1
v 0.4 2 -0.4
v 0.4 2.1 -0.1
v 0.4 2.1 -0.2
v 0.4 2.1 -0.3
v 0.4 2.1 -0.4
v 0.4 2.2 -0.1
v 0.4 2.2 -0.2
v 0.4 2.2 -0.3
v 0.4 2.2 -0.4
v 0.4 2.3 -0.1
v 0.4 2.3 -0.4
v 0.1 2 -0.1
v 0.1 2.1 -0.1
v 0.1 2.2 -0.1
v 0.1 2.3 -0.1
v 0.2 2.1 -0.1
v 0.2 2.2 -0.1
v 0.2 2.3 -0.1
v 0.3 2.1 -0.1
v 0.3 2.2 -0.1
v 0.3 2.3 -0.1
v 0.4 2 -0.1
v 0.4 2.1 -0.1
v 0.4 2.2 -0.1
v 0.4 2.3 -0.1
v 0.1 2 -0.4
v 0.1 2.1 -0.4
v 0.1 2.2 -0.4
v 0.1 2.3 -0.4
v 0.4 2 -0.4
v 0.4 2.1 -0.4
v 0.4 2.2 -0.4
v 0.4 2.3 -0.4
v 0.1 2 -0.1
v 0.4 2 -0.1
v 0.1 2 -0.4
v 0.4 2 -0.4
v 0.1 2.3 -0.1
v 0.2 2.3 -0.1
v 0.3 2.3 -0.1
v 0.4 2.3 -0.1
v 0.2 2.3 -0.3
v 0.3 2.3 -0.3
v 0.1 2.3 -0.4
v 0.4 2.3 -0.4

# faces
f 3/4/1 2/4/1 1/4/1
f 4/4/1 2/4/1 3/4/1
f 5/4/1 2/4/1 4/4/1
f 6/4/1 2/4/1 5/4/1
f 7/1/1 4/1/1 3/1/1
f 8/5/1 5/5/1 4/5/1
f 8/1/1 4/1/1 7/1/1
f 9/2/1 6/2/1 5/2/1
f 9/5/1 5/5/1 8/5/1
f 10/2/1 6/2/1 9/2/1
f 11/3/1 8/3/1 7/3/1
f 11/3/1 9/3/1 8/3/1
f 11/3/1 10/3/1 9/3/1
f 12/3/1 10/3/1 11/3/1
f 13/4/2 14/4/2 15/4/2
f 15/4/2 14/4/2 16/4/2
f 16/4/2 14/4/2 17/4/2
f 17/4/2 14/4/2 18/4/2
f 15/1/2 16/1/2 19/1/2
f 16/5/2 17/5/2 20/5/2
f 19/1/2 16/1/2 20/1/2
f 17/2/2 18/2/2 21/2/2
f 20/5/2 17/5/2 21/5/2
f 21/2/2 18/2/2 22/2/2
f 19/3/2 20/3/2 23/3/2
f 20/3/2 21/3/2 23/3/2
f 21/3/2 22/3/2 23/3/2
f 23/3/2 22/3/2 24/3/2
f 29/4/3 26/4/3 25/4/3
f 29/1/3 27/1/3 26/1/3
f 30/3/3 28/3/3 27/3/3
f 30/1/3 27/1/3 29/1/3
f 31/3/3 28/3/3 30/3/3
f 32/4/3 29/4/3 25/4/3
f 32/2/3 30/2/3 29/2/3
f 32/2/3 31/2/3 30/2/3
f 33/2/3 31/2/3 32/2/3
f 34/2/3 31/2/3 33/2/3
f 35/4/3 32/4/3 25/4/3
f 36/1/3 33/1/3 32/1/3
f 36/4/3 32/4/3 35/4/3
f 37/3/3 34/3/3 33/3/3
f 37/1/3 33/1/3 36/1/3
f 38/3/3 34/3/3 37/3/3
f 39/4/4 40/4/4 43/4/4
f 40/2/4 41/2/4 44/2/4
f 43/4/4 40/4/4 44/4/4
f 41/3/4 42/3/4 45/3/4
f 44/2/4 41/2/4 45/2/4
f 45/3/4 42/3/4 46/3/4
f 49/4/5 48/4/5 47/4/5
f 50/4/5 48/4/5 49/4/5
f 51/3/6 52/3/6 55/3/6
f 52/2/6 53/2/6 55/2/6
f 53/3/6 54/3/6 56/3/6
f 55/2/6 53/2/6 56/2/6
f 51/3/6 55/3/6 57/3/6
f 55/3/6 56/3/6 57/3/6
f 56/3/6 54/3/6 58/3/6
f 57/3/6 56/3/6 58/3/6
