# MagicaVoxel @ Ephtracy

# group
o 

# material
mtllib glue_body.mtl
usemtl palette

# normals
vn -1 0 0
vn 1 0 0
vn 0 0 1
vn 0 0 -1
vn 0 -1 0
vn 0 1 0

# texcoords
vt 0.595703 0.5
vt 0.974609 0.5
vt 0.978516 0.5
vt 0.982422 0.5
vt 0.986328 0.5

# verts
v -0.1 0 0.1
v -0.1 0 0
v -0.1 0 -0.1
v -0.1 0 -0.2
v -0.1 0.1 0
v -0.1 0.1 -0.1
v -0.1 0.2 0.1
v -0.1 0.2 -0.2
v -0.1 0.3 0.1
v -0.1 0.3 -0.2
v -0.1 0.4 0.1
v -0.1 0.4 -0.2
v 0.2 0 0.1
v 0.2 0 0
v 0.2 0 -0.1
v 0.2 0 -0.2
v 0.2 0.1 0
v 0.2 0.1 -0.1
v 0.2 0.2 0.1
v 0.2 0.2 -0.2
v 0.2 0.3 0.1
v 0.2 0.3 -0.2
v 0.2 0.4 0.1
v 0.2 0.4 -0.2
v -0.1 0 0.1
v -0.1 0.2 0.1
v -0.1 0.3 0.1
v -0.1 0.4 0.1
v 0 0.1 0.1
v 0 0.2 0.1
v 0 0.3 0.1
v 0.1 0.1 0.1
v 0.1 0.2 0.1
v 0.1 0.3 0.1
v 0.2 0 0.1
v 0.2 0.2 0.1
v 0.2 0.3 0.1
v 0.2 0.4 0.1
v -0.1 0 -0.2
v -0.1 0.2 -0.2
v -0.1 0.3 -0.2
v -0.1 0.4 -0.2
v 0 0.1 -0.2
v 0 0.2 -0.2
v 0 0.3 -0.2
v 0.1 0.1 -0.2
v 0.1 0.2 -0.2
v 0.1 0.3 -0.2
v 0.2 0 -0.2
v 0.2 0.2 -0.2
v 0.2 0.3 -0.2
v 0.2 0.4 -0.2
v -0.1 0 0.1
v 0.2 0 0.1
v -0.1 0 0
v 0 0 0
v 0.1 0 0
v 0.2 0 0
v -0.1 0 -0.1
v 0 0 -0.1
v 0.1 0 -0.1
v 0.2 0 -0.1
v -0.1 0 -0.2
v 0.2 0 -0.2
v -0.1 0.4 0.1
v 0.2 0.4 0.1
v 0 0.4 0
v 0.1 0.4 0
v 0 0.4 -0.1
v 0.1 0.4 -0.1
v -0.1 0.4 -0.2
v 0.2 0.4 -0.2

# faces
f 5/4/1 2/4/1 1/4/1
f 5/5/1 3/5/1 2/5/1
f 6/4/1 4/4/1 3/4/1
f 6/5/1 3/5/1 5/5/1
f 7/4/1 5/4/1 1/4/1
f 7/4/1 6/4/1 5/4/1
f 8/4/1 4/4/1 6/4/1
f 8/4/1 6/4/1 7/4/1
f 9/3/1 8/3/1 7/3/1
f 10/3/1 8/3/1 9/3/1
f 11/2/1 10/2/1 9/2/1
f 12/2/1 10/2/1 11/2/1
f 13/4/2 14/4/2 17/4/2
f 14/5/2 15/5/2 17/5/2
f 15/4/2 16/4/2 18/4/2
f 17/5/2 15/5/2 18/5/2
f 13/4/2 17/4/2 19/4/2
f 17/4/2 18/4/2 19/4/2
f 18/4/2 16/4/2 20/4/2
f 19/4/2 18/4/2 20/4/2
f 19/3/2 20/3/2 21/3/2
f 21/3/2 20/3/2 22/3/2
f 21/2/2 22/2/2 23/2/2
f 23/2/2 22/2/2 24/2/2
f 29/4/3 26/4/3 25/4/3
f 30/3/3 27/3/3 26/3/3
f 30/4/3 26/4/3 29/4/3
f 31/2/3 28/2/3 27/2/3
f 31/3/3 27/3/3 30/3/3
f 32/1/3 30/1/3 29/1/3
f 32/4/3 29/4/3 25/4/3
f 32/1/3 31/1/3 30/1/3
f 33/1/3 31/1/3 32/1/3
f 34/2/3 28/2/3 31/2/3
f 34/1/3 31/1/3 33/1/3
f 35/4/3 33/4/3 32/4/3
f 35/4/3 32/4/3 25/4/3
f 36/3/3 34/3/3 33/3/3
f 36/4/3 33/4/3 35/4/3
f 37/2/3 28/2/3 34/2/3
f 37/3/3 34/3/3 36/3/3
f 38/2/3 28/2/3 37/2/3
f 39/4/4 40/4/4 43/4/4
f 40/3/4 41/3/4 44/3/4
f 43/4/4 40/4/4 44/4/4
f 41/2/4 42/2/4 45/2/4
f 44/3/4 41/3/4 45/3/4
f 43/5/4 44/5/4 46/5/4
f 39/4/4 43/4/4 46/4/4
f 44/5/4 45/5/4 46/5/4
f 46/5/4 45/5/4 47/5/4
f 45/2/4 42/2/4 48/2/4
f 47/5/4 45/5/4 48/5/4
f 46/4/4 47/4/4 49/4/4
f 39/4/4 46/4/4 49/4/4
f 47/3/4 48/3/4 50/3/4
f 49/4/4 47/4/4 50/4/4
f 48/2/4 42/2/4 51/2/4
f 50/3/4 48/3/4 51/3/4
f 51/2/4 42/2/4 52/2/4
f 55/4/5 54/4/5 53/4/5
f 56/4/5 54/4/5 55/4/5
f 57/4/5 54/4/5 56/4/5
f 58/4/5 54/4/5 57/4/5
f 59/5/5 56/5/5 55/5/5
f 60/4/5 57/4/5 56/4/5
f 60/5/5 56/5/5 59/5/5
f 61/5/5 58/5/5 57/5/5
f 61/4/5 57/4/5 60/4/5
f 62/5/5 58/5/5 61/5/5
f 63/4/5 60/4/5 59/4/5
f 63/4/5 61/4/5 60/4/5
f 63/4/5 62/4/5 61/4/5
f 64/4/5 62/4/5 63/4/5
f 65/2/6 66/2/6 67/2/6
f 67/2/6 66/2/6 68/2/6
f 65/2/6 67/2/6 69/2/6
f 67/5/6 68/5/6 69/5/6
f 68/2/6 66/2/6 70/2/6
f 69/5/6 68/5/6 70/5/6
f 65/2/6 69/2/6 71/2/6
f 69/2/6 70/2/6 71/2/6
f 70/2/6 66/2/6 72/2/6
f 71/2/6 70/2/6 72/2/6
