# MagicaVoxel @ Ephtracy

# group
o 

# material
mtllib glue_body.mtl
usemtl palette

# normals
vn -1 0 0
vn 1 0 0
vn 0 0 1
vn 0 0 -1
vn 0 -1 0
vn 0 1 0

# texcoords
vt 0.509766 0.5
vt 0.513672 0.5
vt 0.595703 0.5
vt 0.978516 0.5
vt 0.982422 0.5
vt 0.986328 0.5

# verts
v 0.1 0.2 -0.1
v 0.1 0.2 -0.2
v 0.1 0.2 -0.3
v 0.1 0.2 -0.4
v 0.1 0.3 -0.2
v 0.1 0.3 -0.3
v 0.1 0.5 -0.1
v 0.1 0.5 -0.4
v 0.1 0.6 -0.1
v 0.1 0.6 -0.4
v 0.4 0.2 -0.1
v 0.4 0.2 -0.2
v 0.4 0.2 -0.3
v 0.4 0.2 -0.4
v 0.4 0.3 -0.2
v 0.4 0.3 -0.3
v 0.4 0.5 -0.1
v 0.4 0.5 -0.4
v 0.4 0.6 -0.1
v 0.4 0.6 -0.4
v 0.1 0.2 -0.1
v 0.1 0.5 -0.1
v 0.1 0.6 -0.1
v 0.2 0.3 -0.1
v 0.2 0.5 -0.1
v 0.3 0.3 -0.1
v 0.3 0.5 -0.1
v 0.4 0.2 -0.1
v 0.4 0.5 -0.1
v 0.4 0.6 -0.1
v 0.1 0.2 -0.4
v 0.1 0.5 -0.4
v 0.1 0.6 -0.4
v 0.2 0.3 -0.4
v 0.2 0.5 -0.4
v 0.3 0.3 -0.4
v 0.3 0.5 -0.4
v 0.4 0.2 -0.4
v 0.4 0.5 -0.4
v 0.4 0.6 -0.4
v 0.1 0.2 -0.1
v 0.4 0.2 -0.1
v 0.1 0.2 -0.2
v 0.2 0.2 -0.2
v 0.3 0.2 -0.2
v 0.4 0.2 -0.2
v 0.1 0.2 -0.3
v 0.2 0.2 -0.3
v 0.3 0.2 -0.3
v 0.4 0.2 -0.3
v 0.1 0.2 -0.4
v 0.4 0.2 -0.4
v 0.1 0.6 -0.1
v 0.4 0.6 -0.1
v 0.2 0.6 -0.2
v 0.3 0.6 -0.2
v 0.2 0.6 -0.3
v 0.3 0.6 -0.3
v 0.1 0.6 -0.4
v 0.4 0.6 -0.4

# faces
f 5/1/1 2/1/1 1/1/1
f 5/6/1 3/6/1 2/6/1
f 6/1/1 4/1/1 3/1/1
f 6/6/1 3/6/1 5/6/1
f 7/1/1 5/1/1 1/1/1
f 7/1/1 6/1/1 5/1/1
f 8/1/1 4/1/1 6/1/1
f 8/1/1 6/1/1 7/1/1
f 9/2/1 8/2/1 7/2/1
f 10/2/1 8/2/1 9/2/1
f 11/1/2 12/1/2 15/1/2
f 12/6/2 13/6/2 15/6/2
f 13/1/2 14/1/2 16/1/2
f 15/6/2 13/6/2 16/6/2
f 11/1/2 15/1/2 17/1/2
f 15/1/2 16/1/2 17/1/2
f 16/1/2 14/1/2 18/1/2
f 17/1/2 16/1/2 18/1/2
f 17/2/2 18/2/2 19/2/2
f 19/2/2 18/2/2 20/2/2
f 24/1/3 22/1/3 21/1/3
f 25/2/3 23/2/3 22/2/3
f 25/1/3 22/1/3 24/1/3
f 26/1/3 24/1/3 21/1/3
f 26/3/3 25/3/3 24/3/3
f 27/2/3 23/2/3 25/2/3
f 27/3/3 25/3/3 26/3/3
f 28/1/3 26/1/3 21/1/3
f 28/1/3 27/1/3 26/1/3
f 29/2/3 23/2/3 27/2/3
f 29/1/3 27/1/3 28/1/3
f 30/2/3 23/2/3 29/2/3
f 31/1/4 32/1/4 34/1/4
f 32/2/4 33/2/4 35/2/4
f 34/1/4 32/1/4 35/1/4
f 31/1/4 34/1/4 36/1/4
f 34/6/4 35/6/4 36/6/4
f 35/2/4 33/2/4 37/2/4
f 36/6/4 35/6/4 37/6/4
f 31/1/4 36/1/4 38/1/4
f 36/1/4 37/1/4 38/1/4
f 37/2/4 33/2/4 39/2/4
f 38/1/4 37/1/4 39/1/4
f 39/2/4 33/2/4 40/2/4
f 43/1/5 42/1/5 41/1/5
f 44/1/5 42/1/5 43/1/5
f 45/1/5 42/1/5 44/1/5
f 46/1/5 42/1/5 45/1/5
f 47/6/5 44/6/5 43/6/5
f 48/1/5 45/1/5 44/1/5
f 48/6/5 44/6/5 47/6/5
f 49/6/5 46/6/5 45/6/5
f 49/1/5 45/1/5 48/1/5
f 50/6/5 46/6/5 49/6/5
f 51/1/5 48/1/5 47/1/5
f 51/1/5 49/1/5 48/1/5
f 51/1/5 50/1/5 49/1/5
f 52/1/5 50/1/5 51/1/5
f 53/2/6 54/2/6 55/2/6
f 55/2/6 54/2/6 56/2/6
f 53/2/6 55/2/6 57/2/6
f 55/6/6 56/6/6 57/6/6
f 56/2/6 54/2/6 58/2/6
f 57/6/6 56/6/6 58/6/6
f 53/2/6 57/2/6 59/2/6
f 57/2/6 58/2/6 59/2/6
f 58/2/6 54/2/6 60/2/6
f 59/2/6 58/2/6 60/2/6
