# This file uses centimeters as units for non-parametric coordinates.

mtllib ConveyorBelt.mtl
g default
v -0.500000 -0.125000 1.000000
v 0.500000 -0.125000 1.000000
v -0.500000 0.125000 1.000000
v 0.500000 0.125000 1.000000
v -0.500000 0.125000 -1.000000
v 0.500000 0.125000 -1.000000
v -0.500000 -0.125000 -1.000000
v 0.500000 -0.125000 -1.000000
vt 0.666667 0.500000
vt 0.666667 0.944444
vt 0.611111 0.944444
vt 0.611111 0.500000
vt 0.333333 0.944444
vt 0.333333 0.500000
vt 0.388889 0.500000
vt 0.388889 0.944444
vt 0.388889 0.000000
vt 0.611111 0.000000
vt 0.611111 0.444444
vt 0.388889 0.444444
vt 0.611111 1.000000
vt 0.388889 1.000000
vn 0.000000 0.000000 1.000000
vn 0.000000 0.000000 1.000000
vn 0.000000 0.000000 1.000000
vn 0.000000 0.000000 1.000000
vn 0.000000 1.000000 0.000000
vn 0.000000 1.000000 0.000000
vn 0.000000 1.000000 0.000000
vn 0.000000 1.000000 0.000000
vn 0.000000 0.000000 -1.000000
vn 0.000000 0.000000 -1.000000
vn 0.000000 0.000000 -1.000000
vn 0.000000 0.000000 -1.000000
vn 0.000000 -1.000000 0.000000
vn 0.000000 -1.000000 0.000000
vn 0.000000 -1.000000 0.000000
vn 0.000000 -1.000000 0.000000
vn 1.000000 0.000000 0.000000
vn 1.000000 0.000000 0.000000
vn 1.000000 0.000000 0.000000
vn 1.000000 0.000000 0.000000
vn -1.000000 0.000000 0.000000
vn -1.000000 0.000000 0.000000
vn -1.000000 0.000000 0.000000
vn -1.000000 0.000000 0.000000
s off
g pCube1
usemtl initialShadingGroup
f 1/12/1 2/11/2 4/4/3 3/7/4
f 3/7/5 4/4/6 6/3/7 5/8/8
f 5/8/9 6/3/10 8/13/11 7/14/12
f 7/9/13 8/10/14 2/11/15 1/12/16
f 2/1/17 8/2/18 6/3/19 4/4/20
f 7/5/21 1/6/22 3/7/23 5/8/24
