# This file uses centimeters as units for non-parametric coordinates.

mtllib ConveyorBelt_angle.mtl
g default
v -0.500000 0.875000 1.000000
v 0.500000 0.875000 1.000000
v -0.500000 1.125000 1.000000
v 0.500000 1.125000 1.000000
v -0.500000 0.125000 -1.000000
v 0.500000 0.125000 -1.000000
v -0.500000 -0.125000 -1.000000
v 0.500000 -0.125000 -1.000000
v 0.500000 0.125000 -0.500000
v -0.500000 0.125000 -0.500000
v -0.500000 -0.125000 -0.411895
v 0.500000 -0.125000 -0.411895
v 0.500000 1.125000 0.411896
v -0.500000 1.125000 0.411896
v -0.500000 0.875000 0.500000
v 0.500000 0.875000 0.500000
vt 0.666667 0.500000
vt 0.666667 0.944444
vt 0.611111 0.944444
vt 0.611111 0.500000
vt 0.333333 0.944444
vt 0.333333 0.500000
vt 0.388889 0.500000
vt 0.388889 0.944444
vt 0.388889 0.000000
vt 0.611111 0.000000
vt 0.611111 0.444444
vt 0.388889 0.444444
vt 0.611111 1.000000
vt 0.388889 1.000000
vt 0.611111 0.833333
vt 0.388889 0.833333
vt 0.333333 0.833333
vt 0.388889 0.111111
vt 0.611111 0.111111
vt 0.666667 0.833333
vt 0.611111 0.611111
vt 0.388889 0.611111
vt 0.333333 0.611111
vt 0.388889 0.333333
vt 0.611111 0.333333
vt 0.666667 0.611111
vn 0.000000 0.000000 1.000000
vn 0.000000 0.000000 1.000000
vn 0.000000 0.000000 1.000000
vn 0.000000 0.000000 1.000000
vn 0.000000 1.000000 0.000000
vn 0.000000 1.000000 0.000000
vn 0.000000 0.832050 -0.554700
vn 0.000000 0.832050 -0.554700
vn 0.000000 0.000000 -1.000000
vn 0.000000 0.000000 -1.000000
vn 0.000000 0.000000 -1.000000
vn 0.000000 0.000000 -1.000000
vn 0.000000 -0.816050 0.577982
vn 0.000000 -0.816050 0.577982
vn 0.000000 -1.000000 0.000000
vn 0.000000 -1.000000 0.000000
vn 1.000000 0.000000 0.000000
vn 1.000000 0.000000 0.000000
vn 1.000000 0.000000 0.000000
vn 1.000000 0.000000 0.000000
vn -1.000000 0.000000 0.000000
vn -1.000000 0.000000 0.000000
vn -1.000000 0.000000 0.000000
vn -1.000000 0.000000 0.000000
vn 0.000000 0.816050 -0.577982
vn 0.000000 0.816050 -0.577982
vn 0.000000 1.000000 0.000000
vn 0.000000 1.000000 0.000000
vn -1.000000 -0.000000 0.000000
vn -1.000000 -0.000000 0.000000
vn -1.000000 -0.000000 0.000000
vn -1.000000 -0.000000 0.000000
vn 0.000000 -1.000000 0.000000
vn 0.000000 -1.000000 0.000000
vn 0.000000 -0.832050 0.554700
vn 0.000000 -0.832050 0.554700
vn 1.000000 0.000000 0.000000
vn 1.000000 -0.000000 0.000000
vn 1.000000 -0.000000 0.000000
vn 1.000000 -0.000000 0.000000
s off
g pCube1
usemtl initialShadingGroup
f 1/12/1 2/11/2 4/4/3 3/7/4
s 1
f 3/7/5 4/4/6 13/21/7 14/22/8
s off
f 5/8/9 6/3/10 8/13/11 7/14/12
s 2
f 15/24/13 16/25/14 2/11/15 1/12/16
s 3
f 2/1/17 16/26/18 13/21/19 4/4/20
s 4
f 15/23/21 1/6/22 3/7/23 14/22/24
s 1
f 10/16/25 9/15/26 6/3/27 5/8/28
s 4
f 7/5/29 11/17/30 10/16/31 5/8/32
s 2
f 7/9/33 8/10/34 12/19/35 11/18/36
s 3
f 9/15/37 12/20/38 8/2/39 6/3/40
s 1
f 10/16/25 14/22/8 13/21/7 9/15/26
s 4
f 15/23/21 14/22/24 10/16/31 11/17/30
s 2
f 16/25/14 15/24/13 11/18/36 12/19/35
s 3
f 9/15/37 13/21/19 16/26/18 12/20/38
